<svg xmlns="http://www.w3.org/2000/svg" viewBox="0 0 1600 1050" role="img" aria-label="Concept 3D architectural render">
  <defs>
    <linearGradient id="sky-andalusian-apartment-0900" x1="0" y1="0" x2="1" y2="1">
      <stop stop-color="#0c1b2b"/>
      <stop offset="1" stop-color="#d9e3ee"/>
    </linearGradient>
    <filter id="shadow-andalusian-apartment-0900" x="-20%" y="-20%" width="140%" height="160%">
      <feDropShadow dx="0" dy="22" stdDeviation="24" flood-color="#000" flood-opacity=".28"/>
    </filter>
  </defs>
  <rect width="1600" height="1050" fill="url(#sky-andalusian-apartment-0900)"/>
  <circle cx="1290" cy="180" r="74" fill="#f0b14b" opacity=".74"/>
  <ellipse cx="820" cy="780" rx="620" ry="130" fill="#07111f" opacity=".28"/>
  <g filter="url(#shadow-andalusian-apartment-0900)"><g>
      <polygon points="820.0,90.0 970.8,168.0 841.1,235.1 690.3,157.1" fill="#b75536" stroke="#101820" stroke-width="2"/>
      <polygon points="970.8,168.0 970.8,338.0 841.1,405.1 841.1,235.1" fill="#efe4c8" stroke="#101820" stroke-width="2"/>
      <polygon points="841.1,235.1 841.1,405.1 690.3,327.1 690.3,157.1" fill="#f4ead3" stroke="#101820" stroke-width="2"/>
      <rect x="788.6" y="126.5" width="84" height="24" rx="12" fill="#ffffff" opacity=".82"/>
      <text x="830.6" y="144.5" text-anchor="middle" font-size="13" font-weight="800" fill="#102033">معيشة</text>
    </g><g>
      <polygon points="936.0,150.0 1086.8,228.0 957.1,295.1 806.3,217.1" fill="#b75536" stroke="#101820" stroke-width="2"/>
      <polygon points="1086.8,228.0 1086.8,398.0 957.1,465.1 957.1,295.1" fill="#efe4c8" stroke="#101820" stroke-width="2"/>
      <polygon points="957.1,295.1 957.1,465.1 806.3,387.1 806.3,217.1" fill="#f4ead3" stroke="#101820" stroke-width="2"/>
      <rect x="904.6" y="186.5" width="84" height="24" rx="12" fill="#ffffff" opacity=".82"/>
      <text x="946.6" y="204.5" text-anchor="middle" font-size="13" font-weight="800" fill="#102033">أربع غرف ن</text>
    </g><g>
      <polygon points="1052.0,210.0 1202.8,288.0 1073.1,355.1 922.3,277.1" fill="#b75536" stroke="#101820" stroke-width="2"/>
      <polygon points="1202.8,288.0 1202.8,458.0 1073.1,525.1 1073.1,355.1" fill="#efe4c8" stroke="#101820" stroke-width="2"/>
      <polygon points="1073.1,355.1 1073.1,525.1 922.3,447.1 922.3,277.1" fill="#f4ead3" stroke="#101820" stroke-width="2"/>
      <rect x="1020.6" y="246.5" width="84" height="24" rx="12" fill="#ffffff" opacity=".82"/>
      <text x="1062.6" y="264.5" text-anchor="middle" font-size="13" font-weight="800" fill="#102033">مجلس</text>
    </g><g>
      <polygon points="718.5,142.5 868.5,220.1 739.5,286.8 589.5,209.2" fill="#b75536" stroke="#101820" stroke-width="2"/>
      <polygon points="868.5,220.1 868.5,390.1 739.5,456.8 739.5,286.8" fill="#efe4c8" stroke="#101820" stroke-width="2"/>
      <polygon points="739.5,286.8 739.5,456.8 589.5,379.2 589.5,209.2" fill="#f4ead3" stroke="#101820" stroke-width="2"/>
      <rect x="687.0" y="178.7" width="84" height="24" rx="12" fill="#ffffff" opacity=".82"/>
      <text x="729.0" y="196.7" text-anchor="middle" font-size="13" font-weight="800" fill="#102033">مطبخ</text>
    </g><g>
      <polygon points="834.5,251.5 941.5,306.8 849.5,354.4 742.5,299.1" fill="#b75536" stroke="#101820" stroke-width="2"/>
      <polygon points="941.5,306.8 941.5,427.8 849.5,475.4 849.5,354.4" fill="#efe4c8" stroke="#101820" stroke-width="2"/>
      <polygon points="849.5,354.4 849.5,475.4 742.5,420.1 742.5,299.1" fill="#f4ead3" stroke="#101820" stroke-width="2"/>
      <rect x="800.0" y="267.0" width="84" height="24" rx="12" fill="#ffffff" opacity=".82"/>
      <text x="842.0" y="285.0" text-anchor="middle" font-size="13" font-weight="800" fill="#102033">ثلاثة حمام</text>
    </g><g>
      <polygon points="950.5,308.1 1060.1,364.7 965.8,413.5 856.2,356.8" fill="#b75536" stroke="#101820" stroke-width="2"/>
      <polygon points="1060.1,364.7 1060.1,489.2 965.8,538.0 965.8,413.5" fill="#efe4c8" stroke="#101820" stroke-width="2"/>
      <polygon points="965.8,413.5 965.8,538.0 856.2,481.3 856.2,356.8" fill="#f4ead3" stroke="#101820" stroke-width="2"/>
      <rect x="916.2" y="324.8" width="84" height="24" rx="12" fill="#ffffff" opacity=".82"/>
      <text x="958.2" y="342.8" text-anchor="middle" font-size="13" font-weight="800" fill="#102033">غسيل</text>
    </g><g>
      <polygon points="617.0,196.9 755.8,268.6 636.4,330.4 497.6,258.6" fill="#b75536" stroke="#101820" stroke-width="2"/>
      <polygon points="755.8,268.6 755.8,436.8 636.4,498.5 636.4,330.4" fill="#efe4c8" stroke="#101820" stroke-width="2"/>
      <polygon points="636.4,330.4 636.4,498.5 497.6,426.7 497.6,258.6" fill="#f4ead3" stroke="#101820" stroke-width="2"/>
      <rect x="584.7" y="227.6" width="84" height="24" rx="12" fill="#ffffff" opacity=".82"/>
      <text x="626.7" y="245.6" text-anchor="middle" font-size="13" font-weight="800" fill="#102033">شرفة</text>
    </g></g>
  <path d="M 520 548 q 32 -70 64 0" fill="none" stroke="#214d5d" stroke-width="10"/><path d="M 612 548 q 32 -70 64 0" fill="none" stroke="#214d5d" stroke-width="10"/><path d="M 704 548 q 32 -70 64 0" fill="none" stroke="#214d5d" stroke-width="10"/><path d="M 796 548 q 32 -70 64 0" fill="none" stroke="#214d5d" stroke-width="10"/><path d="M 888 548 q 32 -70 64 0" fill="none" stroke="#214d5d" stroke-width="10"/>
  <path d="M330 790 C520 690 1090 680 1280 792" fill="none" stroke="#214d5d" stroke-width="8" opacity=".75"/>
  <text x="1490" y="96" text-anchor="end" font-size="44" font-weight="900" fill="#eef5fb">تصور 3D مبدئي - شقة أندلسي</text>
  <text x="1490" y="142" text-anchor="end" font-size="25" fill="#d9e3ee">مبني على قالب 2D: andalusian-apartment-0900 | 900-999 م²</text>
  <rect x="70" y="960" width="1460" height="52" rx="8" fill="#07111f" opacity=".78"/>
  <text x="1490" y="994" text-anchor="end" font-size="22" fill="#ffffff">kamel3lom | رندر تخيلي غير معتمد هندسيًا أو إنشائيًا</text>
  <text x="110" y="994" font-size="22" fill="#f0b14b">قوس مركزي، فناء مائي، وتدرج بين الضيافة والمعيشة.</text>
</svg>