<svg xmlns="http://www.w3.org/2000/svg" viewBox="0 0 1600 1050" role="img" aria-label="Concept 3D architectural render">
  <defs>
    <linearGradient id="sky-andalusian-townhouse-0900" x1="0" y1="0" x2="1" y2="1">
      <stop stop-color="#0c1b2b"/>
      <stop offset="1" stop-color="#d9e3ee"/>
    </linearGradient>
    <filter id="shadow-andalusian-townhouse-0900" x="-20%" y="-20%" width="140%" height="160%">
      <feDropShadow dx="0" dy="22" stdDeviation="24" flood-color="#000" flood-opacity=".28"/>
    </filter>
  </defs>
  <rect width="1600" height="1050" fill="url(#sky-andalusian-townhouse-0900)"/>
  <circle cx="1290" cy="180" r="74" fill="#f0b14b" opacity=".74"/>
  <ellipse cx="820" cy="780" rx="620" ry="130" fill="#07111f" opacity=".28"/>
  <g filter="url(#shadow-andalusian-townhouse-0900)"><g>
      <polygon points="820.0,90.0 970.8,168.0 841.1,235.1 690.3,157.1" fill="#b75536" stroke="#101820" stroke-width="2"/>
      <polygon points="970.8,168.0 970.8,338.0 841.1,405.1 841.1,235.1" fill="#efe4c8" stroke="#101820" stroke-width="2"/>
      <polygon points="841.1,235.1 841.1,405.1 690.3,327.1 690.3,157.1" fill="#f4ead3" stroke="#101820" stroke-width="2"/>
      <rect x="788.6" y="126.5" width="84" height="24" rx="12" fill="#ffffff" opacity=".82"/>
      <text x="830.6" y="144.5" text-anchor="middle" font-size="13" font-weight="800" fill="#102033">معيشة</text>
    </g><g>
      <polygon points="936.0,150.0 1086.8,228.0 957.1,295.1 806.3,217.1" fill="#b75536" stroke="#101820" stroke-width="2"/>
      <polygon points="1086.8,228.0 1086.8,398.0 957.1,465.1 957.1,295.1" fill="#efe4c8" stroke="#101820" stroke-width="2"/>
      <polygon points="957.1,295.1 957.1,465.1 806.3,387.1 806.3,217.1" fill="#f4ead3" stroke="#101820" stroke-width="2"/>
      <rect x="904.6" y="186.5" width="84" height="24" rx="12" fill="#ffffff" opacity=".82"/>
      <text x="946.6" y="204.5" text-anchor="middle" font-size="13" font-weight="800" fill="#102033">مجلس</text>
    </g><g>
      <polygon points="1052.0,219.9 1185.9,289.2 1070.7,348.7 936.9,279.5" fill="#b75536" stroke="#101820" stroke-width="2"/>
      <polygon points="1185.9,289.2 1185.9,449.3 1070.7,508.8 1070.7,348.7" fill="#efe4c8" stroke="#101820" stroke-width="2"/>
      <polygon points="1070.7,348.7 1070.7,508.8 936.9,439.6 936.9,279.5" fill="#f4ead3" stroke="#101820" stroke-width="2"/>
      <rect x="1019.4" y="248.3" width="84" height="24" rx="12" fill="#ffffff" opacity=".82"/>
      <text x="1061.4" y="266.3" text-anchor="middle" font-size="13" font-weight="800" fill="#102033">طعام</text>
    </g><g>
      <polygon points="1168.0,276.4 1304.0,346.8 1187.0,407.3 1051.0,337.0" fill="#b75536" stroke="#101820" stroke-width="2"/>
      <polygon points="1304.0,346.8 1304.0,510.3 1187.0,570.8 1187.0,407.3" fill="#efe4c8" stroke="#101820" stroke-width="2"/>
      <polygon points="1187.0,407.3 1187.0,570.8 1051.0,500.5 1051.0,337.0" fill="#f4ead3" stroke="#101820" stroke-width="2"/>
      <rect x="1135.5" y="305.9" width="84" height="24" rx="12" fill="#ffffff" opacity=".82"/>
      <text x="1177.5" y="323.9" text-anchor="middle" font-size="13" font-weight="800" fill="#102033">مطبخ</text>
    </g><g>
      <polygon points="718.5,142.5 867.9,219.8 739.4,286.2 590.0,208.9" fill="#b75536" stroke="#101820" stroke-width="2"/>
      <polygon points="867.9,219.8 867.9,389.8 739.4,456.2 739.4,286.2" fill="#efe4c8" stroke="#101820" stroke-width="2"/>
      <polygon points="739.4,286.2 739.4,456.2 590.0,378.9 590.0,208.9" fill="#f4ead3" stroke="#101820" stroke-width="2"/>
      <rect x="687.0" y="178.4" width="84" height="24" rx="12" fill="#ffffff" opacity=".82"/>
      <text x="729.0" y="196.4" text-anchor="middle" font-size="13" font-weight="800" fill="#102033">أربع غرف ن</text>
    </g><g>
      <polygon points="834.5,202.5 985.3,280.5 855.6,347.6 704.8,269.6" fill="#b75536" stroke="#101820" stroke-width="2"/>
      <polygon points="985.3,280.5 985.3,450.5 855.6,517.6 855.6,347.6" fill="#efe4c8" stroke="#101820" stroke-width="2"/>
      <polygon points="855.6,347.6 855.6,517.6 704.8,439.6 704.8,269.6" fill="#f4ead3" stroke="#101820" stroke-width="2"/>
      <rect x="803.1" y="239.0" width="84" height="24" rx="12" fill="#ffffff" opacity=".82"/>
      <text x="845.1" y="257.0" text-anchor="middle" font-size="13" font-weight="800" fill="#102033">جناح</text>
    </g><g>
      <polygon points="950.5,317.2 1052.9,370.2 964.8,415.8 862.4,362.8" fill="#b75536" stroke="#101820" stroke-width="2"/>
      <polygon points="1052.9,370.2 1052.9,485.5 964.8,531.0 964.8,415.8" fill="#efe4c8" stroke="#101820" stroke-width="2"/>
      <polygon points="964.8,415.8 964.8,531.0 862.4,478.1 862.4,362.8" fill="#f4ead3" stroke="#101820" stroke-width="2"/>
      <rect x="915.7" y="330.5" width="84" height="24" rx="12" fill="#ffffff" opacity=".82"/>
      <text x="957.7" y="348.5" text-anchor="middle" font-size="13" font-weight="800" fill="#102033">خدمات</text>
    </g><g>
      <polygon points="1066.5,350.8 1188.5,413.9 1083.6,468.1 961.6,405.1" fill="#b75536" stroke="#101820" stroke-width="2"/>
      <polygon points="1188.5,413.9 1188.5,555.6 1083.6,609.8 1083.6,468.1" fill="#efe4c8" stroke="#101820" stroke-width="2"/>
      <polygon points="1083.6,468.1 1083.6,609.8 961.6,546.8 961.6,405.1" fill="#f4ead3" stroke="#101820" stroke-width="2"/>
      <rect x="1033.0" y="373.5" width="84" height="24" rx="12" fill="#ffffff" opacity=".82"/>
      <text x="1075.0" y="391.5" text-anchor="middle" font-size="13" font-weight="800" fill="#102033">تراس</text>
    </g></g>
  <path d="M 520 548 q 32 -70 64 0" fill="none" stroke="#214d5d" stroke-width="10"/><path d="M 612 548 q 32 -70 64 0" fill="none" stroke="#214d5d" stroke-width="10"/><path d="M 704 548 q 32 -70 64 0" fill="none" stroke="#214d5d" stroke-width="10"/><path d="M 796 548 q 32 -70 64 0" fill="none" stroke="#214d5d" stroke-width="10"/><path d="M 888 548 q 32 -70 64 0" fill="none" stroke="#214d5d" stroke-width="10"/>
  <path d="M330 790 C520 690 1090 680 1280 792" fill="none" stroke="#214d5d" stroke-width="8" opacity=".75"/>
  <text x="1490" y="96" text-anchor="end" font-size="44" font-weight="900" fill="#eef5fb">تصور 3D مبدئي - تاون هاوس أندلسي</text>
  <text x="1490" y="142" text-anchor="end" font-size="25" fill="#d9e3ee">مبني على قالب 2D: andalusian-townhouse-0900 | 900-999 م²</text>
  <rect x="70" y="960" width="1460" height="52" rx="8" fill="#07111f" opacity=".78"/>
  <text x="1490" y="994" text-anchor="end" font-size="22" fill="#ffffff">kamel3lom | رندر تخيلي غير معتمد هندسيًا أو إنشائيًا</text>
  <text x="110" y="994" font-size="22" fill="#f0b14b">قوس مركزي، فناء مائي، وتدرج بين الضيافة والمعيشة.</text>
</svg>