<svg xmlns="http://www.w3.org/2000/svg" viewBox="0 0 1600 1050" role="img" aria-label="Concept 3D architectural render">
  <defs>
    <linearGradient id="sky-andalusian-villa-1300" x1="0" y1="0" x2="1" y2="1">
      <stop stop-color="#0c1b2b"/>
      <stop offset="1" stop-color="#d9e3ee"/>
    </linearGradient>
    <filter id="shadow-andalusian-villa-1300" x="-20%" y="-20%" width="140%" height="160%">
      <feDropShadow dx="0" dy="22" stdDeviation="24" flood-color="#000" flood-opacity=".28"/>
    </filter>
  </defs>
  <rect width="1600" height="1050" fill="url(#sky-andalusian-villa-1300)"/>
  <circle cx="1290" cy="180" r="74" fill="#f0b14b" opacity=".74"/>
  <ellipse cx="820" cy="780" rx="620" ry="130" fill="#07111f" opacity=".28"/>
  <g filter="url(#shadow-andalusian-villa-1300)"><g>
      <polygon points="820.0,90.0 970.8,168.0 841.1,235.1 690.3,157.1" fill="#b75536" stroke="#101820" stroke-width="2"/>
      <polygon points="970.8,168.0 970.8,338.0 841.1,405.1 841.1,235.1" fill="#efe4c8" stroke="#101820" stroke-width="2"/>
      <polygon points="841.1,235.1 841.1,405.1 690.3,327.1 690.3,157.1" fill="#f4ead3" stroke="#101820" stroke-width="2"/>
      <rect x="788.6" y="126.5" width="84" height="24" rx="12" fill="#ffffff" opacity=".82"/>
      <text x="830.6" y="144.5" text-anchor="middle" font-size="13" font-weight="800" fill="#102033">مجلس</text>
    </g><g>
      <polygon points="936.0,150.0 1086.8,228.0 957.1,295.1 806.3,217.1" fill="#b75536" stroke="#101820" stroke-width="2"/>
      <polygon points="1086.8,228.0 1086.8,398.0 957.1,465.1 957.1,295.1" fill="#efe4c8" stroke="#101820" stroke-width="2"/>
      <polygon points="957.1,295.1 957.1,465.1 806.3,387.1 806.3,217.1" fill="#f4ead3" stroke="#101820" stroke-width="2"/>
      <rect x="904.6" y="186.5" width="84" height="24" rx="12" fill="#ffffff" opacity=".82"/>
      <text x="946.6" y="204.5" text-anchor="middle" font-size="13" font-weight="800" fill="#102033">صالة استقب</text>
    </g><g>
      <polygon points="1052.0,210.0 1202.8,288.0 1073.1,355.1 922.3,277.1" fill="#b75536" stroke="#101820" stroke-width="2"/>
      <polygon points="1202.8,288.0 1202.8,458.0 1073.1,525.1 1073.1,355.1" fill="#efe4c8" stroke="#101820" stroke-width="2"/>
      <polygon points="1073.1,355.1 1073.1,525.1 922.3,447.1 922.3,277.1" fill="#f4ead3" stroke="#101820" stroke-width="2"/>
      <rect x="1020.6" y="246.5" width="84" height="24" rx="12" fill="#ffffff" opacity=".82"/>
      <text x="1062.6" y="264.5" text-anchor="middle" font-size="13" font-weight="800" fill="#102033">صالة عائلي</text>
    </g><g>
      <polygon points="1168.0,270.0 1318.8,348.0 1189.1,415.1 1038.3,337.1" fill="#b75536" stroke="#101820" stroke-width="2"/>
      <polygon points="1318.8,348.0 1318.8,518.0 1189.1,585.1 1189.1,415.1" fill="#efe4c8" stroke="#101820" stroke-width="2"/>
      <polygon points="1189.1,415.1 1189.1,585.1 1038.3,507.1 1038.3,337.1" fill="#f4ead3" stroke="#101820" stroke-width="2"/>
      <rect x="1136.6" y="306.5" width="84" height="24" rx="12" fill="#ffffff" opacity=".82"/>
      <text x="1178.6" y="324.5" text-anchor="middle" font-size="13" font-weight="800" fill="#102033">خمس غرف نو</text>
    </g><g>
      <polygon points="718.5,142.5 869.3,220.5 739.6,287.6 588.8,209.6" fill="#b75536" stroke="#101820" stroke-width="2"/>
      <polygon points="869.3,220.5 869.3,390.5 739.6,457.6 739.6,287.6" fill="#efe4c8" stroke="#101820" stroke-width="2"/>
      <polygon points="739.6,287.6 739.6,457.6 588.8,379.6 588.8,209.6" fill="#f4ead3" stroke="#101820" stroke-width="2"/>
      <rect x="687.1" y="179.0" width="84" height="24" rx="12" fill="#ffffff" opacity=".82"/>
      <text x="729.1" y="197.0" text-anchor="middle" font-size="13" font-weight="800" fill="#102033">جناحان</text>
    </g><g>
      <polygon points="834.5,202.5 983.2,279.4 855.3,345.6 706.6,268.7" fill="#b75536" stroke="#101820" stroke-width="2"/>
      <polygon points="983.2,279.4 983.2,449.4 855.3,515.6 855.3,345.6" fill="#efe4c8" stroke="#101820" stroke-width="2"/>
      <polygon points="855.3,345.6 855.3,515.6 706.6,438.7 706.6,268.7" fill="#f4ead3" stroke="#101820" stroke-width="2"/>
      <rect x="802.9" y="238.0" width="84" height="24" rx="12" fill="#ffffff" opacity=".82"/>
      <text x="844.9" y="256.0" text-anchor="middle" font-size="13" font-weight="800" fill="#102033">طعام</text>
    </g><g>
      <polygon points="950.5,262.5 1101.1,340.4 971.6,407.4 820.9,329.5" fill="#b75536" stroke="#101820" stroke-width="2"/>
      <polygon points="1101.1,340.4 1101.1,510.4 971.6,577.4 971.6,407.4" fill="#efe4c8" stroke="#101820" stroke-width="2"/>
      <polygon points="971.6,407.4 971.6,577.4 820.9,499.5 820.9,329.5" fill="#f4ead3" stroke="#101820" stroke-width="2"/>
      <rect x="919.0" y="299.0" width="84" height="24" rx="12" fill="#ffffff" opacity=".82"/>
      <text x="961.0" y="317.0" text-anchor="middle" font-size="13" font-weight="800" fill="#102033">مطبخ</text>
    </g><g>
      <polygon points="1066.5,370.4 1174.4,426.1 1081.6,474.1 973.7,418.3" fill="#b75536" stroke="#101820" stroke-width="2"/>
      <polygon points="1174.4,426.1 1174.4,548.3 1081.6,596.3 1081.6,474.1" fill="#efe4c8" stroke="#101820" stroke-width="2"/>
      <polygon points="1081.6,474.1 1081.6,596.3 973.7,540.5 973.7,418.3" fill="#f4ead3" stroke="#101820" stroke-width="2"/>
      <rect x="1032.0" y="386.2" width="84" height="24" rx="12" fill="#ffffff" opacity=".82"/>
      <text x="1074.0" y="404.2" text-anchor="middle" font-size="13" font-weight="800" fill="#102033">خدمات</text>
    </g><g>
      <polygon points="617.0,200.3 753.7,271.0 636.1,331.8 499.4,261.1" fill="#b75536" stroke="#101820" stroke-width="2"/>
      <polygon points="753.7,271.0 753.7,435.7 636.1,496.5 636.1,331.8" fill="#efe4c8" stroke="#101820" stroke-width="2"/>
      <polygon points="636.1,331.8 636.1,496.5 499.4,425.8 499.4,261.1" fill="#f4ead3" stroke="#101820" stroke-width="2"/>
      <rect x="584.6" y="230.1" width="84" height="24" rx="12" fill="#ffffff" opacity=".82"/>
      <text x="626.6" y="248.1" text-anchor="middle" font-size="13" font-weight="800" fill="#102033">فناء</text>
    </g></g>
  <path d="M 520 548 q 32 -70 64 0" fill="none" stroke="#214d5d" stroke-width="10"/><path d="M 612 548 q 32 -70 64 0" fill="none" stroke="#214d5d" stroke-width="10"/><path d="M 704 548 q 32 -70 64 0" fill="none" stroke="#214d5d" stroke-width="10"/><path d="M 796 548 q 32 -70 64 0" fill="none" stroke="#214d5d" stroke-width="10"/><path d="M 888 548 q 32 -70 64 0" fill="none" stroke="#214d5d" stroke-width="10"/>
  <path d="M330 790 C520 690 1090 680 1280 792" fill="none" stroke="#214d5d" stroke-width="8" opacity=".75"/>
  <text x="1490" y="96" text-anchor="end" font-size="44" font-weight="900" fill="#eef5fb">تصور 3D مبدئي - فيلا أندلسي</text>
  <text x="1490" y="142" text-anchor="end" font-size="25" fill="#d9e3ee">مبني على قالب 2D: andalusian-villa-1300 | 1300-1399 م²</text>
  <rect x="70" y="960" width="1460" height="52" rx="8" fill="#07111f" opacity=".78"/>
  <text x="1490" y="994" text-anchor="end" font-size="22" fill="#ffffff">kamel3lom | رندر تخيلي غير معتمد هندسيًا أو إنشائيًا</text>
  <text x="110" y="994" font-size="22" fill="#f0b14b">قوس مركزي، فناء مائي، وتدرج بين الضيافة والمعيشة.</text>
</svg>