<svg xmlns="http://www.w3.org/2000/svg" viewBox="0 0 1600 1050" role="img" aria-label="Concept 3D architectural render">
  <defs>
    <linearGradient id="sky-andalusian-townhouse-0200" x1="0" y1="0" x2="1" y2="1">
      <stop stop-color="#0c1b2b"/>
      <stop offset="1" stop-color="#d9e3ee"/>
    </linearGradient>
    <filter id="shadow-andalusian-townhouse-0200" x="-20%" y="-20%" width="140%" height="160%">
      <feDropShadow dx="0" dy="22" stdDeviation="24" flood-color="#000" flood-opacity=".28"/>
    </filter>
  </defs>
  <rect width="1600" height="1050" fill="url(#sky-andalusian-townhouse-0200)"/>
  <circle cx="1290" cy="180" r="74" fill="#f0b14b" opacity=".74"/>
  <ellipse cx="820" cy="780" rx="620" ry="130" fill="#07111f" opacity=".28"/>
  <g filter="url(#shadow-andalusian-townhouse-0200)"><g>
      <polygon points="820.0,147.1 920.5,199.1 834.1,243.8 733.5,191.8" fill="#b75536" stroke="#101820" stroke-width="2"/>
      <polygon points="920.5,199.1 920.5,312.0 834.1,356.7 834.1,243.8" fill="#efe4c8" stroke="#101820" stroke-width="2"/>
      <polygon points="834.1,243.8 834.1,356.7 733.5,304.7 733.5,191.8" fill="#f4ead3" stroke="#101820" stroke-width="2"/>
      <rect x="785.0" y="159.4" width="84" height="24" rx="12" fill="#ffffff" opacity=".82"/>
      <text x="827.0" y="177.4" text-anchor="middle" font-size="13" font-weight="800" fill="#102033">معيشة</text>
    </g><g>
      <polygon points="936.0,232.3 1012.9,272.1 946.8,306.3 869.9,266.6" fill="#b75536" stroke="#101820" stroke-width="2"/>
      <polygon points="1012.9,272.1 1012.9,359.8 946.8,394.0 946.8,306.3" fill="#efe4c8" stroke="#101820" stroke-width="2"/>
      <polygon points="946.8,306.3 946.8,394.0 869.9,354.2 869.9,266.6" fill="#f4ead3" stroke="#101820" stroke-width="2"/>
      <rect x="899.4" y="233.3" width="84" height="24" rx="12" fill="#ffffff" opacity=".82"/>
      <text x="941.4" y="251.3" text-anchor="middle" font-size="13" font-weight="800" fill="#102033">طعام</text>
    </g><g>
      <polygon points="1052.0,291.2 1130.1,331.6 1062.9,366.4 984.8,325.9" fill="#b75536" stroke="#101820" stroke-width="2"/>
      <polygon points="1130.1,331.6 1130.1,420.4 1062.9,455.2 1062.9,366.4" fill="#efe4c8" stroke="#101820" stroke-width="2"/>
      <polygon points="1062.9,366.4 1062.9,455.2 984.8,414.7 984.8,325.9" fill="#f4ead3" stroke="#101820" stroke-width="2"/>
      <rect x="1015.5" y="292.8" width="84" height="24" rx="12" fill="#ffffff" opacity=".82"/>
      <text x="1057.5" y="310.8" text-anchor="middle" font-size="13" font-weight="800" fill="#102033">مطبخ</text>
    </g><g>
      <polygon points="718.5,215.7 804.7,260.3 730.6,298.6 644.3,254.0" fill="#b75536" stroke="#101820" stroke-width="2"/>
      <polygon points="804.7,260.3 804.7,357.1 730.6,395.5 730.6,298.6" fill="#efe4c8" stroke="#101820" stroke-width="2"/>
      <polygon points="730.6,298.6 730.6,395.5 644.3,350.9 644.3,254.0" fill="#f4ead3" stroke="#101820" stroke-width="2"/>
      <rect x="682.5" y="221.1" width="84" height="24" rx="12" fill="#ffffff" opacity=".82"/>
      <text x="724.5" y="239.1" text-anchor="middle" font-size="13" font-weight="800" fill="#102033">ثلاث غرف ن</text>
    </g><g>
      <polygon points="834.5,300.9 898.3,333.9 843.4,362.3 779.6,329.3" fill="#b75536" stroke="#101820" stroke-width="2"/>
      <polygon points="898.3,333.9 898.3,405.5 843.4,433.9 843.4,362.3" fill="#efe4c8" stroke="#101820" stroke-width="2"/>
      <polygon points="843.4,362.3 843.4,433.9 779.6,400.9 779.6,329.3" fill="#f4ead3" stroke="#101820" stroke-width="2"/>
      <rect x="797.0" y="295.6" width="84" height="24" rx="12" fill="#ffffff" opacity=".82"/>
      <text x="839.0" y="313.6" text-anchor="middle" font-size="13" font-weight="800" fill="#102033">حمامان</text>
    </g><g>
      <polygon points="950.5,349.4 1022.3,386.6 960.5,418.5 888.8,381.4" fill="#b75536" stroke="#101820" stroke-width="2"/>
      <polygon points="1022.3,386.6 1022.3,469.6 960.5,501.5 960.5,418.5" fill="#efe4c8" stroke="#101820" stroke-width="2"/>
      <polygon points="960.5,418.5 960.5,501.5 888.8,464.4 888.8,381.4" fill="#f4ead3" stroke="#101820" stroke-width="2"/>
      <rect x="913.5" y="348.0" width="84" height="24" rx="12" fill="#ffffff" opacity=".82"/>
      <text x="955.5" y="366.0" text-anchor="middle" font-size="13" font-weight="800" fill="#102033">تراس</text>
    </g></g>
  <path d="M 520 548 q 32 -70 64 0" fill="none" stroke="#214d5d" stroke-width="10"/><path d="M 612 548 q 32 -70 64 0" fill="none" stroke="#214d5d" stroke-width="10"/><path d="M 704 548 q 32 -70 64 0" fill="none" stroke="#214d5d" stroke-width="10"/><path d="M 796 548 q 32 -70 64 0" fill="none" stroke="#214d5d" stroke-width="10"/><path d="M 888 548 q 32 -70 64 0" fill="none" stroke="#214d5d" stroke-width="10"/>
  <path d="M330 790 C520 690 1090 680 1280 792" fill="none" stroke="#214d5d" stroke-width="8" opacity=".75"/>
  <text x="1490" y="96" text-anchor="end" font-size="44" font-weight="900" fill="#eef5fb">تصور 3D مبدئي - تاون هاوس أندلسي</text>
  <text x="1490" y="142" text-anchor="end" font-size="25" fill="#d9e3ee">مبني على قالب 2D: andalusian-townhouse-0200 | 200-299 م²</text>
  <rect x="70" y="960" width="1460" height="52" rx="8" fill="#07111f" opacity=".78"/>
  <text x="1490" y="994" text-anchor="end" font-size="22" fill="#ffffff">kamel3lom | رندر تخيلي غير معتمد هندسيًا أو إنشائيًا</text>
  <text x="110" y="994" font-size="22" fill="#f0b14b">قوس مركزي، فناء مائي، وتدرج بين الضيافة والمعيشة.</text>
</svg>