<svg xmlns="http://www.w3.org/2000/svg" viewBox="0 0 1600 1050" role="img" aria-label="Concept 3D architectural render">
  <defs>
    <linearGradient id="sky-andalusian-studio-0900" x1="0" y1="0" x2="1" y2="1">
      <stop stop-color="#0c1b2b"/>
      <stop offset="1" stop-color="#d9e3ee"/>
    </linearGradient>
    <filter id="shadow-andalusian-studio-0900" x="-20%" y="-20%" width="140%" height="160%">
      <feDropShadow dx="0" dy="22" stdDeviation="24" flood-color="#000" flood-opacity=".28"/>
    </filter>
  </defs>
  <rect width="1600" height="1050" fill="url(#sky-andalusian-studio-0900)"/>
  <circle cx="1290" cy="180" r="74" fill="#f0b14b" opacity=".74"/>
  <ellipse cx="820" cy="780" rx="620" ry="130" fill="#07111f" opacity=".28"/>
  <g filter="url(#shadow-andalusian-studio-0900)"><g>
      <polygon points="820.0,90.0 970.8,168.0 841.1,235.1 690.3,157.1" fill="#b75536" stroke="#101820" stroke-width="2"/>
      <polygon points="970.8,168.0 970.8,338.0 841.1,405.1 841.1,235.1" fill="#efe4c8" stroke="#101820" stroke-width="2"/>
      <polygon points="841.1,235.1 841.1,405.1 690.3,327.1 690.3,157.1" fill="#f4ead3" stroke="#101820" stroke-width="2"/>
      <rect x="788.6" y="126.5" width="84" height="24" rx="12" fill="#ffffff" opacity=".82"/>
      <text x="830.6" y="144.5" text-anchor="middle" font-size="13" font-weight="800" fill="#102033">جناح نوم</text>
    </g><g>
      <polygon points="936.0,150.0 1086.8,228.0 957.1,295.1 806.3,217.1" fill="#b75536" stroke="#101820" stroke-width="2"/>
      <polygon points="1086.8,228.0 1086.8,398.0 957.1,465.1 957.1,295.1" fill="#efe4c8" stroke="#101820" stroke-width="2"/>
      <polygon points="957.1,295.1 957.1,465.1 806.3,387.1 806.3,217.1" fill="#f4ead3" stroke="#101820" stroke-width="2"/>
      <rect x="904.6" y="186.5" width="84" height="24" rx="12" fill="#ffffff" opacity=".82"/>
      <text x="946.6" y="204.5" text-anchor="middle" font-size="13" font-weight="800" fill="#102033">معيشة</text>
    </g><g>
      <polygon points="1052.0,210.0 1202.8,288.0 1073.1,355.1 922.3,277.1" fill="#b75536" stroke="#101820" stroke-width="2"/>
      <polygon points="1202.8,288.0 1202.8,458.0 1073.1,525.1 1073.1,355.1" fill="#efe4c8" stroke="#101820" stroke-width="2"/>
      <polygon points="1073.1,355.1 1073.1,525.1 922.3,447.1 922.3,277.1" fill="#f4ead3" stroke="#101820" stroke-width="2"/>
      <rect x="1020.6" y="246.5" width="84" height="24" rx="12" fill="#ffffff" opacity=".82"/>
      <text x="1062.6" y="264.5" text-anchor="middle" font-size="13" font-weight="800" fill="#102033">مكتب</text>
    </g><g>
      <polygon points="718.5,142.5 869.3,220.5 739.6,287.6 588.8,209.6" fill="#b75536" stroke="#101820" stroke-width="2"/>
      <polygon points="869.3,220.5 869.3,390.5 739.6,457.6 739.6,287.6" fill="#efe4c8" stroke="#101820" stroke-width="2"/>
      <polygon points="739.6,287.6 739.6,457.6 588.8,379.6 588.8,209.6" fill="#f4ead3" stroke="#101820" stroke-width="2"/>
      <rect x="687.1" y="179.0" width="84" height="24" rx="12" fill="#ffffff" opacity=".82"/>
      <text x="729.1" y="197.0" text-anchor="middle" font-size="13" font-weight="800" fill="#102033">مطبخ</text>
    </g><g>
      <polygon points="834.5,241.2 949.2,300.5 850.6,351.5 735.8,292.2" fill="#b75536" stroke="#101820" stroke-width="2"/>
      <polygon points="949.2,300.5 949.2,431.8 850.6,482.9 850.6,351.5" fill="#efe4c8" stroke="#101820" stroke-width="2"/>
      <polygon points="850.6,351.5 850.6,482.9 735.8,423.5 735.8,292.2" fill="#f4ead3" stroke="#101820" stroke-width="2"/>
      <rect x="800.5" y="260.3" width="84" height="24" rx="12" fill="#ffffff" opacity=".82"/>
      <text x="842.5" y="278.3" text-anchor="middle" font-size="13" font-weight="800" fill="#102033">حمامين</text>
    </g><g>
      <polygon points="950.5,262.5 1096.6,338.1 971.0,403.1 824.8,327.5" fill="#b75536" stroke="#101820" stroke-width="2"/>
      <polygon points="1096.6,338.1 1096.6,508.1 971.0,573.1 971.0,403.1" fill="#efe4c8" stroke="#101820" stroke-width="2"/>
      <polygon points="971.0,403.1 971.0,573.1 824.8,497.5 824.8,327.5" fill="#f4ead3" stroke="#101820" stroke-width="2"/>
      <rect x="918.7" y="296.8" width="84" height="24" rx="12" fill="#ffffff" opacity=".82"/>
      <text x="960.7" y="314.8" text-anchor="middle" font-size="13" font-weight="800" fill="#102033">تراس</text>
    </g></g>
  <path d="M 520 548 q 32 -70 64 0" fill="none" stroke="#214d5d" stroke-width="10"/><path d="M 612 548 q 32 -70 64 0" fill="none" stroke="#214d5d" stroke-width="10"/><path d="M 704 548 q 32 -70 64 0" fill="none" stroke="#214d5d" stroke-width="10"/><path d="M 796 548 q 32 -70 64 0" fill="none" stroke="#214d5d" stroke-width="10"/><path d="M 888 548 q 32 -70 64 0" fill="none" stroke="#214d5d" stroke-width="10"/>
  <path d="M330 790 C520 690 1090 680 1280 792" fill="none" stroke="#214d5d" stroke-width="8" opacity=".75"/>
  <text x="1490" y="96" text-anchor="end" font-size="44" font-weight="900" fill="#eef5fb">تصور 3D مبدئي - استوديو أندلسي</text>
  <text x="1490" y="142" text-anchor="end" font-size="25" fill="#d9e3ee">مبني على قالب 2D: andalusian-studio-0900 | 900-999 م²</text>
  <rect x="70" y="960" width="1460" height="52" rx="8" fill="#07111f" opacity=".78"/>
  <text x="1490" y="994" text-anchor="end" font-size="22" fill="#ffffff">kamel3lom | رندر تخيلي غير معتمد هندسيًا أو إنشائيًا</text>
  <text x="110" y="994" font-size="22" fill="#f0b14b">قوس مركزي، فناء مائي، وتدرج بين الضيافة والمعيشة.</text>
</svg>