<svg xmlns="http://www.w3.org/2000/svg" viewBox="0 0 1600 1050" role="img" aria-label="Concept 3D architectural render">
  <defs>
    <linearGradient id="sky-andalusian-apartment-0100" x1="0" y1="0" x2="1" y2="1">
      <stop stop-color="#0c1b2b"/>
      <stop offset="1" stop-color="#d9e3ee"/>
    </linearGradient>
    <filter id="shadow-andalusian-apartment-0100" x="-20%" y="-20%" width="140%" height="160%">
      <feDropShadow dx="0" dy="22" stdDeviation="24" flood-color="#000" flood-opacity=".28"/>
    </filter>
  </defs>
  <rect width="1600" height="1050" fill="url(#sky-andalusian-apartment-0100)"/>
  <circle cx="1290" cy="180" r="74" fill="#f0b14b" opacity=".74"/>
  <ellipse cx="820" cy="780" rx="620" ry="130" fill="#07111f" opacity=".28"/>
  <g filter="url(#shadow-andalusian-apartment-0100)"><g>
      <polygon points="820.0,168.9 900.5,210.5 831.3,246.4 750.8,204.7" fill="#b75536" stroke="#101820" stroke-width="2"/>
      <polygon points="900.5,210.5 900.5,301.6 831.3,337.5 831.3,246.4" fill="#efe4c8" stroke="#101820" stroke-width="2"/>
      <polygon points="831.3,246.4 831.3,337.5 750.8,295.8 750.8,204.7" fill="#f4ead3" stroke="#101820" stroke-width="2"/>
      <rect x="783.6" y="171.6" width="84" height="24" rx="12" fill="#ffffff" opacity=".82"/>
      <text x="825.6" y="189.6" text-anchor="middle" font-size="13" font-weight="800" fill="#102033">معيشة</text>
    </g><g>
      <polygon points="936.0,239.2 1005.0,275.0 945.7,305.7 876.6,270.0" fill="#b75536" stroke="#101820" stroke-width="2"/>
      <polygon points="1005.0,275.0 1005.0,355.7 945.7,386.4 945.7,305.7" fill="#efe4c8" stroke="#101820" stroke-width="2"/>
      <polygon points="945.7,305.7 945.7,386.4 876.6,350.7 876.6,270.0" fill="#f4ead3" stroke="#101820" stroke-width="2"/>
      <rect x="898.8" y="236.5" width="84" height="24" rx="12" fill="#ffffff" opacity=".82"/>
      <text x="940.8" y="254.5" text-anchor="middle" font-size="13" font-weight="800" fill="#102033">غرفة نوم</text>
    </g><g>
      <polygon points="1052.0,306.1 1115.8,339.1 1060.9,367.5 997.1,334.5" fill="#b75536" stroke="#101820" stroke-width="2"/>
      <polygon points="1115.8,339.1 1115.8,413.0 1060.9,441.4 1060.9,367.5" fill="#efe4c8" stroke="#101820" stroke-width="2"/>
      <polygon points="1060.9,367.5 1060.9,441.4 997.1,408.4 997.1,334.5" fill="#f4ead3" stroke="#101820" stroke-width="2"/>
      <rect x="1014.5" y="300.8" width="84" height="24" rx="12" fill="#ffffff" opacity=".82"/>
      <text x="1056.5" y="318.8" text-anchor="middle" font-size="13" font-weight="800" fill="#102033">مطبخ</text>
    </g><g>
      <polygon points="718.5,247.8 782.3,280.9 727.4,309.2 663.6,276.2" fill="#b75536" stroke="#101820" stroke-width="2"/>
      <polygon points="782.3,280.9 782.3,345.5 727.4,373.9 727.4,309.2" fill="#efe4c8" stroke="#101820" stroke-width="2"/>
      <polygon points="727.4,309.2 727.4,373.9 663.6,340.9 663.6,276.2" fill="#f4ead3" stroke="#101820" stroke-width="2"/>
      <rect x="681.0" y="242.5" width="84" height="24" rx="12" fill="#ffffff" opacity=".82"/>
      <text x="723.0" y="260.5" text-anchor="middle" font-size="13" font-weight="800" fill="#102033">حمام</text>
    </g><g>
      <polygon points="834.5,309.0 898.3,342.0 843.4,370.4 779.6,337.4" fill="#b75536" stroke="#101820" stroke-width="2"/>
      <polygon points="898.3,342.0 898.3,405.5 843.4,433.9 843.4,370.4" fill="#efe4c8" stroke="#101820" stroke-width="2"/>
      <polygon points="843.4,370.4 843.4,433.9 779.6,400.9 779.6,337.4" fill="#f4ead3" stroke="#101820" stroke-width="2"/>
      <rect x="797.0" y="303.7" width="84" height="24" rx="12" fill="#ffffff" opacity=".82"/>
      <text x="839.0" y="321.7" text-anchor="middle" font-size="13" font-weight="800" fill="#102033">غسيل</text>
    </g></g>
  <path d="M 520 548 q 32 -70 64 0" fill="none" stroke="#214d5d" stroke-width="10"/><path d="M 612 548 q 32 -70 64 0" fill="none" stroke="#214d5d" stroke-width="10"/><path d="M 704 548 q 32 -70 64 0" fill="none" stroke="#214d5d" stroke-width="10"/><path d="M 796 548 q 32 -70 64 0" fill="none" stroke="#214d5d" stroke-width="10"/><path d="M 888 548 q 32 -70 64 0" fill="none" stroke="#214d5d" stroke-width="10"/>
  <path d="M330 790 C520 690 1090 680 1280 792" fill="none" stroke="#214d5d" stroke-width="8" opacity=".75"/>
  <text x="1490" y="96" text-anchor="end" font-size="44" font-weight="900" fill="#eef5fb">تصور 3D مبدئي - شقة أندلسي</text>
  <text x="1490" y="142" text-anchor="end" font-size="25" fill="#d9e3ee">مبني على قالب 2D: andalusian-apartment-0100 | 100-199 م²</text>
  <rect x="70" y="960" width="1460" height="52" rx="8" fill="#07111f" opacity=".78"/>
  <text x="1490" y="994" text-anchor="end" font-size="22" fill="#ffffff">kamel3lom | رندر تخيلي غير معتمد هندسيًا أو إنشائيًا</text>
  <text x="110" y="994" font-size="22" fill="#f0b14b">قوس مركزي، فناء مائي، وتدرج بين الضيافة والمعيشة.</text>
</svg>