<svg xmlns="http://www.w3.org/2000/svg" viewBox="0 0 1600 1050" role="img" aria-label="Concept 3D architectural render">
  <defs>
    <linearGradient id="sky-andalusian-simple_commercial-0200" x1="0" y1="0" x2="1" y2="1">
      <stop stop-color="#0c1b2b"/>
      <stop offset="1" stop-color="#d9e3ee"/>
    </linearGradient>
    <filter id="shadow-andalusian-simple_commercial-0200" x="-20%" y="-20%" width="140%" height="160%">
      <feDropShadow dx="0" dy="22" stdDeviation="24" flood-color="#000" flood-opacity=".28"/>
    </filter>
  </defs>
  <rect width="1600" height="1050" fill="url(#sky-andalusian-simple_commercial-0200)"/>
  <circle cx="1290" cy="180" r="74" fill="#f0b14b" opacity=".74"/>
  <ellipse cx="820" cy="780" rx="620" ry="130" fill="#07111f" opacity=".28"/>
  <g filter="url(#shadow-andalusian-simple_commercial-0200)"><g>
      <polygon points="820.0,140.2 926.1,195.0 834.9,242.2 728.8,187.3" fill="#b75536" stroke="#101820" stroke-width="2"/>
      <polygon points="926.1,195.0 926.1,314.9 834.9,362.0 834.9,242.2" fill="#efe4c8" stroke="#101820" stroke-width="2"/>
      <polygon points="834.9,242.2 834.9,362.0 728.8,307.2 728.8,187.3" fill="#f4ead3" stroke="#101820" stroke-width="2"/>
      <rect x="785.4" y="155.2" width="84" height="24" rx="12" fill="#ffffff" opacity=".82"/>
      <text x="827.4" y="173.2" text-anchor="middle" font-size="13" font-weight="800" fill="#102033">معرض</text>
    </g><g>
      <polygon points="936.0,218.6 1026.6,265.4 948.7,305.7 858.1,258.8" fill="#b75536" stroke="#101820" stroke-width="2"/>
      <polygon points="1026.6,265.4 1026.6,366.8 948.7,407.1 948.7,305.7" fill="#efe4c8" stroke="#101820" stroke-width="2"/>
      <polygon points="948.7,305.7 948.7,407.1 858.1,360.3 858.1,258.8" fill="#f4ead3" stroke="#101820" stroke-width="2"/>
      <rect x="900.3" y="226.1" width="84" height="24" rx="12" fill="#ffffff" opacity=".82"/>
      <text x="942.3" y="244.1" text-anchor="middle" font-size="13" font-weight="800" fill="#102033">مكتب</text>
    </g><g>
      <polygon points="1052.0,257.9 1159.9,313.6 1067.1,361.6 959.2,305.8" fill="#b75536" stroke="#101820" stroke-width="2"/>
      <polygon points="1159.9,313.6 1159.9,435.8 1067.1,483.8 1067.1,361.6" fill="#efe4c8" stroke="#101820" stroke-width="2"/>
      <polygon points="1067.1,361.6 1067.1,483.8 959.2,428.0 959.2,305.8" fill="#f4ead3" stroke="#101820" stroke-width="2"/>
      <rect x="1017.5" y="273.7" width="84" height="24" rx="12" fill="#ffffff" opacity=".82"/>
      <text x="1059.5" y="291.7" text-anchor="middle" font-size="13" font-weight="800" fill="#102033">استقبال</text>
    </g><g>
      <polygon points="718.5,239.8 782.3,272.8 727.4,301.2 663.6,268.2" fill="#b75536" stroke="#101820" stroke-width="2"/>
      <polygon points="782.3,272.8 782.3,345.5 727.4,373.9 727.4,301.2" fill="#efe4c8" stroke="#101820" stroke-width="2"/>
      <polygon points="727.4,301.2 727.4,373.9 663.6,340.9 663.6,268.2" fill="#f4ead3" stroke="#101820" stroke-width="2"/>
      <rect x="681.0" y="234.5" width="84" height="24" rx="12" fill="#ffffff" opacity=".82"/>
      <text x="723.0" y="252.5" text-anchor="middle" font-size="13" font-weight="800" fill="#102033">حمامان</text>
    </g><g>
      <polygon points="834.5,298.6 898.3,331.6 843.4,360.0 779.6,327.0" fill="#b75536" stroke="#101820" stroke-width="2"/>
      <polygon points="898.3,331.6 898.3,405.5 843.4,433.9 843.4,360.0" fill="#efe4c8" stroke="#101820" stroke-width="2"/>
      <polygon points="843.4,360.0 843.4,433.9 779.6,400.9 779.6,327.0" fill="#f4ead3" stroke="#101820" stroke-width="2"/>
      <rect x="797.0" y="293.3" width="84" height="24" rx="12" fill="#ffffff" opacity=".82"/>
      <text x="839.0" y="311.3" text-anchor="middle" font-size="13" font-weight="800" fill="#102033">مخزن</text>
    </g></g>
  <path d="M 520 548 q 32 -70 64 0" fill="none" stroke="#214d5d" stroke-width="10"/><path d="M 612 548 q 32 -70 64 0" fill="none" stroke="#214d5d" stroke-width="10"/><path d="M 704 548 q 32 -70 64 0" fill="none" stroke="#214d5d" stroke-width="10"/><path d="M 796 548 q 32 -70 64 0" fill="none" stroke="#214d5d" stroke-width="10"/><path d="M 888 548 q 32 -70 64 0" fill="none" stroke="#214d5d" stroke-width="10"/>
  <path d="M330 790 C520 690 1090 680 1280 792" fill="none" stroke="#214d5d" stroke-width="8" opacity=".75"/>
  <text x="1490" y="96" text-anchor="end" font-size="44" font-weight="900" fill="#eef5fb">تصور 3D مبدئي - تجاري بسيط أندلسي</text>
  <text x="1490" y="142" text-anchor="end" font-size="25" fill="#d9e3ee">مبني على قالب 2D: andalusian-simple_commercial-0200 | 200-299 م²</text>
  <rect x="70" y="960" width="1460" height="52" rx="8" fill="#07111f" opacity=".78"/>
  <text x="1490" y="994" text-anchor="end" font-size="22" fill="#ffffff">kamel3lom | رندر تخيلي غير معتمد هندسيًا أو إنشائيًا</text>
  <text x="110" y="994" font-size="22" fill="#f0b14b">قوس مركزي، فناء مائي، وتدرج بين الضيافة والمعيشة.</text>
</svg>