<svg xmlns="http://www.w3.org/2000/svg" viewBox="0 0 1600 1050" role="img" aria-label="Concept 3D architectural render">
  <defs>
    <linearGradient id="sky-andalusian-apartment-0600" x1="0" y1="0" x2="1" y2="1">
      <stop stop-color="#0c1b2b"/>
      <stop offset="1" stop-color="#d9e3ee"/>
    </linearGradient>
    <filter id="shadow-andalusian-apartment-0600" x="-20%" y="-20%" width="140%" height="160%">
      <feDropShadow dx="0" dy="22" stdDeviation="24" flood-color="#000" flood-opacity=".28"/>
    </filter>
  </defs>
  <rect width="1600" height="1050" fill="url(#sky-andalusian-apartment-0600)"/>
  <circle cx="1290" cy="180" r="74" fill="#f0b14b" opacity=".74"/>
  <ellipse cx="820" cy="780" rx="620" ry="130" fill="#07111f" opacity=".28"/>
  <g filter="url(#shadow-andalusian-apartment-0600)"><g>
      <polygon points="820.0,90.0 970.8,168.0 841.1,235.1 690.3,157.1" fill="#b75536" stroke="#101820" stroke-width="2"/>
      <polygon points="970.8,168.0 970.8,338.0 841.1,405.1 841.1,235.1" fill="#efe4c8" stroke="#101820" stroke-width="2"/>
      <polygon points="841.1,235.1 841.1,405.1 690.3,327.1 690.3,157.1" fill="#f4ead3" stroke="#101820" stroke-width="2"/>
      <rect x="788.6" y="126.5" width="84" height="24" rx="12" fill="#ffffff" opacity=".82"/>
      <text x="830.6" y="144.5" text-anchor="middle" font-size="13" font-weight="800" fill="#102033">معيشة</text>
    </g><g>
      <polygon points="936.0,150.0 1078.2,223.5 955.9,286.8 813.7,213.2" fill="#b75536" stroke="#101820" stroke-width="2"/>
      <polygon points="1078.2,223.5 1078.2,393.5 955.9,456.8 955.9,286.8" fill="#efe4c8" stroke="#101820" stroke-width="2"/>
      <polygon points="955.9,286.8 955.9,456.8 813.7,383.2 813.7,213.2" fill="#f4ead3" stroke="#101820" stroke-width="2"/>
      <rect x="904.0" y="182.4" width="84" height="24" rx="12" fill="#ffffff" opacity=".82"/>
      <text x="946.0" y="200.4" text-anchor="middle" font-size="13" font-weight="800" fill="#102033">ثلاث غرف ن</text>
    </g><g>
      <polygon points="1052.0,229.1 1180.1,295.3 1069.9,352.3 941.9,286.1" fill="#b75536" stroke="#101820" stroke-width="2"/>
      <polygon points="1180.1,295.3 1180.1,446.2 1069.9,503.2 1069.9,352.3" fill="#efe4c8" stroke="#101820" stroke-width="2"/>
      <polygon points="1069.9,352.3 1069.9,503.2 941.9,437.0 941.9,286.1" fill="#f4ead3" stroke="#101820" stroke-width="2"/>
      <rect x="1019.0" y="254.7" width="84" height="24" rx="12" fill="#ffffff" opacity=".82"/>
      <text x="1061.0" y="272.7" text-anchor="middle" font-size="13" font-weight="800" fill="#102033">مطبخ</text>
    </g><g>
      <polygon points="718.5,209.9 810.1,257.3 731.3,298.0 639.7,250.6" fill="#b75536" stroke="#101820" stroke-width="2"/>
      <polygon points="810.1,257.3 810.1,359.9 731.3,400.6 731.3,298.0" fill="#efe4c8" stroke="#101820" stroke-width="2"/>
      <polygon points="731.3,298.0 731.3,400.6 639.7,353.2 639.7,250.6" fill="#f4ead3" stroke="#101820" stroke-width="2"/>
      <rect x="682.9" y="218.0" width="84" height="24" rx="12" fill="#ffffff" opacity=".82"/>
      <text x="724.9" y="236.0" text-anchor="middle" font-size="13" font-weight="800" fill="#102033">حمامان</text>
    </g><g>
      <polygon points="834.5,202.5 985.3,280.5 855.6,347.6 704.8,269.6" fill="#b75536" stroke="#101820" stroke-width="2"/>
      <polygon points="985.3,280.5 985.3,450.5 855.6,517.6 855.6,347.6" fill="#efe4c8" stroke="#101820" stroke-width="2"/>
      <polygon points="855.6,347.6 855.6,517.6 704.8,439.6 704.8,269.6" fill="#f4ead3" stroke="#101820" stroke-width="2"/>
      <rect x="803.1" y="239.0" width="84" height="24" rx="12" fill="#ffffff" opacity=".82"/>
      <text x="845.1" y="257.0" text-anchor="middle" font-size="13" font-weight="800" fill="#102033">مجلس</text>
    </g><g>
      <polygon points="950.5,295.4 1069.3,356.8 967.1,409.7 848.3,348.2" fill="#b75536" stroke="#101820" stroke-width="2"/>
      <polygon points="1069.3,356.8 1069.3,493.9 967.1,546.8 967.1,409.7" fill="#efe4c8" stroke="#101820" stroke-width="2"/>
      <polygon points="967.1,409.7 967.1,546.8 848.3,485.3 848.3,348.2" fill="#f4ead3" stroke="#101820" stroke-width="2"/>
      <rect x="916.8" y="316.5" width="84" height="24" rx="12" fill="#ffffff" opacity=".82"/>
      <text x="958.8" y="334.5" text-anchor="middle" font-size="13" font-weight="800" fill="#102033">شرفة</text>
    </g></g>
  <path d="M 520 548 q 32 -70 64 0" fill="none" stroke="#214d5d" stroke-width="10"/><path d="M 612 548 q 32 -70 64 0" fill="none" stroke="#214d5d" stroke-width="10"/><path d="M 704 548 q 32 -70 64 0" fill="none" stroke="#214d5d" stroke-width="10"/><path d="M 796 548 q 32 -70 64 0" fill="none" stroke="#214d5d" stroke-width="10"/><path d="M 888 548 q 32 -70 64 0" fill="none" stroke="#214d5d" stroke-width="10"/>
  <path d="M330 790 C520 690 1090 680 1280 792" fill="none" stroke="#214d5d" stroke-width="8" opacity=".75"/>
  <text x="1490" y="96" text-anchor="end" font-size="44" font-weight="900" fill="#eef5fb">تصور 3D مبدئي - شقة أندلسي</text>
  <text x="1490" y="142" text-anchor="end" font-size="25" fill="#d9e3ee">مبني على قالب 2D: andalusian-apartment-0600 | 600-699 م²</text>
  <rect x="70" y="960" width="1460" height="52" rx="8" fill="#07111f" opacity=".78"/>
  <text x="1490" y="994" text-anchor="end" font-size="22" fill="#ffffff">kamel3lom | رندر تخيلي غير معتمد هندسيًا أو إنشائيًا</text>
  <text x="110" y="994" font-size="22" fill="#f0b14b">قوس مركزي، فناء مائي، وتدرج بين الضيافة والمعيشة.</text>
</svg>