<svg xmlns="http://www.w3.org/2000/svg" viewBox="0 0 1600 1050" role="img" aria-label="Concept 3D architectural render">
  <defs>
    <linearGradient id="sky-classic-villa-1000" x1="0" y1="0" x2="1" y2="1">
      <stop stop-color="#0c1b2b"/>
      <stop offset="1" stop-color="#d9e3ee"/>
    </linearGradient>
    <filter id="shadow-classic-villa-1000" x="-20%" y="-20%" width="140%" height="160%">
      <feDropShadow dx="0" dy="22" stdDeviation="24" flood-color="#000" flood-opacity=".28"/>
    </filter>
  </defs>
  <rect width="1600" height="1050" fill="url(#sky-classic-villa-1000)"/>
  <circle cx="1290" cy="180" r="74" fill="#f0b14b" opacity=".74"/>
  <ellipse cx="820" cy="780" rx="620" ry="130" fill="#07111f" opacity=".28"/>
  <g filter="url(#shadow-classic-villa-1000)"><g>
      <polygon points="820.0,90.0 970.8,168.0 841.1,235.1 690.3,157.1" fill="#6b7280" stroke="#101820" stroke-width="2"/>
      <polygon points="970.8,168.0 970.8,338.0 841.1,405.1 841.1,235.1" fill="#d9e3ee" stroke="#101820" stroke-width="2"/>
      <polygon points="841.1,235.1 841.1,405.1 690.3,327.1 690.3,157.1" fill="#e6edf5" stroke="#101820" stroke-width="2"/>
      <rect x="788.6" y="126.5" width="84" height="24" rx="12" fill="#ffffff" opacity=".82"/>
      <text x="830.6" y="144.5" text-anchor="middle" font-size="13" font-weight="800" fill="#102033">مجلس</text>
    </g><g>
      <polygon points="936.0,150.0 1086.8,228.0 957.1,295.1 806.3,217.1" fill="#6b7280" stroke="#101820" stroke-width="2"/>
      <polygon points="1086.8,228.0 1086.8,398.0 957.1,465.1 957.1,295.1" fill="#d9e3ee" stroke="#101820" stroke-width="2"/>
      <polygon points="957.1,295.1 957.1,465.1 806.3,387.1 806.3,217.1" fill="#e6edf5" stroke="#101820" stroke-width="2"/>
      <rect x="904.6" y="186.5" width="84" height="24" rx="12" fill="#ffffff" opacity=".82"/>
      <text x="946.6" y="204.5" text-anchor="middle" font-size="13" font-weight="800" fill="#102033">صالة استقب</text>
    </g><g>
      <polygon points="1052.0,210.0 1202.8,288.0 1073.1,355.1 922.3,277.1" fill="#6b7280" stroke="#101820" stroke-width="2"/>
      <polygon points="1202.8,288.0 1202.8,458.0 1073.1,525.1 1073.1,355.1" fill="#d9e3ee" stroke="#101820" stroke-width="2"/>
      <polygon points="1073.1,355.1 1073.1,525.1 922.3,447.1 922.3,277.1" fill="#e6edf5" stroke="#101820" stroke-width="2"/>
      <rect x="1020.6" y="246.5" width="84" height="24" rx="12" fill="#ffffff" opacity=".82"/>
      <text x="1062.6" y="264.5" text-anchor="middle" font-size="13" font-weight="800" fill="#102033">صالة عائلي</text>
    </g><g>
      <polygon points="1168.0,270.0 1313.5,345.3 1188.4,410.0 1042.9,334.7" fill="#6b7280" stroke="#101820" stroke-width="2"/>
      <polygon points="1313.5,345.3 1313.5,515.3 1188.4,580.0 1188.4,410.0" fill="#d9e3ee" stroke="#101820" stroke-width="2"/>
      <polygon points="1188.4,410.0 1188.4,580.0 1042.9,504.7 1042.9,334.7" fill="#e6edf5" stroke="#101820" stroke-width="2"/>
      <rect x="1136.2" y="304.0" width="84" height="24" rx="12" fill="#ffffff" opacity=".82"/>
      <text x="1178.2" y="322.0" text-anchor="middle" font-size="13" font-weight="800" fill="#102033">خمس غرف نو</text>
    </g><g>
      <polygon points="718.5,142.5 865.9,218.8 739.1,284.4 591.7,208.1" fill="#6b7280" stroke="#101820" stroke-width="2"/>
      <polygon points="865.9,218.8 865.9,388.8 739.1,454.4 739.1,284.4" fill="#d9e3ee" stroke="#101820" stroke-width="2"/>
      <polygon points="739.1,284.4 739.1,454.4 591.7,378.1 591.7,208.1" fill="#e6edf5" stroke="#101820" stroke-width="2"/>
      <rect x="686.8" y="177.4" width="84" height="24" rx="12" fill="#ffffff" opacity=".82"/>
      <text x="728.8" y="195.4" text-anchor="middle" font-size="13" font-weight="800" fill="#102033">جناحان</text>
    </g><g>
      <polygon points="834.5,213.6 967.7,282.4 853.1,341.7 720.0,272.8" fill="#6b7280" stroke="#101820" stroke-width="2"/>
      <polygon points="967.7,282.4 967.7,441.4 853.1,500.6 853.1,341.7" fill="#d9e3ee" stroke="#101820" stroke-width="2"/>
      <polygon points="853.1,341.7 853.1,500.6 720.0,431.7 720.0,272.8" fill="#e6edf5" stroke="#101820" stroke-width="2"/>
      <rect x="801.8" y="241.6" width="84" height="24" rx="12" fill="#ffffff" opacity=".82"/>
      <text x="843.8" y="259.6" text-anchor="middle" font-size="13" font-weight="800" fill="#102033">طعام</text>
    </g><g>
      <polygon points="950.5,279.3 1080.0,346.3 968.6,403.9 839.1,336.9" fill="#6b7280" stroke="#101820" stroke-width="2"/>
      <polygon points="1080.0,346.3 1080.0,499.5 968.6,557.1 968.6,403.9" fill="#d9e3ee" stroke="#101820" stroke-width="2"/>
      <polygon points="968.6,403.9 968.6,557.1 839.1,490.1 839.1,336.9" fill="#e6edf5" stroke="#101820" stroke-width="2"/>
      <rect x="917.6" y="305.6" width="84" height="24" rx="12" fill="#ffffff" opacity=".82"/>
      <text x="959.6" y="323.6" text-anchor="middle" font-size="13" font-weight="800" fill="#102033">مطبخ</text>
    </g><g>
      <polygon points="1066.5,381.9 1165.1,432.9 1080.3,476.7 981.7,425.7" fill="#6b7280" stroke="#101820" stroke-width="2"/>
      <polygon points="1165.1,432.9 1165.1,543.5 1080.3,587.4 1080.3,476.7" fill="#d9e3ee" stroke="#101820" stroke-width="2"/>
      <polygon points="1080.3,476.7 1080.3,587.4 981.7,536.4 981.7,425.7" fill="#e6edf5" stroke="#101820" stroke-width="2"/>
      <rect x="1031.4" y="393.3" width="84" height="24" rx="12" fill="#ffffff" opacity=".82"/>
      <text x="1073.4" y="411.3" text-anchor="middle" font-size="13" font-weight="800" fill="#102033">خدمات</text>
    </g><g>
      <polygon points="617.0,230.2 734.2,290.8 633.4,342.9 516.2,282.3" fill="#6b7280" stroke="#101820" stroke-width="2"/>
      <polygon points="734.2,290.8 734.2,425.6 633.4,477.7 633.4,342.9" fill="#d9e3ee" stroke="#101820" stroke-width="2"/>
      <polygon points="633.4,342.9 633.4,477.7 516.2,417.1 516.2,282.3" fill="#e6edf5" stroke="#101820" stroke-width="2"/>
      <rect x="583.2" y="250.6" width="84" height="24" rx="12" fill="#ffffff" opacity=".82"/>
      <text x="625.2" y="268.6" text-anchor="middle" font-size="13" font-weight="800" fill="#102033">فناء</text>
    </g></g>
  <rect x="510" y="495" width="28" height="110" fill="#5c6470" opacity=".58"/><rect x="582" y="495" width="28" height="110" fill="#5c6470" opacity=".58"/><rect x="654" y="495" width="28" height="110" fill="#5c6470" opacity=".58"/><rect x="726" y="495" width="28" height="110" fill="#5c6470" opacity=".58"/><rect x="798" y="495" width="28" height="110" fill="#5c6470" opacity=".58"/><rect x="870" y="495" width="28" height="110" fill="#5c6470" opacity=".58"/><rect x="942" y="495" width="28" height="110" fill="#5c6470" opacity=".58"/>
  <path d="M330 790 C520 690 1090 680 1280 792" fill="none" stroke="#5c6470" stroke-width="8" opacity=".75"/>
  <text x="1490" y="96" text-anchor="end" font-size="44" font-weight="900" fill="#eef5fb">تصور 3D مبدئي - فيلا كلاسيكي</text>
  <text x="1490" y="142" text-anchor="end" font-size="25" fill="#d9e3ee">مبني على قالب 2D: classic-villa-1000 | 1000-1099 م²</text>
  <rect x="70" y="960" width="1460" height="52" rx="8" fill="#07111f" opacity=".78"/>
  <text x="1490" y="994" text-anchor="end" font-size="22" fill="#ffffff">kamel3lom | رندر تخيلي غير معتمد هندسيًا أو إنشائيًا</text>
  <text x="110" y="994" font-size="22" fill="#f0b14b">تناظر محوري، استقبال واضح، وغرف منظمة.</text>
</svg>