<svg xmlns="http://www.w3.org/2000/svg" viewBox="0 0 1600 1050" role="img" aria-label="Concept 3D architectural render">
  <defs>
    <linearGradient id="sky-classic-villa-0600" x1="0" y1="0" x2="1" y2="1">
      <stop stop-color="#0c1b2b"/>
      <stop offset="1" stop-color="#d9e3ee"/>
    </linearGradient>
    <filter id="shadow-classic-villa-0600" x="-20%" y="-20%" width="140%" height="160%">
      <feDropShadow dx="0" dy="22" stdDeviation="24" flood-color="#000" flood-opacity=".28"/>
    </filter>
  </defs>
  <rect width="1600" height="1050" fill="url(#sky-classic-villa-0600)"/>
  <circle cx="1290" cy="180" r="74" fill="#f0b14b" opacity=".74"/>
  <ellipse cx="820" cy="780" rx="620" ry="130" fill="#07111f" opacity=".28"/>
  <g filter="url(#shadow-classic-villa-0600)"><g>
      <polygon points="820.0,90.0 970.8,168.0 841.1,235.1 690.3,157.1" fill="#6b7280" stroke="#101820" stroke-width="2"/>
      <polygon points="970.8,168.0 970.8,338.0 841.1,405.1 841.1,235.1" fill="#d9e3ee" stroke="#101820" stroke-width="2"/>
      <polygon points="841.1,235.1 841.1,405.1 690.3,327.1 690.3,157.1" fill="#e6edf5" stroke="#101820" stroke-width="2"/>
      <rect x="788.6" y="126.5" width="84" height="24" rx="12" fill="#ffffff" opacity=".82"/>
      <text x="830.6" y="144.5" text-anchor="middle" font-size="13" font-weight="800" fill="#102033">مجلس</text>
    </g><g>
      <polygon points="936.0,202.4 1040.3,256.4 950.6,302.8 846.3,248.8" fill="#6b7280" stroke="#101820" stroke-width="2"/>
      <polygon points="1040.3,256.4 1040.3,373.9 950.6,420.3 950.6,302.8" fill="#d9e3ee" stroke="#101820" stroke-width="2"/>
      <polygon points="950.6,302.8 950.6,420.3 846.3,366.4 846.3,248.8" fill="#e6edf5" stroke="#101820" stroke-width="2"/>
      <rect x="901.3" y="216.6" width="84" height="24" rx="12" fill="#ffffff" opacity=".82"/>
      <text x="943.3" y="234.6" text-anchor="middle" font-size="13" font-weight="800" fill="#102033">صالتان</text>
    </g><g>
      <polygon points="1052.0,222.2 1184.5,290.7 1070.5,349.6 938.1,281.1" fill="#6b7280" stroke="#101820" stroke-width="2"/>
      <polygon points="1184.5,290.7 1184.5,448.5 1070.5,507.4 1070.5,349.6" fill="#d9e3ee" stroke="#101820" stroke-width="2"/>
      <polygon points="1070.5,349.6 1070.5,507.4 938.1,438.9 938.1,281.1" fill="#e6edf5" stroke="#101820" stroke-width="2"/>
      <rect x="1019.3" y="249.9" width="84" height="24" rx="12" fill="#ffffff" opacity=".82"/>
      <text x="1061.3" y="267.9" text-anchor="middle" font-size="13" font-weight="800" fill="#102033">أربع غرف ن</text>
    </g><g>
      <polygon points="1168.0,286.8 1297.5,353.8 1186.1,411.4 1056.6,344.4" fill="#6b7280" stroke="#101820" stroke-width="2"/>
      <polygon points="1297.5,353.8 1297.5,507.0 1186.1,564.6 1186.1,411.4" fill="#d9e3ee" stroke="#101820" stroke-width="2"/>
      <polygon points="1186.1,411.4 1186.1,564.6 1056.6,497.6 1056.6,344.4" fill="#e6edf5" stroke="#101820" stroke-width="2"/>
      <rect x="1135.1" y="313.1" width="84" height="24" rx="12" fill="#ffffff" opacity=".82"/>
      <text x="1177.1" y="331.1" text-anchor="middle" font-size="13" font-weight="800" fill="#102033">جناح رئيسي</text>
    </g><g>
      <polygon points="718.5,178.9 834.9,239.0 734.8,290.8 618.4,230.6" fill="#6b7280" stroke="#101820" stroke-width="2"/>
      <polygon points="834.9,239.0 834.9,372.7 734.8,424.4 734.8,290.8" fill="#d9e3ee" stroke="#101820" stroke-width="2"/>
      <polygon points="734.8,290.8 734.8,424.4 618.4,364.3 618.4,230.6" fill="#e6edf5" stroke="#101820" stroke-width="2"/>
      <rect x="684.6" y="198.8" width="84" height="24" rx="12" fill="#ffffff" opacity=".82"/>
      <text x="726.6" y="216.8" text-anchor="middle" font-size="13" font-weight="800" fill="#102033">طعام</text>
    </g><g>
      <polygon points="834.5,236.6 952.5,297.6 851.0,350.1 733.0,289.0" fill="#6b7280" stroke="#101820" stroke-width="2"/>
      <polygon points="952.5,297.6 952.5,433.5 851.0,486.0 851.0,350.1" fill="#d9e3ee" stroke="#101820" stroke-width="2"/>
      <polygon points="851.0,350.1 851.0,486.0 733.0,425.0 733.0,289.0" fill="#e6edf5" stroke="#101820" stroke-width="2"/>
      <rect x="800.8" y="257.3" width="84" height="24" rx="12" fill="#ffffff" opacity=".82"/>
      <text x="842.8" y="275.3" text-anchor="middle" font-size="13" font-weight="800" fill="#102033">مطبخ</text>
    </g><g>
      <polygon points="950.5,336.8 1035.6,380.8 962.4,418.7 877.3,374.7" fill="#6b7280" stroke="#101820" stroke-width="2"/>
      <polygon points="1035.6,380.8 1035.6,476.5 962.4,514.4 962.4,418.7" fill="#d9e3ee" stroke="#101820" stroke-width="2"/>
      <polygon points="962.4,418.7 962.4,514.4 877.3,470.4 877.3,374.7" fill="#e6edf5" stroke="#101820" stroke-width="2"/>
      <rect x="914.5" y="341.7" width="84" height="24" rx="12" fill="#ffffff" opacity=".82"/>
      <text x="956.5" y="359.7" text-anchor="middle" font-size="13" font-weight="800" fill="#102033">خدمات</text>
    </g><g>
      <polygon points="1066.5,370.4 1174.4,426.1 1081.6,474.1 973.7,418.3" fill="#6b7280" stroke="#101820" stroke-width="2"/>
      <polygon points="1174.4,426.1 1174.4,548.3 1081.6,596.3 1081.6,474.1" fill="#d9e3ee" stroke="#101820" stroke-width="2"/>
      <polygon points="1081.6,474.1 1081.6,596.3 973.7,540.5 973.7,418.3" fill="#e6edf5" stroke="#101820" stroke-width="2"/>
      <rect x="1032.0" y="386.2" width="84" height="24" rx="12" fill="#ffffff" opacity=".82"/>
      <text x="1074.0" y="404.2" text-anchor="middle" font-size="13" font-weight="800" fill="#102033">فناء</text>
    </g></g>
  <rect x="510" y="495" width="28" height="110" fill="#5c6470" opacity=".58"/><rect x="582" y="495" width="28" height="110" fill="#5c6470" opacity=".58"/><rect x="654" y="495" width="28" height="110" fill="#5c6470" opacity=".58"/><rect x="726" y="495" width="28" height="110" fill="#5c6470" opacity=".58"/><rect x="798" y="495" width="28" height="110" fill="#5c6470" opacity=".58"/><rect x="870" y="495" width="28" height="110" fill="#5c6470" opacity=".58"/><rect x="942" y="495" width="28" height="110" fill="#5c6470" opacity=".58"/>
  <path d="M330 790 C520 690 1090 680 1280 792" fill="none" stroke="#5c6470" stroke-width="8" opacity=".75"/>
  <text x="1490" y="96" text-anchor="end" font-size="44" font-weight="900" fill="#eef5fb">تصور 3D مبدئي - فيلا كلاسيكي</text>
  <text x="1490" y="142" text-anchor="end" font-size="25" fill="#d9e3ee">مبني على قالب 2D: classic-villa-0600 | 600-699 م²</text>
  <rect x="70" y="960" width="1460" height="52" rx="8" fill="#07111f" opacity=".78"/>
  <text x="1490" y="994" text-anchor="end" font-size="22" fill="#ffffff">kamel3lom | رندر تخيلي غير معتمد هندسيًا أو إنشائيًا</text>
  <text x="110" y="994" font-size="22" fill="#f0b14b">تناظر محوري، استقبال واضح، وغرف منظمة.</text>
</svg>