<svg xmlns="http://www.w3.org/2000/svg" viewBox="0 0 1600 1050" role="img" aria-label="Concept 3D architectural render">
  <defs>
    <linearGradient id="sky-classic-studio-0300" x1="0" y1="0" x2="1" y2="1">
      <stop stop-color="#0c1b2b"/>
      <stop offset="1" stop-color="#d9e3ee"/>
    </linearGradient>
    <filter id="shadow-classic-studio-0300" x="-20%" y="-20%" width="140%" height="160%">
      <feDropShadow dx="0" dy="22" stdDeviation="24" flood-color="#000" flood-opacity=".28"/>
    </filter>
  </defs>
  <rect width="1600" height="1050" fill="url(#sky-classic-studio-0300)"/>
  <circle cx="1290" cy="180" r="74" fill="#f0b14b" opacity=".74"/>
  <ellipse cx="820" cy="780" rx="620" ry="130" fill="#07111f" opacity=".28"/>
  <g filter="url(#shadow-classic-studio-0300)"><g>
      <polygon points="820.0,90.0 960.2,162.5 839.6,224.8 699.5,152.3" fill="#6b7280" stroke="#101820" stroke-width="2"/>
      <polygon points="960.2,162.5 960.2,332.5 839.6,394.8 839.6,224.8" fill="#d9e3ee" stroke="#101820" stroke-width="2"/>
      <polygon points="839.6,224.8 839.6,394.8 699.5,322.3 699.5,152.3" fill="#e6edf5" stroke="#101820" stroke-width="2"/>
      <rect x="787.8" y="121.4" width="84" height="24" rx="12" fill="#ffffff" opacity=".82"/>
      <text x="829.8" y="139.4" text-anchor="middle" font-size="13" font-weight="800" fill="#102033">معيشة</text>
    </g><g>
      <polygon points="936.0,180.6 1056.4,242.9 952.9,296.4 832.5,234.2" fill="#6b7280" stroke="#101820" stroke-width="2"/>
      <polygon points="1056.4,242.9 1056.4,382.3 952.9,435.8 952.9,296.4" fill="#d9e3ee" stroke="#101820" stroke-width="2"/>
      <polygon points="952.9,296.4 952.9,435.8 832.5,373.6 832.5,234.2" fill="#e6edf5" stroke="#101820" stroke-width="2"/>
      <rect x="902.4" y="202.5" width="84" height="24" rx="12" fill="#ffffff" opacity=".82"/>
      <text x="944.4" y="220.5" text-anchor="middle" font-size="13" font-weight="800" fill="#102033">نوم</text>
    </g><g>
      <polygon points="1052.0,261.3 1157.2,315.7 1066.7,362.5 961.6,308.1" fill="#6b7280" stroke="#101820" stroke-width="2"/>
      <polygon points="1157.2,315.7 1157.2,434.4 1066.7,481.2 1066.7,362.5" fill="#d9e3ee" stroke="#101820" stroke-width="2"/>
      <polygon points="1066.7,362.5 1066.7,481.2 961.6,426.8 961.6,308.1" fill="#e6edf5" stroke="#101820" stroke-width="2"/>
      <rect x="1017.4" y="275.9" width="84" height="24" rx="12" fill="#ffffff" opacity=".82"/>
      <text x="1059.4" y="293.9" text-anchor="middle" font-size="13" font-weight="800" fill="#102033">مطبخ</text>
    </g><g>
      <polygon points="718.5,222.6 797.8,263.6 729.6,298.9 650.3,257.8" fill="#6b7280" stroke="#101820" stroke-width="2"/>
      <polygon points="797.8,263.6 797.8,353.5 729.6,388.8 729.6,298.9" fill="#d9e3ee" stroke="#101820" stroke-width="2"/>
      <polygon points="729.6,298.9 729.6,388.8 650.3,347.8 650.3,257.8" fill="#e6edf5" stroke="#101820" stroke-width="2"/>
      <rect x="682.1" y="224.7" width="84" height="24" rx="12" fill="#ffffff" opacity=".82"/>
      <text x="724.1" y="242.7" text-anchor="middle" font-size="13" font-weight="800" fill="#102033">حمام</text>
    </g><g>
      <polygon points="834.5,286.0 910.1,325.1 845.1,358.8 769.5,319.6" fill="#6b7280" stroke="#101820" stroke-width="2"/>
      <polygon points="910.1,325.1 910.1,411.6 845.1,445.3 845.1,358.8" fill="#d9e3ee" stroke="#101820" stroke-width="2"/>
      <polygon points="845.1,358.8 845.1,445.3 769.5,406.1 769.5,319.6" fill="#e6edf5" stroke="#101820" stroke-width="2"/>
      <rect x="797.8" y="286.4" width="84" height="24" rx="12" fill="#ffffff" opacity=".82"/>
      <text x="839.8" y="304.4" text-anchor="middle" font-size="13" font-weight="800" fill="#102033">غسيل</text>
    </g></g>
  <rect x="510" y="495" width="28" height="110" fill="#5c6470" opacity=".58"/><rect x="582" y="495" width="28" height="110" fill="#5c6470" opacity=".58"/><rect x="654" y="495" width="28" height="110" fill="#5c6470" opacity=".58"/><rect x="726" y="495" width="28" height="110" fill="#5c6470" opacity=".58"/><rect x="798" y="495" width="28" height="110" fill="#5c6470" opacity=".58"/><rect x="870" y="495" width="28" height="110" fill="#5c6470" opacity=".58"/><rect x="942" y="495" width="28" height="110" fill="#5c6470" opacity=".58"/>
  <path d="M330 790 C520 690 1090 680 1280 792" fill="none" stroke="#5c6470" stroke-width="8" opacity=".75"/>
  <text x="1490" y="96" text-anchor="end" font-size="44" font-weight="900" fill="#eef5fb">تصور 3D مبدئي - استوديو كلاسيكي</text>
  <text x="1490" y="142" text-anchor="end" font-size="25" fill="#d9e3ee">مبني على قالب 2D: classic-studio-0300 | 300-399 م²</text>
  <rect x="70" y="960" width="1460" height="52" rx="8" fill="#07111f" opacity=".78"/>
  <text x="1490" y="994" text-anchor="end" font-size="22" fill="#ffffff">kamel3lom | رندر تخيلي غير معتمد هندسيًا أو إنشائيًا</text>
  <text x="110" y="994" font-size="22" fill="#f0b14b">تناظر محوري، استقبال واضح، وغرف منظمة.</text>
</svg>