<svg xmlns="http://www.w3.org/2000/svg" viewBox="0 0 1600 1050" role="img" aria-label="Concept 3D architectural render">
  <defs>
    <linearGradient id="sky-classic-villa-1100" x1="0" y1="0" x2="1" y2="1">
      <stop stop-color="#0c1b2b"/>
      <stop offset="1" stop-color="#d9e3ee"/>
    </linearGradient>
    <filter id="shadow-classic-villa-1100" x="-20%" y="-20%" width="140%" height="160%">
      <feDropShadow dx="0" dy="22" stdDeviation="24" flood-color="#000" flood-opacity=".28"/>
    </filter>
  </defs>
  <rect width="1600" height="1050" fill="url(#sky-classic-villa-1100)"/>
  <circle cx="1290" cy="180" r="74" fill="#f0b14b" opacity=".74"/>
  <ellipse cx="820" cy="780" rx="620" ry="130" fill="#07111f" opacity=".28"/>
  <g filter="url(#shadow-classic-villa-1100)"><g>
      <polygon points="820.0,90.0 970.8,168.0 841.1,235.1 690.3,157.1" fill="#6b7280" stroke="#101820" stroke-width="2"/>
      <polygon points="970.8,168.0 970.8,338.0 841.1,405.1 841.1,235.1" fill="#d9e3ee" stroke="#101820" stroke-width="2"/>
      <polygon points="841.1,235.1 841.1,405.1 690.3,327.1 690.3,157.1" fill="#e6edf5" stroke="#101820" stroke-width="2"/>
      <rect x="788.6" y="126.5" width="84" height="24" rx="12" fill="#ffffff" opacity=".82"/>
      <text x="830.6" y="144.5" text-anchor="middle" font-size="13" font-weight="800" fill="#102033">مجلس</text>
    </g><g>
      <polygon points="936.0,150.0 1086.8,228.0 957.1,295.1 806.3,217.1" fill="#6b7280" stroke="#101820" stroke-width="2"/>
      <polygon points="1086.8,228.0 1086.8,398.0 957.1,465.1 957.1,295.1" fill="#d9e3ee" stroke="#101820" stroke-width="2"/>
      <polygon points="957.1,295.1 957.1,465.1 806.3,387.1 806.3,217.1" fill="#e6edf5" stroke="#101820" stroke-width="2"/>
      <rect x="904.6" y="186.5" width="84" height="24" rx="12" fill="#ffffff" opacity=".82"/>
      <text x="946.6" y="204.5" text-anchor="middle" font-size="13" font-weight="800" fill="#102033">صالة استقب</text>
    </g><g>
      <polygon points="1052.0,210.0 1202.8,288.0 1073.1,355.1 922.3,277.1" fill="#6b7280" stroke="#101820" stroke-width="2"/>
      <polygon points="1202.8,288.0 1202.8,458.0 1073.1,525.1 1073.1,355.1" fill="#d9e3ee" stroke="#101820" stroke-width="2"/>
      <polygon points="1073.1,355.1 1073.1,525.1 922.3,447.1 922.3,277.1" fill="#e6edf5" stroke="#101820" stroke-width="2"/>
      <rect x="1020.6" y="246.5" width="84" height="24" rx="12" fill="#ffffff" opacity=".82"/>
      <text x="1062.6" y="264.5" text-anchor="middle" font-size="13" font-weight="800" fill="#102033">صالة عائلي</text>
    </g><g>
      <polygon points="1168.0,270.0 1318.8,348.0 1189.1,415.1 1038.3,337.1" fill="#6b7280" stroke="#101820" stroke-width="2"/>
      <polygon points="1318.8,348.0 1318.8,518.0 1189.1,585.1 1189.1,415.1" fill="#d9e3ee" stroke="#101820" stroke-width="2"/>
      <polygon points="1189.1,415.1 1189.1,585.1 1038.3,507.1 1038.3,337.1" fill="#e6edf5" stroke="#101820" stroke-width="2"/>
      <rect x="1136.6" y="306.5" width="84" height="24" rx="12" fill="#ffffff" opacity=".82"/>
      <text x="1178.6" y="324.5" text-anchor="middle" font-size="13" font-weight="800" fill="#102033">خمس غرف نو</text>
    </g><g>
      <polygon points="718.5,142.5 869.3,220.5 739.6,287.6 588.8,209.6" fill="#6b7280" stroke="#101820" stroke-width="2"/>
      <polygon points="869.3,220.5 869.3,390.5 739.6,457.6 739.6,287.6" fill="#d9e3ee" stroke="#101820" stroke-width="2"/>
      <polygon points="739.6,287.6 739.6,457.6 588.8,379.6 588.8,209.6" fill="#e6edf5" stroke="#101820" stroke-width="2"/>
      <rect x="687.1" y="179.0" width="84" height="24" rx="12" fill="#ffffff" opacity=".82"/>
      <text x="729.1" y="197.0" text-anchor="middle" font-size="13" font-weight="800" fill="#102033">جناحان</text>
    </g><g>
      <polygon points="834.5,207.8 971.2,278.5 853.6,339.3 716.9,268.6" fill="#6b7280" stroke="#101820" stroke-width="2"/>
      <polygon points="971.2,278.5 971.2,443.2 853.6,504.0 853.6,339.3" fill="#d9e3ee" stroke="#101820" stroke-width="2"/>
      <polygon points="853.6,339.3 853.6,504.0 716.9,433.3 716.9,268.6" fill="#e6edf5" stroke="#101820" stroke-width="2"/>
      <rect x="802.1" y="237.6" width="84" height="24" rx="12" fill="#ffffff" opacity=".82"/>
      <text x="844.1" y="255.6" text-anchor="middle" font-size="13" font-weight="800" fill="#102033">طعام</text>
    </g><g>
      <polygon points="950.5,264.4 1089.3,336.1 969.9,397.9 831.1,326.1" fill="#6b7280" stroke="#101820" stroke-width="2"/>
      <polygon points="1089.3,336.1 1089.3,504.3 969.9,566.0 969.9,397.9" fill="#d9e3ee" stroke="#101820" stroke-width="2"/>
      <polygon points="969.9,397.9 969.9,566.0 831.1,494.2 831.1,326.1" fill="#e6edf5" stroke="#101820" stroke-width="2"/>
      <rect x="918.2" y="295.1" width="84" height="24" rx="12" fill="#ffffff" opacity=".82"/>
      <text x="960.2" y="313.1" text-anchor="middle" font-size="13" font-weight="800" fill="#102033">مطبخ</text>
    </g><g>
      <polygon points="1066.5,380.7 1166.1,432.2 1080.4,476.5 980.9,425.0" fill="#6b7280" stroke="#101820" stroke-width="2"/>
      <polygon points="1166.1,432.2 1166.1,544.0 1080.4,588.3 1080.4,476.5" fill="#d9e3ee" stroke="#101820" stroke-width="2"/>
      <polygon points="1080.4,476.5 1080.4,588.3 980.9,536.8 980.9,425.0" fill="#e6edf5" stroke="#101820" stroke-width="2"/>
      <rect x="1031.5" y="392.6" width="84" height="24" rx="12" fill="#ffffff" opacity=".82"/>
      <text x="1073.5" y="410.6" text-anchor="middle" font-size="13" font-weight="800" fill="#102033">خدمات</text>
    </g><g>
      <polygon points="617.0,217.6 742.8,282.6 634.6,338.6 508.8,273.5" fill="#6b7280" stroke="#101820" stroke-width="2"/>
      <polygon points="742.8,282.6 742.8,430.1 634.6,486.0 634.6,338.6" fill="#d9e3ee" stroke="#101820" stroke-width="2"/>
      <polygon points="634.6,338.6 634.6,486.0 508.8,421.0 508.8,273.5" fill="#e6edf5" stroke="#101820" stroke-width="2"/>
      <rect x="583.8" y="242.1" width="84" height="24" rx="12" fill="#ffffff" opacity=".82"/>
      <text x="625.8" y="260.1" text-anchor="middle" font-size="13" font-weight="800" fill="#102033">فناء</text>
    </g></g>
  <rect x="510" y="495" width="28" height="110" fill="#5c6470" opacity=".58"/><rect x="582" y="495" width="28" height="110" fill="#5c6470" opacity=".58"/><rect x="654" y="495" width="28" height="110" fill="#5c6470" opacity=".58"/><rect x="726" y="495" width="28" height="110" fill="#5c6470" opacity=".58"/><rect x="798" y="495" width="28" height="110" fill="#5c6470" opacity=".58"/><rect x="870" y="495" width="28" height="110" fill="#5c6470" opacity=".58"/><rect x="942" y="495" width="28" height="110" fill="#5c6470" opacity=".58"/>
  <path d="M330 790 C520 690 1090 680 1280 792" fill="none" stroke="#5c6470" stroke-width="8" opacity=".75"/>
  <text x="1490" y="96" text-anchor="end" font-size="44" font-weight="900" fill="#eef5fb">تصور 3D مبدئي - فيلا كلاسيكي</text>
  <text x="1490" y="142" text-anchor="end" font-size="25" fill="#d9e3ee">مبني على قالب 2D: classic-villa-1100 | 1100-1199 م²</text>
  <rect x="70" y="960" width="1460" height="52" rx="8" fill="#07111f" opacity=".78"/>
  <text x="1490" y="994" text-anchor="end" font-size="22" fill="#ffffff">kamel3lom | رندر تخيلي غير معتمد هندسيًا أو إنشائيًا</text>
  <text x="110" y="994" font-size="22" fill="#f0b14b">تناظر محوري، استقبال واضح، وغرف منظمة.</text>
</svg>