<svg xmlns="http://www.w3.org/2000/svg" viewBox="0 0 1600 1050" role="img" aria-label="Concept 3D architectural render">
  <defs>
    <linearGradient id="sky-egyptian-simple_commercial-0800" x1="0" y1="0" x2="1" y2="1">
      <stop stop-color="#0c1b2b"/>
      <stop offset="1" stop-color="#d9e3ee"/>
    </linearGradient>
    <filter id="shadow-egyptian-simple_commercial-0800" x="-20%" y="-20%" width="140%" height="160%">
      <feDropShadow dx="0" dy="22" stdDeviation="24" flood-color="#000" flood-opacity=".28"/>
    </filter>
  </defs>
  <rect width="1600" height="1050" fill="url(#sky-egyptian-simple_commercial-0800)"/>
  <circle cx="1290" cy="180" r="74" fill="#f0b14b" opacity=".74"/>
  <ellipse cx="820" cy="780" rx="620" ry="130" fill="#07111f" opacity=".28"/>
  <g filter="url(#shadow-egyptian-simple_commercial-0800)"><g>
      <polygon points="820.0,90.0 970.8,168.0 841.1,235.1 690.3,157.1" fill="#9b6b3c" stroke="#101820" stroke-width="2"/>
      <polygon points="970.8,168.0 970.8,338.0 841.1,405.1 841.1,235.1" fill="#e6d8c6" stroke="#101820" stroke-width="2"/>
      <polygon points="841.1,235.1 841.1,405.1 690.3,327.1 690.3,157.1" fill="#efe1cf" stroke="#101820" stroke-width="2"/>
      <rect x="788.6" y="126.5" width="84" height="24" rx="12" fill="#ffffff" opacity=".82"/>
      <text x="830.6" y="144.5" text-anchor="middle" font-size="13" font-weight="800" fill="#102033">معرض</text>
    </g><g>
      <polygon points="936.0,150.0 1076.2,222.5 955.6,284.8 815.5,212.3" fill="#9b6b3c" stroke="#101820" stroke-width="2"/>
      <polygon points="1076.2,222.5 1076.2,392.5 955.6,454.8 955.6,284.8" fill="#e6d8c6" stroke="#101820" stroke-width="2"/>
      <polygon points="955.6,284.8 955.6,454.8 815.5,382.3 815.5,212.3" fill="#efe1cf" stroke="#101820" stroke-width="2"/>
      <rect x="903.8" y="181.4" width="84" height="24" rx="12" fill="#ffffff" opacity=".82"/>
      <text x="945.8" y="199.4" text-anchor="middle" font-size="13" font-weight="800" fill="#102033">مكاتب</text>
    </g><g>
      <polygon points="1052.0,210.0 1202.8,288.0 1073.1,355.1 922.3,277.1" fill="#9b6b3c" stroke="#101820" stroke-width="2"/>
      <polygon points="1202.8,288.0 1202.8,458.0 1073.1,525.1 1073.1,355.1" fill="#e6d8c6" stroke="#101820" stroke-width="2"/>
      <polygon points="1073.1,355.1 1073.1,525.1 922.3,447.1 922.3,277.1" fill="#efe1cf" stroke="#101820" stroke-width="2"/>
      <rect x="1020.6" y="246.5" width="84" height="24" rx="12" fill="#ffffff" opacity=".82"/>
      <text x="1062.6" y="264.5" text-anchor="middle" font-size="13" font-weight="800" fill="#102033">استقبال</text>
    </g><g>
      <polygon points="718.5,183.4 831.5,241.9 734.3,292.2 621.3,233.7" fill="#9b6b3c" stroke="#101820" stroke-width="2"/>
      <polygon points="831.5,241.9 831.5,371.0 734.3,421.2 734.3,292.2" fill="#e6d8c6" stroke="#101820" stroke-width="2"/>
      <polygon points="734.3,292.2 734.3,421.2 621.3,362.8 621.3,233.7" fill="#efe1cf" stroke="#101820" stroke-width="2"/>
      <rect x="684.4" y="201.8" width="84" height="24" rx="12" fill="#ffffff" opacity=".82"/>
      <text x="726.4" y="219.8" text-anchor="middle" font-size="13" font-weight="800" fill="#102033">خدمات</text>
    </g><g>
      <polygon points="834.5,237.7 951.7,298.3 850.9,350.4 733.7,289.8" fill="#9b6b3c" stroke="#101820" stroke-width="2"/>
      <polygon points="951.7,298.3 951.7,433.1 850.9,485.2 850.9,350.4" fill="#e6d8c6" stroke="#101820" stroke-width="2"/>
      <polygon points="850.9,350.4 850.9,485.2 733.7,424.6 733.7,289.8" fill="#efe1cf" stroke="#101820" stroke-width="2"/>
      <rect x="800.7" y="258.1" width="84" height="24" rx="12" fill="#ffffff" opacity=".82"/>
      <text x="842.7" y="276.1" text-anchor="middle" font-size="13" font-weight="800" fill="#102033">مخزن</text>
    </g><g>
      <polygon points="950.5,262.5 1094.7,337.1 970.7,401.2 826.5,326.6" fill="#9b6b3c" stroke="#101820" stroke-width="2"/>
      <polygon points="1094.7,337.1 1094.7,507.1 970.7,571.2 970.7,401.2" fill="#e6d8c6" stroke="#101820" stroke-width="2"/>
      <polygon points="970.7,401.2 970.7,571.2 826.5,496.6 826.5,326.6" fill="#efe1cf" stroke="#101820" stroke-width="2"/>
      <rect x="918.6" y="295.9" width="84" height="24" rx="12" fill="#ffffff" opacity=".82"/>
      <text x="960.6" y="313.9" text-anchor="middle" font-size="13" font-weight="800" fill="#102033">غرفة كهربا</text>
    </g></g>
  <rect x="510" y="495" width="28" height="110" fill="#c08a4d" opacity=".58"/><rect x="582" y="495" width="28" height="110" fill="#c08a4d" opacity=".58"/><rect x="654" y="495" width="28" height="110" fill="#c08a4d" opacity=".58"/><rect x="726" y="495" width="28" height="110" fill="#c08a4d" opacity=".58"/><rect x="798" y="495" width="28" height="110" fill="#c08a4d" opacity=".58"/><rect x="870" y="495" width="28" height="110" fill="#c08a4d" opacity=".58"/><rect x="942" y="495" width="28" height="110" fill="#c08a4d" opacity=".58"/>
  <path d="M330 790 C520 690 1090 680 1280 792" fill="none" stroke="#c08a4d" stroke-width="8" opacity=".75"/>
  <text x="1490" y="96" text-anchor="end" font-size="44" font-weight="900" fill="#eef5fb">تصور 3D مبدئي - تجاري بسيط مصري</text>
  <text x="1490" y="142" text-anchor="end" font-size="25" fill="#d9e3ee">مبني على قالب 2D: egyptian-simple_commercial-0800 | 800-899 م²</text>
  <rect x="70" y="960" width="1460" height="52" rx="8" fill="#07111f" opacity=".78"/>
  <text x="1490" y="994" text-anchor="end" font-size="22" fill="#ffffff">kamel3lom | رندر تخيلي غير معتمد هندسيًا أو إنشائيًا</text>
  <text x="110" y="994" font-size="22" fill="#f0b14b">توزيع عملي، شرفة، ومناطق معيشة واضحة.</text>
</svg>