<svg xmlns="http://www.w3.org/2000/svg" viewBox="0 0 1600 1050" role="img" aria-label="Concept 3D architectural render">
  <defs>
    <linearGradient id="sky-egyptian-townhouse-1000" x1="0" y1="0" x2="1" y2="1">
      <stop stop-color="#0c1b2b"/>
      <stop offset="1" stop-color="#d9e3ee"/>
    </linearGradient>
    <filter id="shadow-egyptian-townhouse-1000" x="-20%" y="-20%" width="140%" height="160%">
      <feDropShadow dx="0" dy="22" stdDeviation="24" flood-color="#000" flood-opacity=".28"/>
    </filter>
  </defs>
  <rect width="1600" height="1050" fill="url(#sky-egyptian-townhouse-1000)"/>
  <circle cx="1290" cy="180" r="74" fill="#f0b14b" opacity=".74"/>
  <ellipse cx="820" cy="780" rx="620" ry="130" fill="#07111f" opacity=".28"/>
  <g filter="url(#shadow-egyptian-townhouse-1000)"><g>
      <polygon points="820.0,90.0 970.8,168.0 841.1,235.1 690.3,157.1" fill="#9b6b3c" stroke="#101820" stroke-width="2"/>
      <polygon points="970.8,168.0 970.8,338.0 841.1,405.1 841.1,235.1" fill="#e6d8c6" stroke="#101820" stroke-width="2"/>
      <polygon points="841.1,235.1 841.1,405.1 690.3,327.1 690.3,157.1" fill="#efe1cf" stroke="#101820" stroke-width="2"/>
      <rect x="788.6" y="126.5" width="84" height="24" rx="12" fill="#ffffff" opacity=".82"/>
      <text x="830.6" y="144.5" text-anchor="middle" font-size="13" font-weight="800" fill="#102033">معيشة</text>
    </g><g>
      <polygon points="936.0,150.0 1086.8,228.0 957.1,295.1 806.3,217.1" fill="#9b6b3c" stroke="#101820" stroke-width="2"/>
      <polygon points="1086.8,228.0 1086.8,398.0 957.1,465.1 957.1,295.1" fill="#e6d8c6" stroke="#101820" stroke-width="2"/>
      <polygon points="957.1,295.1 957.1,465.1 806.3,387.1 806.3,217.1" fill="#efe1cf" stroke="#101820" stroke-width="2"/>
      <rect x="904.6" y="186.5" width="84" height="24" rx="12" fill="#ffffff" opacity=".82"/>
      <text x="946.6" y="204.5" text-anchor="middle" font-size="13" font-weight="800" fill="#102033">مجلس</text>
    </g><g>
      <polygon points="1052.0,210.0 1196.2,284.6 1072.2,348.7 928.0,274.1" fill="#9b6b3c" stroke="#101820" stroke-width="2"/>
      <polygon points="1196.2,284.6 1196.2,454.6 1072.2,518.7 1072.2,348.7" fill="#e6d8c6" stroke="#101820" stroke-width="2"/>
      <polygon points="1072.2,348.7 1072.2,518.7 928.0,444.1 928.0,274.1" fill="#efe1cf" stroke="#101820" stroke-width="2"/>
      <rect x="1020.1" y="243.4" width="84" height="24" rx="12" fill="#ffffff" opacity=".82"/>
      <text x="1062.1" y="261.4" text-anchor="middle" font-size="13" font-weight="800" fill="#102033">طعام</text>
    </g><g>
      <polygon points="1168.0,270.0 1308.2,342.5 1187.6,404.8 1047.5,332.3" fill="#9b6b3c" stroke="#101820" stroke-width="2"/>
      <polygon points="1308.2,342.5 1308.2,512.5 1187.6,574.8 1187.6,404.8" fill="#e6d8c6" stroke="#101820" stroke-width="2"/>
      <polygon points="1187.6,404.8 1187.6,574.8 1047.5,502.3 1047.5,332.3" fill="#efe1cf" stroke="#101820" stroke-width="2"/>
      <rect x="1135.8" y="301.4" width="84" height="24" rx="12" fill="#ffffff" opacity=".82"/>
      <text x="1177.8" y="319.4" text-anchor="middle" font-size="13" font-weight="800" fill="#102033">مطبخ</text>
    </g><g>
      <polygon points="718.5,142.5 869.3,220.5 739.6,287.6 588.8,209.6" fill="#9b6b3c" stroke="#101820" stroke-width="2"/>
      <polygon points="869.3,220.5 869.3,390.5 739.6,457.6 739.6,287.6" fill="#e6d8c6" stroke="#101820" stroke-width="2"/>
      <polygon points="739.6,287.6 739.6,457.6 588.8,379.6 588.8,209.6" fill="#efe1cf" stroke="#101820" stroke-width="2"/>
      <rect x="687.1" y="179.0" width="84" height="24" rx="12" fill="#ffffff" opacity=".82"/>
      <text x="729.1" y="197.0" text-anchor="middle" font-size="13" font-weight="800" fill="#102033">أربع غرف ن</text>
    </g><g>
      <polygon points="834.5,202.5 985.3,280.5 855.6,347.6 704.8,269.6" fill="#9b6b3c" stroke="#101820" stroke-width="2"/>
      <polygon points="985.3,280.5 985.3,450.5 855.6,517.6 855.6,347.6" fill="#e6d8c6" stroke="#101820" stroke-width="2"/>
      <polygon points="855.6,347.6 855.6,517.6 704.8,439.6 704.8,269.6" fill="#efe1cf" stroke="#101820" stroke-width="2"/>
      <rect x="803.1" y="239.0" width="84" height="24" rx="12" fill="#ffffff" opacity=".82"/>
      <text x="845.1" y="257.0" text-anchor="middle" font-size="13" font-weight="800" fill="#102033">جناح</text>
    </g><g>
      <polygon points="950.5,314.9 1054.8,368.9 965.1,415.3 860.8,361.3" fill="#9b6b3c" stroke="#101820" stroke-width="2"/>
      <polygon points="1054.8,368.9 1054.8,486.4 965.1,532.8 965.1,415.3" fill="#e6d8c6" stroke="#101820" stroke-width="2"/>
      <polygon points="965.1,415.3 965.1,532.8 860.8,478.9 860.8,361.3" fill="#efe1cf" stroke="#101820" stroke-width="2"/>
      <rect x="915.8" y="329.1" width="84" height="24" rx="12" fill="#ffffff" opacity=".82"/>
      <text x="957.8" y="347.1" text-anchor="middle" font-size="13" font-weight="800" fill="#102033">خدمات</text>
    </g><g>
      <polygon points="1066.5,335.9 1198.2,404.0 1084.9,462.6 953.2,394.4" fill="#9b6b3c" stroke="#101820" stroke-width="2"/>
      <polygon points="1198.2,404.0 1198.2,560.6 1084.9,619.2 1084.9,462.6" fill="#e6d8c6" stroke="#101820" stroke-width="2"/>
      <polygon points="1084.9,462.6 1084.9,619.2 953.2,551.1 953.2,394.4" fill="#efe1cf" stroke="#101820" stroke-width="2"/>
      <rect x="1033.7" y="363.2" width="84" height="24" rx="12" fill="#ffffff" opacity=".82"/>
      <text x="1075.7" y="381.2" text-anchor="middle" font-size="13" font-weight="800" fill="#102033">تراس</text>
    </g></g>
  <rect x="510" y="495" width="28" height="110" fill="#c08a4d" opacity=".58"/><rect x="582" y="495" width="28" height="110" fill="#c08a4d" opacity=".58"/><rect x="654" y="495" width="28" height="110" fill="#c08a4d" opacity=".58"/><rect x="726" y="495" width="28" height="110" fill="#c08a4d" opacity=".58"/><rect x="798" y="495" width="28" height="110" fill="#c08a4d" opacity=".58"/><rect x="870" y="495" width="28" height="110" fill="#c08a4d" opacity=".58"/><rect x="942" y="495" width="28" height="110" fill="#c08a4d" opacity=".58"/>
  <path d="M330 790 C520 690 1090 680 1280 792" fill="none" stroke="#c08a4d" stroke-width="8" opacity=".75"/>
  <text x="1490" y="96" text-anchor="end" font-size="44" font-weight="900" fill="#eef5fb">تصور 3D مبدئي - تاون هاوس مصري</text>
  <text x="1490" y="142" text-anchor="end" font-size="25" fill="#d9e3ee">مبني على قالب 2D: egyptian-townhouse-1000 | 1000-1099 م²</text>
  <rect x="70" y="960" width="1460" height="52" rx="8" fill="#07111f" opacity=".78"/>
  <text x="1490" y="994" text-anchor="end" font-size="22" fill="#ffffff">kamel3lom | رندر تخيلي غير معتمد هندسيًا أو إنشائيًا</text>
  <text x="110" y="994" font-size="22" fill="#f0b14b">توزيع عملي، شرفة، ومناطق معيشة واضحة.</text>
</svg>