<svg xmlns="http://www.w3.org/2000/svg" viewBox="0 0 1600 1050" role="img" aria-label="Concept 3D architectural render">
  <defs>
    <linearGradient id="sky-egyptian-apartment-0700" x1="0" y1="0" x2="1" y2="1">
      <stop stop-color="#0c1b2b"/>
      <stop offset="1" stop-color="#d9e3ee"/>
    </linearGradient>
    <filter id="shadow-egyptian-apartment-0700" x="-20%" y="-20%" width="140%" height="160%">
      <feDropShadow dx="0" dy="22" stdDeviation="24" flood-color="#000" flood-opacity=".28"/>
    </filter>
  </defs>
  <rect width="1600" height="1050" fill="url(#sky-egyptian-apartment-0700)"/>
  <circle cx="1290" cy="180" r="74" fill="#f0b14b" opacity=".74"/>
  <ellipse cx="820" cy="780" rx="620" ry="130" fill="#07111f" opacity=".28"/>
  <g filter="url(#shadow-egyptian-apartment-0700)"><g>
      <polygon points="820.0,90.0 970.8,168.0 841.1,235.1 690.3,157.1" fill="#9b6b3c" stroke="#101820" stroke-width="2"/>
      <polygon points="970.8,168.0 970.8,338.0 841.1,405.1 841.1,235.1" fill="#e6d8c6" stroke="#101820" stroke-width="2"/>
      <polygon points="841.1,235.1 841.1,405.1 690.3,327.1 690.3,157.1" fill="#efe1cf" stroke="#101820" stroke-width="2"/>
      <rect x="788.6" y="126.5" width="84" height="24" rx="12" fill="#ffffff" opacity=".82"/>
      <text x="830.6" y="144.5" text-anchor="middle" font-size="13" font-weight="800" fill="#102033">معيشة</text>
    </g><g>
      <polygon points="936.0,150.0 1086.8,228.0 957.1,295.1 806.3,217.1" fill="#9b6b3c" stroke="#101820" stroke-width="2"/>
      <polygon points="1086.8,228.0 1086.8,398.0 957.1,465.1 957.1,295.1" fill="#e6d8c6" stroke="#101820" stroke-width="2"/>
      <polygon points="957.1,295.1 957.1,465.1 806.3,387.1 806.3,217.1" fill="#efe1cf" stroke="#101820" stroke-width="2"/>
      <rect x="904.6" y="186.5" width="84" height="24" rx="12" fill="#ffffff" opacity=".82"/>
      <text x="946.6" y="204.5" text-anchor="middle" font-size="13" font-weight="800" fill="#102033">ثلاث غرف ن</text>
    </g><g>
      <polygon points="1052.0,217.6 1187.3,287.6 1070.9,347.8 935.6,277.8" fill="#9b6b3c" stroke="#101820" stroke-width="2"/>
      <polygon points="1187.3,287.6 1187.3,450.0 1070.9,510.2 1070.9,347.8" fill="#e6d8c6" stroke="#101820" stroke-width="2"/>
      <polygon points="1070.9,347.8 1070.9,510.2 935.6,440.2 935.6,277.8" fill="#efe1cf" stroke="#101820" stroke-width="2"/>
      <rect x="1019.5" y="246.7" width="84" height="24" rx="12" fill="#ffffff" opacity=".82"/>
      <text x="1061.5" y="264.7" text-anchor="middle" font-size="13" font-weight="800" fill="#102033">مطبخ</text>
    </g><g>
      <polygon points="718.5,197.2 820.9,250.2 732.8,295.8 630.4,242.8" fill="#9b6b3c" stroke="#101820" stroke-width="2"/>
      <polygon points="820.9,250.2 820.9,365.5 732.8,411.0 732.8,295.8" fill="#e6d8c6" stroke="#101820" stroke-width="2"/>
      <polygon points="732.8,295.8 732.8,411.0 630.4,358.1 630.4,242.8" fill="#efe1cf" stroke="#101820" stroke-width="2"/>
      <rect x="683.7" y="210.5" width="84" height="24" rx="12" fill="#ffffff" opacity=".82"/>
      <text x="725.7" y="228.5" text-anchor="middle" font-size="13" font-weight="800" fill="#102033">حمامان</text>
    </g><g>
      <polygon points="834.5,202.5 985.3,280.5 855.6,347.6 704.8,269.6" fill="#9b6b3c" stroke="#101820" stroke-width="2"/>
      <polygon points="985.3,280.5 985.3,450.5 855.6,517.6 855.6,347.6" fill="#e6d8c6" stroke="#101820" stroke-width="2"/>
      <polygon points="855.6,347.6 855.6,517.6 704.8,439.6 704.8,269.6" fill="#efe1cf" stroke="#101820" stroke-width="2"/>
      <rect x="803.1" y="239.0" width="84" height="24" rx="12" fill="#ffffff" opacity=".82"/>
      <text x="845.1" y="257.0" text-anchor="middle" font-size="13" font-weight="800" fill="#102033">مجلس</text>
    </g><g>
      <polygon points="950.5,286.2 1075.6,350.9 968.0,406.5 843.0,341.8" fill="#9b6b3c" stroke="#101820" stroke-width="2"/>
      <polygon points="1075.6,350.9 1075.6,497.2 968.0,552.8 968.0,406.5" fill="#e6d8c6" stroke="#101820" stroke-width="2"/>
      <polygon points="968.0,406.5 968.0,552.8 843.0,488.1 843.0,341.8" fill="#efe1cf" stroke="#101820" stroke-width="2"/>
      <rect x="917.3" y="310.4" width="84" height="24" rx="12" fill="#ffffff" opacity=".82"/>
      <text x="959.3" y="328.4" text-anchor="middle" font-size="13" font-weight="800" fill="#102033">شرفة</text>
    </g></g>
  <rect x="510" y="495" width="28" height="110" fill="#c08a4d" opacity=".58"/><rect x="582" y="495" width="28" height="110" fill="#c08a4d" opacity=".58"/><rect x="654" y="495" width="28" height="110" fill="#c08a4d" opacity=".58"/><rect x="726" y="495" width="28" height="110" fill="#c08a4d" opacity=".58"/><rect x="798" y="495" width="28" height="110" fill="#c08a4d" opacity=".58"/><rect x="870" y="495" width="28" height="110" fill="#c08a4d" opacity=".58"/><rect x="942" y="495" width="28" height="110" fill="#c08a4d" opacity=".58"/>
  <path d="M330 790 C520 690 1090 680 1280 792" fill="none" stroke="#c08a4d" stroke-width="8" opacity=".75"/>
  <text x="1490" y="96" text-anchor="end" font-size="44" font-weight="900" fill="#eef5fb">تصور 3D مبدئي - شقة مصري</text>
  <text x="1490" y="142" text-anchor="end" font-size="25" fill="#d9e3ee">مبني على قالب 2D: egyptian-apartment-0700 | 700-799 م²</text>
  <rect x="70" y="960" width="1460" height="52" rx="8" fill="#07111f" opacity=".78"/>
  <text x="1490" y="994" text-anchor="end" font-size="22" fill="#ffffff">kamel3lom | رندر تخيلي غير معتمد هندسيًا أو إنشائيًا</text>
  <text x="110" y="994" font-size="22" fill="#f0b14b">توزيع عملي، شرفة، ومناطق معيشة واضحة.</text>
</svg>