<svg xmlns="http://www.w3.org/2000/svg" viewBox="0 0 1600 1050" role="img" aria-label="Concept 3D architectural render">
  <defs>
    <linearGradient id="sky-egyptian-apartment-0500" x1="0" y1="0" x2="1" y2="1">
      <stop stop-color="#0c1b2b"/>
      <stop offset="1" stop-color="#d9e3ee"/>
    </linearGradient>
    <filter id="shadow-egyptian-apartment-0500" x="-20%" y="-20%" width="140%" height="160%">
      <feDropShadow dx="0" dy="22" stdDeviation="24" flood-color="#000" flood-opacity=".28"/>
    </filter>
  </defs>
  <rect width="1600" height="1050" fill="url(#sky-egyptian-apartment-0500)"/>
  <circle cx="1290" cy="180" r="74" fill="#f0b14b" opacity=".74"/>
  <ellipse cx="820" cy="780" rx="620" ry="130" fill="#07111f" opacity=".28"/>
  <g filter="url(#shadow-egyptian-apartment-0500)"><g>
      <polygon points="820.0,90.0 970.8,168.0 841.1,235.1 690.3,157.1" fill="#9b6b3c" stroke="#101820" stroke-width="2"/>
      <polygon points="970.8,168.0 970.8,338.0 841.1,405.1 841.1,235.1" fill="#e6d8c6" stroke="#101820" stroke-width="2"/>
      <polygon points="841.1,235.1 841.1,405.1 690.3,327.1 690.3,157.1" fill="#efe1cf" stroke="#101820" stroke-width="2"/>
      <rect x="788.6" y="126.5" width="84" height="24" rx="12" fill="#ffffff" opacity=".82"/>
      <text x="830.6" y="144.5" text-anchor="middle" font-size="13" font-weight="800" fill="#102033">معيشة</text>
    </g><g>
      <polygon points="936.0,163.4 1067.7,231.5 954.4,290.1 822.7,221.9" fill="#9b6b3c" stroke="#101820" stroke-width="2"/>
      <polygon points="1067.7,231.5 1067.7,388.1 954.4,446.7 954.4,290.1" fill="#e6d8c6" stroke="#101820" stroke-width="2"/>
      <polygon points="954.4,290.1 954.4,446.7 822.7,378.6 822.7,221.9" fill="#efe1cf" stroke="#101820" stroke-width="2"/>
      <rect x="903.2" y="190.7" width="84" height="24" rx="12" fill="#ffffff" opacity=".82"/>
      <text x="945.2" y="208.7" text-anchor="middle" font-size="13" font-weight="800" fill="#102033">ثلاث غرف ن</text>
    </g><g>
      <polygon points="1052.0,248.7 1166.7,308.0 1068.1,359.0 953.3,299.7" fill="#9b6b3c" stroke="#101820" stroke-width="2"/>
      <polygon points="1166.7,308.0 1166.7,439.3 1068.1,490.4 1068.1,359.0" fill="#e6d8c6" stroke="#101820" stroke-width="2"/>
      <polygon points="1068.1,359.0 1068.1,490.4 953.3,431.0 953.3,299.7" fill="#efe1cf" stroke="#101820" stroke-width="2"/>
      <rect x="1018.0" y="267.8" width="84" height="24" rx="12" fill="#ffffff" opacity=".82"/>
      <text x="1060.0" y="285.8" text-anchor="middle" font-size="13" font-weight="800" fill="#102033">مطبخ</text>
    </g><g>
      <polygon points="718.5,214.5 805.8,259.7 730.7,298.5 643.4,253.4" fill="#9b6b3c" stroke="#101820" stroke-width="2"/>
      <polygon points="805.8,259.7 805.8,357.7 730.7,396.5 730.7,298.5" fill="#e6d8c6" stroke="#101820" stroke-width="2"/>
      <polygon points="730.7,298.5 730.7,396.5 643.4,351.4 643.4,253.4" fill="#efe1cf" stroke="#101820" stroke-width="2"/>
      <rect x="682.6" y="220.5" width="84" height="24" rx="12" fill="#ffffff" opacity=".82"/>
      <text x="724.6" y="238.5" text-anchor="middle" font-size="13" font-weight="800" fill="#102033">حمامان</text>
    </g><g>
      <polygon points="834.5,202.5 985.3,280.5 855.6,347.6 704.8,269.6" fill="#9b6b3c" stroke="#101820" stroke-width="2"/>
      <polygon points="985.3,280.5 985.3,450.5 855.6,517.6 855.6,347.6" fill="#e6d8c6" stroke="#101820" stroke-width="2"/>
      <polygon points="855.6,347.6 855.6,517.6 704.8,439.6 704.8,269.6" fill="#efe1cf" stroke="#101820" stroke-width="2"/>
      <rect x="803.1" y="239.0" width="84" height="24" rx="12" fill="#ffffff" opacity=".82"/>
      <text x="845.1" y="257.0" text-anchor="middle" font-size="13" font-weight="800" fill="#102033">مجلس</text>
    </g><g>
      <polygon points="950.5,313.8 1055.7,368.2 965.2,415.0 860.1,360.6" fill="#9b6b3c" stroke="#101820" stroke-width="2"/>
      <polygon points="1055.7,368.2 1055.7,486.9 965.2,533.7 965.2,415.0" fill="#e6d8c6" stroke="#101820" stroke-width="2"/>
      <polygon points="965.2,415.0 965.2,533.7 860.1,479.3 860.1,360.6" fill="#efe1cf" stroke="#101820" stroke-width="2"/>
      <rect x="915.9" y="328.4" width="84" height="24" rx="12" fill="#ffffff" opacity=".82"/>
      <text x="957.9" y="346.4" text-anchor="middle" font-size="13" font-weight="800" fill="#102033">شرفة</text>
    </g></g>
  <rect x="510" y="495" width="28" height="110" fill="#c08a4d" opacity=".58"/><rect x="582" y="495" width="28" height="110" fill="#c08a4d" opacity=".58"/><rect x="654" y="495" width="28" height="110" fill="#c08a4d" opacity=".58"/><rect x="726" y="495" width="28" height="110" fill="#c08a4d" opacity=".58"/><rect x="798" y="495" width="28" height="110" fill="#c08a4d" opacity=".58"/><rect x="870" y="495" width="28" height="110" fill="#c08a4d" opacity=".58"/><rect x="942" y="495" width="28" height="110" fill="#c08a4d" opacity=".58"/>
  <path d="M330 790 C520 690 1090 680 1280 792" fill="none" stroke="#c08a4d" stroke-width="8" opacity=".75"/>
  <text x="1490" y="96" text-anchor="end" font-size="44" font-weight="900" fill="#eef5fb">تصور 3D مبدئي - شقة مصري</text>
  <text x="1490" y="142" text-anchor="end" font-size="25" fill="#d9e3ee">مبني على قالب 2D: egyptian-apartment-0500 | 500-599 م²</text>
  <rect x="70" y="960" width="1460" height="52" rx="8" fill="#07111f" opacity=".78"/>
  <text x="1490" y="994" text-anchor="end" font-size="22" fill="#ffffff">kamel3lom | رندر تخيلي غير معتمد هندسيًا أو إنشائيًا</text>
  <text x="110" y="994" font-size="22" fill="#f0b14b">توزيع عملي، شرفة، ومناطق معيشة واضحة.</text>
</svg>