<svg xmlns="http://www.w3.org/2000/svg" viewBox="0 0 1600 1050" role="img" aria-label="Concept 3D architectural render">
  <defs>
    <linearGradient id="sky-egyptian-simple_commercial-0300" x1="0" y1="0" x2="1" y2="1">
      <stop stop-color="#0c1b2b"/>
      <stop offset="1" stop-color="#d9e3ee"/>
    </linearGradient>
    <filter id="shadow-egyptian-simple_commercial-0300" x="-20%" y="-20%" width="140%" height="160%">
      <feDropShadow dx="0" dy="22" stdDeviation="24" flood-color="#000" flood-opacity=".28"/>
    </filter>
  </defs>
  <rect width="1600" height="1050" fill="url(#sky-egyptian-simple_commercial-0300)"/>
  <circle cx="1290" cy="180" r="74" fill="#f0b14b" opacity=".74"/>
  <ellipse cx="820" cy="780" rx="620" ry="130" fill="#07111f" opacity=".28"/>
  <g filter="url(#shadow-egyptian-simple_commercial-0300)"><g>
      <polygon points="820.0,104.5 951.0,172.3 838.3,230.5 707.3,162.8" fill="#9b6b3c" stroke="#101820" stroke-width="2"/>
      <polygon points="951.0,172.3 951.0,327.8 838.3,386.0 838.3,230.5" fill="#e6d8c6" stroke="#101820" stroke-width="2"/>
      <polygon points="838.3,230.5 838.3,386.0 707.3,318.3 707.3,162.8" fill="#efe1cf" stroke="#101820" stroke-width="2"/>
      <rect x="787.2" y="131.5" width="84" height="24" rx="12" fill="#ffffff" opacity=".82"/>
      <text x="829.2" y="149.5" text-anchor="middle" font-size="13" font-weight="800" fill="#102033">معرض</text>
    </g><g>
      <polygon points="936.0,190.9 1049.0,249.4 951.8,299.7 838.8,241.2" fill="#9b6b3c" stroke="#101820" stroke-width="2"/>
      <polygon points="1049.0,249.4 1049.0,378.5 951.8,428.7 951.8,299.7" fill="#e6d8c6" stroke="#101820" stroke-width="2"/>
      <polygon points="951.8,299.7 951.8,428.7 838.8,370.3 838.8,241.2" fill="#efe1cf" stroke="#101820" stroke-width="2"/>
      <rect x="901.9" y="209.3" width="84" height="24" rx="12" fill="#ffffff" opacity=".82"/>
      <text x="943.9" y="227.3" text-anchor="middle" font-size="13" font-weight="800" fill="#102033">مكتب</text>
    </g><g>
      <polygon points="1052.0,225.7 1182.3,293.0 1070.2,351.0 940.0,283.6" fill="#9b6b3c" stroke="#101820" stroke-width="2"/>
      <polygon points="1182.3,293.0 1182.3,447.4 1070.2,505.3 1070.2,351.0" fill="#e6d8c6" stroke="#101820" stroke-width="2"/>
      <polygon points="1070.2,351.0 1070.2,505.3 940.0,438.0 940.0,283.6" fill="#efe1cf" stroke="#101820" stroke-width="2"/>
      <rect x="1019.1" y="252.3" width="84" height="24" rx="12" fill="#ffffff" opacity=".82"/>
      <text x="1061.1" y="270.3" text-anchor="middle" font-size="13" font-weight="800" fill="#102033">استقبال</text>
    </g><g>
      <polygon points="718.5,227.2 792.9,265.6 728.9,298.7 654.5,260.2" fill="#9b6b3c" stroke="#101820" stroke-width="2"/>
      <polygon points="792.9,265.6 792.9,351.0 728.9,384.0 728.9,298.7" fill="#e6d8c6" stroke="#101820" stroke-width="2"/>
      <polygon points="728.9,298.7 728.9,384.0 654.5,345.6 654.5,260.2" fill="#efe1cf" stroke="#101820" stroke-width="2"/>
      <rect x="681.7" y="226.9" width="84" height="24" rx="12" fill="#ffffff" opacity=".82"/>
      <text x="723.7" y="244.9" text-anchor="middle" font-size="13" font-weight="800" fill="#102033">حمامان</text>
    </g><g>
      <polygon points="834.5,290.6 904.9,327.0 844.4,358.3 773.9,321.9" fill="#9b6b3c" stroke="#101820" stroke-width="2"/>
      <polygon points="904.9,327.0 904.9,408.9 844.4,440.2 844.4,358.3" fill="#e6d8c6" stroke="#101820" stroke-width="2"/>
      <polygon points="844.4,358.3 844.4,440.2 773.9,403.8 773.9,321.9" fill="#efe1cf" stroke="#101820" stroke-width="2"/>
      <rect x="797.4" y="288.5" width="84" height="24" rx="12" fill="#ffffff" opacity=".82"/>
      <text x="839.4" y="306.5" text-anchor="middle" font-size="13" font-weight="800" fill="#102033">مخزن</text>
    </g></g>
  <rect x="510" y="495" width="28" height="110" fill="#c08a4d" opacity=".58"/><rect x="582" y="495" width="28" height="110" fill="#c08a4d" opacity=".58"/><rect x="654" y="495" width="28" height="110" fill="#c08a4d" opacity=".58"/><rect x="726" y="495" width="28" height="110" fill="#c08a4d" opacity=".58"/><rect x="798" y="495" width="28" height="110" fill="#c08a4d" opacity=".58"/><rect x="870" y="495" width="28" height="110" fill="#c08a4d" opacity=".58"/><rect x="942" y="495" width="28" height="110" fill="#c08a4d" opacity=".58"/>
  <path d="M330 790 C520 690 1090 680 1280 792" fill="none" stroke="#c08a4d" stroke-width="8" opacity=".75"/>
  <text x="1490" y="96" text-anchor="end" font-size="44" font-weight="900" fill="#eef5fb">تصور 3D مبدئي - تجاري بسيط مصري</text>
  <text x="1490" y="142" text-anchor="end" font-size="25" fill="#d9e3ee">مبني على قالب 2D: egyptian-simple_commercial-0300 | 300-399 م²</text>
  <rect x="70" y="960" width="1460" height="52" rx="8" fill="#07111f" opacity=".78"/>
  <text x="1490" y="994" text-anchor="end" font-size="22" fill="#ffffff">kamel3lom | رندر تخيلي غير معتمد هندسيًا أو إنشائيًا</text>
  <text x="110" y="994" font-size="22" fill="#f0b14b">توزيع عملي، شرفة، ومناطق معيشة واضحة.</text>
</svg>