<svg xmlns="http://www.w3.org/2000/svg" viewBox="0 0 1600 1050" role="img" aria-label="Concept 3D architectural render">
  <defs>
    <linearGradient id="sky-egyptian-simple_commercial-0400" x1="0" y1="0" x2="1" y2="1">
      <stop stop-color="#0c1b2b"/>
      <stop offset="1" stop-color="#d9e3ee"/>
    </linearGradient>
    <filter id="shadow-egyptian-simple_commercial-0400" x="-20%" y="-20%" width="140%" height="160%">
      <feDropShadow dx="0" dy="22" stdDeviation="24" flood-color="#000" flood-opacity=".28"/>
    </filter>
  </defs>
  <rect width="1600" height="1050" fill="url(#sky-egyptian-simple_commercial-0400)"/>
  <circle cx="1290" cy="180" r="74" fill="#f0b14b" opacity=".74"/>
  <ellipse cx="820" cy="780" rx="620" ry="130" fill="#07111f" opacity=".28"/>
  <g filter="url(#shadow-egyptian-simple_commercial-0400)"><g>
      <polygon points="820.0,90.0 964.8,164.9 840.3,229.3 695.4,154.4" fill="#9b6b3c" stroke="#101820" stroke-width="2"/>
      <polygon points="964.8,164.9 964.8,334.9 840.3,399.3 840.3,229.3" fill="#e6d8c6" stroke="#101820" stroke-width="2"/>
      <polygon points="840.3,229.3 840.3,399.3 695.4,324.4 695.4,154.4" fill="#efe1cf" stroke="#101820" stroke-width="2"/>
      <rect x="788.1" y="123.7" width="84" height="24" rx="12" fill="#ffffff" opacity=".82"/>
      <text x="830.1" y="141.7" text-anchor="middle" font-size="13" font-weight="800" fill="#102033">معرض</text>
    </g><g>
      <polygon points="936.0,208.2 1035.6,259.7 949.9,304.0 850.4,252.5" fill="#9b6b3c" stroke="#101820" stroke-width="2"/>
      <polygon points="1035.6,259.7 1035.6,371.5 949.9,415.8 949.9,304.0" fill="#e6d8c6" stroke="#101820" stroke-width="2"/>
      <polygon points="949.9,304.0 949.9,415.8 850.4,364.3 850.4,252.5" fill="#efe1cf" stroke="#101820" stroke-width="2"/>
      <rect x="901.0" y="220.1" width="84" height="24" rx="12" fill="#ffffff" opacity=".82"/>
      <text x="943.0" y="238.1" text-anchor="middle" font-size="13" font-weight="800" fill="#102033">مكاتب</text>
    </g><g>
      <polygon points="1052.0,210.0 1199.4,286.3 1072.6,351.9 925.2,275.6" fill="#9b6b3c" stroke="#101820" stroke-width="2"/>
      <polygon points="1199.4,286.3 1199.4,456.3 1072.6,521.9 1072.6,351.9" fill="#e6d8c6" stroke="#101820" stroke-width="2"/>
      <polygon points="1072.6,351.9 1072.6,521.9 925.2,445.6 925.2,275.6" fill="#efe1cf" stroke="#101820" stroke-width="2"/>
      <rect x="1020.3" y="244.9" width="84" height="24" rx="12" fill="#ffffff" opacity=".82"/>
      <text x="1062.3" y="262.9" text-anchor="middle" font-size="13" font-weight="800" fill="#102033">استقبال</text>
    </g><g>
      <polygon points="718.5,221.4 799.0,263.0 729.8,298.9 649.3,257.2" fill="#9b6b3c" stroke="#101820" stroke-width="2"/>
      <polygon points="799.0,263.0 799.0,354.1 729.8,390.0 729.8,298.9" fill="#e6d8c6" stroke="#101820" stroke-width="2"/>
      <polygon points="729.8,298.9 729.8,390.0 649.3,348.3 649.3,257.2" fill="#efe1cf" stroke="#101820" stroke-width="2"/>
      <rect x="682.1" y="224.1" width="84" height="24" rx="12" fill="#ffffff" opacity=".82"/>
      <text x="724.1" y="242.1" text-anchor="middle" font-size="13" font-weight="800" fill="#102033">خدمات</text>
    </g><g>
      <polygon points="834.5,279.1 917.4,322.0 846.1,358.8 763.2,316.0" fill="#9b6b3c" stroke="#101820" stroke-width="2"/>
      <polygon points="917.4,322.0 917.4,415.4 846.1,452.2 846.1,358.8" fill="#e6d8c6" stroke="#101820" stroke-width="2"/>
      <polygon points="846.1,358.8 846.1,452.2 763.2,409.4 763.2,316.0" fill="#efe1cf" stroke="#101820" stroke-width="2"/>
      <rect x="798.3" y="283.0" width="84" height="24" rx="12" fill="#ffffff" opacity=".82"/>
      <text x="840.3" y="301.0" text-anchor="middle" font-size="13" font-weight="800" fill="#102033">مخزن</text>
    </g><g>
      <polygon points="950.5,318.4 1052.0,370.9 964.7,416.0 863.2,363.5" fill="#9b6b3c" stroke="#101820" stroke-width="2"/>
      <polygon points="1052.0,370.9 1052.0,485.0 964.7,530.1 964.7,416.0" fill="#e6d8c6" stroke="#101820" stroke-width="2"/>
      <polygon points="964.7,416.0 964.7,530.1 863.2,477.6 863.2,363.5" fill="#efe1cf" stroke="#101820" stroke-width="2"/>
      <rect x="915.6" y="331.2" width="84" height="24" rx="12" fill="#ffffff" opacity=".82"/>
      <text x="957.6" y="349.2" text-anchor="middle" font-size="13" font-weight="800" fill="#102033">غرفة كهربا</text>
    </g></g>
  <rect x="510" y="495" width="28" height="110" fill="#c08a4d" opacity=".58"/><rect x="582" y="495" width="28" height="110" fill="#c08a4d" opacity=".58"/><rect x="654" y="495" width="28" height="110" fill="#c08a4d" opacity=".58"/><rect x="726" y="495" width="28" height="110" fill="#c08a4d" opacity=".58"/><rect x="798" y="495" width="28" height="110" fill="#c08a4d" opacity=".58"/><rect x="870" y="495" width="28" height="110" fill="#c08a4d" opacity=".58"/><rect x="942" y="495" width="28" height="110" fill="#c08a4d" opacity=".58"/>
  <path d="M330 790 C520 690 1090 680 1280 792" fill="none" stroke="#c08a4d" stroke-width="8" opacity=".75"/>
  <text x="1490" y="96" text-anchor="end" font-size="44" font-weight="900" fill="#eef5fb">تصور 3D مبدئي - تجاري بسيط مصري</text>
  <text x="1490" y="142" text-anchor="end" font-size="25" fill="#d9e3ee">مبني على قالب 2D: egyptian-simple_commercial-0400 | 400-499 م²</text>
  <rect x="70" y="960" width="1460" height="52" rx="8" fill="#07111f" opacity=".78"/>
  <text x="1490" y="994" text-anchor="end" font-size="22" fill="#ffffff">kamel3lom | رندر تخيلي غير معتمد هندسيًا أو إنشائيًا</text>
  <text x="110" y="994" font-size="22" fill="#f0b14b">توزيع عملي، شرفة، ومناطق معيشة واضحة.</text>
</svg>