<svg xmlns="http://www.w3.org/2000/svg" viewBox="0 0 1600 1050" role="img" aria-label="Concept 3D architectural render">
  <defs>
    <linearGradient id="sky-egyptian-simple_commercial-0500" x1="0" y1="0" x2="1" y2="1">
      <stop stop-color="#0c1b2b"/>
      <stop offset="1" stop-color="#d9e3ee"/>
    </linearGradient>
    <filter id="shadow-egyptian-simple_commercial-0500" x="-20%" y="-20%" width="140%" height="160%">
      <feDropShadow dx="0" dy="22" stdDeviation="24" flood-color="#000" flood-opacity=".28"/>
    </filter>
  </defs>
  <rect width="1600" height="1050" fill="url(#sky-egyptian-simple_commercial-0500)"/>
  <circle cx="1290" cy="180" r="74" fill="#f0b14b" opacity=".74"/>
  <ellipse cx="820" cy="780" rx="620" ry="130" fill="#07111f" opacity=".28"/>
  <g filter="url(#shadow-egyptian-simple_commercial-0500)"><g>
      <polygon points="820.0,90.0 970.8,168.0 841.1,235.1 690.3,157.1" fill="#9b6b3c" stroke="#101820" stroke-width="2"/>
      <polygon points="970.8,168.0 970.8,338.0 841.1,405.1 841.1,235.1" fill="#e6d8c6" stroke="#101820" stroke-width="2"/>
      <polygon points="841.1,235.1 841.1,405.1 690.3,327.1 690.3,157.1" fill="#efe1cf" stroke="#101820" stroke-width="2"/>
      <rect x="788.6" y="126.5" width="84" height="24" rx="12" fill="#ffffff" opacity=".82"/>
      <text x="830.6" y="144.5" text-anchor="middle" font-size="13" font-weight="800" fill="#102033">معرض</text>
    </g><g>
      <polygon points="936.0,189.8 1049.9,248.7 951.9,299.4 838.1,240.5" fill="#9b6b3c" stroke="#101820" stroke-width="2"/>
      <polygon points="1049.9,248.7 1049.9,378.9 951.9,429.6 951.9,299.4" fill="#e6d8c6" stroke="#101820" stroke-width="2"/>
      <polygon points="951.9,299.4 951.9,429.6 838.1,370.7 838.1,240.5" fill="#efe1cf" stroke="#101820" stroke-width="2"/>
      <rect x="902.0" y="208.6" width="84" height="24" rx="12" fill="#ffffff" opacity=".82"/>
      <text x="944.0" y="226.6" text-anchor="middle" font-size="13" font-weight="800" fill="#102033">مكاتب</text>
    </g><g>
      <polygon points="1052.0,210.0 1202.8,288.0 1073.1,355.1 922.3,277.1" fill="#9b6b3c" stroke="#101820" stroke-width="2"/>
      <polygon points="1202.8,288.0 1202.8,458.0 1073.1,525.1 1073.1,355.1" fill="#e6d8c6" stroke="#101820" stroke-width="2"/>
      <polygon points="1073.1,355.1 1073.1,525.1 922.3,447.1 922.3,277.1" fill="#efe1cf" stroke="#101820" stroke-width="2"/>
      <rect x="1020.6" y="246.5" width="84" height="24" rx="12" fill="#ffffff" opacity=".82"/>
      <text x="1062.6" y="264.5" text-anchor="middle" font-size="13" font-weight="800" fill="#102033">استقبال</text>
    </g><g>
      <polygon points="718.5,207.6 812.2,256.0 731.6,297.7 638.0,249.3" fill="#9b6b3c" stroke="#101820" stroke-width="2"/>
      <polygon points="812.2,256.0 812.2,360.9 731.6,402.6 731.6,297.7" fill="#e6d8c6" stroke="#101820" stroke-width="2"/>
      <polygon points="731.6,297.7 731.6,402.6 638.0,354.2 638.0,249.3" fill="#efe1cf" stroke="#101820" stroke-width="2"/>
      <rect x="683.1" y="216.7" width="84" height="24" rx="12" fill="#ffffff" opacity=".82"/>
      <text x="725.1" y="234.7" text-anchor="middle" font-size="13" font-weight="800" fill="#102033">خدمات</text>
    </g><g>
      <polygon points="834.5,273.4 922.9,319.1 846.9,358.4 758.5,312.7" fill="#9b6b3c" stroke="#101820" stroke-width="2"/>
      <polygon points="922.9,319.1 922.9,418.2 846.9,457.6 846.9,358.4" fill="#e6d8c6" stroke="#101820" stroke-width="2"/>
      <polygon points="846.9,358.4 846.9,457.6 758.5,411.8 758.5,312.7" fill="#efe1cf" stroke="#101820" stroke-width="2"/>
      <rect x="798.7" y="279.9" width="84" height="24" rx="12" fill="#ffffff" opacity=".82"/>
      <text x="840.7" y="297.9" text-anchor="middle" font-size="13" font-weight="800" fill="#102033">مخزن</text>
    </g><g>
      <polygon points="950.5,305.8 1061.8,363.3 966.1,412.9 854.8,355.3" fill="#9b6b3c" stroke="#101820" stroke-width="2"/>
      <polygon points="1061.8,363.3 1061.8,490.1 966.1,539.6 966.1,412.9" fill="#e6d8c6" stroke="#101820" stroke-width="2"/>
      <polygon points="966.1,412.9 966.1,539.6 854.8,482.0 854.8,355.3" fill="#efe1cf" stroke="#101820" stroke-width="2"/>
      <rect x="916.3" y="323.3" width="84" height="24" rx="12" fill="#ffffff" opacity=".82"/>
      <text x="958.3" y="341.3" text-anchor="middle" font-size="13" font-weight="800" fill="#102033">غرفة كهربا</text>
    </g></g>
  <rect x="510" y="495" width="28" height="110" fill="#c08a4d" opacity=".58"/><rect x="582" y="495" width="28" height="110" fill="#c08a4d" opacity=".58"/><rect x="654" y="495" width="28" height="110" fill="#c08a4d" opacity=".58"/><rect x="726" y="495" width="28" height="110" fill="#c08a4d" opacity=".58"/><rect x="798" y="495" width="28" height="110" fill="#c08a4d" opacity=".58"/><rect x="870" y="495" width="28" height="110" fill="#c08a4d" opacity=".58"/><rect x="942" y="495" width="28" height="110" fill="#c08a4d" opacity=".58"/>
  <path d="M330 790 C520 690 1090 680 1280 792" fill="none" stroke="#c08a4d" stroke-width="8" opacity=".75"/>
  <text x="1490" y="96" text-anchor="end" font-size="44" font-weight="900" fill="#eef5fb">تصور 3D مبدئي - تجاري بسيط مصري</text>
  <text x="1490" y="142" text-anchor="end" font-size="25" fill="#d9e3ee">مبني على قالب 2D: egyptian-simple_commercial-0500 | 500-599 م²</text>
  <rect x="70" y="960" width="1460" height="52" rx="8" fill="#07111f" opacity=".78"/>
  <text x="1490" y="994" text-anchor="end" font-size="22" fill="#ffffff">kamel3lom | رندر تخيلي غير معتمد هندسيًا أو إنشائيًا</text>
  <text x="110" y="994" font-size="22" fill="#f0b14b">توزيع عملي، شرفة، ومناطق معيشة واضحة.</text>
</svg>