<svg xmlns="http://www.w3.org/2000/svg" viewBox="0 0 1600 1050" role="img" aria-label="Concept 3D architectural render">
  <defs>
    <linearGradient id="sky-egyptian-townhouse-0300" x1="0" y1="0" x2="1" y2="1">
      <stop stop-color="#0c1b2b"/>
      <stop offset="1" stop-color="#d9e3ee"/>
    </linearGradient>
    <filter id="shadow-egyptian-townhouse-0300" x="-20%" y="-20%" width="140%" height="160%">
      <feDropShadow dx="0" dy="22" stdDeviation="24" flood-color="#000" flood-opacity=".28"/>
    </filter>
  </defs>
  <rect width="1600" height="1050" fill="url(#sky-egyptian-townhouse-0300)"/>
  <circle cx="1290" cy="180" r="74" fill="#f0b14b" opacity=".74"/>
  <ellipse cx="820" cy="780" rx="620" ry="130" fill="#07111f" opacity=".28"/>
  <g filter="url(#shadow-egyptian-townhouse-0300)"><g>
      <polygon points="820.0,113.7 945.1,178.4 837.5,234.0 712.5,169.3" fill="#9b6b3c" stroke="#101820" stroke-width="2"/>
      <polygon points="945.1,178.4 945.1,324.7 837.5,380.3 837.5,234.0" fill="#e6d8c6" stroke="#101820" stroke-width="2"/>
      <polygon points="837.5,234.0 837.5,380.3 712.5,315.6 712.5,169.3" fill="#efe1cf" stroke="#101820" stroke-width="2"/>
      <rect x="786.8" y="137.9" width="84" height="24" rx="12" fill="#ffffff" opacity=".82"/>
      <text x="828.8" y="155.9" text-anchor="middle" font-size="13" font-weight="800" fill="#102033">معيشة</text>
    </g><g>
      <polygon points="936.0,211.7 1032.7,261.6 949.5,304.6 852.9,254.7" fill="#9b6b3c" stroke="#101820" stroke-width="2"/>
      <polygon points="1032.7,261.6 1032.7,370.0 949.5,413.0 949.5,304.6" fill="#e6d8c6" stroke="#101820" stroke-width="2"/>
      <polygon points="949.5,304.6 949.5,413.0 852.9,363.0 852.9,254.7" fill="#efe1cf" stroke="#101820" stroke-width="2"/>
      <rect x="900.8" y="222.2" width="84" height="24" rx="12" fill="#ffffff" opacity=".82"/>
      <text x="942.8" y="240.2" text-anchor="middle" font-size="13" font-weight="800" fill="#102033">طعام</text>
    </g><g>
      <polygon points="1052.0,275.1 1145.7,323.5 1065.1,365.2 971.5,316.8" fill="#9b6b3c" stroke="#101820" stroke-width="2"/>
      <polygon points="1145.7,323.5 1145.7,428.4 1065.1,470.1 1065.1,365.2" fill="#e6d8c6" stroke="#101820" stroke-width="2"/>
      <polygon points="1065.1,365.2 1065.1,470.1 971.5,421.7 971.5,316.8" fill="#efe1cf" stroke="#101820" stroke-width="2"/>
      <rect x="1016.6" y="284.2" width="84" height="24" rx="12" fill="#ffffff" opacity=".82"/>
      <text x="1058.6" y="302.2" text-anchor="middle" font-size="13" font-weight="800" fill="#102033">مطبخ</text>
    </g><g>
      <polygon points="718.5,191.5 825.5,246.8 733.5,294.4 626.5,239.1" fill="#9b6b3c" stroke="#101820" stroke-width="2"/>
      <polygon points="825.5,246.8 825.5,367.8 733.5,415.4 733.5,294.4" fill="#e6d8c6" stroke="#101820" stroke-width="2"/>
      <polygon points="733.5,294.4 733.5,415.4 626.5,360.1 626.5,239.1" fill="#efe1cf" stroke="#101820" stroke-width="2"/>
      <rect x="684.0" y="207.0" width="84" height="24" rx="12" fill="#ffffff" opacity=".82"/>
      <text x="726.0" y="225.0" text-anchor="middle" font-size="13" font-weight="800" fill="#102033">ثلاث غرف ن</text>
    </g><g>
      <polygon points="834.5,292.9 902.2,327.9 844.0,358.0 776.3,323.0" fill="#9b6b3c" stroke="#101820" stroke-width="2"/>
      <polygon points="902.2,327.9 902.2,407.5 844.0,437.6 844.0,358.0" fill="#e6d8c6" stroke="#101820" stroke-width="2"/>
      <polygon points="844.0,358.0 844.0,437.6 776.3,402.6 776.3,323.0" fill="#efe1cf" stroke="#101820" stroke-width="2"/>
      <rect x="797.2" y="289.4" width="84" height="24" rx="12" fill="#ffffff" opacity=".82"/>
      <text x="839.2" y="307.4" text-anchor="middle" font-size="13" font-weight="800" fill="#102033">حمامان</text>
    </g><g>
      <polygon points="950.5,335.6 1036.7,380.3 962.6,418.6 876.3,374.0" fill="#9b6b3c" stroke="#101820" stroke-width="2"/>
      <polygon points="1036.7,380.3 1036.7,477.1 962.6,515.5 962.6,418.6" fill="#e6d8c6" stroke="#101820" stroke-width="2"/>
      <polygon points="962.6,418.6 962.6,515.5 876.3,470.9 876.3,374.0" fill="#efe1cf" stroke="#101820" stroke-width="2"/>
      <rect x="914.5" y="341.1" width="84" height="24" rx="12" fill="#ffffff" opacity=".82"/>
      <text x="956.5" y="359.1" text-anchor="middle" font-size="13" font-weight="800" fill="#102033">تراس</text>
    </g></g>
  <rect x="510" y="495" width="28" height="110" fill="#c08a4d" opacity=".58"/><rect x="582" y="495" width="28" height="110" fill="#c08a4d" opacity=".58"/><rect x="654" y="495" width="28" height="110" fill="#c08a4d" opacity=".58"/><rect x="726" y="495" width="28" height="110" fill="#c08a4d" opacity=".58"/><rect x="798" y="495" width="28" height="110" fill="#c08a4d" opacity=".58"/><rect x="870" y="495" width="28" height="110" fill="#c08a4d" opacity=".58"/><rect x="942" y="495" width="28" height="110" fill="#c08a4d" opacity=".58"/>
  <path d="M330 790 C520 690 1090 680 1280 792" fill="none" stroke="#c08a4d" stroke-width="8" opacity=".75"/>
  <text x="1490" y="96" text-anchor="end" font-size="44" font-weight="900" fill="#eef5fb">تصور 3D مبدئي - تاون هاوس مصري</text>
  <text x="1490" y="142" text-anchor="end" font-size="25" fill="#d9e3ee">مبني على قالب 2D: egyptian-townhouse-0300 | 300-399 م²</text>
  <rect x="70" y="960" width="1460" height="52" rx="8" fill="#07111f" opacity=".78"/>
  <text x="1490" y="994" text-anchor="end" font-size="22" fill="#ffffff">kamel3lom | رندر تخيلي غير معتمد هندسيًا أو إنشائيًا</text>
  <text x="110" y="994" font-size="22" fill="#f0b14b">توزيع عملي، شرفة، ومناطق معيشة واضحة.</text>
</svg>