<svg xmlns="http://www.w3.org/2000/svg" viewBox="0 0 1600 1050" role="img" aria-label="Concept 3D architectural render">
  <defs>
    <linearGradient id="sky-modern-studio-0200" x1="0" y1="0" x2="1" y2="1">
      <stop stop-color="#0c1b2b"/>
      <stop offset="1" stop-color="#d9e3ee"/>
    </linearGradient>
    <filter id="shadow-modern-studio-0200" x="-20%" y="-20%" width="140%" height="160%">
      <feDropShadow dx="0" dy="22" stdDeviation="24" flood-color="#000" flood-opacity=".28"/>
    </filter>
  </defs>
  <rect width="1600" height="1050" fill="url(#sky-modern-studio-0200)"/>
  <circle cx="1290" cy="180" r="74" fill="#f0b14b" opacity=".74"/>
  <ellipse cx="820" cy="780" rx="620" ry="130" fill="#07111f" opacity=".28"/>
  <g filter="url(#shadow-modern-studio-0200)"><g>
      <polygon points="820.0,130.9 933.0,189.4 835.8,239.7 722.8,181.2" fill="#26364a" stroke="#101820" stroke-width="2"/>
      <polygon points="933.0,189.4 933.0,318.5 835.8,368.7 835.8,239.7" fill="#d9e3ee" stroke="#101820" stroke-width="2"/>
      <polygon points="835.8,239.7 835.8,368.7 722.8,310.3 722.8,181.2" fill="#eef3f8" stroke="#101820" stroke-width="2"/>
      <rect x="785.9" y="149.3" width="84" height="24" rx="12" fill="#ffffff" opacity=".82"/>
      <text x="827.9" y="167.3" text-anchor="middle" font-size="13" font-weight="800" fill="#102033">معيشة</text>
    </g><g>
      <polygon points="936.0,210.5 1033.6,261.0 949.7,304.4 852.0,253.9" fill="#26364a" stroke="#101820" stroke-width="2"/>
      <polygon points="1033.6,261.0 1033.6,370.5 949.7,413.9 949.7,304.4" fill="#d9e3ee" stroke="#101820" stroke-width="2"/>
      <polygon points="949.7,304.4 949.7,413.9 852.0,363.4 852.0,253.9" fill="#eef3f8" stroke="#101820" stroke-width="2"/>
      <rect x="900.8" y="221.5" width="84" height="24" rx="12" fill="#ffffff" opacity=".82"/>
      <text x="942.8" y="239.5" text-anchor="middle" font-size="13" font-weight="800" fill="#102033">نوم</text>
    </g><g>
      <polygon points="1052.0,282.0 1139.3,327.2 1064.2,366.0 976.9,320.9" fill="#26364a" stroke="#101820" stroke-width="2"/>
      <polygon points="1139.3,327.2 1139.3,425.2 1064.2,464.0 1064.2,366.0" fill="#d9e3ee" stroke="#101820" stroke-width="2"/>
      <polygon points="1064.2,366.0 1064.2,464.0 976.9,418.9 976.9,320.9" fill="#eef3f8" stroke="#101820" stroke-width="2"/>
      <rect x="1016.1" y="288.0" width="84" height="24" rx="12" fill="#ffffff" opacity=".82"/>
      <text x="1058.1" y="306.0" text-anchor="middle" font-size="13" font-weight="800" fill="#102033">مطبخ</text>
    </g><g>
      <polygon points="718.5,236.3 782.3,269.4 727.4,297.7 663.6,264.7" fill="#26364a" stroke="#101820" stroke-width="2"/>
      <polygon points="782.3,269.4 782.3,345.5 727.4,373.9 727.4,297.7" fill="#d9e3ee" stroke="#101820" stroke-width="2"/>
      <polygon points="727.4,297.7 727.4,373.9 663.6,340.9 663.6,264.7" fill="#eef3f8" stroke="#101820" stroke-width="2"/>
      <rect x="681.0" y="231.0" width="84" height="24" rx="12" fill="#ffffff" opacity=".82"/>
      <text x="723.0" y="249.0" text-anchor="middle" font-size="13" font-weight="800" fill="#102033">حمام</text>
    </g><g>
      <polygon points="834.5,295.2 899.3,328.7 843.6,357.5 778.8,324.0" fill="#26364a" stroke="#101820" stroke-width="2"/>
      <polygon points="899.3,328.7 899.3,406.0 843.6,434.8 843.6,357.5" fill="#d9e3ee" stroke="#101820" stroke-width="2"/>
      <polygon points="843.6,357.5 843.6,434.8 778.8,401.3 778.8,324.0" fill="#eef3f8" stroke="#101820" stroke-width="2"/>
      <rect x="797.0" y="290.4" width="84" height="24" rx="12" fill="#ffffff" opacity=".82"/>
      <text x="839.0" y="308.4" text-anchor="middle" font-size="13" font-weight="800" fill="#102033">غسيل</text>
    </g></g>
  <rect x="500" y="488" width="54" height="120" rx="4" fill="#7dd3fc" opacity=".65"/><rect x="586" y="488" width="54" height="120" rx="4" fill="#7dd3fc" opacity=".65"/><rect x="672" y="488" width="54" height="120" rx="4" fill="#7dd3fc" opacity=".65"/><rect x="758" y="488" width="54" height="120" rx="4" fill="#7dd3fc" opacity=".65"/><rect x="844" y="488" width="54" height="120" rx="4" fill="#7dd3fc" opacity=".65"/><rect x="930" y="488" width="54" height="120" rx="4" fill="#7dd3fc" opacity=".65"/>
  <path d="M330 790 C520 690 1090 680 1280 792" fill="none" stroke="#e26f24" stroke-width="8" opacity=".75"/>
  <text x="1490" y="96" text-anchor="end" font-size="44" font-weight="900" fill="#eef5fb">تصور 3D مبدئي - استوديو مودرن</text>
  <text x="1490" y="142" text-anchor="end" font-size="25" fill="#d9e3ee">مبني على قالب 2D: modern-studio-0200 | 200-299 م²</text>
  <rect x="70" y="960" width="1460" height="52" rx="8" fill="#07111f" opacity=".78"/>
  <text x="1490" y="994" text-anchor="end" font-size="22" fill="#ffffff">kamel3lom | رندر تخيلي غير معتمد هندسيًا أو إنشائيًا</text>
  <text x="110" y="994" font-size="22" fill="#f0b14b">مساحات مفتوحة، واجهات زجاجية، وخطوط مستقيمة.</text>
</svg>