<svg xmlns="http://www.w3.org/2000/svg" viewBox="0 0 1600 1050" role="img" aria-label="Concept 3D architectural render">
  <defs>
    <linearGradient id="sky-modern-townhouse-0100" x1="0" y1="0" x2="1" y2="1">
      <stop stop-color="#0c1b2b"/>
      <stop offset="1" stop-color="#d9e3ee"/>
    </linearGradient>
    <filter id="shadow-modern-townhouse-0100" x="-20%" y="-20%" width="140%" height="160%">
      <feDropShadow dx="0" dy="22" stdDeviation="24" flood-color="#000" flood-opacity=".28"/>
    </filter>
  </defs>
  <rect width="1600" height="1050" fill="url(#sky-modern-townhouse-0100)"/>
  <circle cx="1290" cy="180" r="74" fill="#f0b14b" opacity=".74"/>
  <ellipse cx="820" cy="780" rx="620" ry="130" fill="#07111f" opacity=".28"/>
  <g filter="url(#shadow-modern-townhouse-0100)"><g>
      <polygon points="820.0,171.2 898.1,211.6 830.9,246.4 752.8,205.9" fill="#26364a" stroke="#101820" stroke-width="2"/>
      <polygon points="898.1,211.6 898.1,300.4 830.9,335.2 830.9,246.4" fill="#d9e3ee" stroke="#101820" stroke-width="2"/>
      <polygon points="830.9,246.4 830.9,335.2 752.8,294.7 752.8,205.9" fill="#eef3f8" stroke="#101820" stroke-width="2"/>
      <rect x="783.5" y="172.8" width="84" height="24" rx="12" fill="#ffffff" opacity=".82"/>
      <text x="825.5" y="190.8" text-anchor="middle" font-size="13" font-weight="800" fill="#102033">معيشة</text>
    </g><g>
      <polygon points="936.0,246.2 999.8,279.1 944.9,307.5 881.1,274.5" fill="#26364a" stroke="#101820" stroke-width="2"/>
      <polygon points="999.8,279.1 999.8,353.0 944.9,381.4 944.9,307.5" fill="#d9e3ee" stroke="#101820" stroke-width="2"/>
      <polygon points="944.9,307.5 944.9,381.4 881.1,348.4 881.1,274.5" fill="#eef3f8" stroke="#101820" stroke-width="2"/>
      <rect x="898.5" y="240.8" width="84" height="24" rx="12" fill="#ffffff" opacity=".82"/>
      <text x="940.5" y="258.8" text-anchor="middle" font-size="13" font-weight="800" fill="#102033">مطبخ</text>
    </g><g>
      <polygon points="1052.0,316.5 1115.8,349.5 1060.9,377.9 997.1,344.9" fill="#26364a" stroke="#101820" stroke-width="2"/>
      <polygon points="1115.8,349.5 1115.8,413.0 1060.9,441.4 1060.9,377.9" fill="#d9e3ee" stroke="#101820" stroke-width="2"/>
      <polygon points="1060.9,377.9 1060.9,441.4 997.1,408.4 997.1,344.9" fill="#eef3f8" stroke="#101820" stroke-width="2"/>
      <rect x="1014.5" y="311.2" width="84" height="24" rx="12" fill="#ffffff" opacity=".82"/>
      <text x="1056.5" y="329.2" text-anchor="middle" font-size="13" font-weight="800" fill="#102033">حمام ضيوف</text>
    </g><g>
      <polygon points="718.5,232.9 786.2,267.9 728.0,298.0 660.3,263.0" fill="#26364a" stroke="#101820" stroke-width="2"/>
      <polygon points="786.2,267.9 786.2,347.5 728.0,377.6 728.0,298.0" fill="#d9e3ee" stroke="#101820" stroke-width="2"/>
      <polygon points="728.0,298.0 728.0,377.6 660.3,342.6 660.3,263.0" fill="#eef3f8" stroke="#101820" stroke-width="2"/>
      <rect x="681.2" y="229.4" width="84" height="24" rx="12" fill="#ffffff" opacity=".82"/>
      <text x="723.2" y="247.4" text-anchor="middle" font-size="13" font-weight="800" fill="#102033">غرفتا نوم</text>
    </g><g>
      <polygon points="834.5,303.2 898.3,336.2 843.4,364.6 779.6,331.6" fill="#26364a" stroke="#101820" stroke-width="2"/>
      <polygon points="898.3,336.2 898.3,405.5 843.4,433.9 843.4,364.6" fill="#d9e3ee" stroke="#101820" stroke-width="2"/>
      <polygon points="843.4,364.6 843.4,433.9 779.6,400.9 779.6,331.6" fill="#eef3f8" stroke="#101820" stroke-width="2"/>
      <rect x="797.0" y="297.9" width="84" height="24" rx="12" fill="#ffffff" opacity=".82"/>
      <text x="839.0" y="315.9" text-anchor="middle" font-size="13" font-weight="800" fill="#102033">تراس</text>
    </g></g>
  <rect x="500" y="488" width="54" height="120" rx="4" fill="#7dd3fc" opacity=".65"/><rect x="586" y="488" width="54" height="120" rx="4" fill="#7dd3fc" opacity=".65"/><rect x="672" y="488" width="54" height="120" rx="4" fill="#7dd3fc" opacity=".65"/><rect x="758" y="488" width="54" height="120" rx="4" fill="#7dd3fc" opacity=".65"/><rect x="844" y="488" width="54" height="120" rx="4" fill="#7dd3fc" opacity=".65"/><rect x="930" y="488" width="54" height="120" rx="4" fill="#7dd3fc" opacity=".65"/>
  <path d="M330 790 C520 690 1090 680 1280 792" fill="none" stroke="#e26f24" stroke-width="8" opacity=".75"/>
  <text x="1490" y="96" text-anchor="end" font-size="44" font-weight="900" fill="#eef5fb">تصور 3D مبدئي - تاون هاوس مودرن</text>
  <text x="1490" y="142" text-anchor="end" font-size="25" fill="#d9e3ee">مبني على قالب 2D: modern-townhouse-0100 | 100-199 م²</text>
  <rect x="70" y="960" width="1460" height="52" rx="8" fill="#07111f" opacity=".78"/>
  <text x="1490" y="994" text-anchor="end" font-size="22" fill="#ffffff">kamel3lom | رندر تخيلي غير معتمد هندسيًا أو إنشائيًا</text>
  <text x="110" y="994" font-size="22" fill="#f0b14b">مساحات مفتوحة، واجهات زجاجية، وخطوط مستقيمة.</text>
</svg>