<svg xmlns="http://www.w3.org/2000/svg" viewBox="0 0 1600 1050" role="img" aria-label="Concept 3D architectural render">
  <defs>
    <linearGradient id="sky-modern-villa-0100" x1="0" y1="0" x2="1" y2="1">
      <stop stop-color="#0c1b2b"/>
      <stop offset="1" stop-color="#d9e3ee"/>
    </linearGradient>
    <filter id="shadow-modern-villa-0100" x="-20%" y="-20%" width="140%" height="160%">
      <feDropShadow dx="0" dy="22" stdDeviation="24" flood-color="#000" flood-opacity=".28"/>
    </filter>
  </defs>
  <rect width="1600" height="1050" fill="url(#sky-modern-villa-0100)"/>
  <circle cx="1290" cy="180" r="74" fill="#f0b14b" opacity=".74"/>
  <ellipse cx="820" cy="780" rx="620" ry="130" fill="#07111f" opacity=".28"/>
  <g filter="url(#shadow-modern-villa-0100)"><g>
      <polygon points="820.0,179.2 889.0,215.0 829.7,245.7 760.6,210.0" fill="#26364a" stroke="#101820" stroke-width="2"/>
      <polygon points="889.0,215.0 889.0,295.7 829.7,326.4 829.7,245.7" fill="#d9e3ee" stroke="#101820" stroke-width="2"/>
      <polygon points="829.7,245.7 829.7,326.4 760.6,290.7 760.6,210.0" fill="#eef3f8" stroke="#101820" stroke-width="2"/>
      <rect x="782.8" y="176.5" width="84" height="24" rx="12" fill="#ffffff" opacity=".82"/>
      <text x="824.8" y="194.5" text-anchor="middle" font-size="13" font-weight="800" fill="#102033">مجلس</text>
    </g><g>
      <polygon points="936.0,239.2 1005.0,275.0 945.7,305.7 876.6,270.0" fill="#26364a" stroke="#101820" stroke-width="2"/>
      <polygon points="1005.0,275.0 1005.0,355.7 945.7,386.4 945.7,305.7" fill="#d9e3ee" stroke="#101820" stroke-width="2"/>
      <polygon points="945.7,305.7 945.7,386.4 876.6,350.7 876.6,270.0" fill="#eef3f8" stroke="#101820" stroke-width="2"/>
      <rect x="898.8" y="236.5" width="84" height="24" rx="12" fill="#ffffff" opacity=".82"/>
      <text x="940.8" y="254.5" text-anchor="middle" font-size="13" font-weight="800" fill="#102033">معيشة</text>
    </g><g>
      <polygon points="1052.0,308.4 1115.8,341.4 1060.9,369.8 997.1,336.8" fill="#26364a" stroke="#101820" stroke-width="2"/>
      <polygon points="1115.8,341.4 1115.8,413.0 1060.9,441.4 1060.9,369.8" fill="#d9e3ee" stroke="#101820" stroke-width="2"/>
      <polygon points="1060.9,369.8 1060.9,441.4 997.1,408.4 997.1,336.8" fill="#eef3f8" stroke="#101820" stroke-width="2"/>
      <rect x="1014.5" y="303.1" width="84" height="24" rx="12" fill="#ffffff" opacity=".82"/>
      <text x="1056.5" y="321.1" text-anchor="middle" font-size="13" font-weight="800" fill="#102033">غرفتا نوم</text>
    </g><g>
      <polygon points="718.5,244.4 782.3,277.4 727.4,305.8 663.6,272.8" fill="#26364a" stroke="#101820" stroke-width="2"/>
      <polygon points="782.3,277.4 782.3,345.5 727.4,373.9 727.4,305.8" fill="#d9e3ee" stroke="#101820" stroke-width="2"/>
      <polygon points="727.4,305.8 727.4,373.9 663.6,340.9 663.6,272.8" fill="#eef3f8" stroke="#101820" stroke-width="2"/>
      <rect x="681.0" y="239.1" width="84" height="24" rx="12" fill="#ffffff" opacity=".82"/>
      <text x="723.0" y="257.1" text-anchor="middle" font-size="13" font-weight="800" fill="#102033">مطبخ</text>
    </g><g>
      <polygon points="834.5,312.4 898.3,345.4 843.4,373.8 779.6,340.8" fill="#26364a" stroke="#101820" stroke-width="2"/>
      <polygon points="898.3,345.4 898.3,405.5 843.4,433.9 843.4,373.8" fill="#d9e3ee" stroke="#101820" stroke-width="2"/>
      <polygon points="843.4,373.8 843.4,433.9 779.6,400.9 779.6,340.8" fill="#eef3f8" stroke="#101820" stroke-width="2"/>
      <rect x="797.0" y="307.1" width="84" height="24" rx="12" fill="#ffffff" opacity=".82"/>
      <text x="839.0" y="325.1" text-anchor="middle" font-size="13" font-weight="800" fill="#102033">حمامان</text>
    </g><g>
      <polygon points="950.5,366.7 1014.3,399.7 959.4,428.1 895.6,395.1" fill="#26364a" stroke="#101820" stroke-width="2"/>
      <polygon points="1014.3,399.7 1014.3,465.5 959.4,493.9 959.4,428.1" fill="#d9e3ee" stroke="#101820" stroke-width="2"/>
      <polygon points="959.4,428.1 959.4,493.9 895.6,460.9 895.6,395.1" fill="#eef3f8" stroke="#101820" stroke-width="2"/>
      <rect x="913.0" y="361.4" width="84" height="24" rx="12" fill="#ffffff" opacity=".82"/>
      <text x="955.0" y="379.4" text-anchor="middle" font-size="13" font-weight="800" fill="#102033">فناء</text>
    </g></g>
  <rect x="500" y="488" width="54" height="120" rx="4" fill="#7dd3fc" opacity=".65"/><rect x="586" y="488" width="54" height="120" rx="4" fill="#7dd3fc" opacity=".65"/><rect x="672" y="488" width="54" height="120" rx="4" fill="#7dd3fc" opacity=".65"/><rect x="758" y="488" width="54" height="120" rx="4" fill="#7dd3fc" opacity=".65"/><rect x="844" y="488" width="54" height="120" rx="4" fill="#7dd3fc" opacity=".65"/><rect x="930" y="488" width="54" height="120" rx="4" fill="#7dd3fc" opacity=".65"/>
  <path d="M330 790 C520 690 1090 680 1280 792" fill="none" stroke="#e26f24" stroke-width="8" opacity=".75"/>
  <text x="1490" y="96" text-anchor="end" font-size="44" font-weight="900" fill="#eef5fb">تصور 3D مبدئي - فيلا مودرن</text>
  <text x="1490" y="142" text-anchor="end" font-size="25" fill="#d9e3ee">مبني على قالب 2D: modern-villa-0100 | 100-199 م²</text>
  <rect x="70" y="960" width="1460" height="52" rx="8" fill="#07111f" opacity=".78"/>
  <text x="1490" y="994" text-anchor="end" font-size="22" fill="#ffffff">kamel3lom | رندر تخيلي غير معتمد هندسيًا أو إنشائيًا</text>
  <text x="110" y="994" font-size="22" fill="#f0b14b">مساحات مفتوحة، واجهات زجاجية، وخطوط مستقيمة.</text>
</svg>