<svg xmlns="http://www.w3.org/2000/svg" viewBox="0 0 1600 1050" role="img" aria-label="Concept 3D architectural render">
  <defs>
    <linearGradient id="sky-modern-simple_commercial-0100" x1="0" y1="0" x2="1" y2="1">
      <stop stop-color="#0c1b2b"/>
      <stop offset="1" stop-color="#d9e3ee"/>
    </linearGradient>
    <filter id="shadow-modern-simple_commercial-0100" x="-20%" y="-20%" width="140%" height="160%">
      <feDropShadow dx="0" dy="22" stdDeviation="24" flood-color="#000" flood-opacity=".28"/>
    </filter>
  </defs>
  <rect width="1600" height="1050" fill="url(#sky-modern-simple_commercial-0100)"/>
  <circle cx="1290" cy="180" r="74" fill="#f0b14b" opacity=".74"/>
  <ellipse cx="820" cy="780" rx="620" ry="130" fill="#07111f" opacity=".28"/>
  <g filter="url(#shadow-modern-simple_commercial-0100)"><g>
      <polygon points="820.0,159.7 909.5,206.0 832.5,245.8 743.0,199.5" fill="#26364a" stroke="#101820" stroke-width="2"/>
      <polygon points="909.5,206.0 909.5,306.3 832.5,346.1 832.5,245.8" fill="#d9e3ee" stroke="#101820" stroke-width="2"/>
      <polygon points="832.5,245.8 832.5,346.1 743.0,299.8 743.0,199.5" fill="#eef3f8" stroke="#101820" stroke-width="2"/>
      <rect x="784.3" y="166.8" width="84" height="24" rx="12" fill="#ffffff" opacity=".82"/>
      <text x="826.3" y="184.8" text-anchor="middle" font-size="13" font-weight="800" fill="#102033">معرض</text>
    </g><g>
      <polygon points="936.0,232.3 1012.9,272.1 946.8,306.3 869.9,266.6" fill="#26364a" stroke="#101820" stroke-width="2"/>
      <polygon points="1012.9,272.1 1012.9,359.8 946.8,394.0 946.8,306.3" fill="#d9e3ee" stroke="#101820" stroke-width="2"/>
      <polygon points="946.8,306.3 946.8,394.0 869.9,354.2 869.9,266.6" fill="#eef3f8" stroke="#101820" stroke-width="2"/>
      <rect x="899.4" y="233.3" width="84" height="24" rx="12" fill="#ffffff" opacity=".82"/>
      <text x="941.4" y="251.3" text-anchor="middle" font-size="13" font-weight="800" fill="#102033">مكتب</text>
    </g><g>
      <polygon points="1052.0,313.1 1115.8,346.1 1060.9,374.4 997.1,341.4" fill="#26364a" stroke="#101820" stroke-width="2"/>
      <polygon points="1115.8,346.1 1115.8,413.0 1060.9,441.4 1060.9,374.4" fill="#d9e3ee" stroke="#101820" stroke-width="2"/>
      <polygon points="1060.9,374.4 1060.9,441.4 997.1,408.4 997.1,341.4" fill="#eef3f8" stroke="#101820" stroke-width="2"/>
      <rect x="1014.5" y="307.7" width="84" height="24" rx="12" fill="#ffffff" opacity=".82"/>
      <text x="1056.5" y="325.7" text-anchor="middle" font-size="13" font-weight="800" fill="#102033">حمام</text>
    </g><g>
      <polygon points="718.5,244.4 782.3,277.4 727.4,305.8 663.6,272.8" fill="#26364a" stroke="#101820" stroke-width="2"/>
      <polygon points="782.3,277.4 782.3,345.5 727.4,373.9 727.4,305.8" fill="#d9e3ee" stroke="#101820" stroke-width="2"/>
      <polygon points="727.4,305.8 727.4,373.9 663.6,340.9 663.6,272.8" fill="#eef3f8" stroke="#101820" stroke-width="2"/>
      <rect x="681.0" y="239.1" width="84" height="24" rx="12" fill="#ffffff" opacity=".82"/>
      <text x="723.0" y="257.1" text-anchor="middle" font-size="13" font-weight="800" fill="#102033">مخزن</text>
    </g></g>
  <rect x="500" y="488" width="54" height="120" rx="4" fill="#7dd3fc" opacity=".65"/><rect x="586" y="488" width="54" height="120" rx="4" fill="#7dd3fc" opacity=".65"/><rect x="672" y="488" width="54" height="120" rx="4" fill="#7dd3fc" opacity=".65"/><rect x="758" y="488" width="54" height="120" rx="4" fill="#7dd3fc" opacity=".65"/><rect x="844" y="488" width="54" height="120" rx="4" fill="#7dd3fc" opacity=".65"/><rect x="930" y="488" width="54" height="120" rx="4" fill="#7dd3fc" opacity=".65"/>
  <path d="M330 790 C520 690 1090 680 1280 792" fill="none" stroke="#e26f24" stroke-width="8" opacity=".75"/>
  <text x="1490" y="96" text-anchor="end" font-size="44" font-weight="900" fill="#eef5fb">تصور 3D مبدئي - تجاري بسيط مودرن</text>
  <text x="1490" y="142" text-anchor="end" font-size="25" fill="#d9e3ee">مبني على قالب 2D: modern-simple_commercial-0100 | 100-199 م²</text>
  <rect x="70" y="960" width="1460" height="52" rx="8" fill="#07111f" opacity=".78"/>
  <text x="1490" y="994" text-anchor="end" font-size="22" fill="#ffffff">kamel3lom | رندر تخيلي غير معتمد هندسيًا أو إنشائيًا</text>
  <text x="110" y="994" font-size="22" fill="#f0b14b">مساحات مفتوحة، واجهات زجاجية، وخطوط مستقيمة.</text>
</svg>