<svg xmlns="http://www.w3.org/2000/svg" viewBox="0 0 1600 1050" role="img" aria-label="Concept 3D architectural render">
  <defs>
    <linearGradient id="sky-modern-simple_commercial-0600" x1="0" y1="0" x2="1" y2="1">
      <stop stop-color="#0c1b2b"/>
      <stop offset="1" stop-color="#d9e3ee"/>
    </linearGradient>
    <filter id="shadow-modern-simple_commercial-0600" x="-20%" y="-20%" width="140%" height="160%">
      <feDropShadow dx="0" dy="22" stdDeviation="24" flood-color="#000" flood-opacity=".28"/>
    </filter>
  </defs>
  <rect width="1600" height="1050" fill="url(#sky-modern-simple_commercial-0600)"/>
  <circle cx="1290" cy="180" r="74" fill="#f0b14b" opacity=".74"/>
  <ellipse cx="820" cy="780" rx="620" ry="130" fill="#07111f" opacity=".28"/>
  <g filter="url(#shadow-modern-simple_commercial-0600)"><g>
      <polygon points="820.0,90.0 970.8,168.0 841.1,235.1 690.3,157.1" fill="#26364a" stroke="#101820" stroke-width="2"/>
      <polygon points="970.8,168.0 970.8,338.0 841.1,405.1 841.1,235.1" fill="#d9e3ee" stroke="#101820" stroke-width="2"/>
      <polygon points="841.1,235.1 841.1,405.1 690.3,327.1 690.3,157.1" fill="#eef3f8" stroke="#101820" stroke-width="2"/>
      <rect x="788.6" y="126.5" width="84" height="24" rx="12" fill="#ffffff" opacity=".82"/>
      <text x="830.6" y="144.5" text-anchor="middle" font-size="13" font-weight="800" fill="#102033">معرض</text>
    </g><g>
      <polygon points="936.0,179.4 1057.2,242.1 953.0,296.0 831.8,233.4" fill="#26364a" stroke="#101820" stroke-width="2"/>
      <polygon points="1057.2,242.1 1057.2,382.7 953.0,436.6 953.0,296.0" fill="#d9e3ee" stroke="#101820" stroke-width="2"/>
      <polygon points="953.0,296.0 953.0,436.6 831.8,373.9 831.8,233.4" fill="#eef3f8" stroke="#101820" stroke-width="2"/>
      <rect x="902.5" y="201.7" width="84" height="24" rx="12" fill="#ffffff" opacity=".82"/>
      <text x="944.5" y="219.7" text-anchor="middle" font-size="13" font-weight="800" fill="#102033">مكاتب</text>
    </g><g>
      <polygon points="1052.0,210.0 1202.8,288.0 1073.1,355.1 922.3,277.1" fill="#26364a" stroke="#101820" stroke-width="2"/>
      <polygon points="1202.8,288.0 1202.8,458.0 1073.1,525.1 1073.1,355.1" fill="#d9e3ee" stroke="#101820" stroke-width="2"/>
      <polygon points="1073.1,355.1 1073.1,525.1 922.3,447.1 922.3,277.1" fill="#eef3f8" stroke="#101820" stroke-width="2"/>
      <rect x="1020.6" y="246.5" width="84" height="24" rx="12" fill="#ffffff" opacity=".82"/>
      <text x="1062.6" y="264.5" text-anchor="middle" font-size="13" font-weight="800" fill="#102033">استقبال</text>
    </g><g>
      <polygon points="718.5,201.8 817.1,252.9 732.3,296.7 633.7,245.7" fill="#26364a" stroke="#101820" stroke-width="2"/>
      <polygon points="817.1,252.9 817.1,363.5 732.3,407.4 732.3,296.7" fill="#d9e3ee" stroke="#101820" stroke-width="2"/>
      <polygon points="732.3,296.7 732.3,407.4 633.7,356.4 633.7,245.7" fill="#eef3f8" stroke="#101820" stroke-width="2"/>
      <rect x="683.4" y="213.3" width="84" height="24" rx="12" fill="#ffffff" opacity=".82"/>
      <text x="725.4" y="231.3" text-anchor="middle" font-size="13" font-weight="800" fill="#102033">خدمات</text>
    </g><g>
      <polygon points="834.5,258.4 936.0,310.9 848.7,356.0 747.2,303.5" fill="#26364a" stroke="#101820" stroke-width="2"/>
      <polygon points="936.0,310.9 936.0,425.0 848.7,470.1 848.7,356.0" fill="#d9e3ee" stroke="#101820" stroke-width="2"/>
      <polygon points="848.7,356.0 848.7,470.1 747.2,417.6 747.2,303.5" fill="#eef3f8" stroke="#101820" stroke-width="2"/>
      <rect x="799.6" y="271.2" width="84" height="24" rx="12" fill="#ffffff" opacity=".82"/>
      <text x="841.6" y="289.2" text-anchor="middle" font-size="13" font-weight="800" fill="#102033">مخزن</text>
    </g><g>
      <polygon points="950.5,286.2 1075.6,350.9 968.0,406.5 843.0,341.8" fill="#26364a" stroke="#101820" stroke-width="2"/>
      <polygon points="1075.6,350.9 1075.6,497.2 968.0,552.8 968.0,406.5" fill="#d9e3ee" stroke="#101820" stroke-width="2"/>
      <polygon points="968.0,406.5 968.0,552.8 843.0,488.1 843.0,341.8" fill="#eef3f8" stroke="#101820" stroke-width="2"/>
      <rect x="917.3" y="310.4" width="84" height="24" rx="12" fill="#ffffff" opacity=".82"/>
      <text x="959.3" y="328.4" text-anchor="middle" font-size="13" font-weight="800" fill="#102033">غرفة كهربا</text>
    </g></g>
  <rect x="500" y="488" width="54" height="120" rx="4" fill="#7dd3fc" opacity=".65"/><rect x="586" y="488" width="54" height="120" rx="4" fill="#7dd3fc" opacity=".65"/><rect x="672" y="488" width="54" height="120" rx="4" fill="#7dd3fc" opacity=".65"/><rect x="758" y="488" width="54" height="120" rx="4" fill="#7dd3fc" opacity=".65"/><rect x="844" y="488" width="54" height="120" rx="4" fill="#7dd3fc" opacity=".65"/><rect x="930" y="488" width="54" height="120" rx="4" fill="#7dd3fc" opacity=".65"/>
  <path d="M330 790 C520 690 1090 680 1280 792" fill="none" stroke="#e26f24" stroke-width="8" opacity=".75"/>
  <text x="1490" y="96" text-anchor="end" font-size="44" font-weight="900" fill="#eef5fb">تصور 3D مبدئي - تجاري بسيط مودرن</text>
  <text x="1490" y="142" text-anchor="end" font-size="25" fill="#d9e3ee">مبني على قالب 2D: modern-simple_commercial-0600 | 600-699 م²</text>
  <rect x="70" y="960" width="1460" height="52" rx="8" fill="#07111f" opacity=".78"/>
  <text x="1490" y="994" text-anchor="end" font-size="22" fill="#ffffff">kamel3lom | رندر تخيلي غير معتمد هندسيًا أو إنشائيًا</text>
  <text x="110" y="994" font-size="22" fill="#f0b14b">مساحات مفتوحة، واجهات زجاجية، وخطوط مستقيمة.</text>
</svg>