<svg xmlns="http://www.w3.org/2000/svg" viewBox="0 0 1600 1050" role="img" aria-label="Concept 3D architectural render">
  <defs>
    <linearGradient id="sky-modern-apartment-0300" x1="0" y1="0" x2="1" y2="1">
      <stop stop-color="#0c1b2b"/>
      <stop offset="1" stop-color="#d9e3ee"/>
    </linearGradient>
    <filter id="shadow-modern-apartment-0300" x="-20%" y="-20%" width="140%" height="160%">
      <feDropShadow dx="0" dy="22" stdDeviation="24" flood-color="#000" flood-opacity=".28"/>
    </filter>
  </defs>
  <rect width="1600" height="1050" fill="url(#sky-modern-apartment-0300)"/>
  <circle cx="1290" cy="180" r="74" fill="#f0b14b" opacity=".74"/>
  <ellipse cx="820" cy="780" rx="620" ry="130" fill="#07111f" opacity=".28"/>
  <g filter="url(#shadow-modern-apartment-0300)"><g>
      <polygon points="820.0,95.3 956.7,166.0 839.1,226.8 702.4,156.1" fill="#26364a" stroke="#101820" stroke-width="2"/>
      <polygon points="956.7,166.0 956.7,330.7 839.1,391.5 839.1,226.8" fill="#d9e3ee" stroke="#101820" stroke-width="2"/>
      <polygon points="839.1,226.8 839.1,391.5 702.4,320.8 702.4,156.1" fill="#eef3f8" stroke="#101820" stroke-width="2"/>
      <rect x="787.6" y="125.1" width="84" height="24" rx="12" fill="#ffffff" opacity=".82"/>
      <text x="829.6" y="143.1" text-anchor="middle" font-size="13" font-weight="800" fill="#102033">معيشة</text>
    </g><g>
      <polygon points="936.0,184.1 1054.0,245.1 952.5,297.6 834.5,236.5" fill="#26364a" stroke="#101820" stroke-width="2"/>
      <polygon points="1054.0,245.1 1054.0,381.0 952.5,433.5 952.5,297.6" fill="#d9e3ee" stroke="#101820" stroke-width="2"/>
      <polygon points="952.5,297.6 952.5,433.5 834.5,372.5 834.5,236.5" fill="#eef3f8" stroke="#101820" stroke-width="2"/>
      <rect x="902.3" y="204.8" width="84" height="24" rx="12" fill="#ffffff" opacity=".82"/>
      <text x="944.3" y="222.8" text-anchor="middle" font-size="13" font-weight="800" fill="#102033">غرفتا نوم</text>
    </g><g>
      <polygon points="1052.0,264.8 1154.4,317.7 1066.3,363.3 963.9,310.3" fill="#26364a" stroke="#101820" stroke-width="2"/>
      <polygon points="1154.4,317.7 1154.4,433.0 1066.3,478.5 1066.3,363.3" fill="#d9e3ee" stroke="#101820" stroke-width="2"/>
      <polygon points="1066.3,363.3 1066.3,478.5 963.9,425.6 963.9,310.3" fill="#eef3f8" stroke="#101820" stroke-width="2"/>
      <rect x="1017.2" y="278.0" width="84" height="24" rx="12" fill="#ffffff" opacity=".82"/>
      <text x="1059.2" y="296.0" text-anchor="middle" font-size="13" font-weight="800" fill="#102033">مطبخ</text>
    </g><g>
      <polygon points="718.5,223.7 796.6,264.1 729.4,298.9 651.3,258.4" fill="#26364a" stroke="#101820" stroke-width="2"/>
      <polygon points="796.6,264.1 796.6,352.9 729.4,387.7 729.4,298.9" fill="#d9e3ee" stroke="#101820" stroke-width="2"/>
      <polygon points="729.4,298.9 729.4,387.7 651.3,347.2 651.3,258.4" fill="#eef3f8" stroke="#101820" stroke-width="2"/>
      <rect x="682.0" y="225.3" width="84" height="24" rx="12" fill="#ffffff" opacity=".82"/>
      <text x="724.0" y="243.3" text-anchor="middle" font-size="13" font-weight="800" fill="#102033">حمامان</text>
    </g><g>
      <polygon points="834.5,271.1 925.1,317.9 847.2,358.2 756.6,311.3" fill="#26364a" stroke="#101820" stroke-width="2"/>
      <polygon points="925.1,317.9 925.1,419.3 847.2,459.6 847.2,358.2" fill="#d9e3ee" stroke="#101820" stroke-width="2"/>
      <polygon points="847.2,358.2 847.2,459.6 756.6,412.8 756.6,311.3" fill="#eef3f8" stroke="#101820" stroke-width="2"/>
      <rect x="798.8" y="278.6" width="84" height="24" rx="12" fill="#ffffff" opacity=".82"/>
      <text x="840.8" y="296.6" text-anchor="middle" font-size="13" font-weight="800" fill="#102033">مدخل</text>
    </g></g>
  <rect x="500" y="488" width="54" height="120" rx="4" fill="#7dd3fc" opacity=".65"/><rect x="586" y="488" width="54" height="120" rx="4" fill="#7dd3fc" opacity=".65"/><rect x="672" y="488" width="54" height="120" rx="4" fill="#7dd3fc" opacity=".65"/><rect x="758" y="488" width="54" height="120" rx="4" fill="#7dd3fc" opacity=".65"/><rect x="844" y="488" width="54" height="120" rx="4" fill="#7dd3fc" opacity=".65"/><rect x="930" y="488" width="54" height="120" rx="4" fill="#7dd3fc" opacity=".65"/>
  <path d="M330 790 C520 690 1090 680 1280 792" fill="none" stroke="#e26f24" stroke-width="8" opacity=".75"/>
  <text x="1490" y="96" text-anchor="end" font-size="44" font-weight="900" fill="#eef5fb">تصور 3D مبدئي - شقة مودرن</text>
  <text x="1490" y="142" text-anchor="end" font-size="25" fill="#d9e3ee">مبني على قالب 2D: modern-apartment-0300 | 300-399 م²</text>
  <rect x="70" y="960" width="1460" height="52" rx="8" fill="#07111f" opacity=".78"/>
  <text x="1490" y="994" text-anchor="end" font-size="22" fill="#ffffff">kamel3lom | رندر تخيلي غير معتمد هندسيًا أو إنشائيًا</text>
  <text x="110" y="994" font-size="22" fill="#f0b14b">مساحات مفتوحة، واجهات زجاجية، وخطوط مستقيمة.</text>
</svg>