<svg xmlns="http://www.w3.org/2000/svg" viewBox="0 0 1600 1050" role="img" aria-label="Concept 3D architectural render">
  <defs>
    <linearGradient id="sky-modern-apartment-0400" x1="0" y1="0" x2="1" y2="1">
      <stop stop-color="#0c1b2b"/>
      <stop offset="1" stop-color="#d9e3ee"/>
    </linearGradient>
    <filter id="shadow-modern-apartment-0400" x="-20%" y="-20%" width="140%" height="160%">
      <feDropShadow dx="0" dy="22" stdDeviation="24" flood-color="#000" flood-opacity=".28"/>
    </filter>
  </defs>
  <rect width="1600" height="1050" fill="url(#sky-modern-apartment-0400)"/>
  <circle cx="1290" cy="180" r="74" fill="#f0b14b" opacity=".74"/>
  <ellipse cx="820" cy="780" rx="620" ry="130" fill="#07111f" opacity=".28"/>
  <g filter="url(#shadow-modern-apartment-0400)"><g>
      <polygon points="820.0,97.6 955.3,167.6 838.9,227.8 703.6,157.8" fill="#26364a" stroke="#101820" stroke-width="2"/>
      <polygon points="955.3,167.6 955.3,330.0 838.9,390.2 838.9,227.8" fill="#d9e3ee" stroke="#101820" stroke-width="2"/>
      <polygon points="838.9,227.8 838.9,390.2 703.6,320.2 703.6,157.8" fill="#eef3f8" stroke="#101820" stroke-width="2"/>
      <rect x="787.5" y="126.7" width="84" height="24" rx="12" fill="#ffffff" opacity=".82"/>
      <text x="829.5" y="144.7" text-anchor="middle" font-size="13" font-weight="800" fill="#102033">معيشة</text>
    </g><g>
      <polygon points="936.0,186.4 1052.4,246.5 952.3,298.3 835.9,238.1" fill="#26364a" stroke="#101820" stroke-width="2"/>
      <polygon points="1052.4,246.5 1052.4,380.2 952.3,431.9 952.3,298.3" fill="#d9e3ee" stroke="#101820" stroke-width="2"/>
      <polygon points="952.3,298.3 952.3,431.9 835.9,371.8 835.9,238.1" fill="#eef3f8" stroke="#101820" stroke-width="2"/>
      <rect x="902.1" y="206.3" width="84" height="24" rx="12" fill="#ffffff" opacity=".82"/>
      <text x="944.1" y="224.3" text-anchor="middle" font-size="13" font-weight="800" fill="#102033">ثلاث غرف ن</text>
    </g><g>
      <polygon points="1052.0,262.4 1156.3,316.4 1066.6,362.8 962.3,308.8" fill="#26364a" stroke="#101820" stroke-width="2"/>
      <polygon points="1156.3,316.4 1156.3,433.9 1066.6,480.3 1066.6,362.8" fill="#d9e3ee" stroke="#101820" stroke-width="2"/>
      <polygon points="1066.6,362.8 1066.6,480.3 962.3,426.4 962.3,308.8" fill="#eef3f8" stroke="#101820" stroke-width="2"/>
      <rect x="1017.3" y="276.6" width="84" height="24" rx="12" fill="#ffffff" opacity=".82"/>
      <text x="1059.3" y="294.6" text-anchor="middle" font-size="13" font-weight="800" fill="#102033">مطبخ</text>
    </g><g>
      <polygon points="718.5,227.2 792.9,265.6 728.9,298.7 654.5,260.2" fill="#26364a" stroke="#101820" stroke-width="2"/>
      <polygon points="792.9,265.6 792.9,351.0 728.9,384.0 728.9,298.7" fill="#d9e3ee" stroke="#101820" stroke-width="2"/>
      <polygon points="728.9,298.7 728.9,384.0 654.5,345.6 654.5,260.2" fill="#eef3f8" stroke="#101820" stroke-width="2"/>
      <rect x="681.7" y="226.9" width="84" height="24" rx="12" fill="#ffffff" opacity=".82"/>
      <text x="723.7" y="244.9" text-anchor="middle" font-size="13" font-weight="800" fill="#102033">حمامان</text>
    </g><g>
      <polygon points="834.5,207.8 971.2,278.5 853.6,339.3 716.9,268.6" fill="#26364a" stroke="#101820" stroke-width="2"/>
      <polygon points="971.2,278.5 971.2,443.2 853.6,504.0 853.6,339.3" fill="#d9e3ee" stroke="#101820" stroke-width="2"/>
      <polygon points="853.6,339.3 853.6,504.0 716.9,433.3 716.9,268.6" fill="#eef3f8" stroke="#101820" stroke-width="2"/>
      <rect x="802.1" y="237.6" width="84" height="24" rx="12" fill="#ffffff" opacity=".82"/>
      <text x="844.1" y="255.6" text-anchor="middle" font-size="13" font-weight="800" fill="#102033">مجلس</text>
    </g><g>
      <polygon points="950.5,324.1 1047.2,374.1 964.0,417.1 867.4,367.1" fill="#26364a" stroke="#101820" stroke-width="2"/>
      <polygon points="1047.2,374.1 1047.2,482.5 964.0,525.5 964.0,417.1" fill="#d9e3ee" stroke="#101820" stroke-width="2"/>
      <polygon points="964.0,417.1 964.0,525.5 867.4,475.5 867.4,367.1" fill="#eef3f8" stroke="#101820" stroke-width="2"/>
      <rect x="915.3" y="334.6" width="84" height="24" rx="12" fill="#ffffff" opacity=".82"/>
      <text x="957.3" y="352.6" text-anchor="middle" font-size="13" font-weight="800" fill="#102033">شرفة</text>
    </g></g>
  <rect x="500" y="488" width="54" height="120" rx="4" fill="#7dd3fc" opacity=".65"/><rect x="586" y="488" width="54" height="120" rx="4" fill="#7dd3fc" opacity=".65"/><rect x="672" y="488" width="54" height="120" rx="4" fill="#7dd3fc" opacity=".65"/><rect x="758" y="488" width="54" height="120" rx="4" fill="#7dd3fc" opacity=".65"/><rect x="844" y="488" width="54" height="120" rx="4" fill="#7dd3fc" opacity=".65"/><rect x="930" y="488" width="54" height="120" rx="4" fill="#7dd3fc" opacity=".65"/>
  <path d="M330 790 C520 690 1090 680 1280 792" fill="none" stroke="#e26f24" stroke-width="8" opacity=".75"/>
  <text x="1490" y="96" text-anchor="end" font-size="44" font-weight="900" fill="#eef5fb">تصور 3D مبدئي - شقة مودرن</text>
  <text x="1490" y="142" text-anchor="end" font-size="25" fill="#d9e3ee">مبني على قالب 2D: modern-apartment-0400 | 400-499 م²</text>
  <rect x="70" y="960" width="1460" height="52" rx="8" fill="#07111f" opacity=".78"/>
  <text x="1490" y="994" text-anchor="end" font-size="22" fill="#ffffff">kamel3lom | رندر تخيلي غير معتمد هندسيًا أو إنشائيًا</text>
  <text x="110" y="994" font-size="22" fill="#f0b14b">مساحات مفتوحة، واجهات زجاجية، وخطوط مستقيمة.</text>
</svg>