<svg xmlns="http://www.w3.org/2000/svg" viewBox="0 0 1600 1050" role="img" aria-label="Concept 3D architectural render">
  <defs>
    <linearGradient id="sky-modern-studio-0600" x1="0" y1="0" x2="1" y2="1">
      <stop stop-color="#0c1b2b"/>
      <stop offset="1" stop-color="#d9e3ee"/>
    </linearGradient>
    <filter id="shadow-modern-studio-0600" x="-20%" y="-20%" width="140%" height="160%">
      <feDropShadow dx="0" dy="22" stdDeviation="24" flood-color="#000" flood-opacity=".28"/>
    </filter>
  </defs>
  <rect width="1600" height="1050" fill="url(#sky-modern-studio-0600)"/>
  <circle cx="1290" cy="180" r="74" fill="#f0b14b" opacity=".74"/>
  <ellipse cx="820" cy="780" rx="620" ry="130" fill="#07111f" opacity=".28"/>
  <g filter="url(#shadow-modern-studio-0600)"><g>
      <polygon points="820.0,90.0 970.8,168.0 841.1,235.1 690.3,157.1" fill="#26364a" stroke="#101820" stroke-width="2"/>
      <polygon points="970.8,168.0 970.8,338.0 841.1,405.1 841.1,235.1" fill="#d9e3ee" stroke="#101820" stroke-width="2"/>
      <polygon points="841.1,235.1 841.1,405.1 690.3,327.1 690.3,157.1" fill="#eef3f8" stroke="#101820" stroke-width="2"/>
      <rect x="788.6" y="126.5" width="84" height="24" rx="12" fill="#ffffff" opacity=".82"/>
      <text x="830.6" y="144.5" text-anchor="middle" font-size="13" font-weight="800" fill="#102033">معيشة</text>
    </g><g>
      <polygon points="936.0,150.0 1082.8,225.9 956.6,291.2 809.8,215.3" fill="#26364a" stroke="#101820" stroke-width="2"/>
      <polygon points="1082.8,225.9 1082.8,395.9 956.6,461.2 956.6,291.2" fill="#d9e3ee" stroke="#101820" stroke-width="2"/>
      <polygon points="956.6,291.2 956.6,461.2 809.8,385.3 809.8,215.3" fill="#eef3f8" stroke="#101820" stroke-width="2"/>
      <rect x="904.3" y="184.6" width="84" height="24" rx="12" fill="#ffffff" opacity=".82"/>
      <text x="946.3" y="202.6" text-anchor="middle" font-size="13" font-weight="800" fill="#102033">نوم</text>
    </g><g>
      <polygon points="1052.0,210.0 1200.7,286.9 1072.8,353.1 924.1,276.2" fill="#26364a" stroke="#101820" stroke-width="2"/>
      <polygon points="1200.7,286.9 1200.7,456.9 1072.8,523.1 1072.8,353.1" fill="#d9e3ee" stroke="#101820" stroke-width="2"/>
      <polygon points="1072.8,353.1 1072.8,523.1 924.1,446.2 924.1,276.2" fill="#eef3f8" stroke="#101820" stroke-width="2"/>
      <rect x="1020.4" y="245.5" width="84" height="24" rx="12" fill="#ffffff" opacity=".82"/>
      <text x="1062.4" y="263.5" text-anchor="middle" font-size="13" font-weight="800" fill="#102033">مكتب</text>
    </g><g>
      <polygon points="718.5,159.3 848.0,226.3 736.6,283.9 607.1,216.9" fill="#26364a" stroke="#101820" stroke-width="2"/>
      <polygon points="848.0,226.3 848.0,379.5 736.6,437.1 736.6,283.9" fill="#d9e3ee" stroke="#101820" stroke-width="2"/>
      <polygon points="736.6,283.9 736.6,437.1 607.1,370.1 607.1,216.9" fill="#eef3f8" stroke="#101820" stroke-width="2"/>
      <rect x="685.6" y="185.6" width="84" height="24" rx="12" fill="#ffffff" opacity=".82"/>
      <text x="727.6" y="203.6" text-anchor="middle" font-size="13" font-weight="800" fill="#102033">مطبخ</text>
    </g><g>
      <polygon points="834.5,263.0 932.1,313.5 848.2,356.9 750.5,306.4" fill="#26364a" stroke="#101820" stroke-width="2"/>
      <polygon points="932.1,313.5 932.1,423.0 848.2,466.4 848.2,356.9" fill="#d9e3ee" stroke="#101820" stroke-width="2"/>
      <polygon points="848.2,356.9 848.2,466.4 750.5,415.9 750.5,306.4" fill="#eef3f8" stroke="#101820" stroke-width="2"/>
      <rect x="799.3" y="274.0" width="84" height="24" rx="12" fill="#ffffff" opacity=".82"/>
      <text x="841.3" y="292.0" text-anchor="middle" font-size="13" font-weight="800" fill="#102033">حمام</text>
    </g><g>
      <polygon points="950.5,289.6 1073.2,353.1 967.7,407.7 844.9,344.2" fill="#26364a" stroke="#101820" stroke-width="2"/>
      <polygon points="1073.2,353.1 1073.2,496.0 967.7,550.6 967.7,407.7" fill="#d9e3ee" stroke="#101820" stroke-width="2"/>
      <polygon points="967.7,407.7 967.7,550.6 844.9,487.1 844.9,344.2" fill="#eef3f8" stroke="#101820" stroke-width="2"/>
      <rect x="917.1" y="312.7" width="84" height="24" rx="12" fill="#ffffff" opacity=".82"/>
      <text x="959.1" y="330.7" text-anchor="middle" font-size="13" font-weight="800" fill="#102033">تراس</text>
    </g></g>
  <rect x="500" y="488" width="54" height="120" rx="4" fill="#7dd3fc" opacity=".65"/><rect x="586" y="488" width="54" height="120" rx="4" fill="#7dd3fc" opacity=".65"/><rect x="672" y="488" width="54" height="120" rx="4" fill="#7dd3fc" opacity=".65"/><rect x="758" y="488" width="54" height="120" rx="4" fill="#7dd3fc" opacity=".65"/><rect x="844" y="488" width="54" height="120" rx="4" fill="#7dd3fc" opacity=".65"/><rect x="930" y="488" width="54" height="120" rx="4" fill="#7dd3fc" opacity=".65"/>
  <path d="M330 790 C520 690 1090 680 1280 792" fill="none" stroke="#e26f24" stroke-width="8" opacity=".75"/>
  <text x="1490" y="96" text-anchor="end" font-size="44" font-weight="900" fill="#eef5fb">تصور 3D مبدئي - استوديو مودرن</text>
  <text x="1490" y="142" text-anchor="end" font-size="25" fill="#d9e3ee">مبني على قالب 2D: modern-studio-0600 | 600-699 م²</text>
  <rect x="70" y="960" width="1460" height="52" rx="8" fill="#07111f" opacity=".78"/>
  <text x="1490" y="994" text-anchor="end" font-size="22" fill="#ffffff">kamel3lom | رندر تخيلي غير معتمد هندسيًا أو إنشائيًا</text>
  <text x="110" y="994" font-size="22" fill="#f0b14b">مساحات مفتوحة، واجهات زجاجية، وخطوط مستقيمة.</text>
</svg>