<svg xmlns="http://www.w3.org/2000/svg" viewBox="0 0 1600 1050" role="img" aria-label="Concept 3D architectural render">
  <defs>
    <linearGradient id="sky-modern-townhouse-1200" x1="0" y1="0" x2="1" y2="1">
      <stop stop-color="#0c1b2b"/>
      <stop offset="1" stop-color="#d9e3ee"/>
    </linearGradient>
    <filter id="shadow-modern-townhouse-1200" x="-20%" y="-20%" width="140%" height="160%">
      <feDropShadow dx="0" dy="22" stdDeviation="24" flood-color="#000" flood-opacity=".28"/>
    </filter>
  </defs>
  <rect width="1600" height="1050" fill="url(#sky-modern-townhouse-1200)"/>
  <circle cx="1290" cy="180" r="74" fill="#f0b14b" opacity=".74"/>
  <ellipse cx="820" cy="780" rx="620" ry="130" fill="#07111f" opacity=".28"/>
  <g filter="url(#shadow-modern-townhouse-1200)"><g>
      <polygon points="820.0,90.0 970.8,168.0 841.1,235.1 690.3,157.1" fill="#26364a" stroke="#101820" stroke-width="2"/>
      <polygon points="970.8,168.0 970.8,338.0 841.1,405.1 841.1,235.1" fill="#d9e3ee" stroke="#101820" stroke-width="2"/>
      <polygon points="841.1,235.1 841.1,405.1 690.3,327.1 690.3,157.1" fill="#eef3f8" stroke="#101820" stroke-width="2"/>
      <rect x="788.6" y="126.5" width="84" height="24" rx="12" fill="#ffffff" opacity=".82"/>
      <text x="830.6" y="144.5" text-anchor="middle" font-size="13" font-weight="800" fill="#102033">معيشة</text>
    </g><g>
      <polygon points="936.0,150.0 1086.8,228.0 957.1,295.1 806.3,217.1" fill="#26364a" stroke="#101820" stroke-width="2"/>
      <polygon points="1086.8,228.0 1086.8,398.0 957.1,465.1 957.1,295.1" fill="#d9e3ee" stroke="#101820" stroke-width="2"/>
      <polygon points="957.1,295.1 957.1,465.1 806.3,387.1 806.3,217.1" fill="#eef3f8" stroke="#101820" stroke-width="2"/>
      <rect x="904.6" y="186.5" width="84" height="24" rx="12" fill="#ffffff" opacity=".82"/>
      <text x="946.6" y="204.5" text-anchor="middle" font-size="13" font-weight="800" fill="#102033">مجلس</text>
    </g><g>
      <polygon points="1052.0,210.0 1202.8,288.0 1073.1,355.1 922.3,277.1" fill="#26364a" stroke="#101820" stroke-width="2"/>
      <polygon points="1202.8,288.0 1202.8,458.0 1073.1,525.1 1073.1,355.1" fill="#d9e3ee" stroke="#101820" stroke-width="2"/>
      <polygon points="1073.1,355.1 1073.1,525.1 922.3,447.1 922.3,277.1" fill="#eef3f8" stroke="#101820" stroke-width="2"/>
      <rect x="1020.6" y="246.5" width="84" height="24" rx="12" fill="#ffffff" opacity=".82"/>
      <text x="1062.6" y="264.5" text-anchor="middle" font-size="13" font-weight="800" fill="#102033">طعام</text>
    </g><g>
      <polygon points="1168.0,270.0 1318.8,348.0 1189.1,415.1 1038.3,337.1" fill="#26364a" stroke="#101820" stroke-width="2"/>
      <polygon points="1318.8,348.0 1318.8,518.0 1189.1,585.1 1189.1,415.1" fill="#d9e3ee" stroke="#101820" stroke-width="2"/>
      <polygon points="1189.1,415.1 1189.1,585.1 1038.3,507.1 1038.3,337.1" fill="#eef3f8" stroke="#101820" stroke-width="2"/>
      <rect x="1136.6" y="306.5" width="84" height="24" rx="12" fill="#ffffff" opacity=".82"/>
      <text x="1178.6" y="324.5" text-anchor="middle" font-size="13" font-weight="800" fill="#102033">مطبخ</text>
    </g><g>
      <polygon points="718.5,142.5 869.3,220.5 739.6,287.6 588.8,209.6" fill="#26364a" stroke="#101820" stroke-width="2"/>
      <polygon points="869.3,220.5 869.3,390.5 739.6,457.6 739.6,287.6" fill="#d9e3ee" stroke="#101820" stroke-width="2"/>
      <polygon points="739.6,287.6 739.6,457.6 588.8,379.6 588.8,209.6" fill="#eef3f8" stroke="#101820" stroke-width="2"/>
      <rect x="687.1" y="179.0" width="84" height="24" rx="12" fill="#ffffff" opacity=".82"/>
      <text x="729.1" y="197.0" text-anchor="middle" font-size="13" font-weight="800" fill="#102033">أربع غرف ن</text>
    </g><g>
      <polygon points="834.5,202.5 985.3,280.5 855.6,347.6 704.8,269.6" fill="#26364a" stroke="#101820" stroke-width="2"/>
      <polygon points="985.3,280.5 985.3,450.5 855.6,517.6 855.6,347.6" fill="#d9e3ee" stroke="#101820" stroke-width="2"/>
      <polygon points="855.6,347.6 855.6,517.6 704.8,439.6 704.8,269.6" fill="#eef3f8" stroke="#101820" stroke-width="2"/>
      <rect x="803.1" y="239.0" width="84" height="24" rx="12" fill="#ffffff" opacity=".82"/>
      <text x="845.1" y="257.0" text-anchor="middle" font-size="13" font-weight="800" fill="#102033">جناح</text>
    </g><g>
      <polygon points="950.5,302.3 1064.4,361.2 966.4,411.9 852.6,353.0" fill="#26364a" stroke="#101820" stroke-width="2"/>
      <polygon points="1064.4,361.2 1064.4,491.4 966.4,542.1 966.4,411.9" fill="#d9e3ee" stroke="#101820" stroke-width="2"/>
      <polygon points="966.4,411.9 966.4,542.1 852.6,483.2 852.6,353.0" fill="#eef3f8" stroke="#101820" stroke-width="2"/>
      <rect x="916.5" y="321.1" width="84" height="24" rx="12" fill="#ffffff" opacity=".82"/>
      <text x="958.5" y="339.1" text-anchor="middle" font-size="13" font-weight="800" fill="#102033">خدمات</text>
    </g><g>
      <polygon points="1066.5,322.5 1210.7,397.1 1086.7,461.2 942.5,386.6" fill="#26364a" stroke="#101820" stroke-width="2"/>
      <polygon points="1210.7,397.1 1210.7,567.1 1086.7,631.2 1086.7,461.2" fill="#d9e3ee" stroke="#101820" stroke-width="2"/>
      <polygon points="1086.7,461.2 1086.7,631.2 942.5,556.6 942.5,386.6" fill="#eef3f8" stroke="#101820" stroke-width="2"/>
      <rect x="1034.6" y="355.9" width="84" height="24" rx="12" fill="#ffffff" opacity=".82"/>
      <text x="1076.6" y="373.9" text-anchor="middle" font-size="13" font-weight="800" fill="#102033">تراس</text>
    </g></g>
  <rect x="500" y="488" width="54" height="120" rx="4" fill="#7dd3fc" opacity=".65"/><rect x="586" y="488" width="54" height="120" rx="4" fill="#7dd3fc" opacity=".65"/><rect x="672" y="488" width="54" height="120" rx="4" fill="#7dd3fc" opacity=".65"/><rect x="758" y="488" width="54" height="120" rx="4" fill="#7dd3fc" opacity=".65"/><rect x="844" y="488" width="54" height="120" rx="4" fill="#7dd3fc" opacity=".65"/><rect x="930" y="488" width="54" height="120" rx="4" fill="#7dd3fc" opacity=".65"/>
  <path d="M330 790 C520 690 1090 680 1280 792" fill="none" stroke="#e26f24" stroke-width="8" opacity=".75"/>
  <text x="1490" y="96" text-anchor="end" font-size="44" font-weight="900" fill="#eef5fb">تصور 3D مبدئي - تاون هاوس مودرن</text>
  <text x="1490" y="142" text-anchor="end" font-size="25" fill="#d9e3ee">مبني على قالب 2D: modern-townhouse-1200 | 1200-1299 م²</text>
  <rect x="70" y="960" width="1460" height="52" rx="8" fill="#07111f" opacity=".78"/>
  <text x="1490" y="994" text-anchor="end" font-size="22" fill="#ffffff">kamel3lom | رندر تخيلي غير معتمد هندسيًا أو إنشائيًا</text>
  <text x="110" y="994" font-size="22" fill="#f0b14b">مساحات مفتوحة، واجهات زجاجية، وخطوط مستقيمة.</text>
</svg>