<svg xmlns="http://www.w3.org/2000/svg" viewBox="0 0 1600 1050" role="img" aria-label="Concept 3D architectural render">
  <defs>
    <linearGradient id="sky-najdi-studio-0100" x1="0" y1="0" x2="1" y2="1">
      <stop stop-color="#0c1b2b"/>
      <stop offset="1" stop-color="#d9e3ee"/>
    </linearGradient>
    <filter id="shadow-najdi-studio-0100" x="-20%" y="-20%" width="140%" height="160%">
      <feDropShadow dx="0" dy="22" stdDeviation="24" flood-color="#000" flood-opacity=".28"/>
    </filter>
  </defs>
  <rect width="1600" height="1050" fill="url(#sky-najdi-studio-0100)"/>
  <circle cx="1290" cy="180" r="74" fill="#f0b14b" opacity=".74"/>
  <ellipse cx="820" cy="780" rx="620" ry="130" fill="#07111f" opacity=".28"/>
  <g filter="url(#shadow-najdi-studio-0100)"><g>
      <polygon points="820.0,159.7 909.5,206.0 832.5,245.8 743.0,199.5" fill="#7a5b31" stroke="#101820" stroke-width="2"/>
      <polygon points="909.5,206.0 909.5,306.3 832.5,346.1 832.5,245.8" fill="#e7d2a8" stroke="#101820" stroke-width="2"/>
      <polygon points="832.5,245.8 832.5,346.1 743.0,299.8 743.0,199.5" fill="#d6bc87" stroke="#101820" stroke-width="2"/>
      <rect x="784.3" y="166.8" width="84" height="24" rx="12" fill="#ffffff" opacity=".82"/>
      <text x="826.3" y="184.8" text-anchor="middle" font-size="13" font-weight="800" fill="#102033">نوم ومعيشة</text>
    </g><g>
      <polygon points="936.0,239.2 1005.0,275.0 945.7,305.7 876.6,270.0" fill="#7a5b31" stroke="#101820" stroke-width="2"/>
      <polygon points="1005.0,275.0 1005.0,355.7 945.7,386.4 945.7,305.7" fill="#e7d2a8" stroke="#101820" stroke-width="2"/>
      <polygon points="945.7,305.7 945.7,386.4 876.6,350.7 876.6,270.0" fill="#d6bc87" stroke="#101820" stroke-width="2"/>
      <rect x="898.8" y="236.5" width="84" height="24" rx="12" fill="#ffffff" opacity=".82"/>
      <text x="940.8" y="254.5" text-anchor="middle" font-size="13" font-weight="800" fill="#102033">مطبخ صغير</text>
    </g><g>
      <polygon points="1052.0,313.1 1115.8,346.1 1060.9,374.4 997.1,341.4" fill="#7a5b31" stroke="#101820" stroke-width="2"/>
      <polygon points="1115.8,346.1 1115.8,413.0 1060.9,441.4 1060.9,374.4" fill="#e7d2a8" stroke="#101820" stroke-width="2"/>
      <polygon points="1060.9,374.4 1060.9,441.4 997.1,408.4 997.1,341.4" fill="#d6bc87" stroke="#101820" stroke-width="2"/>
      <rect x="1014.5" y="307.7" width="84" height="24" rx="12" fill="#ffffff" opacity=".82"/>
      <text x="1056.5" y="325.7" text-anchor="middle" font-size="13" font-weight="800" fill="#102033">حمام</text>
    </g><g>
      <polygon points="718.5,237.5 782.3,270.5 727.4,298.9 663.6,265.9" fill="#7a5b31" stroke="#101820" stroke-width="2"/>
      <polygon points="782.3,270.5 782.3,345.5 727.4,373.9 727.4,298.9" fill="#e7d2a8" stroke="#101820" stroke-width="2"/>
      <polygon points="727.4,298.9 727.4,373.9 663.6,340.9 663.6,265.9" fill="#d6bc87" stroke="#101820" stroke-width="2"/>
      <rect x="681.0" y="232.2" width="84" height="24" rx="12" fill="#ffffff" opacity=".82"/>
      <text x="723.0" y="250.2" text-anchor="middle" font-size="13" font-weight="800" fill="#102033">مدخل</text>
    </g></g>
  <path d="M 500 535 l 24 -40 l 24 40 z" fill="#b8874f" opacity=".72"/><path d="M 558 535 l 24 -40 l 24 40 z" fill="#b8874f" opacity=".72"/><path d="M 616 535 l 24 -40 l 24 40 z" fill="#b8874f" opacity=".72"/><path d="M 674 535 l 24 -40 l 24 40 z" fill="#b8874f" opacity=".72"/><path d="M 732 535 l 24 -40 l 24 40 z" fill="#b8874f" opacity=".72"/><path d="M 790 535 l 24 -40 l 24 40 z" fill="#b8874f" opacity=".72"/><path d="M 848 535 l 24 -40 l 24 40 z" fill="#b8874f" opacity=".72"/><path d="M 906 535 l 24 -40 l 24 40 z" fill="#b8874f" opacity=".72"/>
  <path d="M330 790 C520 690 1090 680 1280 792" fill="none" stroke="#b8874f" stroke-width="8" opacity=".75"/>
  <text x="1490" y="96" text-anchor="end" font-size="44" font-weight="900" fill="#eef5fb">تصور 3D مبدئي - استوديو نجدي</text>
  <text x="1490" y="142" text-anchor="end" font-size="25" fill="#d9e3ee">مبني على قالب 2D: najdi-studio-0100 | 100-199 م²</text>
  <rect x="70" y="960" width="1460" height="52" rx="8" fill="#07111f" opacity=".78"/>
  <text x="1490" y="994" text-anchor="end" font-size="22" fill="#ffffff">kamel3lom | رندر تخيلي غير معتمد هندسيًا أو إنشائيًا</text>
  <text x="110" y="994" font-size="22" fill="#f0b14b">كتل هادئة، مجلس أمامي، فناء أو ردهة، وفتحات منتظمة.</text>
</svg>