<svg xmlns="http://www.w3.org/2000/svg" viewBox="0 0 1600 1050" role="img" aria-label="Concept 3D architectural render">
  <defs>
    <linearGradient id="sky-najdi-villa-0800" x1="0" y1="0" x2="1" y2="1">
      <stop stop-color="#0c1b2b"/>
      <stop offset="1" stop-color="#d9e3ee"/>
    </linearGradient>
    <filter id="shadow-najdi-villa-0800" x="-20%" y="-20%" width="140%" height="160%">
      <feDropShadow dx="0" dy="22" stdDeviation="24" flood-color="#000" flood-opacity=".28"/>
    </filter>
  </defs>
  <rect width="1600" height="1050" fill="url(#sky-najdi-villa-0800)"/>
  <circle cx="1290" cy="180" r="74" fill="#f0b14b" opacity=".74"/>
  <ellipse cx="820" cy="780" rx="620" ry="130" fill="#07111f" opacity=".28"/>
  <g filter="url(#shadow-najdi-villa-0800)"><g>
      <polygon points="820.0,90.0 970.8,168.0 841.1,235.1 690.3,157.1" fill="#7a5b31" stroke="#101820" stroke-width="2"/>
      <polygon points="970.8,168.0 970.8,338.0 841.1,405.1 841.1,235.1" fill="#e7d2a8" stroke="#101820" stroke-width="2"/>
      <polygon points="841.1,235.1 841.1,405.1 690.3,327.1 690.3,157.1" fill="#d6bc87" stroke="#101820" stroke-width="2"/>
      <rect x="788.6" y="126.5" width="84" height="24" rx="12" fill="#ffffff" opacity=".82"/>
      <text x="830.6" y="144.5" text-anchor="middle" font-size="13" font-weight="800" fill="#102033">مجلس</text>
    </g><g>
      <polygon points="936.0,180.6 1056.4,242.9 952.9,296.4 832.5,234.2" fill="#7a5b31" stroke="#101820" stroke-width="2"/>
      <polygon points="1056.4,242.9 1056.4,382.3 952.9,435.8 952.9,296.4" fill="#e7d2a8" stroke="#101820" stroke-width="2"/>
      <polygon points="952.9,296.4 952.9,435.8 832.5,373.6 832.5,234.2" fill="#d6bc87" stroke="#101820" stroke-width="2"/>
      <rect x="902.4" y="202.5" width="84" height="24" rx="12" fill="#ffffff" opacity=".82"/>
      <text x="944.4" y="220.5" text-anchor="middle" font-size="13" font-weight="800" fill="#102033">صالتان</text>
    </g><g>
      <polygon points="1052.0,210.0 1202.8,288.0 1073.1,355.1 922.3,277.1" fill="#7a5b31" stroke="#101820" stroke-width="2"/>
      <polygon points="1202.8,288.0 1202.8,458.0 1073.1,525.1 1073.1,355.1" fill="#e7d2a8" stroke="#101820" stroke-width="2"/>
      <polygon points="1073.1,355.1 1073.1,525.1 922.3,447.1 922.3,277.1" fill="#d6bc87" stroke="#101820" stroke-width="2"/>
      <rect x="1020.6" y="246.5" width="84" height="24" rx="12" fill="#ffffff" opacity=".82"/>
      <text x="1062.6" y="264.5" text-anchor="middle" font-size="13" font-weight="800" fill="#102033">أربع غرف ن</text>
    </g><g>
      <polygon points="1168.0,270.0 1317.4,347.3 1188.9,413.7 1039.5,336.4" fill="#7a5b31" stroke="#101820" stroke-width="2"/>
      <polygon points="1317.4,347.3 1317.4,517.3 1188.9,583.7 1188.9,413.7" fill="#e7d2a8" stroke="#101820" stroke-width="2"/>
      <polygon points="1188.9,413.7 1188.9,583.7 1039.5,506.4 1039.5,336.4" fill="#d6bc87" stroke="#101820" stroke-width="2"/>
      <rect x="1136.5" y="305.9" width="84" height="24" rx="12" fill="#ffffff" opacity=".82"/>
      <text x="1178.5" y="323.9" text-anchor="middle" font-size="13" font-weight="800" fill="#102033">جناح رئيسي</text>
    </g><g>
      <polygon points="718.5,151.2 853.1,220.9 737.3,280.7 602.7,211.1" fill="#7a5b31" stroke="#101820" stroke-width="2"/>
      <polygon points="853.1,220.9 853.1,382.1 737.3,442.0 737.3,280.7" fill="#e7d2a8" stroke="#101820" stroke-width="2"/>
      <polygon points="737.3,280.7 737.3,442.0 602.7,372.4 602.7,211.1" fill="#d6bc87" stroke="#101820" stroke-width="2"/>
      <rect x="685.9" y="180.0" width="84" height="24" rx="12" fill="#ffffff" opacity=".82"/>
      <text x="727.9" y="198.0" text-anchor="middle" font-size="13" font-weight="800" fill="#102033">طعام</text>
    </g><g>
      <polygon points="834.5,207.8 971.2,278.5 853.6,339.3 716.9,268.6" fill="#7a5b31" stroke="#101820" stroke-width="2"/>
      <polygon points="971.2,278.5 971.2,443.2 853.6,504.0 853.6,339.3" fill="#e7d2a8" stroke="#101820" stroke-width="2"/>
      <polygon points="853.6,339.3 853.6,504.0 716.9,433.3 716.9,268.6" fill="#d6bc87" stroke="#101820" stroke-width="2"/>
      <rect x="802.1" y="237.6" width="84" height="24" rx="12" fill="#ffffff" opacity=".82"/>
      <text x="844.1" y="255.6" text-anchor="middle" font-size="13" font-weight="800" fill="#102033">مطبخ</text>
    </g><g>
      <polygon points="950.5,323.0 1048.1,373.5 964.2,416.9 866.5,366.4" fill="#7a5b31" stroke="#101820" stroke-width="2"/>
      <polygon points="1048.1,373.5 1048.1,483.0 964.2,526.4 964.2,416.9" fill="#e7d2a8" stroke="#101820" stroke-width="2"/>
      <polygon points="964.2,416.9 964.2,526.4 866.5,475.9 866.5,366.4" fill="#d6bc87" stroke="#101820" stroke-width="2"/>
      <rect x="915.3" y="334.0" width="84" height="24" rx="12" fill="#ffffff" opacity=".82"/>
      <text x="957.3" y="352.0" text-anchor="middle" font-size="13" font-weight="800" fill="#102033">خدمات</text>
    </g><g>
      <polygon points="1066.5,347.4 1190.8,411.6 1083.9,466.9 959.6,402.6" fill="#7a5b31" stroke="#101820" stroke-width="2"/>
      <polygon points="1190.8,411.6 1190.8,556.8 1083.9,612.1 1083.9,466.9" fill="#e7d2a8" stroke="#101820" stroke-width="2"/>
      <polygon points="1083.9,466.9 1083.9,612.1 959.6,547.8 959.6,402.6" fill="#d6bc87" stroke="#101820" stroke-width="2"/>
      <rect x="1033.2" y="371.1" width="84" height="24" rx="12" fill="#ffffff" opacity=".82"/>
      <text x="1075.2" y="389.1" text-anchor="middle" font-size="13" font-weight="800" fill="#102033">فناء</text>
    </g></g>
  <path d="M 500 535 l 24 -40 l 24 40 z" fill="#b8874f" opacity=".72"/><path d="M 558 535 l 24 -40 l 24 40 z" fill="#b8874f" opacity=".72"/><path d="M 616 535 l 24 -40 l 24 40 z" fill="#b8874f" opacity=".72"/><path d="M 674 535 l 24 -40 l 24 40 z" fill="#b8874f" opacity=".72"/><path d="M 732 535 l 24 -40 l 24 40 z" fill="#b8874f" opacity=".72"/><path d="M 790 535 l 24 -40 l 24 40 z" fill="#b8874f" opacity=".72"/><path d="M 848 535 l 24 -40 l 24 40 z" fill="#b8874f" opacity=".72"/><path d="M 906 535 l 24 -40 l 24 40 z" fill="#b8874f" opacity=".72"/>
  <path d="M330 790 C520 690 1090 680 1280 792" fill="none" stroke="#b8874f" stroke-width="8" opacity=".75"/>
  <text x="1490" y="96" text-anchor="end" font-size="44" font-weight="900" fill="#eef5fb">تصور 3D مبدئي - فيلا نجدي</text>
  <text x="1490" y="142" text-anchor="end" font-size="25" fill="#d9e3ee">مبني على قالب 2D: najdi-villa-0800 | 800-899 م²</text>
  <rect x="70" y="960" width="1460" height="52" rx="8" fill="#07111f" opacity=".78"/>
  <text x="1490" y="994" text-anchor="end" font-size="22" fill="#ffffff">kamel3lom | رندر تخيلي غير معتمد هندسيًا أو إنشائيًا</text>
  <text x="110" y="994" font-size="22" fill="#f0b14b">كتل هادئة، مجلس أمامي، فناء أو ردهة، وفتحات منتظمة.</text>
</svg>