<svg xmlns="http://www.w3.org/2000/svg" viewBox="0 0 1600 1050" role="img" aria-label="Concept 3D architectural render">
  <defs>
    <linearGradient id="sky-najdi-villa-0900" x1="0" y1="0" x2="1" y2="1">
      <stop stop-color="#0c1b2b"/>
      <stop offset="1" stop-color="#d9e3ee"/>
    </linearGradient>
    <filter id="shadow-najdi-villa-0900" x="-20%" y="-20%" width="140%" height="160%">
      <feDropShadow dx="0" dy="22" stdDeviation="24" flood-color="#000" flood-opacity=".28"/>
    </filter>
  </defs>
  <rect width="1600" height="1050" fill="url(#sky-najdi-villa-0900)"/>
  <circle cx="1290" cy="180" r="74" fill="#f0b14b" opacity=".74"/>
  <ellipse cx="820" cy="780" rx="620" ry="130" fill="#07111f" opacity=".28"/>
  <g filter="url(#shadow-najdi-villa-0900)"><g>
      <polygon points="820.0,90.0 970.8,168.0 841.1,235.1 690.3,157.1" fill="#7a5b31" stroke="#101820" stroke-width="2"/>
      <polygon points="970.8,168.0 970.8,338.0 841.1,405.1 841.1,235.1" fill="#e7d2a8" stroke="#101820" stroke-width="2"/>
      <polygon points="841.1,235.1 841.1,405.1 690.3,327.1 690.3,157.1" fill="#d6bc87" stroke="#101820" stroke-width="2"/>
      <rect x="788.6" y="126.5" width="84" height="24" rx="12" fill="#ffffff" opacity=".82"/>
      <text x="830.6" y="144.5" text-anchor="middle" font-size="13" font-weight="800" fill="#102033">مجلس</text>
    </g><g>
      <polygon points="936.0,150.0 1086.8,228.0 957.1,295.1 806.3,217.1" fill="#7a5b31" stroke="#101820" stroke-width="2"/>
      <polygon points="1086.8,228.0 1086.8,398.0 957.1,465.1 957.1,295.1" fill="#e7d2a8" stroke="#101820" stroke-width="2"/>
      <polygon points="957.1,295.1 957.1,465.1 806.3,387.1 806.3,217.1" fill="#d6bc87" stroke="#101820" stroke-width="2"/>
      <rect x="904.6" y="186.5" width="84" height="24" rx="12" fill="#ffffff" opacity=".82"/>
      <text x="946.6" y="204.5" text-anchor="middle" font-size="13" font-weight="800" fill="#102033">صالة استقب</text>
    </g><g>
      <polygon points="1052.0,210.0 1202.8,288.0 1073.1,355.1 922.3,277.1" fill="#7a5b31" stroke="#101820" stroke-width="2"/>
      <polygon points="1202.8,288.0 1202.8,458.0 1073.1,525.1 1073.1,355.1" fill="#e7d2a8" stroke="#101820" stroke-width="2"/>
      <polygon points="1073.1,355.1 1073.1,525.1 922.3,447.1 922.3,277.1" fill="#d6bc87" stroke="#101820" stroke-width="2"/>
      <rect x="1020.6" y="246.5" width="84" height="24" rx="12" fill="#ffffff" opacity=".82"/>
      <text x="1062.6" y="264.5" text-anchor="middle" font-size="13" font-weight="800" fill="#102033">صالة عائلي</text>
    </g><g>
      <polygon points="1168.0,270.0 1308.2,342.5 1187.6,404.8 1047.5,332.3" fill="#7a5b31" stroke="#101820" stroke-width="2"/>
      <polygon points="1308.2,342.5 1308.2,512.5 1187.6,574.8 1187.6,404.8" fill="#e7d2a8" stroke="#101820" stroke-width="2"/>
      <polygon points="1187.6,404.8 1187.6,574.8 1047.5,502.3 1047.5,332.3" fill="#d6bc87" stroke="#101820" stroke-width="2"/>
      <rect x="1135.8" y="301.4" width="84" height="24" rx="12" fill="#ffffff" opacity=".82"/>
      <text x="1177.8" y="319.4" text-anchor="middle" font-size="13" font-weight="800" fill="#102033">خمس غرف نو</text>
    </g><g>
      <polygon points="718.5,146.7 855.9,217.7 737.7,278.8 600.3,207.8" fill="#7a5b31" stroke="#101820" stroke-width="2"/>
      <polygon points="855.9,217.7 855.9,383.6 737.7,444.7 737.7,278.8" fill="#e7d2a8" stroke="#101820" stroke-width="2"/>
      <polygon points="737.7,278.8 737.7,444.7 600.3,373.6 600.3,207.8" fill="#d6bc87" stroke="#101820" stroke-width="2"/>
      <rect x="686.1" y="176.7" width="84" height="24" rx="12" fill="#ffffff" opacity=".82"/>
      <text x="728.1" y="194.7" text-anchor="middle" font-size="13" font-weight="800" fill="#102033">جناحان</text>
    </g><g>
      <polygon points="834.5,228.5 958.0,292.4 851.8,347.3 728.3,283.4" fill="#7a5b31" stroke="#101820" stroke-width="2"/>
      <polygon points="958.0,292.4 958.0,436.4 851.8,491.3 851.8,347.3" fill="#e7d2a8" stroke="#101820" stroke-width="2"/>
      <polygon points="851.8,347.3 851.8,491.3 728.3,427.4 728.3,283.4" fill="#d6bc87" stroke="#101820" stroke-width="2"/>
      <rect x="801.1" y="251.9" width="84" height="24" rx="12" fill="#ffffff" opacity=".82"/>
      <text x="843.1" y="269.9" text-anchor="middle" font-size="13" font-weight="800" fill="#102033">طعام</text>
    </g><g>
      <polygon points="950.5,285.1 1076.3,350.1 968.1,406.1 842.3,341.0" fill="#7a5b31" stroke="#101820" stroke-width="2"/>
      <polygon points="1076.3,350.1 1076.3,497.6 968.1,553.5 968.1,406.1" fill="#e7d2a8" stroke="#101820" stroke-width="2"/>
      <polygon points="968.1,406.1 968.1,553.5 842.3,488.5 842.3,341.0" fill="#d6bc87" stroke="#101820" stroke-width="2"/>
      <rect x="917.3" y="309.6" width="84" height="24" rx="12" fill="#ffffff" opacity=".82"/>
      <text x="959.3" y="327.6" text-anchor="middle" font-size="13" font-weight="800" fill="#102033">مطبخ</text>
    </g><g>
      <polygon points="1066.5,392.2 1156.0,438.5 1079.0,478.3 989.5,432.0" fill="#7a5b31" stroke="#101820" stroke-width="2"/>
      <polygon points="1156.0,438.5 1156.0,538.8 1079.0,578.6 1079.0,478.3" fill="#e7d2a8" stroke="#101820" stroke-width="2"/>
      <polygon points="1079.0,478.3 1079.0,578.6 989.5,532.3 989.5,432.0" fill="#d6bc87" stroke="#101820" stroke-width="2"/>
      <rect x="1030.8" y="399.3" width="84" height="24" rx="12" fill="#ffffff" opacity=".82"/>
      <text x="1072.8" y="417.3" text-anchor="middle" font-size="13" font-weight="800" fill="#102033">خدمات</text>
    </g><g>
      <polygon points="617.0,234.8 730.9,293.7 632.9,344.4 519.1,285.5" fill="#7a5b31" stroke="#101820" stroke-width="2"/>
      <polygon points="730.9,293.7 730.9,423.9 632.9,474.6 632.9,344.4" fill="#e7d2a8" stroke="#101820" stroke-width="2"/>
      <polygon points="632.9,344.4 632.9,474.6 519.1,415.7 519.1,285.5" fill="#d6bc87" stroke="#101820" stroke-width="2"/>
      <rect x="583.0" y="253.6" width="84" height="24" rx="12" fill="#ffffff" opacity=".82"/>
      <text x="625.0" y="271.6" text-anchor="middle" font-size="13" font-weight="800" fill="#102033">فناء</text>
    </g></g>
  <path d="M 500 535 l 24 -40 l 24 40 z" fill="#b8874f" opacity=".72"/><path d="M 558 535 l 24 -40 l 24 40 z" fill="#b8874f" opacity=".72"/><path d="M 616 535 l 24 -40 l 24 40 z" fill="#b8874f" opacity=".72"/><path d="M 674 535 l 24 -40 l 24 40 z" fill="#b8874f" opacity=".72"/><path d="M 732 535 l 24 -40 l 24 40 z" fill="#b8874f" opacity=".72"/><path d="M 790 535 l 24 -40 l 24 40 z" fill="#b8874f" opacity=".72"/><path d="M 848 535 l 24 -40 l 24 40 z" fill="#b8874f" opacity=".72"/><path d="M 906 535 l 24 -40 l 24 40 z" fill="#b8874f" opacity=".72"/>
  <path d="M330 790 C520 690 1090 680 1280 792" fill="none" stroke="#b8874f" stroke-width="8" opacity=".75"/>
  <text x="1490" y="96" text-anchor="end" font-size="44" font-weight="900" fill="#eef5fb">تصور 3D مبدئي - فيلا نجدي</text>
  <text x="1490" y="142" text-anchor="end" font-size="25" fill="#d9e3ee">مبني على قالب 2D: najdi-villa-0900 | 900-999 م²</text>
  <rect x="70" y="960" width="1460" height="52" rx="8" fill="#07111f" opacity=".78"/>
  <text x="1490" y="994" text-anchor="end" font-size="22" fill="#ffffff">kamel3lom | رندر تخيلي غير معتمد هندسيًا أو إنشائيًا</text>
  <text x="110" y="994" font-size="22" fill="#f0b14b">كتل هادئة، مجلس أمامي، فناء أو ردهة، وفتحات منتظمة.</text>
</svg>