<svg xmlns="http://www.w3.org/2000/svg" viewBox="0 0 1600 1050" role="img" aria-label="Concept 3D architectural render">
  <defs>
    <linearGradient id="sky-najdi-simple_commercial-0700" x1="0" y1="0" x2="1" y2="1">
      <stop stop-color="#0c1b2b"/>
      <stop offset="1" stop-color="#d9e3ee"/>
    </linearGradient>
    <filter id="shadow-najdi-simple_commercial-0700" x="-20%" y="-20%" width="140%" height="160%">
      <feDropShadow dx="0" dy="22" stdDeviation="24" flood-color="#000" flood-opacity=".28"/>
    </filter>
  </defs>
  <rect width="1600" height="1050" fill="url(#sky-najdi-simple_commercial-0700)"/>
  <circle cx="1290" cy="180" r="74" fill="#f0b14b" opacity=".74"/>
  <ellipse cx="820" cy="780" rx="620" ry="130" fill="#07111f" opacity=".28"/>
  <g filter="url(#shadow-najdi-simple_commercial-0700)"><g>
      <polygon points="820.0,90.0 970.8,168.0 841.1,235.1 690.3,157.1" fill="#7a5b31" stroke="#101820" stroke-width="2"/>
      <polygon points="970.8,168.0 970.8,338.0 841.1,405.1 841.1,235.1" fill="#e7d2a8" stroke="#101820" stroke-width="2"/>
      <polygon points="841.1,235.1 841.1,405.1 690.3,327.1 690.3,157.1" fill="#d6bc87" stroke="#101820" stroke-width="2"/>
      <rect x="788.6" y="126.5" width="84" height="24" rx="12" fill="#ffffff" opacity=".82"/>
      <text x="830.6" y="144.5" text-anchor="middle" font-size="13" font-weight="800" fill="#102033">معرض</text>
    </g><g>
      <polygon points="936.0,158.8 1070.6,228.4 954.8,288.2 820.2,218.6" fill="#7a5b31" stroke="#101820" stroke-width="2"/>
      <polygon points="1070.6,228.4 1070.6,389.6 954.8,449.5 954.8,288.2" fill="#e7d2a8" stroke="#101820" stroke-width="2"/>
      <polygon points="954.8,288.2 954.8,449.5 820.2,379.9 820.2,218.6" fill="#d6bc87" stroke="#101820" stroke-width="2"/>
      <rect x="903.4" y="187.5" width="84" height="24" rx="12" fill="#ffffff" opacity=".82"/>
      <text x="945.4" y="205.5" text-anchor="middle" font-size="13" font-weight="800" fill="#102033">مكاتب</text>
    </g><g>
      <polygon points="1052.0,210.0 1202.8,288.0 1073.1,355.1 922.3,277.1" fill="#7a5b31" stroke="#101820" stroke-width="2"/>
      <polygon points="1202.8,288.0 1202.8,458.0 1073.1,525.1 1073.1,355.1" fill="#e7d2a8" stroke="#101820" stroke-width="2"/>
      <polygon points="1073.1,355.1 1073.1,525.1 922.3,447.1 922.3,277.1" fill="#d6bc87" stroke="#101820" stroke-width="2"/>
      <rect x="1020.6" y="246.5" width="84" height="24" rx="12" fill="#ffffff" opacity=".82"/>
      <text x="1062.6" y="264.5" text-anchor="middle" font-size="13" font-weight="800" fill="#102033">استقبال</text>
    </g><g>
      <polygon points="718.5,186.9 829.0,244.0 734.0,293.2 623.5,236.0" fill="#7a5b31" stroke="#101820" stroke-width="2"/>
      <polygon points="829.0,244.0 829.0,369.6 734.0,418.8 734.0,293.2" fill="#e7d2a8" stroke="#101820" stroke-width="2"/>
      <polygon points="734.0,293.2 734.0,418.8 623.5,361.6 623.5,236.0" fill="#d6bc87" stroke="#101820" stroke-width="2"/>
      <rect x="684.2" y="204.0" width="84" height="24" rx="12" fill="#ffffff" opacity=".82"/>
      <text x="726.2" y="222.0" text-anchor="middle" font-size="13" font-weight="800" fill="#102033">خدمات</text>
    </g><g>
      <polygon points="834.5,253.8 939.7,308.2 849.2,355.0 744.1,300.6" fill="#7a5b31" stroke="#101820" stroke-width="2"/>
      <polygon points="939.7,308.2 939.7,426.9 849.2,473.7 849.2,355.0" fill="#e7d2a8" stroke="#101820" stroke-width="2"/>
      <polygon points="849.2,355.0 849.2,473.7 744.1,419.3 744.1,300.6" fill="#d6bc87" stroke="#101820" stroke-width="2"/>
      <rect x="799.9" y="268.4" width="84" height="24" rx="12" fill="#ffffff" opacity=".82"/>
      <text x="841.9" y="286.4" text-anchor="middle" font-size="13" font-weight="800" fill="#102033">مخزن</text>
    </g><g>
      <polygon points="950.5,277.0 1081.5,344.8 968.8,403.0 837.8,335.3" fill="#7a5b31" stroke="#101820" stroke-width="2"/>
      <polygon points="1081.5,344.8 1081.5,500.3 968.8,558.5 968.8,403.0" fill="#e7d2a8" stroke="#101820" stroke-width="2"/>
      <polygon points="968.8,403.0 968.8,558.5 837.8,490.8 837.8,335.3" fill="#d6bc87" stroke="#101820" stroke-width="2"/>
      <rect x="917.7" y="304.0" width="84" height="24" rx="12" fill="#ffffff" opacity=".82"/>
      <text x="959.7" y="322.0" text-anchor="middle" font-size="13" font-weight="800" fill="#102033">غرفة كهربا</text>
    </g></g>
  <path d="M 500 535 l 24 -40 l 24 40 z" fill="#b8874f" opacity=".72"/><path d="M 558 535 l 24 -40 l 24 40 z" fill="#b8874f" opacity=".72"/><path d="M 616 535 l 24 -40 l 24 40 z" fill="#b8874f" opacity=".72"/><path d="M 674 535 l 24 -40 l 24 40 z" fill="#b8874f" opacity=".72"/><path d="M 732 535 l 24 -40 l 24 40 z" fill="#b8874f" opacity=".72"/><path d="M 790 535 l 24 -40 l 24 40 z" fill="#b8874f" opacity=".72"/><path d="M 848 535 l 24 -40 l 24 40 z" fill="#b8874f" opacity=".72"/><path d="M 906 535 l 24 -40 l 24 40 z" fill="#b8874f" opacity=".72"/>
  <path d="M330 790 C520 690 1090 680 1280 792" fill="none" stroke="#b8874f" stroke-width="8" opacity=".75"/>
  <text x="1490" y="96" text-anchor="end" font-size="44" font-weight="900" fill="#eef5fb">تصور 3D مبدئي - تجاري بسيط نجدي</text>
  <text x="1490" y="142" text-anchor="end" font-size="25" fill="#d9e3ee">مبني على قالب 2D: najdi-simple_commercial-0700 | 700-799 م²</text>
  <rect x="70" y="960" width="1460" height="52" rx="8" fill="#07111f" opacity=".78"/>
  <text x="1490" y="994" text-anchor="end" font-size="22" fill="#ffffff">kamel3lom | رندر تخيلي غير معتمد هندسيًا أو إنشائيًا</text>
  <text x="110" y="994" font-size="22" fill="#f0b14b">كتل هادئة، مجلس أمامي، فناء أو ردهة، وفتحات منتظمة.</text>
</svg>