<svg xmlns="http://www.w3.org/2000/svg" viewBox="0 0 1600 1050" role="img" aria-label="Concept 3D architectural render">
  <defs>
    <linearGradient id="sky-najdi-apartment-0200" x1="0" y1="0" x2="1" y2="1">
      <stop stop-color="#0c1b2b"/>
      <stop offset="1" stop-color="#d9e3ee"/>
    </linearGradient>
    <filter id="shadow-najdi-apartment-0200" x="-20%" y="-20%" width="140%" height="160%">
      <feDropShadow dx="0" dy="22" stdDeviation="24" flood-color="#000" flood-opacity=".28"/>
    </filter>
  </defs>
  <rect width="1600" height="1050" fill="url(#sky-najdi-apartment-0200)"/>
  <circle cx="1290" cy="180" r="74" fill="#f0b14b" opacity=".74"/>
  <ellipse cx="820" cy="780" rx="620" ry="130" fill="#07111f" opacity=".28"/>
  <g filter="url(#shadow-najdi-apartment-0200)"><g>
      <polygon points="820.0,134.4 930.5,191.5 835.5,240.7 725.0,183.5" fill="#7a5b31" stroke="#101820" stroke-width="2"/>
      <polygon points="930.5,191.5 930.5,317.1 835.5,366.3 835.5,240.7" fill="#e7d2a8" stroke="#101820" stroke-width="2"/>
      <polygon points="835.5,240.7 835.5,366.3 725.0,309.1 725.0,183.5" fill="#d6bc87" stroke="#101820" stroke-width="2"/>
      <rect x="785.7" y="151.5" width="84" height="24" rx="12" fill="#ffffff" opacity=".82"/>
      <text x="827.7" y="169.5" text-anchor="middle" font-size="13" font-weight="800" fill="#102033">معيشة</text>
    </g><g>
      <polygon points="936.0,213.9 1030.7,262.9 949.3,305.0 854.6,256.1" fill="#7a5b31" stroke="#101820" stroke-width="2"/>
      <polygon points="1030.7,262.9 1030.7,369.0 949.3,411.1 949.3,305.0" fill="#e7d2a8" stroke="#101820" stroke-width="2"/>
      <polygon points="949.3,305.0 949.3,411.1 854.6,362.1 854.6,256.1" fill="#d6bc87" stroke="#101820" stroke-width="2"/>
      <rect x="900.6" y="223.5" width="84" height="24" rx="12" fill="#ffffff" opacity=".82"/>
      <text x="942.6" y="241.5" text-anchor="middle" font-size="13" font-weight="800" fill="#102033">غرفتا نوم</text>
    </g><g>
      <polygon points="1052.0,284.3 1137.1,328.3 1063.9,366.2 978.8,322.2" fill="#7a5b31" stroke="#101820" stroke-width="2"/>
      <polygon points="1137.1,328.3 1137.1,424.0 1063.9,461.9 1063.9,366.2" fill="#e7d2a8" stroke="#101820" stroke-width="2"/>
      <polygon points="1063.9,366.2 1063.9,461.9 978.8,417.9 978.8,322.2" fill="#d6bc87" stroke="#101820" stroke-width="2"/>
      <rect x="1016.0" y="289.2" width="84" height="24" rx="12" fill="#ffffff" opacity=".82"/>
      <text x="1058.0" y="307.2" text-anchor="middle" font-size="13" font-weight="800" fill="#102033">مطبخ</text>
    </g><g>
      <polygon points="718.5,237.5 782.3,270.5 727.4,298.9 663.6,265.9" fill="#7a5b31" stroke="#101820" stroke-width="2"/>
      <polygon points="782.3,270.5 782.3,345.5 727.4,373.9 727.4,298.9" fill="#e7d2a8" stroke="#101820" stroke-width="2"/>
      <polygon points="727.4,298.9 727.4,373.9 663.6,340.9 663.6,265.9" fill="#d6bc87" stroke="#101820" stroke-width="2"/>
      <rect x="681.0" y="232.2" width="84" height="24" rx="12" fill="#ffffff" opacity=".82"/>
      <text x="723.0" y="250.2" text-anchor="middle" font-size="13" font-weight="800" fill="#102033">حمامان</text>
    </g><g>
      <polygon points="834.5,286.0 910.1,325.1 845.1,358.8 769.5,319.6" fill="#7a5b31" stroke="#101820" stroke-width="2"/>
      <polygon points="910.1,325.1 910.1,411.6 845.1,445.3 845.1,358.8" fill="#e7d2a8" stroke="#101820" stroke-width="2"/>
      <polygon points="845.1,358.8 845.1,445.3 769.5,406.1 769.5,319.6" fill="#d6bc87" stroke="#101820" stroke-width="2"/>
      <rect x="797.8" y="286.4" width="84" height="24" rx="12" fill="#ffffff" opacity=".82"/>
      <text x="839.8" y="304.4" text-anchor="middle" font-size="13" font-weight="800" fill="#102033">مدخل</text>
    </g></g>
  <path d="M 500 535 l 24 -40 l 24 40 z" fill="#b8874f" opacity=".72"/><path d="M 558 535 l 24 -40 l 24 40 z" fill="#b8874f" opacity=".72"/><path d="M 616 535 l 24 -40 l 24 40 z" fill="#b8874f" opacity=".72"/><path d="M 674 535 l 24 -40 l 24 40 z" fill="#b8874f" opacity=".72"/><path d="M 732 535 l 24 -40 l 24 40 z" fill="#b8874f" opacity=".72"/><path d="M 790 535 l 24 -40 l 24 40 z" fill="#b8874f" opacity=".72"/><path d="M 848 535 l 24 -40 l 24 40 z" fill="#b8874f" opacity=".72"/><path d="M 906 535 l 24 -40 l 24 40 z" fill="#b8874f" opacity=".72"/>
  <path d="M330 790 C520 690 1090 680 1280 792" fill="none" stroke="#b8874f" stroke-width="8" opacity=".75"/>
  <text x="1490" y="96" text-anchor="end" font-size="44" font-weight="900" fill="#eef5fb">تصور 3D مبدئي - شقة نجدي</text>
  <text x="1490" y="142" text-anchor="end" font-size="25" fill="#d9e3ee">مبني على قالب 2D: najdi-apartment-0200 | 200-299 م²</text>
  <rect x="70" y="960" width="1460" height="52" rx="8" fill="#07111f" opacity=".78"/>
  <text x="1490" y="994" text-anchor="end" font-size="22" fill="#ffffff">kamel3lom | رندر تخيلي غير معتمد هندسيًا أو إنشائيًا</text>
  <text x="110" y="994" font-size="22" fill="#f0b14b">كتل هادئة، مجلس أمامي، فناء أو ردهة، وفتحات منتظمة.</text>
</svg>