<svg xmlns="http://www.w3.org/2000/svg" viewBox="0 0 1600 1050" role="img" aria-label="Concept 3D architectural render">
  <defs>
    <linearGradient id="sky-najdi-studio-0800" x1="0" y1="0" x2="1" y2="1">
      <stop stop-color="#0c1b2b"/>
      <stop offset="1" stop-color="#d9e3ee"/>
    </linearGradient>
    <filter id="shadow-najdi-studio-0800" x="-20%" y="-20%" width="140%" height="160%">
      <feDropShadow dx="0" dy="22" stdDeviation="24" flood-color="#000" flood-opacity=".28"/>
    </filter>
  </defs>
  <rect width="1600" height="1050" fill="url(#sky-najdi-studio-0800)"/>
  <circle cx="1290" cy="180" r="74" fill="#f0b14b" opacity=".74"/>
  <ellipse cx="820" cy="780" rx="620" ry="130" fill="#07111f" opacity=".28"/>
  <g filter="url(#shadow-najdi-studio-0800)"><g>
      <polygon points="820.0,90.0 970.8,168.0 841.1,235.1 690.3,157.1" fill="#7a5b31" stroke="#101820" stroke-width="2"/>
      <polygon points="970.8,168.0 970.8,338.0 841.1,405.1 841.1,235.1" fill="#e7d2a8" stroke="#101820" stroke-width="2"/>
      <polygon points="841.1,235.1 841.1,405.1 690.3,327.1 690.3,157.1" fill="#d6bc87" stroke="#101820" stroke-width="2"/>
      <rect x="788.6" y="126.5" width="84" height="24" rx="12" fill="#ffffff" opacity=".82"/>
      <text x="830.6" y="144.5" text-anchor="middle" font-size="13" font-weight="800" fill="#102033">معيشة</text>
    </g><g>
      <polygon points="936.0,150.0 1086.8,228.0 957.1,295.1 806.3,217.1" fill="#7a5b31" stroke="#101820" stroke-width="2"/>
      <polygon points="1086.8,228.0 1086.8,398.0 957.1,465.1 957.1,295.1" fill="#e7d2a8" stroke="#101820" stroke-width="2"/>
      <polygon points="957.1,295.1 957.1,465.1 806.3,387.1 806.3,217.1" fill="#d6bc87" stroke="#101820" stroke-width="2"/>
      <rect x="904.6" y="186.5" width="84" height="24" rx="12" fill="#ffffff" opacity=".82"/>
      <text x="946.6" y="204.5" text-anchor="middle" font-size="13" font-weight="800" fill="#102033">نوم</text>
    </g><g>
      <polygon points="1052.0,210.0 1202.8,288.0 1073.1,355.1 922.3,277.1" fill="#7a5b31" stroke="#101820" stroke-width="2"/>
      <polygon points="1202.8,288.0 1202.8,458.0 1073.1,525.1 1073.1,355.1" fill="#e7d2a8" stroke="#101820" stroke-width="2"/>
      <polygon points="1073.1,355.1 1073.1,525.1 922.3,447.1 922.3,277.1" fill="#d6bc87" stroke="#101820" stroke-width="2"/>
      <rect x="1020.6" y="246.5" width="84" height="24" rx="12" fill="#ffffff" opacity=".82"/>
      <text x="1062.6" y="264.5" text-anchor="middle" font-size="13" font-weight="800" fill="#102033">مكتب</text>
    </g><g>
      <polygon points="718.5,142.5 867.9,219.8 739.4,286.2 590.0,208.9" fill="#7a5b31" stroke="#101820" stroke-width="2"/>
      <polygon points="867.9,219.8 867.9,389.8 739.4,456.2 739.4,286.2" fill="#e7d2a8" stroke="#101820" stroke-width="2"/>
      <polygon points="739.4,286.2 739.4,456.2 590.0,378.9 590.0,208.9" fill="#d6bc87" stroke="#101820" stroke-width="2"/>
      <rect x="687.0" y="178.4" width="84" height="24" rx="12" fill="#ffffff" opacity=".82"/>
      <text x="729.0" y="196.4" text-anchor="middle" font-size="13" font-weight="800" fill="#102033">مطبخ</text>
    </g><g>
      <polygon points="834.5,243.4 947.5,301.9 850.3,352.2 737.3,293.7" fill="#7a5b31" stroke="#101820" stroke-width="2"/>
      <polygon points="947.5,301.9 947.5,431.0 850.3,481.2 850.3,352.2" fill="#e7d2a8" stroke="#101820" stroke-width="2"/>
      <polygon points="850.3,352.2 850.3,481.2 737.3,422.8 737.3,293.7" fill="#d6bc87" stroke="#101820" stroke-width="2"/>
      <rect x="800.4" y="261.8" width="84" height="24" rx="12" fill="#ffffff" opacity=".82"/>
      <text x="842.4" y="279.8" text-anchor="middle" font-size="13" font-weight="800" fill="#102033">حمام</text>
    </g><g>
      <polygon points="950.5,262.5 1092.0,335.7 970.3,398.6 828.8,325.4" fill="#7a5b31" stroke="#101820" stroke-width="2"/>
      <polygon points="1092.0,335.7 1092.0,505.7 970.3,568.6 970.3,398.6" fill="#e7d2a8" stroke="#101820" stroke-width="2"/>
      <polygon points="970.3,398.6 970.3,568.6 828.8,495.4 828.8,325.4" fill="#d6bc87" stroke="#101820" stroke-width="2"/>
      <rect x="918.4" y="294.6" width="84" height="24" rx="12" fill="#ffffff" opacity=".82"/>
      <text x="960.4" y="312.6" text-anchor="middle" font-size="13" font-weight="800" fill="#102033">تراس</text>
    </g></g>
  <path d="M 500 535 l 24 -40 l 24 40 z" fill="#b8874f" opacity=".72"/><path d="M 558 535 l 24 -40 l 24 40 z" fill="#b8874f" opacity=".72"/><path d="M 616 535 l 24 -40 l 24 40 z" fill="#b8874f" opacity=".72"/><path d="M 674 535 l 24 -40 l 24 40 z" fill="#b8874f" opacity=".72"/><path d="M 732 535 l 24 -40 l 24 40 z" fill="#b8874f" opacity=".72"/><path d="M 790 535 l 24 -40 l 24 40 z" fill="#b8874f" opacity=".72"/><path d="M 848 535 l 24 -40 l 24 40 z" fill="#b8874f" opacity=".72"/><path d="M 906 535 l 24 -40 l 24 40 z" fill="#b8874f" opacity=".72"/>
  <path d="M330 790 C520 690 1090 680 1280 792" fill="none" stroke="#b8874f" stroke-width="8" opacity=".75"/>
  <text x="1490" y="96" text-anchor="end" font-size="44" font-weight="900" fill="#eef5fb">تصور 3D مبدئي - استوديو نجدي</text>
  <text x="1490" y="142" text-anchor="end" font-size="25" fill="#d9e3ee">مبني على قالب 2D: najdi-studio-0800 | 800-899 م²</text>
  <rect x="70" y="960" width="1460" height="52" rx="8" fill="#07111f" opacity=".78"/>
  <text x="1490" y="994" text-anchor="end" font-size="22" fill="#ffffff">kamel3lom | رندر تخيلي غير معتمد هندسيًا أو إنشائيًا</text>
  <text x="110" y="994" font-size="22" fill="#f0b14b">كتل هادئة، مجلس أمامي، فناء أو ردهة، وفتحات منتظمة.</text>
</svg>