<svg xmlns="http://www.w3.org/2000/svg" viewBox="0 0 1600 1050" role="img" aria-label="Concept 3D architectural render">
  <defs>
    <linearGradient id="sky-najdi-townhouse-0600" x1="0" y1="0" x2="1" y2="1">
      <stop stop-color="#0c1b2b"/>
      <stop offset="1" stop-color="#d9e3ee"/>
    </linearGradient>
    <filter id="shadow-najdi-townhouse-0600" x="-20%" y="-20%" width="140%" height="160%">
      <feDropShadow dx="0" dy="22" stdDeviation="24" flood-color="#000" flood-opacity=".28"/>
    </filter>
  </defs>
  <rect width="1600" height="1050" fill="url(#sky-najdi-townhouse-0600)"/>
  <circle cx="1290" cy="180" r="74" fill="#f0b14b" opacity=".74"/>
  <ellipse cx="820" cy="780" rx="620" ry="130" fill="#07111f" opacity=".28"/>
  <g filter="url(#shadow-najdi-townhouse-0600)"><g>
      <polygon points="820.0,90.0 970.8,168.0 841.1,235.1 690.3,157.1" fill="#7a5b31" stroke="#101820" stroke-width="2"/>
      <polygon points="970.8,168.0 970.8,338.0 841.1,405.1 841.1,235.1" fill="#e7d2a8" stroke="#101820" stroke-width="2"/>
      <polygon points="841.1,235.1 841.1,405.1 690.3,327.1 690.3,157.1" fill="#d6bc87" stroke="#101820" stroke-width="2"/>
      <rect x="788.6" y="126.5" width="84" height="24" rx="12" fill="#ffffff" opacity=".82"/>
      <text x="830.6" y="144.5" text-anchor="middle" font-size="13" font-weight="800" fill="#102033">معيشة</text>
    </g><g>
      <polygon points="936.0,150.0 1086.8,228.0 957.1,295.1 806.3,217.1" fill="#7a5b31" stroke="#101820" stroke-width="2"/>
      <polygon points="1086.8,228.0 1086.8,398.0 957.1,465.1 957.1,295.1" fill="#e7d2a8" stroke="#101820" stroke-width="2"/>
      <polygon points="957.1,295.1 957.1,465.1 806.3,387.1 806.3,217.1" fill="#d6bc87" stroke="#101820" stroke-width="2"/>
      <rect x="904.6" y="186.5" width="84" height="24" rx="12" fill="#ffffff" opacity=".82"/>
      <text x="946.6" y="204.5" text-anchor="middle" font-size="13" font-weight="800" fill="#102033">مجلس</text>
    </g><g>
      <polygon points="1052.0,244.1 1170.0,305.1 1068.5,357.6 950.5,296.5" fill="#7a5b31" stroke="#101820" stroke-width="2"/>
      <polygon points="1170.0,305.1 1170.0,441.0 1068.5,493.5 1068.5,357.6" fill="#e7d2a8" stroke="#101820" stroke-width="2"/>
      <polygon points="1068.5,357.6 1068.5,493.5 950.5,432.5 950.5,296.5" fill="#d6bc87" stroke="#101820" stroke-width="2"/>
      <rect x="1018.3" y="264.8" width="84" height="24" rx="12" fill="#ffffff" opacity=".82"/>
      <text x="1060.3" y="282.8" text-anchor="middle" font-size="13" font-weight="800" fill="#102033">مطبخ</text>
    </g><g>
      <polygon points="718.5,158.2 848.8,225.5 736.7,283.5 606.5,216.1" fill="#7a5b31" stroke="#101820" stroke-width="2"/>
      <polygon points="848.8,225.5 848.8,379.9 736.7,437.8 736.7,283.5" fill="#e7d2a8" stroke="#101820" stroke-width="2"/>
      <polygon points="736.7,283.5 736.7,437.8 606.5,370.5 606.5,216.1" fill="#d6bc87" stroke="#101820" stroke-width="2"/>
      <rect x="685.6" y="184.8" width="84" height="24" rx="12" fill="#ffffff" opacity=".82"/>
      <text x="727.6" y="202.8" text-anchor="middle" font-size="13" font-weight="800" fill="#102033">ثلاث غرف ن</text>
    </g><g>
      <polygon points="834.5,215.9 966.2,284.0 852.9,342.6 721.2,274.4" fill="#7a5b31" stroke="#101820" stroke-width="2"/>
      <polygon points="966.2,284.0 966.2,440.6 852.9,499.2 852.9,342.6" fill="#e7d2a8" stroke="#101820" stroke-width="2"/>
      <polygon points="852.9,342.6 852.9,499.2 721.2,431.1 721.2,274.4" fill="#d6bc87" stroke="#101820" stroke-width="2"/>
      <rect x="801.7" y="243.2" width="84" height="24" rx="12" fill="#ffffff" opacity=".82"/>
      <text x="843.7" y="261.2" text-anchor="middle" font-size="13" font-weight="800" fill="#102033">جناح</text>
    </g><g>
      <polygon points="950.5,332.2 1040.0,378.5 963.0,418.3 873.5,372.0" fill="#7a5b31" stroke="#101820" stroke-width="2"/>
      <polygon points="1040.0,378.5 1040.0,478.8 963.0,518.6 963.0,418.3" fill="#e7d2a8" stroke="#101820" stroke-width="2"/>
      <polygon points="963.0,418.3 963.0,518.6 873.5,472.3 873.5,372.0" fill="#d6bc87" stroke="#101820" stroke-width="2"/>
      <rect x="914.8" y="339.3" width="84" height="24" rx="12" fill="#ffffff" opacity=".82"/>
      <text x="956.8" y="357.3" text-anchor="middle" font-size="13" font-weight="800" fill="#102033">ثلاثة حمام</text>
    </g><g>
      <polygon points="617.0,245.2 723.1,300.0 631.9,347.2 525.8,292.3" fill="#7a5b31" stroke="#101820" stroke-width="2"/>
      <polygon points="723.1,300.0 723.1,419.9 631.9,467.0 631.9,347.2" fill="#e7d2a8" stroke="#101820" stroke-width="2"/>
      <polygon points="631.9,347.2 631.9,467.0 525.8,412.2 525.8,292.3" fill="#d6bc87" stroke="#101820" stroke-width="2"/>
      <rect x="582.4" y="260.2" width="84" height="24" rx="12" fill="#ffffff" opacity=".82"/>
      <text x="624.4" y="278.2" text-anchor="middle" font-size="13" font-weight="800" fill="#102033">تراس</text>
    </g></g>
  <path d="M 500 535 l 24 -40 l 24 40 z" fill="#b8874f" opacity=".72"/><path d="M 558 535 l 24 -40 l 24 40 z" fill="#b8874f" opacity=".72"/><path d="M 616 535 l 24 -40 l 24 40 z" fill="#b8874f" opacity=".72"/><path d="M 674 535 l 24 -40 l 24 40 z" fill="#b8874f" opacity=".72"/><path d="M 732 535 l 24 -40 l 24 40 z" fill="#b8874f" opacity=".72"/><path d="M 790 535 l 24 -40 l 24 40 z" fill="#b8874f" opacity=".72"/><path d="M 848 535 l 24 -40 l 24 40 z" fill="#b8874f" opacity=".72"/><path d="M 906 535 l 24 -40 l 24 40 z" fill="#b8874f" opacity=".72"/>
  <path d="M330 790 C520 690 1090 680 1280 792" fill="none" stroke="#b8874f" stroke-width="8" opacity=".75"/>
  <text x="1490" y="96" text-anchor="end" font-size="44" font-weight="900" fill="#eef5fb">تصور 3D مبدئي - تاون هاوس نجدي</text>
  <text x="1490" y="142" text-anchor="end" font-size="25" fill="#d9e3ee">مبني على قالب 2D: najdi-townhouse-0600 | 600-699 م²</text>
  <rect x="70" y="960" width="1460" height="52" rx="8" fill="#07111f" opacity=".78"/>
  <text x="1490" y="994" text-anchor="end" font-size="22" fill="#ffffff">kamel3lom | رندر تخيلي غير معتمد هندسيًا أو إنشائيًا</text>
  <text x="110" y="994" font-size="22" fill="#f0b14b">كتل هادئة، مجلس أمامي، فناء أو ردهة، وفتحات منتظمة.</text>
</svg>