<svg xmlns="http://www.w3.org/2000/svg" viewBox="0 0 1600 1050" role="img" aria-label="Concept 3D architectural render">
  <defs>
    <linearGradient id="sky-najdi-villa-0300" x1="0" y1="0" x2="1" y2="1">
      <stop stop-color="#0c1b2b"/>
      <stop offset="1" stop-color="#d9e3ee"/>
    </linearGradient>
    <filter id="shadow-najdi-villa-0300" x="-20%" y="-20%" width="140%" height="160%">
      <feDropShadow dx="0" dy="22" stdDeviation="24" flood-color="#000" flood-opacity=".28"/>
    </filter>
  </defs>
  <rect width="1600" height="1050" fill="url(#sky-najdi-villa-0300)"/>
  <circle cx="1290" cy="180" r="74" fill="#f0b14b" opacity=".74"/>
  <ellipse cx="820" cy="780" rx="620" ry="130" fill="#07111f" opacity=".28"/>
  <g filter="url(#shadow-najdi-villa-0300)"><g>
      <polygon points="820.0,134.4 930.5,191.5 835.5,240.7 725.0,183.5" fill="#7a5b31" stroke="#101820" stroke-width="2"/>
      <polygon points="930.5,191.5 930.5,317.1 835.5,366.3 835.5,240.7" fill="#e7d2a8" stroke="#101820" stroke-width="2"/>
      <polygon points="835.5,240.7 835.5,366.3 725.0,309.1 725.0,183.5" fill="#d6bc87" stroke="#101820" stroke-width="2"/>
      <rect x="785.7" y="151.5" width="84" height="24" rx="12" fill="#ffffff" opacity=".82"/>
      <text x="827.7" y="169.5" text-anchor="middle" font-size="13" font-weight="800" fill="#102033">مجلس</text>
    </g><g>
      <polygon points="936.0,193.2 1047.3,250.8 951.6,300.4 840.3,242.8" fill="#7a5b31" stroke="#101820" stroke-width="2"/>
      <polygon points="1047.3,250.8 1047.3,377.6 951.6,427.1 951.6,300.4" fill="#e7d2a8" stroke="#101820" stroke-width="2"/>
      <polygon points="951.6,300.4 951.6,427.1 840.3,369.5 840.3,242.8" fill="#d6bc87" stroke="#101820" stroke-width="2"/>
      <rect x="901.8" y="210.8" width="84" height="24" rx="12" fill="#ffffff" opacity=".82"/>
      <text x="943.8" y="228.8" text-anchor="middle" font-size="13" font-weight="800" fill="#102033">صالة عائلي</text>
    </g><g>
      <polygon points="1052.0,275.1 1145.7,323.5 1065.1,365.2 971.5,316.8" fill="#7a5b31" stroke="#101820" stroke-width="2"/>
      <polygon points="1145.7,323.5 1145.7,428.4 1065.1,470.1 1065.1,365.2" fill="#e7d2a8" stroke="#101820" stroke-width="2"/>
      <polygon points="1065.1,365.2 1065.1,470.1 971.5,421.7 971.5,316.8" fill="#d6bc87" stroke="#101820" stroke-width="2"/>
      <rect x="1016.6" y="284.2" width="84" height="24" rx="12" fill="#ffffff" opacity=".82"/>
      <text x="1058.6" y="302.2" text-anchor="middle" font-size="13" font-weight="800" fill="#102033">ثلاث غرف ن</text>
    </g><g>
      <polygon points="718.5,217.9 802.5,261.4 730.3,298.8 646.3,255.3" fill="#7a5b31" stroke="#101820" stroke-width="2"/>
      <polygon points="802.5,261.4 802.5,355.9 730.3,393.3 730.3,298.8" fill="#e7d2a8" stroke="#101820" stroke-width="2"/>
      <polygon points="730.3,298.8 730.3,393.3 646.3,349.9 646.3,255.3" fill="#d6bc87" stroke="#101820" stroke-width="2"/>
      <rect x="682.4" y="222.4" width="84" height="24" rx="12" fill="#ffffff" opacity=".82"/>
      <text x="724.4" y="240.4" text-anchor="middle" font-size="13" font-weight="800" fill="#102033">طعام</text>
    </g><g>
      <polygon points="834.5,280.2 916.2,322.5 845.9,358.8 764.2,316.6" fill="#7a5b31" stroke="#101820" stroke-width="2"/>
      <polygon points="916.2,322.5 916.2,414.8 845.9,451.1 845.9,358.8" fill="#e7d2a8" stroke="#101820" stroke-width="2"/>
      <polygon points="845.9,358.8 845.9,451.1 764.2,408.8 764.2,316.6" fill="#d6bc87" stroke="#101820" stroke-width="2"/>
      <rect x="798.2" y="283.5" width="84" height="24" rx="12" fill="#ffffff" opacity=".82"/>
      <text x="840.2" y="301.5" text-anchor="middle" font-size="13" font-weight="800" fill="#102033">مطبخ</text>
    </g><g>
      <polygon points="950.5,357.5 1014.3,390.5 959.4,418.9 895.6,385.9" fill="#7a5b31" stroke="#101820" stroke-width="2"/>
      <polygon points="1014.3,390.5 1014.3,465.5 959.4,493.9 959.4,418.9" fill="#e7d2a8" stroke="#101820" stroke-width="2"/>
      <polygon points="959.4,418.9 959.4,493.9 895.6,460.9 895.6,385.9" fill="#d6bc87" stroke="#101820" stroke-width="2"/>
      <rect x="913.0" y="352.2" width="84" height="24" rx="12" fill="#ffffff" opacity=".82"/>
      <text x="955.0" y="370.2" text-anchor="middle" font-size="13" font-weight="800" fill="#102033">ثلاثة حمام</text>
    </g><g>
      <polygon points="617.0,276.2 695.1,316.6 627.9,351.4 549.8,310.9" fill="#7a5b31" stroke="#101820" stroke-width="2"/>
      <polygon points="695.1,316.6 695.1,405.4 627.9,440.2 627.9,351.4" fill="#e7d2a8" stroke="#101820" stroke-width="2"/>
      <polygon points="627.9,351.4 627.9,440.2 549.8,399.7 549.8,310.9" fill="#d6bc87" stroke="#101820" stroke-width="2"/>
      <rect x="580.5" y="277.8" width="84" height="24" rx="12" fill="#ffffff" opacity=".82"/>
      <text x="622.5" y="295.8" text-anchor="middle" font-size="13" font-weight="800" fill="#102033">فناء</text>
    </g></g>
  <path d="M 500 535 l 24 -40 l 24 40 z" fill="#b8874f" opacity=".72"/><path d="M 558 535 l 24 -40 l 24 40 z" fill="#b8874f" opacity=".72"/><path d="M 616 535 l 24 -40 l 24 40 z" fill="#b8874f" opacity=".72"/><path d="M 674 535 l 24 -40 l 24 40 z" fill="#b8874f" opacity=".72"/><path d="M 732 535 l 24 -40 l 24 40 z" fill="#b8874f" opacity=".72"/><path d="M 790 535 l 24 -40 l 24 40 z" fill="#b8874f" opacity=".72"/><path d="M 848 535 l 24 -40 l 24 40 z" fill="#b8874f" opacity=".72"/><path d="M 906 535 l 24 -40 l 24 40 z" fill="#b8874f" opacity=".72"/>
  <path d="M330 790 C520 690 1090 680 1280 792" fill="none" stroke="#b8874f" stroke-width="8" opacity=".75"/>
  <text x="1490" y="96" text-anchor="end" font-size="44" font-weight="900" fill="#eef5fb">تصور 3D مبدئي - فيلا نجدي</text>
  <text x="1490" y="142" text-anchor="end" font-size="25" fill="#d9e3ee">مبني على قالب 2D: najdi-villa-0300 | 300-399 م²</text>
  <rect x="70" y="960" width="1460" height="52" rx="8" fill="#07111f" opacity=".78"/>
  <text x="1490" y="994" text-anchor="end" font-size="22" fill="#ffffff">kamel3lom | رندر تخيلي غير معتمد هندسيًا أو إنشائيًا</text>
  <text x="110" y="994" font-size="22" fill="#f0b14b">كتل هادئة، مجلس أمامي، فناء أو ردهة، وفتحات منتظمة.</text>
</svg>