<svg xmlns="http://www.w3.org/2000/svg" viewBox="0 0 1600 1050" role="img" aria-label="Concept 3D architectural render">
  <defs>
    <linearGradient id="sky-najdi-villa-0400" x1="0" y1="0" x2="1" y2="1">
      <stop stop-color="#0c1b2b"/>
      <stop offset="1" stop-color="#d9e3ee"/>
    </linearGradient>
    <filter id="shadow-najdi-villa-0400" x="-20%" y="-20%" width="140%" height="160%">
      <feDropShadow dx="0" dy="22" stdDeviation="24" flood-color="#000" flood-opacity=".28"/>
    </filter>
  </defs>
  <rect width="1600" height="1050" fill="url(#sky-najdi-villa-0400)"/>
  <circle cx="1290" cy="180" r="74" fill="#f0b14b" opacity=".74"/>
  <ellipse cx="820" cy="780" rx="620" ry="130" fill="#07111f" opacity=".28"/>
  <g filter="url(#shadow-najdi-villa-0400)"><g>
      <polygon points="820.0,114.9 944.3,179.1 837.4,234.4 713.1,170.1" fill="#7a5b31" stroke="#101820" stroke-width="2"/>
      <polygon points="944.3,179.1 944.3,324.3 837.4,379.6 837.4,234.4" fill="#e7d2a8" stroke="#101820" stroke-width="2"/>
      <polygon points="837.4,234.4 837.4,379.6 713.1,315.3 713.1,170.1" fill="#d6bc87" stroke="#101820" stroke-width="2"/>
      <rect x="786.7" y="138.6" width="84" height="24" rx="12" fill="#ffffff" opacity=".82"/>
      <text x="828.7" y="156.6" text-anchor="middle" font-size="13" font-weight="800" fill="#102033">مجلس</text>
    </g><g>
      <polygon points="936.0,224.3 1021.1,268.3 947.9,306.2 862.8,262.2" fill="#7a5b31" stroke="#101820" stroke-width="2"/>
      <polygon points="1021.1,268.3 1021.1,364.0 947.9,401.9 947.9,306.2" fill="#e7d2a8" stroke="#101820" stroke-width="2"/>
      <polygon points="947.9,306.2 947.9,401.9 862.8,357.9 862.8,262.2" fill="#d6bc87" stroke="#101820" stroke-width="2"/>
      <rect x="900.0" y="229.2" width="84" height="24" rx="12" fill="#ffffff" opacity=".82"/>
      <text x="942.0" y="247.2" text-anchor="middle" font-size="13" font-weight="800" fill="#102033">صالتان</text>
    </g><g>
      <polygon points="1052.0,257.9 1159.9,313.6 1067.1,361.6 959.2,305.8" fill="#7a5b31" stroke="#101820" stroke-width="2"/>
      <polygon points="1159.9,313.6 1159.9,435.8 1067.1,483.8 1067.1,361.6" fill="#e7d2a8" stroke="#101820" stroke-width="2"/>
      <polygon points="1067.1,361.6 1067.1,483.8 959.2,428.0 959.2,305.8" fill="#d6bc87" stroke="#101820" stroke-width="2"/>
      <rect x="1017.5" y="273.7" width="84" height="24" rx="12" fill="#ffffff" opacity=".82"/>
      <text x="1059.5" y="291.7" text-anchor="middle" font-size="13" font-weight="800" fill="#102033">أربع غرف ن</text>
    </g><g>
      <polygon points="1168.0,320.1 1274.1,375.0 1182.9,422.2 1076.8,367.3" fill="#7a5b31" stroke="#101820" stroke-width="2"/>
      <polygon points="1274.1,375.0 1274.1,494.9 1182.9,542.0 1182.9,422.2" fill="#e7d2a8" stroke="#101820" stroke-width="2"/>
      <polygon points="1182.9,422.2 1182.9,542.0 1076.8,487.2 1076.8,367.3" fill="#d6bc87" stroke="#101820" stroke-width="2"/>
      <rect x="1133.4" y="335.2" width="84" height="24" rx="12" fill="#ffffff" opacity=".82"/>
      <text x="1175.4" y="353.2" text-anchor="middle" font-size="13" font-weight="800" fill="#102033">جناح رئيسي</text>
    </g><g>
      <polygon points="718.5,206.4 813.2,255.4 731.8,297.5 637.1,248.6" fill="#7a5b31" stroke="#101820" stroke-width="2"/>
      <polygon points="813.2,255.4 813.2,361.5 731.8,403.6 731.8,297.5" fill="#e7d2a8" stroke="#101820" stroke-width="2"/>
      <polygon points="731.8,297.5 731.8,403.6 637.1,354.6 637.1,248.6" fill="#d6bc87" stroke="#101820" stroke-width="2"/>
      <rect x="683.1" y="216.0" width="84" height="24" rx="12" fill="#ffffff" opacity=".82"/>
      <text x="725.1" y="234.0" text-anchor="middle" font-size="13" font-weight="800" fill="#102033">طعام</text>
    </g><g>
      <polygon points="834.5,264.1 931.2,314.1 848.0,357.1 751.4,307.1" fill="#7a5b31" stroke="#101820" stroke-width="2"/>
      <polygon points="931.2,314.1 931.2,422.5 848.0,465.5 848.0,357.1" fill="#e7d2a8" stroke="#101820" stroke-width="2"/>
      <polygon points="848.0,357.1 848.0,465.5 751.4,415.5 751.4,307.1" fill="#d6bc87" stroke="#101820" stroke-width="2"/>
      <rect x="799.3" y="274.6" width="84" height="24" rx="12" fill="#ffffff" opacity=".82"/>
      <text x="841.3" y="292.6" text-anchor="middle" font-size="13" font-weight="800" fill="#102033">مطبخ</text>
    </g><g>
      <polygon points="950.5,351.8 1019.5,387.5 960.2,418.2 891.1,382.5" fill="#7a5b31" stroke="#101820" stroke-width="2"/>
      <polygon points="1019.5,387.5 1019.5,468.2 960.2,498.9 960.2,418.2" fill="#e7d2a8" stroke="#101820" stroke-width="2"/>
      <polygon points="960.2,418.2 960.2,498.9 891.1,463.2 891.1,382.5" fill="#d6bc87" stroke="#101820" stroke-width="2"/>
      <rect x="913.3" y="349.0" width="84" height="24" rx="12" fill="#ffffff" opacity=".82"/>
      <text x="955.3" y="367.0" text-anchor="middle" font-size="13" font-weight="800" fill="#102033">خدمات</text>
    </g><g>
      <polygon points="1066.5,394.5 1153.8,439.7 1078.7,478.5 991.4,433.4" fill="#7a5b31" stroke="#101820" stroke-width="2"/>
      <polygon points="1153.8,439.7 1153.8,537.7 1078.7,576.5 1078.7,478.5" fill="#e7d2a8" stroke="#101820" stroke-width="2"/>
      <polygon points="1078.7,478.5 1078.7,576.5 991.4,531.4 991.4,433.4" fill="#d6bc87" stroke="#101820" stroke-width="2"/>
      <rect x="1030.6" y="400.5" width="84" height="24" rx="12" fill="#ffffff" opacity=".82"/>
      <text x="1072.6" y="418.5" text-anchor="middle" font-size="13" font-weight="800" fill="#102033">فناء</text>
    </g></g>
  <path d="M 500 535 l 24 -40 l 24 40 z" fill="#b8874f" opacity=".72"/><path d="M 558 535 l 24 -40 l 24 40 z" fill="#b8874f" opacity=".72"/><path d="M 616 535 l 24 -40 l 24 40 z" fill="#b8874f" opacity=".72"/><path d="M 674 535 l 24 -40 l 24 40 z" fill="#b8874f" opacity=".72"/><path d="M 732 535 l 24 -40 l 24 40 z" fill="#b8874f" opacity=".72"/><path d="M 790 535 l 24 -40 l 24 40 z" fill="#b8874f" opacity=".72"/><path d="M 848 535 l 24 -40 l 24 40 z" fill="#b8874f" opacity=".72"/><path d="M 906 535 l 24 -40 l 24 40 z" fill="#b8874f" opacity=".72"/>
  <path d="M330 790 C520 690 1090 680 1280 792" fill="none" stroke="#b8874f" stroke-width="8" opacity=".75"/>
  <text x="1490" y="96" text-anchor="end" font-size="44" font-weight="900" fill="#eef5fb">تصور 3D مبدئي - فيلا نجدي</text>
  <text x="1490" y="142" text-anchor="end" font-size="25" fill="#d9e3ee">مبني على قالب 2D: najdi-villa-0400 | 400-499 م²</text>
  <rect x="70" y="960" width="1460" height="52" rx="8" fill="#07111f" opacity=".78"/>
  <text x="1490" y="994" text-anchor="end" font-size="22" fill="#ffffff">kamel3lom | رندر تخيلي غير معتمد هندسيًا أو إنشائيًا</text>
  <text x="110" y="994" font-size="22" fill="#f0b14b">كتل هادئة، مجلس أمامي، فناء أو ردهة، وفتحات منتظمة.</text>
</svg>