<svg xmlns="http://www.w3.org/2000/svg" viewBox="0 0 1600 1050" role="img" aria-label="Concept 3D architectural render">
  <defs>
    <linearGradient id="sky-shami-studio-0700" x1="0" y1="0" x2="1" y2="1">
      <stop stop-color="#0c1b2b"/>
      <stop offset="1" stop-color="#d9e3ee"/>
    </linearGradient>
    <filter id="shadow-shami-studio-0700" x="-20%" y="-20%" width="140%" height="160%">
      <feDropShadow dx="0" dy="22" stdDeviation="24" flood-color="#000" flood-opacity=".28"/>
    </filter>
  </defs>
  <rect width="1600" height="1050" fill="url(#sky-shami-studio-0700)"/>
  <circle cx="1290" cy="180" r="74" fill="#f0b14b" opacity=".74"/>
  <ellipse cx="820" cy="780" rx="620" ry="130" fill="#07111f" opacity=".28"/>
  <g filter="url(#shadow-shami-studio-0700)"><g>
      <polygon points="820.0,90.0 970.8,168.0 841.1,235.1 690.3,157.1" fill="#8b4a2f" stroke="#101820" stroke-width="2"/>
      <polygon points="970.8,168.0 970.8,338.0 841.1,405.1 841.1,235.1" fill="#d9b27c" stroke="#101820" stroke-width="2"/>
      <polygon points="841.1,235.1 841.1,405.1 690.3,327.1 690.3,157.1" fill="#f0dfc2" stroke="#101820" stroke-width="2"/>
      <rect x="788.6" y="126.5" width="84" height="24" rx="12" fill="#ffffff" opacity=".82"/>
      <text x="830.6" y="144.5" text-anchor="middle" font-size="13" font-weight="800" fill="#102033">معيشة</text>
    </g><g>
      <polygon points="936.0,150.0 1086.8,228.0 957.1,295.1 806.3,217.1" fill="#8b4a2f" stroke="#101820" stroke-width="2"/>
      <polygon points="1086.8,228.0 1086.8,398.0 957.1,465.1 957.1,295.1" fill="#d9b27c" stroke="#101820" stroke-width="2"/>
      <polygon points="957.1,295.1 957.1,465.1 806.3,387.1 806.3,217.1" fill="#f0dfc2" stroke="#101820" stroke-width="2"/>
      <rect x="904.6" y="186.5" width="84" height="24" rx="12" fill="#ffffff" opacity=".82"/>
      <text x="946.6" y="204.5" text-anchor="middle" font-size="13" font-weight="800" fill="#102033">نوم</text>
    </g><g>
      <polygon points="1052.0,210.0 1202.8,288.0 1073.1,355.1 922.3,277.1" fill="#8b4a2f" stroke="#101820" stroke-width="2"/>
      <polygon points="1202.8,288.0 1202.8,458.0 1073.1,525.1 1073.1,355.1" fill="#d9b27c" stroke="#101820" stroke-width="2"/>
      <polygon points="1073.1,355.1 1073.1,525.1 922.3,447.1 922.3,277.1" fill="#f0dfc2" stroke="#101820" stroke-width="2"/>
      <rect x="1020.6" y="246.5" width="84" height="24" rx="12" fill="#ffffff" opacity=".82"/>
      <text x="1062.6" y="264.5" text-anchor="middle" font-size="13" font-weight="800" fill="#102033">مكتب</text>
    </g><g>
      <polygon points="718.5,142.5 861.3,216.4 738.5,279.9 595.7,206.0" fill="#8b4a2f" stroke="#101820" stroke-width="2"/>
      <polygon points="861.3,216.4 861.3,386.4 738.5,449.9 738.5,279.9" fill="#d9b27c" stroke="#101820" stroke-width="2"/>
      <polygon points="738.5,279.9 738.5,449.9 595.7,376.0 595.7,206.0" fill="#f0dfc2" stroke="#101820" stroke-width="2"/>
      <rect x="686.5" y="175.2" width="84" height="24" rx="12" fill="#ffffff" opacity=".82"/>
      <text x="728.5" y="193.2" text-anchor="middle" font-size="13" font-weight="800" fill="#102033">مطبخ</text>
    </g><g>
      <polygon points="834.5,258.4 936.0,310.9 848.7,356.0 747.2,303.5" fill="#8b4a2f" stroke="#101820" stroke-width="2"/>
      <polygon points="936.0,310.9 936.0,425.0 848.7,470.1 848.7,356.0" fill="#d9b27c" stroke="#101820" stroke-width="2"/>
      <polygon points="848.7,356.0 848.7,470.1 747.2,417.6 747.2,303.5" fill="#f0dfc2" stroke="#101820" stroke-width="2"/>
      <rect x="799.6" y="271.2" width="84" height="24" rx="12" fill="#ffffff" opacity=".82"/>
      <text x="841.6" y="289.2" text-anchor="middle" font-size="13" font-weight="800" fill="#102033">حمام</text>
    </g><g>
      <polygon points="950.5,279.3 1080.0,346.3 968.6,403.9 839.1,336.9" fill="#8b4a2f" stroke="#101820" stroke-width="2"/>
      <polygon points="1080.0,346.3 1080.0,499.5 968.6,557.1 968.6,403.9" fill="#d9b27c" stroke="#101820" stroke-width="2"/>
      <polygon points="968.6,403.9 968.6,557.1 839.1,490.1 839.1,336.9" fill="#f0dfc2" stroke="#101820" stroke-width="2"/>
      <rect x="917.6" y="305.6" width="84" height="24" rx="12" fill="#ffffff" opacity=".82"/>
      <text x="959.6" y="323.6" text-anchor="middle" font-size="13" font-weight="800" fill="#102033">تراس</text>
    </g></g>
  <path d="M 520 548 q 32 -70 64 0" fill="none" stroke="#7b3f2a" stroke-width="10"/><path d="M 612 548 q 32 -70 64 0" fill="none" stroke="#7b3f2a" stroke-width="10"/><path d="M 704 548 q 32 -70 64 0" fill="none" stroke="#7b3f2a" stroke-width="10"/><path d="M 796 548 q 32 -70 64 0" fill="none" stroke="#7b3f2a" stroke-width="10"/><path d="M 888 548 q 32 -70 64 0" fill="none" stroke="#7b3f2a" stroke-width="10"/>
  <path d="M330 790 C520 690 1090 680 1280 792" fill="none" stroke="#7b3f2a" stroke-width="8" opacity=".75"/>
  <text x="1490" y="96" text-anchor="end" font-size="44" font-weight="900" fill="#eef5fb">تصور 3D مبدئي - استوديو شامي</text>
  <text x="1490" y="142" text-anchor="end" font-size="25" fill="#d9e3ee">مبني على قالب 2D: shami-studio-0700 | 700-799 م²</text>
  <rect x="70" y="960" width="1460" height="52" rx="8" fill="#07111f" opacity=".78"/>
  <text x="1490" y="994" text-anchor="end" font-size="22" fill="#ffffff">kamel3lom | رندر تخيلي غير معتمد هندسيًا أو إنشائيًا</text>
  <text x="110" y="994" font-size="22" fill="#f0b14b">فناء داخلي، أقواس، توزيع اجتماعي حول القلب.</text>
</svg>