<svg xmlns="http://www.w3.org/2000/svg" viewBox="0 0 1600 1050" role="img" aria-label="Concept 3D architectural render">
  <defs>
    <linearGradient id="sky-shami-townhouse-0700" x1="0" y1="0" x2="1" y2="1">
      <stop stop-color="#0c1b2b"/>
      <stop offset="1" stop-color="#d9e3ee"/>
    </linearGradient>
    <filter id="shadow-shami-townhouse-0700" x="-20%" y="-20%" width="140%" height="160%">
      <feDropShadow dx="0" dy="22" stdDeviation="24" flood-color="#000" flood-opacity=".28"/>
    </filter>
  </defs>
  <rect width="1600" height="1050" fill="url(#sky-shami-townhouse-0700)"/>
  <circle cx="1290" cy="180" r="74" fill="#f0b14b" opacity=".74"/>
  <ellipse cx="820" cy="780" rx="620" ry="130" fill="#07111f" opacity=".28"/>
  <g filter="url(#shadow-shami-townhouse-0700)"><g>
      <polygon points="820.0,90.0 970.8,168.0 841.1,235.1 690.3,157.1" fill="#8b4a2f" stroke="#101820" stroke-width="2"/>
      <polygon points="970.8,168.0 970.8,338.0 841.1,405.1 841.1,235.1" fill="#d9b27c" stroke="#101820" stroke-width="2"/>
      <polygon points="841.1,235.1 841.1,405.1 690.3,327.1 690.3,157.1" fill="#f0dfc2" stroke="#101820" stroke-width="2"/>
      <rect x="788.6" y="126.5" width="84" height="24" rx="12" fill="#ffffff" opacity=".82"/>
      <text x="830.6" y="144.5" text-anchor="middle" font-size="13" font-weight="800" fill="#102033">معيشة</text>
    </g><g>
      <polygon points="936.0,150.0 1086.8,228.0 957.1,295.1 806.3,217.1" fill="#8b4a2f" stroke="#101820" stroke-width="2"/>
      <polygon points="1086.8,228.0 1086.8,398.0 957.1,465.1 957.1,295.1" fill="#d9b27c" stroke="#101820" stroke-width="2"/>
      <polygon points="957.1,295.1 957.1,465.1 806.3,387.1 806.3,217.1" fill="#f0dfc2" stroke="#101820" stroke-width="2"/>
      <rect x="904.6" y="186.5" width="84" height="24" rx="12" fill="#ffffff" opacity=".82"/>
      <text x="946.6" y="204.5" text-anchor="middle" font-size="13" font-weight="800" fill="#102033">مجلس</text>
    </g><g>
      <polygon points="1052.0,233.7 1177.1,298.4 1069.5,354.0 944.5,289.3" fill="#8b4a2f" stroke="#101820" stroke-width="2"/>
      <polygon points="1177.1,298.4 1177.1,444.7 1069.5,500.3 1069.5,354.0" fill="#d9b27c" stroke="#101820" stroke-width="2"/>
      <polygon points="1069.5,354.0 1069.5,500.3 944.5,435.6 944.5,289.3" fill="#f0dfc2" stroke="#101820" stroke-width="2"/>
      <rect x="1018.8" y="257.9" width="84" height="24" rx="12" fill="#ffffff" opacity=".82"/>
      <text x="1060.8" y="275.9" text-anchor="middle" font-size="13" font-weight="800" fill="#102033">مطبخ</text>
    </g><g>
      <polygon points="718.5,142.5 860.7,216.0 738.4,279.3 596.2,205.7" fill="#8b4a2f" stroke="#101820" stroke-width="2"/>
      <polygon points="860.7,216.0 860.7,386.0 738.4,449.3 738.4,279.3" fill="#d9b27c" stroke="#101820" stroke-width="2"/>
      <polygon points="738.4,279.3 738.4,449.3 596.2,375.7 596.2,205.7" fill="#f0dfc2" stroke="#101820" stroke-width="2"/>
      <rect x="686.5" y="174.9" width="84" height="24" rx="12" fill="#ffffff" opacity=".82"/>
      <text x="728.5" y="192.9" text-anchor="middle" font-size="13" font-weight="800" fill="#102033">ثلاث غرف ن</text>
    </g><g>
      <polygon points="834.5,203.2 974.0,275.3 854.0,337.4 714.6,265.2" fill="#8b4a2f" stroke="#101820" stroke-width="2"/>
      <polygon points="974.0,275.3 974.0,444.6 854.0,506.7 854.0,337.4" fill="#d9b27c" stroke="#101820" stroke-width="2"/>
      <polygon points="854.0,337.4 854.0,506.7 714.6,434.5 714.6,265.2" fill="#f0dfc2" stroke="#101820" stroke-width="2"/>
      <rect x="802.3" y="234.3" width="84" height="24" rx="12" fill="#ffffff" opacity=".82"/>
      <text x="844.3" y="252.3" text-anchor="middle" font-size="13" font-weight="800" fill="#102033">جناح</text>
    </g><g>
      <polygon points="950.5,328.8 1043.1,376.7 963.5,417.9 870.8,370.0" fill="#8b4a2f" stroke="#101820" stroke-width="2"/>
      <polygon points="1043.1,376.7 1043.1,480.4 963.5,521.6 963.5,417.9" fill="#d9b27c" stroke="#101820" stroke-width="2"/>
      <polygon points="963.5,417.9 963.5,521.6 870.8,473.7 870.8,370.0" fill="#f0dfc2" stroke="#101820" stroke-width="2"/>
      <rect x="915.0" y="337.3" width="84" height="24" rx="12" fill="#ffffff" opacity=".82"/>
      <text x="957.0" y="355.3" text-anchor="middle" font-size="13" font-weight="800" fill="#102033">ثلاثة حمام</text>
    </g><g>
      <polygon points="617.0,230.2 734.2,290.8 633.4,342.9 516.2,282.3" fill="#8b4a2f" stroke="#101820" stroke-width="2"/>
      <polygon points="734.2,290.8 734.2,425.6 633.4,477.7 633.4,342.9" fill="#d9b27c" stroke="#101820" stroke-width="2"/>
      <polygon points="633.4,342.9 633.4,477.7 516.2,417.1 516.2,282.3" fill="#f0dfc2" stroke="#101820" stroke-width="2"/>
      <rect x="583.2" y="250.6" width="84" height="24" rx="12" fill="#ffffff" opacity=".82"/>
      <text x="625.2" y="268.6" text-anchor="middle" font-size="13" font-weight="800" fill="#102033">تراس</text>
    </g></g>
  <path d="M 520 548 q 32 -70 64 0" fill="none" stroke="#7b3f2a" stroke-width="10"/><path d="M 612 548 q 32 -70 64 0" fill="none" stroke="#7b3f2a" stroke-width="10"/><path d="M 704 548 q 32 -70 64 0" fill="none" stroke="#7b3f2a" stroke-width="10"/><path d="M 796 548 q 32 -70 64 0" fill="none" stroke="#7b3f2a" stroke-width="10"/><path d="M 888 548 q 32 -70 64 0" fill="none" stroke="#7b3f2a" stroke-width="10"/>
  <path d="M330 790 C520 690 1090 680 1280 792" fill="none" stroke="#7b3f2a" stroke-width="8" opacity=".75"/>
  <text x="1490" y="96" text-anchor="end" font-size="44" font-weight="900" fill="#eef5fb">تصور 3D مبدئي - تاون هاوس شامي</text>
  <text x="1490" y="142" text-anchor="end" font-size="25" fill="#d9e3ee">مبني على قالب 2D: shami-townhouse-0700 | 700-799 م²</text>
  <rect x="70" y="960" width="1460" height="52" rx="8" fill="#07111f" opacity=".78"/>
  <text x="1490" y="994" text-anchor="end" font-size="22" fill="#ffffff">kamel3lom | رندر تخيلي غير معتمد هندسيًا أو إنشائيًا</text>
  <text x="110" y="994" font-size="22" fill="#f0b14b">فناء داخلي، أقواس، توزيع اجتماعي حول القلب.</text>
</svg>