<svg xmlns="http://www.w3.org/2000/svg" viewBox="0 0 1600 1050" role="img" aria-label="Concept architectural 2D plan">
  <defs>
    <pattern id="grid-andalusian-townhouse-2000" width="24" height="24" patternUnits="userSpaceOnUse">
      <path d="M 24 0 L 0 0 0 24" fill="none" stroke="#94a3b8" stroke-width="1" opacity=".18"/>
    </pattern>
  </defs>
  <rect width="1600" height="1050" fill="#f7f0dd"/>
  <rect x="70" y="70" width="1460" height="900" fill="url(#grid-andalusian-townhouse-2000)" stroke="#19333b" stroke-width="3"/>
  <text x="1490" y="118" text-anchor="end" font-size="40" font-weight="900" fill="#19333b">مخطط معماري مبدئي - تاون هاوس أندلسي</text>
  <text x="1490" y="158" text-anchor="end" font-size="24" fill="#19333b">الفئة: 2000-2099 م² | الطوابق: 1-8</text>
  <rect x="690" y="470" width="145" height="72" rx="36" fill="#83d0c7" opacity=".65" stroke="#214d5d" stroke-width="3"/>
  <g>
            <g>
              <rect x="110.0" y="150.0" width="658.1" height="240.0" fill="#f4ead3" stroke="#19333b" stroke-width="8"/>
              <line x1="132.0" y1="158.0" x2="262.0" y2="158.0" stroke="#83d0c7" stroke-width="8" stroke-linecap="round"/>
              <path d="M 168.0 390.0 v -52 a 52 52 0 0 0 52 52" fill="none" stroke="#214d5d" stroke-width="4"/>
              <rect x="132.0" y="180.0" width="160.0" height="42" rx="10" fill="none" stroke="#19333b" stroke-width="3"/><rect x="152.0" y="242.0" width="64" height="36" rx="6" fill="none" stroke="#214d5d" stroke-width="3"/>
              <text x="439.0" y="264.0" text-anchor="middle" font-size="30" font-weight="800" fill="#19333b">معيشة كبيرة</text>
              <text x="439.0" y="298.0" text-anchor="middle" font-size="20" fill="#19333b">363 م²</text>
            </g>
            
            <g>
              <rect x="768.1" y="150.0" width="375.3" height="240.0" fill="#efe4c8" stroke="#19333b" stroke-width="8"/>
              <line x1="790.1" y1="158.0" x2="880.1" y2="158.0" stroke="#83d0c7" stroke-width="8" stroke-linecap="round"/>
              <path d="M 849.1 390.0 v -52 a 52 52 0 0 0 52 52" fill="none" stroke="#214d5d" stroke-width="4"/>
              <rect x="790.1" y="174.0" width="150.0" height="24" fill="none" stroke="#19333b" stroke-width="3"/><circle cx="820.1" cy="218.0" r="12" fill="none" stroke="#214d5d" stroke-width="3"/><circle cx="856.1" cy="218.0" r="12" fill="none" stroke="#214d5d" stroke-width="3"/>
              <text x="955.7" y="264.0" text-anchor="middle" font-size="30" font-weight="800" fill="#19333b">مطبخ</text>
              <text x="955.7" y="298.0" text-anchor="middle" font-size="20" fill="#19333b">207 م²</text>
            </g>
            
            <g>
              <rect x="1143.3" y="150.0" width="206.7" height="240.0" fill="#efe4c8" stroke="#19333b" stroke-width="8"/>
              <line x1="1165.3" y1="158.0" x2="1214.9" y2="158.0" stroke="#83d0c7" stroke-width="8" stroke-linecap="round"/>
              <path d="M 1247.3 390.0 v -52 a 52 52 0 0 0 52 52" fill="none" stroke="#214d5d" stroke-width="4"/>
              <rect x="1167.3" y="178.0" width="62.0" height="42" rx="6" fill="none" stroke="#19333b" stroke-width="3"/>
              <text x="1246.7" y="264.0" text-anchor="middle" font-size="30" font-weight="800" fill="#19333b">خدمات</text>
              <text x="1246.7" y="298.0" text-anchor="middle" font-size="20" fill="#19333b">114 م²</text>
            </g>
            
            <g>
              <rect x="110.0" y="390.0" width="558.2" height="240.0" fill="#f7f0dd" stroke="#19333b" stroke-width="8"/>
              <line x1="132.0" y1="398.0" x2="262.0" y2="398.0" stroke="#83d0c7" stroke-width="8" stroke-linecap="round"/>
              <path d="M 237.0 630.0 v -52 a 52 52 0 0 0 52 52" fill="none" stroke="#214d5d" stroke-width="4"/>
              <rect x="132.0" y="420.0" width="160.0" height="42" rx="10" fill="none" stroke="#19333b" stroke-width="3"/><rect x="152.0" y="482.0" width="64" height="36" rx="6" fill="none" stroke="#214d5d" stroke-width="3"/>
              <text x="389.1" y="504.0" text-anchor="middle" font-size="30" font-weight="800" fill="#19333b">مجلس</text>
              <text x="389.1" y="538.0" text-anchor="middle" font-size="20" fill="#19333b">370 م²</text>
            </g>
            
            <g>
              <rect x="668.2" y="390.0" width="407.3" height="240.0" fill="#f4ead3" stroke="#19333b" stroke-width="8"/>
              <line x1="690.2" y1="398.0" x2="787.9" y2="398.0" stroke="#83d0c7" stroke-width="8" stroke-linecap="round"/>
              <path d="M 818.2 630.0 v -52 a 52 52 0 0 0 52 52" fill="none" stroke="#214d5d" stroke-width="4"/>
              <rect x="690.2" y="420.0" width="120.0" height="62" rx="8" fill="none" stroke="#19333b" stroke-width="3"/><line x1="690.2" y1="448.0" x2="810.2" y2="448.0" stroke="#19333b" stroke-width="2"/>
              <text x="871.8" y="504.0" text-anchor="middle" font-size="30" font-weight="800" fill="#19333b">خمس غرف نوم</text>
              <text x="871.8" y="538.0" text-anchor="middle" font-size="20" fill="#19333b">270 م²</text>
            </g>
            
            <g>
              <rect x="1075.5" y="390.0" width="274.5" height="240.0" fill="#f7f0dd" stroke="#19333b" stroke-width="8"/>
              <line x1="1097.5" y1="398.0" x2="1163.3" y2="398.0" stroke="#83d0c7" stroke-width="8" stroke-linecap="round"/>
              <path d="M 1248.5 630.0 v -52 a 52 52 0 0 0 52 52" fill="none" stroke="#214d5d" stroke-width="4"/>
              <rect x="1099.5" y="418.0" width="82.4" height="42" rx="6" fill="none" stroke="#19333b" stroke-width="3"/>
              <text x="1212.7" y="504.0" text-anchor="middle" font-size="30" font-weight="800" fill="#19333b">تراس</text>
              <text x="1212.7" y="538.0" text-anchor="middle" font-size="20" fill="#19333b">182 م²</text>
            </g>
            
            <g>
              <rect x="110.0" y="630.0" width="546.1" height="240.0" fill="#f4ead3" stroke="#19333b" stroke-width="8"/>
              <line x1="132.0" y1="638.0" x2="262.0" y2="638.0" stroke="#83d0c7" stroke-width="8" stroke-linecap="round"/>
              <path d="M 306.0 870.0 v -52 a 52 52 0 0 0 52 52" fill="none" stroke="#214d5d" stroke-width="4"/>
              <ellipse cx="262.9" cy="721.2" rx="54" ry="34" fill="none" stroke="#19333b" stroke-width="3"/><circle cx="262.9" cy="721.2" r="7" fill="#214d5d"/>
              <text x="383.1" y="744.0" text-anchor="middle" font-size="30" font-weight="800" fill="#19333b">طعام</text>
              <text x="383.1" y="778.0" text-anchor="middle" font-size="20" fill="#19333b">218 م²</text>
            </g>
            
            <g>
              <rect x="656.1" y="630.0" width="693.9" height="240.0" fill="#f7f0dd" stroke="#19333b" stroke-width="8"/>
              <line x1="678.1" y1="638.0" x2="808.1" y2="638.0" stroke="#83d0c7" stroke-width="8" stroke-linecap="round"/>
              <path d="M 875.1 870.0 v -52 a 52 52 0 0 0 52 52" fill="none" stroke="#214d5d" stroke-width="4"/>
              <rect x="678.1" y="660.0" width="120.0" height="62" rx="8" fill="none" stroke="#19333b" stroke-width="3"/><line x1="678.1" y1="688.0" x2="798.1" y2="688.0" stroke="#19333b" stroke-width="2"/>
              <text x="1003.1" y="744.0" text-anchor="middle" font-size="30" font-weight="800" fill="#19333b">جناحان</text>
              <text x="1003.1" y="778.0" text-anchor="middle" font-size="20" fill="#19333b">277 م²</text>
            </g>
            </g>
  <line x1="110" y1="910" x2="1350" y2="910" stroke="#19333b" stroke-width="3"/>
  <path d="M110 895v30M1350 895v30" stroke="#19333b" stroke-width="3"/>
  <text x="730" y="948" text-anchor="middle" font-size="24" fill="#19333b">أبعاد ومساحات تقريبية للتصور فقط</text>
  <path d="M1450 890 v-92 m0 0 -22 35 m22-35 22 35" stroke="#214d5d" stroke-width="7" stroke-linecap="round" stroke-linejoin="round"/>
  <text x="1450" y="936" text-anchor="middle" font-size="24" fill="#19333b">شمال</text>
  <rect x="70" y="980" width="1460" height="46" fill="#19333b"/>
  <text x="1490" y="1012" text-anchor="end" font-size="20" fill="#ffffff">kamel3lom | مخطط تخيلي غير معتمد هندسيًا</text>
  <text x="110" y="1012" font-size="20" fill="#ffffff">andalusian-townhouse-2000</text>
</svg>