<svg xmlns="http://www.w3.org/2000/svg" viewBox="0 0 1600 1050" role="img" aria-label="Concept architectural 2D plan">
  <defs>
    <pattern id="grid-andalusian-studio-4500" width="24" height="24" patternUnits="userSpaceOnUse">
      <path d="M 24 0 L 0 0 0 24" fill="none" stroke="#94a3b8" stroke-width="1" opacity=".18"/>
    </pattern>
  </defs>
  <rect width="1600" height="1050" fill="#f7f0dd"/>
  <rect x="70" y="70" width="1460" height="900" fill="url(#grid-andalusian-studio-4500)" stroke="#19333b" stroke-width="3"/>
  <text x="1490" y="118" text-anchor="end" font-size="40" font-weight="900" fill="#19333b">مخطط معماري مبدئي - استوديو أندلسي</text>
  <text x="1490" y="158" text-anchor="end" font-size="24" fill="#19333b">الفئة: 4500-4599 م² | الطوابق: 1-8</text>
  <rect x="690" y="470" width="145" height="72" rx="36" fill="#83d0c7" opacity=".65" stroke="#214d5d" stroke-width="3"/>
  <g>
            <g>
              <rect x="110.0" y="150.0" width="550.6" height="240.0" fill="#f4ead3" stroke="#19333b" stroke-width="8"/>
              <line x1="132.0" y1="158.0" x2="262.0" y2="158.0" stroke="#83d0c7" stroke-width="8" stroke-linecap="round"/>
              <path d="M 168.0 390.0 v -52 a 52 52 0 0 0 52 52" fill="none" stroke="#214d5d" stroke-width="4"/>
              <rect x="132.0" y="180.0" width="120.0" height="62" rx="8" fill="none" stroke="#19333b" stroke-width="3"/><line x1="132.0" y1="208.0" x2="252.0" y2="208.0" stroke="#19333b" stroke-width="2"/>
              <text x="385.3" y="264.0" text-anchor="middle" font-size="30" font-weight="800" fill="#19333b">جناح نوم</text>
              <text x="385.3" y="298.0" text-anchor="middle" font-size="20" fill="#19333b">790 م²</text>
            </g>
            
            <g>
              <rect x="660.6" y="150.0" width="439.8" height="240.0" fill="#efe4c8" stroke="#19333b" stroke-width="8"/>
              <line x1="682.6" y1="158.0" x2="788.2" y2="158.0" stroke="#83d0c7" stroke-width="8" stroke-linecap="round"/>
              <path d="M 741.6 390.0 v -52 a 52 52 0 0 0 52 52" fill="none" stroke="#214d5d" stroke-width="4"/>
              <rect x="682.6" y="174.0" width="150.0" height="24" fill="none" stroke="#19333b" stroke-width="3"/><circle cx="712.6" cy="218.0" r="12" fill="none" stroke="#214d5d" stroke-width="3"/><circle cx="748.6" cy="218.0" r="12" fill="none" stroke="#214d5d" stroke-width="3"/>
              <text x="880.6" y="264.0" text-anchor="middle" font-size="30" font-weight="800" fill="#19333b">مطبخ</text>
              <text x="880.6" y="298.0" text-anchor="middle" font-size="20" fill="#19333b">631 م²</text>
            </g>
            
            <g>
              <rect x="1100.5" y="150.0" width="249.5" height="240.0" fill="#f4ead3" stroke="#19333b" stroke-width="8"/>
              <line x1="1122.5" y1="158.0" x2="1182.4" y2="158.0" stroke="#83d0c7" stroke-width="8" stroke-linecap="round"/>
              <path d="M 1204.5 390.0 v -52 a 52 52 0 0 0 52 52" fill="none" stroke="#214d5d" stroke-width="4"/>
              <rect x="1124.5" y="178.0" width="74.9" height="42" rx="6" fill="none" stroke="#19333b" stroke-width="3"/>
              <text x="1225.2" y="264.0" text-anchor="middle" font-size="30" font-weight="800" fill="#19333b">مخزن</text>
              <text x="1225.2" y="298.0" text-anchor="middle" font-size="20" fill="#19333b">358 م²</text>
            </g>
            
            <g>
              <rect x="110.0" y="390.0" width="962.8" height="240.0" fill="#f7f0dd" stroke="#19333b" stroke-width="8"/>
              <line x1="132.0" y1="398.0" x2="262.0" y2="398.0" stroke="#83d0c7" stroke-width="8" stroke-linecap="round"/>
              <path d="M 237.0 630.0 v -52 a 52 52 0 0 0 52 52" fill="none" stroke="#214d5d" stroke-width="4"/>
              <rect x="132.0" y="420.0" width="160.0" height="42" rx="10" fill="none" stroke="#19333b" stroke-width="3"/><rect x="152.0" y="482.0" width="64" height="36" rx="6" fill="none" stroke="#214d5d" stroke-width="3"/>
              <text x="591.4" y="504.0" text-anchor="middle" font-size="30" font-weight="800" fill="#19333b">معيشة كبيرة</text>
              <text x="591.4" y="538.0" text-anchor="middle" font-size="20" fill="#19333b">1108 م²</text>
            </g>
            
            <g>
              <rect x="1072.8" y="390.0" width="277.2" height="240.0" fill="#efe4c8" stroke="#19333b" stroke-width="8"/>
              <line x1="1094.8" y1="398.0" x2="1161.3" y2="398.0" stroke="#83d0c7" stroke-width="8" stroke-linecap="round"/>
              <path d="M 1222.8 630.0 v -52 a 52 52 0 0 0 52 52" fill="none" stroke="#214d5d" stroke-width="4"/>
              <circle cx="1117.8" cy="438.0" r="20" fill="none" stroke="#214d5d" stroke-width="4"/><rect x="1150.8" y="418.0" width="46" height="38" rx="8" fill="none" stroke="#19333b" stroke-width="3"/>
              <text x="1211.4" y="504.0" text-anchor="middle" font-size="30" font-weight="800" fill="#19333b">حمامين</text>
              <text x="1211.4" y="538.0" text-anchor="middle" font-size="20" fill="#19333b">319 م²</text>
            </g>
            
            <g>
              <rect x="110.0" y="630.0" width="744.0" height="240.0" fill="#f7f0dd" stroke="#19333b" stroke-width="8"/>
              <line x1="132.0" y1="638.0" x2="262.0" y2="638.0" stroke="#83d0c7" stroke-width="8" stroke-linecap="round"/>
              <path d="M 283.0 870.0 v -52 a 52 52 0 0 0 52 52" fill="none" stroke="#214d5d" stroke-width="4"/>
              <rect x="134.0" y="658.0" width="96.0" height="42" rx="6" fill="none" stroke="#19333b" stroke-width="3"/>
              <text x="482.0" y="744.0" text-anchor="middle" font-size="30" font-weight="800" fill="#19333b">مكتب</text>
              <text x="482.0" y="778.0" text-anchor="middle" font-size="20" fill="#19333b">777 م²</text>
            </g>
            
            <g>
              <rect x="854.0" y="630.0" width="496.0" height="240.0" fill="#f4ead3" stroke="#19333b" stroke-width="8"/>
              <line x1="876.0" y1="638.0" x2="995.0" y2="638.0" stroke="#83d0c7" stroke-width="8" stroke-linecap="round"/>
              <path d="M 1050.0 870.0 v -52 a 52 52 0 0 0 52 52" fill="none" stroke="#214d5d" stroke-width="4"/>
              <rect x="878.0" y="658.0" width="96.0" height="42" rx="6" fill="none" stroke="#19333b" stroke-width="3"/>
              <text x="1102.0" y="744.0" text-anchor="middle" font-size="30" font-weight="800" fill="#19333b">تراس</text>
              <text x="1102.0" y="778.0" text-anchor="middle" font-size="20" fill="#19333b">518 م²</text>
            </g>
            </g>
  <line x1="110" y1="910" x2="1350" y2="910" stroke="#19333b" stroke-width="3"/>
  <path d="M110 895v30M1350 895v30" stroke="#19333b" stroke-width="3"/>
  <text x="730" y="948" text-anchor="middle" font-size="24" fill="#19333b">أبعاد ومساحات تقريبية للتصور فقط</text>
  <path d="M1450 890 v-92 m0 0 -22 35 m22-35 22 35" stroke="#214d5d" stroke-width="7" stroke-linecap="round" stroke-linejoin="round"/>
  <text x="1450" y="936" text-anchor="middle" font-size="24" fill="#19333b">شمال</text>
  <rect x="70" y="980" width="1460" height="46" fill="#19333b"/>
  <text x="1490" y="1012" text-anchor="end" font-size="20" fill="#ffffff">kamel3lom | مخطط تخيلي غير معتمد هندسيًا</text>
  <text x="110" y="1012" font-size="20" fill="#ffffff">andalusian-studio-4500</text>
</svg>