<svg xmlns="http://www.w3.org/2000/svg" viewBox="0 0 1600 1050" role="img" aria-label="Concept architectural 2D plan">
  <defs>
    <pattern id="grid-andalusian-villa-3600" width="24" height="24" patternUnits="userSpaceOnUse">
      <path d="M 24 0 L 0 0 0 24" fill="none" stroke="#94a3b8" stroke-width="1" opacity=".18"/>
    </pattern>
  </defs>
  <rect width="1600" height="1050" fill="#f7f0dd"/>
  <rect x="70" y="70" width="1460" height="900" fill="url(#grid-andalusian-villa-3600)" stroke="#19333b" stroke-width="3"/>
  <text x="1490" y="118" text-anchor="end" font-size="40" font-weight="900" fill="#19333b">مخطط معماري مبدئي - فيلا أندلسي</text>
  <text x="1490" y="158" text-anchor="end" font-size="24" fill="#19333b">الفئة: 3600-3699 م² | الطوابق: 1-8</text>
  <rect x="690" y="470" width="145" height="72" rx="36" fill="#83d0c7" opacity=".65" stroke="#214d5d" stroke-width="3"/>
  <g>
            <g>
              <rect x="110.0" y="150.0" width="560.4" height="180.0" fill="#f4ead3" stroke="#19333b" stroke-width="8"/>
              <line x1="132.0" y1="158.0" x2="262.0" y2="158.0" stroke="#83d0c7" stroke-width="8" stroke-linecap="round"/>
              <path d="M 168.0 330.0 v -52 a 52 52 0 0 0 52 52" fill="none" stroke="#214d5d" stroke-width="4"/>
              <rect x="132.0" y="180.0" width="160.0" height="42" rx="10" fill="none" stroke="#19333b" stroke-width="3"/><rect x="152.0" y="242.0" width="64" height="36" rx="6" fill="none" stroke="#214d5d" stroke-width="3"/>
              <text x="390.2" y="234.0" text-anchor="middle" font-size="30" font-weight="800" fill="#19333b">مجلس كبير</text>
              <text x="390.2" y="268.0" text-anchor="middle" font-size="20" fill="#19333b">559 م²</text>
            </g>
            
            <g>
              <rect x="670.4" y="150.0" width="417.0" height="180.0" fill="#f7f0dd" stroke="#19333b" stroke-width="8"/>
              <line x1="692.4" y1="158.0" x2="792.4" y2="158.0" stroke="#83d0c7" stroke-width="8" stroke-linecap="round"/>
              <path d="M 751.4 330.0 v -52 a 52 52 0 0 0 52 52" fill="none" stroke="#214d5d" stroke-width="4"/>
              <rect x="692.4" y="180.0" width="120.0" height="62" rx="8" fill="none" stroke="#19333b" stroke-width="3"/><line x1="692.4" y1="208.0" x2="812.4" y2="208.0" stroke="#19333b" stroke-width="2"/>
              <text x="878.9" y="234.0" text-anchor="middle" font-size="30" font-weight="800" fill="#19333b">جناحان</text>
              <text x="878.9" y="268.0" text-anchor="middle" font-size="20" fill="#19333b">416 م²</text>
            </g>
            
            <g>
              <rect x="1087.4" y="150.0" width="262.6" height="180.0" fill="#f4ead3" stroke="#19333b" stroke-width="8"/>
              <line x1="1109.4" y1="158.0" x2="1172.4" y2="158.0" stroke="#83d0c7" stroke-width="8" stroke-linecap="round"/>
              <path d="M 1191.4 330.0 v -52 a 52 52 0 0 0 52 52" fill="none" stroke="#214d5d" stroke-width="4"/>
              <rect x="1111.4" y="178.0" width="78.8" height="42" rx="6" fill="none" stroke="#19333b" stroke-width="3"/>
              <text x="1218.7" y="234.0" text-anchor="middle" font-size="30" font-weight="800" fill="#19333b">فناء</text>
              <text x="1218.7" y="268.0" text-anchor="middle" font-size="20" fill="#19333b">262 م²</text>
            </g>
            
            <g>
              <rect x="110.0" y="330.0" width="597.9" height="180.0" fill="#f7f0dd" stroke="#19333b" stroke-width="8"/>
              <line x1="132.0" y1="338.0" x2="262.0" y2="338.0" stroke="#83d0c7" stroke-width="8" stroke-linecap="round"/>
              <path d="M 237.0 510.0 v -52 a 52 52 0 0 0 52 52" fill="none" stroke="#214d5d" stroke-width="4"/>
              <rect x="132.0" y="360.0" width="160.0" height="42" rx="10" fill="none" stroke="#19333b" stroke-width="3"/><rect x="152.0" y="422.0" width="64" height="36" rx="6" fill="none" stroke="#214d5d" stroke-width="3"/>
              <text x="409.0" y="414.0" text-anchor="middle" font-size="30" font-weight="800" fill="#19333b">استقبال</text>
              <text x="409.0" y="448.0" text-anchor="middle" font-size="20" fill="#19333b">569 م²</text>
            </g>
            
            <g>
              <rect x="707.9" y="330.0" width="356.2" height="180.0" fill="#f4ead3" stroke="#19333b" stroke-width="8"/>
              <line x1="729.9" y1="338.0" x2="815.4" y2="338.0" stroke="#83d0c7" stroke-width="8" stroke-linecap="round"/>
              <path d="M 857.9 510.0 v -52 a 52 52 0 0 0 52 52" fill="none" stroke="#214d5d" stroke-width="4"/>
              <ellipse cx="807.7" cy="398.4" rx="54" ry="34" fill="none" stroke="#19333b" stroke-width="3"/><circle cx="807.7" cy="398.4" r="7" fill="#214d5d"/>
              <text x="886.1" y="414.0" text-anchor="middle" font-size="30" font-weight="800" fill="#19333b">طعام</text>
              <text x="886.1" y="448.0" text-anchor="middle" font-size="20" fill="#19333b">339 م²</text>
            </g>
            
            <g>
              <rect x="1064.2" y="330.0" width="285.8" height="180.0" fill="#f7f0dd" stroke="#19333b" stroke-width="8"/>
              <line x1="1086.2" y1="338.0" x2="1154.8" y2="338.0" stroke="#83d0c7" stroke-width="8" stroke-linecap="round"/>
              <path d="M 1237.2 510.0 v -52 a 52 52 0 0 0 52 52" fill="none" stroke="#214d5d" stroke-width="4"/>
              <rect x="1088.2" y="358.0" width="85.7" height="42" rx="6" fill="none" stroke="#19333b" stroke-width="3"/>
              <text x="1207.1" y="414.0" text-anchor="middle" font-size="30" font-weight="800" fill="#19333b">تراس</text>
              <text x="1207.1" y="448.0" text-anchor="middle" font-size="20" fill="#19333b">272 م²</text>
            </g>
            
            <g>
              <rect x="110.0" y="510.0" width="568.8" height="180.0" fill="#f4ead3" stroke="#19333b" stroke-width="8"/>
              <line x1="132.0" y1="518.0" x2="262.0" y2="518.0" stroke="#83d0c7" stroke-width="8" stroke-linecap="round"/>
              <path d="M 306.0 690.0 v -52 a 52 52 0 0 0 52 52" fill="none" stroke="#214d5d" stroke-width="4"/>
              <rect x="134.0" y="538.0" width="96.0" height="42" rx="6" fill="none" stroke="#19333b" stroke-width="3"/>
              <text x="394.4" y="594.0" text-anchor="middle" font-size="30" font-weight="800" fill="#19333b">صالتان</text>
              <text x="394.4" y="628.0" text-anchor="middle" font-size="20" fill="#19333b">272 م²</text>
            </g>
            
            <g>
              <rect x="678.8" y="510.0" width="671.2" height="180.0" fill="#efe4c8" stroke="#19333b" stroke-width="8"/>
              <line x1="700.8" y1="518.0" x2="830.8" y2="518.0" stroke="#83d0c7" stroke-width="8" stroke-linecap="round"/>
              <path d="M 897.8 690.0 v -52 a 52 52 0 0 0 52 52" fill="none" stroke="#214d5d" stroke-width="4"/>
              <rect x="700.8" y="534.0" width="150.0" height="24" fill="none" stroke="#19333b" stroke-width="3"/><circle cx="730.8" cy="578.0" r="12" fill="none" stroke="#214d5d" stroke-width="3"/><circle cx="766.8" cy="578.0" r="12" fill="none" stroke="#214d5d" stroke-width="3"/>
              <text x="1014.4" y="594.0" text-anchor="middle" font-size="30" font-weight="800" fill="#19333b">مطبخان</text>
              <text x="1014.4" y="628.0" text-anchor="middle" font-size="20" fill="#19333b">321 م²</text>
            </g>
            
            <g>
              <rect x="110.0" y="690.0" width="851.2" height="180.0" fill="#f4ead3" stroke="#19333b" stroke-width="8"/>
              <line x1="132.0" y1="698.0" x2="262.0" y2="698.0" stroke="#83d0c7" stroke-width="8" stroke-linecap="round"/>
              <path d="M 352.0 870.0 v -52 a 52 52 0 0 0 52 52" fill="none" stroke="#214d5d" stroke-width="4"/>
              <rect x="132.0" y="720.0" width="120.0" height="62" rx="8" fill="none" stroke="#19333b" stroke-width="3"/><line x1="132.0" y1="748.0" x2="252.0" y2="748.0" stroke="#19333b" stroke-width="2"/>
              <text x="535.6" y="774.0" text-anchor="middle" font-size="30" font-weight="800" fill="#19333b">ست غرف نوم</text>
              <text x="535.6" y="808.0" text-anchor="middle" font-size="20" fill="#19333b">405 م²</text>
            </g>
            
            <g>
              <rect x="961.2" y="690.0" width="388.8" height="180.0" fill="#efe4c8" stroke="#19333b" stroke-width="8"/>
              <line x1="983.2" y1="698.0" x2="1076.5" y2="698.0" stroke="#83d0c7" stroke-width="8" stroke-linecap="round"/>
              <path d="M 1226.2 870.0 v -52 a 52 52 0 0 0 52 52" fill="none" stroke="#214d5d" stroke-width="4"/>
              <rect x="985.2" y="718.0" width="96.0" height="42" rx="6" fill="none" stroke="#19333b" stroke-width="3"/>
              <text x="1155.6" y="774.0" text-anchor="middle" font-size="30" font-weight="800" fill="#19333b">خدمات</text>
              <text x="1155.6" y="808.0" text-anchor="middle" font-size="20" fill="#19333b">185 م²</text>
            </g>
            </g>
  <line x1="110" y1="910" x2="1350" y2="910" stroke="#19333b" stroke-width="3"/>
  <path d="M110 895v30M1350 895v30" stroke="#19333b" stroke-width="3"/>
  <text x="730" y="948" text-anchor="middle" font-size="24" fill="#19333b">أبعاد ومساحات تقريبية للتصور فقط</text>
  <path d="M1450 890 v-92 m0 0 -22 35 m22-35 22 35" stroke="#214d5d" stroke-width="7" stroke-linecap="round" stroke-linejoin="round"/>
  <text x="1450" y="936" text-anchor="middle" font-size="24" fill="#19333b">شمال</text>
  <rect x="70" y="980" width="1460" height="46" fill="#19333b"/>
  <text x="1490" y="1012" text-anchor="end" font-size="20" fill="#ffffff">kamel3lom | مخطط تخيلي غير معتمد هندسيًا</text>
  <text x="110" y="1012" font-size="20" fill="#ffffff">andalusian-villa-3600</text>
</svg>