<svg xmlns="http://www.w3.org/2000/svg" viewBox="0 0 1600 1050" role="img" aria-label="Concept architectural 2D plan">
  <defs>
    <pattern id="grid-andalusian-townhouse-0800" width="24" height="24" patternUnits="userSpaceOnUse">
      <path d="M 24 0 L 0 0 0 24" fill="none" stroke="#94a3b8" stroke-width="1" opacity=".18"/>
    </pattern>
  </defs>
  <rect width="1600" height="1050" fill="#f7f0dd"/>
  <rect x="70" y="70" width="1460" height="900" fill="url(#grid-andalusian-townhouse-0800)" stroke="#19333b" stroke-width="3"/>
  <text x="1490" y="118" text-anchor="end" font-size="40" font-weight="900" fill="#19333b">مخطط معماري مبدئي - تاون هاوس أندلسي</text>
  <text x="1490" y="158" text-anchor="end" font-size="24" fill="#19333b">الفئة: 800-899 م² | الطوابق: 1-4</text>
  <rect x="690" y="470" width="145" height="72" rx="36" fill="#83d0c7" opacity=".65" stroke="#214d5d" stroke-width="3"/>
  <g>
            <g>
              <rect x="110.0" y="150.0" width="563.0" height="240.0" fill="#f4ead3" stroke="#19333b" stroke-width="8"/>
              <line x1="132.0" y1="158.0" x2="262.0" y2="158.0" stroke="#83d0c7" stroke-width="8" stroke-linecap="round"/>
              <path d="M 168.0 390.0 v -52 a 52 52 0 0 0 52 52" fill="none" stroke="#214d5d" stroke-width="4"/>
              <rect x="132.0" y="180.0" width="160.0" height="42" rx="10" fill="none" stroke="#19333b" stroke-width="3"/><rect x="152.0" y="242.0" width="64" height="36" rx="6" fill="none" stroke="#214d5d" stroke-width="3"/>
              <text x="391.5" y="264.0" text-anchor="middle" font-size="30" font-weight="800" fill="#19333b">معيشة</text>
              <text x="391.5" y="298.0" text-anchor="middle" font-size="20" fill="#19333b">163 م²</text>
            </g>
            
            <g>
              <rect x="673.0" y="150.0" width="407.6" height="240.0" fill="#f7f0dd" stroke="#19333b" stroke-width="8"/>
              <line x1="695.0" y1="158.0" x2="792.8" y2="158.0" stroke="#83d0c7" stroke-width="8" stroke-linecap="round"/>
              <path d="M 754.0 390.0 v -52 a 52 52 0 0 0 52 52" fill="none" stroke="#214d5d" stroke-width="4"/>
              <rect x="695.0" y="180.0" width="120.0" height="62" rx="8" fill="none" stroke="#19333b" stroke-width="3"/><line x1="695.0" y1="208.0" x2="815.0" y2="208.0" stroke="#19333b" stroke-width="2"/>
              <text x="876.8" y="264.0" text-anchor="middle" font-size="30" font-weight="800" fill="#19333b">ثلاث غرف نوم</text>
              <text x="876.8" y="298.0" text-anchor="middle" font-size="20" fill="#19333b">118 م²</text>
            </g>
            
            <g>
              <rect x="1080.6" y="150.0" width="269.4" height="240.0" fill="#f4ead3" stroke="#19333b" stroke-width="8"/>
              <line x1="1102.6" y1="158.0" x2="1167.2" y2="158.0" stroke="#83d0c7" stroke-width="8" stroke-linecap="round"/>
              <path d="M 1184.6 390.0 v -52 a 52 52 0 0 0 52 52" fill="none" stroke="#214d5d" stroke-width="4"/>
              <rect x="1104.6" y="178.0" width="80.8" height="42" rx="6" fill="none" stroke="#19333b" stroke-width="3"/>
              <text x="1215.3" y="264.0" text-anchor="middle" font-size="30" font-weight="800" fill="#19333b">تراس</text>
              <text x="1215.3" y="298.0" text-anchor="middle" font-size="20" fill="#19333b">78 م²</text>
            </g>
            
            <g>
              <rect x="110.0" y="390.0" width="717.2" height="240.0" fill="#f7f0dd" stroke="#19333b" stroke-width="8"/>
              <line x1="132.0" y1="398.0" x2="262.0" y2="398.0" stroke="#83d0c7" stroke-width="8" stroke-linecap="round"/>
              <path d="M 237.0 630.0 v -52 a 52 52 0 0 0 52 52" fill="none" stroke="#214d5d" stroke-width="4"/>
              <rect x="132.0" y="420.0" width="160.0" height="42" rx="10" fill="none" stroke="#19333b" stroke-width="3"/><rect x="152.0" y="482.0" width="64" height="36" rx="6" fill="none" stroke="#214d5d" stroke-width="3"/>
              <text x="468.6" y="504.0" text-anchor="middle" font-size="30" font-weight="800" fill="#19333b">مجلس</text>
              <text x="468.6" y="538.0" text-anchor="middle" font-size="20" fill="#19333b">166 م²</text>
            </g>
            
            <g>
              <rect x="827.2" y="390.0" width="522.8" height="240.0" fill="#f4ead3" stroke="#19333b" stroke-width="8"/>
              <line x1="849.2" y1="398.0" x2="974.7" y2="398.0" stroke="#83d0c7" stroke-width="8" stroke-linecap="round"/>
              <path d="M 977.2 630.0 v -52 a 52 52 0 0 0 52 52" fill="none" stroke="#214d5d" stroke-width="4"/>
              <rect x="849.2" y="420.0" width="120.0" height="62" rx="8" fill="none" stroke="#19333b" stroke-width="3"/><line x1="849.2" y1="448.0" x2="969.2" y2="448.0" stroke="#19333b" stroke-width="2"/>
              <text x="1088.6" y="504.0" text-anchor="middle" font-size="30" font-weight="800" fill="#19333b">جناح</text>
              <text x="1088.6" y="538.0" text-anchor="middle" font-size="20" fill="#19333b">121 م²</text>
            </g>
            
            <g>
              <rect x="110.0" y="630.0" width="789.1" height="240.0" fill="#efe4c8" stroke="#19333b" stroke-width="8"/>
              <line x1="132.0" y1="638.0" x2="262.0" y2="638.0" stroke="#83d0c7" stroke-width="8" stroke-linecap="round"/>
              <path d="M 283.0 870.0 v -52 a 52 52 0 0 0 52 52" fill="none" stroke="#214d5d" stroke-width="4"/>
              <rect x="132.0" y="654.0" width="150.0" height="24" fill="none" stroke="#19333b" stroke-width="3"/><circle cx="162.0" cy="698.0" r="12" fill="none" stroke="#214d5d" stroke-width="3"/><circle cx="198.0" cy="698.0" r="12" fill="none" stroke="#214d5d" stroke-width="3"/>
              <text x="504.5" y="744.0" text-anchor="middle" font-size="30" font-weight="800" fill="#19333b">مطبخ</text>
              <text x="504.5" y="778.0" text-anchor="middle" font-size="20" fill="#19333b">98 م²</text>
            </g>
            
            <g>
              <rect x="899.1" y="630.0" width="450.9" height="240.0" fill="#efe4c8" stroke="#19333b" stroke-width="8"/>
              <line x1="921.1" y1="638.0" x2="1029.3" y2="638.0" stroke="#83d0c7" stroke-width="8" stroke-linecap="round"/>
              <path d="M 1095.1 870.0 v -52 a 52 52 0 0 0 52 52" fill="none" stroke="#214d5d" stroke-width="4"/>
              <circle cx="944.1" cy="678.0" r="20" fill="none" stroke="#214d5d" stroke-width="4"/><rect x="977.1" y="658.0" width="46" height="38" rx="8" fill="none" stroke="#19333b" stroke-width="3"/>
              <text x="1124.5" y="744.0" text-anchor="middle" font-size="30" font-weight="800" fill="#19333b">ثلاثة حمامات</text>
              <text x="1124.5" y="778.0" text-anchor="middle" font-size="20" fill="#19333b">56 م²</text>
            </g>
            </g>
  <line x1="110" y1="910" x2="1350" y2="910" stroke="#19333b" stroke-width="3"/>
  <path d="M110 895v30M1350 895v30" stroke="#19333b" stroke-width="3"/>
  <text x="730" y="948" text-anchor="middle" font-size="24" fill="#19333b">أبعاد ومساحات تقريبية للتصور فقط</text>
  <path d="M1450 890 v-92 m0 0 -22 35 m22-35 22 35" stroke="#214d5d" stroke-width="7" stroke-linecap="round" stroke-linejoin="round"/>
  <text x="1450" y="936" text-anchor="middle" font-size="24" fill="#19333b">شمال</text>
  <rect x="70" y="980" width="1460" height="46" fill="#19333b"/>
  <text x="1490" y="1012" text-anchor="end" font-size="20" fill="#ffffff">kamel3lom | مخطط تخيلي غير معتمد هندسيًا</text>
  <text x="110" y="1012" font-size="20" fill="#ffffff">andalusian-townhouse-0800</text>
</svg>