<svg xmlns="http://www.w3.org/2000/svg" viewBox="0 0 1600 1050" role="img" aria-label="Concept architectural 2D plan">
  <defs>
    <pattern id="grid-andalusian-apartment-0300" width="24" height="24" patternUnits="userSpaceOnUse">
      <path d="M 24 0 L 0 0 0 24" fill="none" stroke="#94a3b8" stroke-width="1" opacity=".18"/>
    </pattern>
  </defs>
  <rect width="1600" height="1050" fill="#f7f0dd"/>
  <rect x="70" y="70" width="1460" height="900" fill="url(#grid-andalusian-apartment-0300)" stroke="#19333b" stroke-width="3"/>
  <text x="1490" y="118" text-anchor="end" font-size="40" font-weight="900" fill="#19333b">مخطط معماري مبدئي - شقة أندلسي</text>
  <text x="1490" y="158" text-anchor="end" font-size="24" fill="#19333b">الفئة: 300-399 م² | الطوابق: 1-3</text>
  <rect x="690" y="470" width="145" height="72" rx="36" fill="#83d0c7" opacity=".65" stroke="#214d5d" stroke-width="3"/>
  <g>
            <g>
              <rect x="110.0" y="150.0" width="620.0" height="360.0" fill="#f4ead3" stroke="#19333b" stroke-width="8"/>
              <line x1="132.0" y1="158.0" x2="262.0" y2="158.0" stroke="#83d0c7" stroke-width="8" stroke-linecap="round"/>
              <path d="M 168.0 510.0 v -52 a 52 52 0 0 0 52 52" fill="none" stroke="#214d5d" stroke-width="4"/>
              <rect x="132.0" y="180.0" width="160.0" height="42" rx="10" fill="none" stroke="#19333b" stroke-width="3"/><rect x="152.0" y="242.0" width="64" height="36" rx="6" fill="none" stroke="#214d5d" stroke-width="3"/>
              <text x="420.0" y="324.0" text-anchor="middle" font-size="30" font-weight="800" fill="#19333b">معيشة</text>
              <text x="420.0" y="358.0" text-anchor="middle" font-size="20" fill="#19333b">98 م²</text>
            </g>
            
            <g>
              <rect x="730.0" y="150.0" width="348.0" height="360.0" fill="#efe4c8" stroke="#19333b" stroke-width="8"/>
              <line x1="752.0" y1="158.0" x2="835.5" y2="158.0" stroke="#83d0c7" stroke-width="8" stroke-linecap="round"/>
              <path d="M 811.0 510.0 v -52 a 52 52 0 0 0 52 52" fill="none" stroke="#214d5d" stroke-width="4"/>
              <rect x="752.0" y="174.0" width="150.0" height="24" fill="none" stroke="#19333b" stroke-width="3"/><circle cx="782.0" cy="218.0" r="12" fill="none" stroke="#214d5d" stroke-width="3"/><circle cx="818.0" cy="218.0" r="12" fill="none" stroke="#214d5d" stroke-width="3"/>
              <text x="904.0" y="324.0" text-anchor="middle" font-size="30" font-weight="800" fill="#19333b">مطبخ</text>
              <text x="904.0" y="358.0" text-anchor="middle" font-size="20" fill="#19333b">55 م²</text>
            </g>
            
            <g>
              <rect x="1078.0" y="150.0" width="272.0" height="360.0" fill="#f4ead3" stroke="#19333b" stroke-width="8"/>
              <line x1="1100.0" y1="158.0" x2="1165.2" y2="158.0" stroke="#83d0c7" stroke-width="8" stroke-linecap="round"/>
              <path d="M 1182.0 510.0 v -52 a 52 52 0 0 0 52 52" fill="none" stroke="#214d5d" stroke-width="4"/>
              <rect x="1102.0" y="178.0" width="81.6" height="42" rx="6" fill="none" stroke="#19333b" stroke-width="3"/>
              <text x="1214.0" y="324.0" text-anchor="middle" font-size="30" font-weight="800" fill="#19333b">مدخل</text>
              <text x="1214.0" y="358.0" text-anchor="middle" font-size="20" fill="#19333b">43 م²</text>
            </g>
            
            <g>
              <rect x="110.0" y="510.0" width="862.1" height="360.0" fill="#f7f0dd" stroke="#19333b" stroke-width="8"/>
              <line x1="132.0" y1="518.0" x2="262.0" y2="518.0" stroke="#83d0c7" stroke-width="8" stroke-linecap="round"/>
              <path d="M 237.0 870.0 v -52 a 52 52 0 0 0 52 52" fill="none" stroke="#214d5d" stroke-width="4"/>
              <rect x="132.0" y="540.0" width="120.0" height="62" rx="8" fill="none" stroke="#19333b" stroke-width="3"/><line x1="132.0" y1="568.0" x2="252.0" y2="568.0" stroke="#19333b" stroke-width="2"/>
              <text x="541.0" y="684.0" text-anchor="middle" font-size="30" font-weight="800" fill="#19333b">غرفتا نوم</text>
              <text x="541.0" y="718.0" text-anchor="middle" font-size="20" fill="#19333b">73 م²</text>
            </g>
            
            <g>
              <rect x="972.1" y="510.0" width="377.9" height="360.0" fill="#efe4c8" stroke="#19333b" stroke-width="8"/>
              <line x1="994.1" y1="518.0" x2="1084.8" y2="518.0" stroke="#83d0c7" stroke-width="8" stroke-linecap="round"/>
              <path d="M 1122.1 870.0 v -52 a 52 52 0 0 0 52 52" fill="none" stroke="#214d5d" stroke-width="4"/>
              <circle cx="1017.1" cy="558.0" r="20" fill="none" stroke="#214d5d" stroke-width="4"/><rect x="1050.1" y="538.0" width="46" height="38" rx="8" fill="none" stroke="#19333b" stroke-width="3"/>
              <text x="1161.0" y="684.0" text-anchor="middle" font-size="30" font-weight="800" fill="#19333b">حمامان</text>
              <text x="1161.0" y="718.0" text-anchor="middle" font-size="20" fill="#19333b">32 م²</text>
            </g>
            </g>
  <line x1="110" y1="910" x2="1350" y2="910" stroke="#19333b" stroke-width="3"/>
  <path d="M110 895v30M1350 895v30" stroke="#19333b" stroke-width="3"/>
  <text x="730" y="948" text-anchor="middle" font-size="24" fill="#19333b">أبعاد ومساحات تقريبية للتصور فقط</text>
  <path d="M1450 890 v-92 m0 0 -22 35 m22-35 22 35" stroke="#214d5d" stroke-width="7" stroke-linecap="round" stroke-linejoin="round"/>
  <text x="1450" y="936" text-anchor="middle" font-size="24" fill="#19333b">شمال</text>
  <rect x="70" y="980" width="1460" height="46" fill="#19333b"/>
  <text x="1490" y="1012" text-anchor="end" font-size="20" fill="#ffffff">kamel3lom | مخطط تخيلي غير معتمد هندسيًا</text>
  <text x="110" y="1012" font-size="20" fill="#ffffff">andalusian-apartment-0300</text>
</svg>