<svg xmlns="http://www.w3.org/2000/svg" viewBox="0 0 1600 1050" role="img" aria-label="Concept architectural 2D plan">
  <defs>
    <pattern id="grid-andalusian-villa-4900" width="24" height="24" patternUnits="userSpaceOnUse">
      <path d="M 24 0 L 0 0 0 24" fill="none" stroke="#94a3b8" stroke-width="1" opacity=".18"/>
    </pattern>
  </defs>
  <rect width="1600" height="1050" fill="#f7f0dd"/>
  <rect x="70" y="70" width="1460" height="900" fill="url(#grid-andalusian-villa-4900)" stroke="#19333b" stroke-width="3"/>
  <text x="1490" y="118" text-anchor="end" font-size="40" font-weight="900" fill="#19333b">مخطط معماري مبدئي - فيلا أندلسي</text>
  <text x="1490" y="158" text-anchor="end" font-size="24" fill="#19333b">الفئة: 4900-4999 م² | الطوابق: 1-8</text>
  <rect x="690" y="470" width="145" height="72" rx="36" fill="#83d0c7" opacity=".65" stroke="#214d5d" stroke-width="3"/>
  <g>
            <g>
              <rect x="110.0" y="150.0" width="567.8" height="180.0" fill="#f4ead3" stroke="#19333b" stroke-width="8"/>
              <line x1="132.0" y1="158.0" x2="262.0" y2="158.0" stroke="#83d0c7" stroke-width="8" stroke-linecap="round"/>
              <path d="M 168.0 330.0 v -52 a 52 52 0 0 0 52 52" fill="none" stroke="#214d5d" stroke-width="4"/>
              <rect x="132.0" y="180.0" width="160.0" height="42" rx="10" fill="none" stroke="#19333b" stroke-width="3"/><rect x="152.0" y="242.0" width="64" height="36" rx="6" fill="none" stroke="#214d5d" stroke-width="3"/>
              <text x="393.9" y="234.0" text-anchor="middle" font-size="30" font-weight="800" fill="#19333b">مجلس كبير</text>
              <text x="393.9" y="268.0" text-anchor="middle" font-size="20" fill="#19333b">773 م²</text>
            </g>
            
            <g>
              <rect x="677.8" y="150.0" width="398.2" height="180.0" fill="#f7f0dd" stroke="#19333b" stroke-width="8"/>
              <line x1="699.8" y1="158.0" x2="795.4" y2="158.0" stroke="#83d0c7" stroke-width="8" stroke-linecap="round"/>
              <path d="M 758.8 330.0 v -52 a 52 52 0 0 0 52 52" fill="none" stroke="#214d5d" stroke-width="4"/>
              <rect x="699.8" y="180.0" width="120.0" height="62" rx="8" fill="none" stroke="#19333b" stroke-width="3"/><line x1="699.8" y1="208.0" x2="819.8" y2="208.0" stroke="#19333b" stroke-width="2"/>
              <text x="876.9" y="234.0" text-anchor="middle" font-size="30" font-weight="800" fill="#19333b">جناحان</text>
              <text x="876.9" y="268.0" text-anchor="middle" font-size="20" fill="#19333b">542 م²</text>
            </g>
            
            <g>
              <rect x="1076.0" y="150.0" width="274.0" height="180.0" fill="#f4ead3" stroke="#19333b" stroke-width="8"/>
              <line x1="1098.0" y1="158.0" x2="1163.8" y2="158.0" stroke="#83d0c7" stroke-width="8" stroke-linecap="round"/>
              <path d="M 1180.0 330.0 v -52 a 52 52 0 0 0 52 52" fill="none" stroke="#214d5d" stroke-width="4"/>
              <rect x="1100.0" y="178.0" width="82.2" height="42" rx="6" fill="none" stroke="#19333b" stroke-width="3"/>
              <text x="1213.0" y="234.0" text-anchor="middle" font-size="30" font-weight="800" fill="#19333b">فناء</text>
              <text x="1213.0" y="268.0" text-anchor="middle" font-size="20" fill="#19333b">373 م²</text>
            </g>
            
            <g>
              <rect x="110.0" y="330.0" width="605.4" height="180.0" fill="#f7f0dd" stroke="#19333b" stroke-width="8"/>
              <line x1="132.0" y1="338.0" x2="262.0" y2="338.0" stroke="#83d0c7" stroke-width="8" stroke-linecap="round"/>
              <path d="M 237.0 510.0 v -52 a 52 52 0 0 0 52 52" fill="none" stroke="#214d5d" stroke-width="4"/>
              <rect x="132.0" y="360.0" width="160.0" height="42" rx="10" fill="none" stroke="#19333b" stroke-width="3"/><rect x="152.0" y="422.0" width="64" height="36" rx="6" fill="none" stroke="#214d5d" stroke-width="3"/>
              <text x="412.7" y="414.0" text-anchor="middle" font-size="30" font-weight="800" fill="#19333b">استقبال</text>
              <text x="412.7" y="448.0" text-anchor="middle" font-size="20" fill="#19333b">788 م²</text>
            </g>
            
            <g>
              <rect x="715.4" y="330.0" width="337.3" height="180.0" fill="#f4ead3" stroke="#19333b" stroke-width="8"/>
              <line x1="737.4" y1="338.0" x2="818.3" y2="338.0" stroke="#83d0c7" stroke-width="8" stroke-linecap="round"/>
              <path d="M 865.4 510.0 v -52 a 52 52 0 0 0 52 52" fill="none" stroke="#214d5d" stroke-width="4"/>
              <ellipse cx="809.8" cy="398.4" rx="54" ry="34" fill="none" stroke="#19333b" stroke-width="3"/><circle cx="809.8" cy="398.4" r="7" fill="#214d5d"/>
              <text x="884.0" y="414.0" text-anchor="middle" font-size="30" font-weight="800" fill="#19333b">طعام</text>
              <text x="884.0" y="448.0" text-anchor="middle" font-size="20" fill="#19333b">439 م²</text>
            </g>
            
            <g>
              <rect x="1052.7" y="330.0" width="297.3" height="180.0" fill="#f7f0dd" stroke="#19333b" stroke-width="8"/>
              <line x1="1074.7" y1="338.0" x2="1146.0" y2="338.0" stroke="#83d0c7" stroke-width="8" stroke-linecap="round"/>
              <path d="M 1225.7 510.0 v -52 a 52 52 0 0 0 52 52" fill="none" stroke="#214d5d" stroke-width="4"/>
              <rect x="1076.7" y="358.0" width="89.2" height="42" rx="6" fill="none" stroke="#19333b" stroke-width="3"/>
              <text x="1201.3" y="414.0" text-anchor="middle" font-size="30" font-weight="800" fill="#19333b">تراس</text>
              <text x="1201.3" y="448.0" text-anchor="middle" font-size="20" fill="#19333b">387 م²</text>
            </g>
            
            <g>
              <rect x="110.0" y="510.0" width="539.6" height="180.0" fill="#f4ead3" stroke="#19333b" stroke-width="8"/>
              <line x1="132.0" y1="518.0" x2="261.5" y2="518.0" stroke="#83d0c7" stroke-width="8" stroke-linecap="round"/>
              <path d="M 306.0 690.0 v -52 a 52 52 0 0 0 52 52" fill="none" stroke="#214d5d" stroke-width="4"/>
              <rect x="134.0" y="538.0" width="96.0" height="42" rx="6" fill="none" stroke="#19333b" stroke-width="3"/>
              <text x="379.8" y="594.0" text-anchor="middle" font-size="30" font-weight="800" fill="#19333b">صالتان</text>
              <text x="379.8" y="628.0" text-anchor="middle" font-size="20" fill="#19333b">349 م²</text>
            </g>
            
            <g>
              <rect x="649.6" y="510.0" width="700.4" height="180.0" fill="#efe4c8" stroke="#19333b" stroke-width="8"/>
              <line x1="671.6" y1="518.0" x2="801.6" y2="518.0" stroke="#83d0c7" stroke-width="8" stroke-linecap="round"/>
              <path d="M 868.6 690.0 v -52 a 52 52 0 0 0 52 52" fill="none" stroke="#214d5d" stroke-width="4"/>
              <rect x="671.6" y="534.0" width="150.0" height="24" fill="none" stroke="#19333b" stroke-width="3"/><circle cx="701.6" cy="578.0" r="12" fill="none" stroke="#214d5d" stroke-width="3"/><circle cx="737.6" cy="578.0" r="12" fill="none" stroke="#214d5d" stroke-width="3"/>
              <text x="999.8" y="594.0" text-anchor="middle" font-size="30" font-weight="800" fill="#19333b">مطبخان</text>
              <text x="999.8" y="628.0" text-anchor="middle" font-size="20" fill="#19333b">453 م²</text>
            </g>
            
            <g>
              <rect x="110.0" y="690.0" width="880.6" height="180.0" fill="#f4ead3" stroke="#19333b" stroke-width="8"/>
              <line x1="132.0" y1="698.0" x2="262.0" y2="698.0" stroke="#83d0c7" stroke-width="8" stroke-linecap="round"/>
              <path d="M 352.0 870.0 v -52 a 52 52 0 0 0 52 52" fill="none" stroke="#214d5d" stroke-width="4"/>
              <rect x="132.0" y="720.0" width="120.0" height="62" rx="8" fill="none" stroke="#19333b" stroke-width="3"/><line x1="132.0" y1="748.0" x2="252.0" y2="748.0" stroke="#19333b" stroke-width="2"/>
              <text x="550.3" y="774.0" text-anchor="middle" font-size="30" font-weight="800" fill="#19333b">ست غرف نوم</text>
              <text x="550.3" y="808.0" text-anchor="middle" font-size="20" fill="#19333b">566 م²</text>
            </g>
            
            <g>
              <rect x="990.6" y="690.0" width="359.4" height="180.0" fill="#efe4c8" stroke="#19333b" stroke-width="8"/>
              <line x1="1012.6" y1="698.0" x2="1098.9" y2="698.0" stroke="#83d0c7" stroke-width="8" stroke-linecap="round"/>
              <path d="M 1255.6 870.0 v -52 a 52 52 0 0 0 52 52" fill="none" stroke="#214d5d" stroke-width="4"/>
              <rect x="1014.6" y="718.0" width="96.0" height="42" rx="6" fill="none" stroke="#19333b" stroke-width="3"/>
              <text x="1170.3" y="774.0" text-anchor="middle" font-size="30" font-weight="800" fill="#19333b">خدمات</text>
              <text x="1170.3" y="808.0" text-anchor="middle" font-size="20" fill="#19333b">231 م²</text>
            </g>
            </g>
  <line x1="110" y1="910" x2="1350" y2="910" stroke="#19333b" stroke-width="3"/>
  <path d="M110 895v30M1350 895v30" stroke="#19333b" stroke-width="3"/>
  <text x="730" y="948" text-anchor="middle" font-size="24" fill="#19333b">أبعاد ومساحات تقريبية للتصور فقط</text>
  <path d="M1450 890 v-92 m0 0 -22 35 m22-35 22 35" stroke="#214d5d" stroke-width="7" stroke-linecap="round" stroke-linejoin="round"/>
  <text x="1450" y="936" text-anchor="middle" font-size="24" fill="#19333b">شمال</text>
  <rect x="70" y="980" width="1460" height="46" fill="#19333b"/>
  <text x="1490" y="1012" text-anchor="end" font-size="20" fill="#ffffff">kamel3lom | مخطط تخيلي غير معتمد هندسيًا</text>
  <text x="110" y="1012" font-size="20" fill="#ffffff">andalusian-villa-4900</text>
</svg>