<svg xmlns="http://www.w3.org/2000/svg" viewBox="0 0 1600 1050" role="img" aria-label="Concept architectural 2D plan">
  <defs>
    <pattern id="grid-andalusian-villa-2800" width="24" height="24" patternUnits="userSpaceOnUse">
      <path d="M 24 0 L 0 0 0 24" fill="none" stroke="#94a3b8" stroke-width="1" opacity=".18"/>
    </pattern>
  </defs>
  <rect width="1600" height="1050" fill="#f7f0dd"/>
  <rect x="70" y="70" width="1460" height="900" fill="url(#grid-andalusian-villa-2800)" stroke="#19333b" stroke-width="3"/>
  <text x="1490" y="118" text-anchor="end" font-size="40" font-weight="900" fill="#19333b">مخطط معماري مبدئي - فيلا أندلسي</text>
  <text x="1490" y="158" text-anchor="end" font-size="24" fill="#19333b">الفئة: 2800-2899 م² | الطوابق: 1-8</text>
  <rect x="690" y="470" width="145" height="72" rx="36" fill="#83d0c7" opacity=".65" stroke="#214d5d" stroke-width="3"/>
  <g>
            <g>
              <rect x="110.0" y="150.0" width="560.7" height="180.0" fill="#f4ead3" stroke="#19333b" stroke-width="8"/>
              <line x1="132.0" y1="158.0" x2="262.0" y2="158.0" stroke="#83d0c7" stroke-width="8" stroke-linecap="round"/>
              <path d="M 168.0 330.0 v -52 a 52 52 0 0 0 52 52" fill="none" stroke="#214d5d" stroke-width="4"/>
              <rect x="132.0" y="180.0" width="160.0" height="42" rx="10" fill="none" stroke="#19333b" stroke-width="3"/><rect x="152.0" y="242.0" width="64" height="36" rx="6" fill="none" stroke="#214d5d" stroke-width="3"/>
              <text x="390.4" y="234.0" text-anchor="middle" font-size="30" font-weight="800" fill="#19333b">مجلس كبير</text>
              <text x="390.4" y="268.0" text-anchor="middle" font-size="20" fill="#19333b">435 م²</text>
            </g>
            
            <g>
              <rect x="670.7" y="150.0" width="416.3" height="180.0" fill="#f7f0dd" stroke="#19333b" stroke-width="8"/>
              <line x1="692.7" y1="158.0" x2="792.6" y2="158.0" stroke="#83d0c7" stroke-width="8" stroke-linecap="round"/>
              <path d="M 751.7 330.0 v -52 a 52 52 0 0 0 52 52" fill="none" stroke="#214d5d" stroke-width="4"/>
              <rect x="692.7" y="180.0" width="120.0" height="62" rx="8" fill="none" stroke="#19333b" stroke-width="3"/><line x1="692.7" y1="208.0" x2="812.7" y2="208.0" stroke="#19333b" stroke-width="2"/>
              <text x="878.9" y="234.0" text-anchor="middle" font-size="30" font-weight="800" fill="#19333b">جناحان</text>
              <text x="878.9" y="268.0" text-anchor="middle" font-size="20" fill="#19333b">323 م²</text>
            </g>
            
            <g>
              <rect x="1087.0" y="150.0" width="263.0" height="180.0" fill="#f4ead3" stroke="#19333b" stroke-width="8"/>
              <line x1="1109.0" y1="158.0" x2="1172.2" y2="158.0" stroke="#83d0c7" stroke-width="8" stroke-linecap="round"/>
              <path d="M 1191.0 330.0 v -52 a 52 52 0 0 0 52 52" fill="none" stroke="#214d5d" stroke-width="4"/>
              <rect x="1111.0" y="178.0" width="78.9" height="42" rx="6" fill="none" stroke="#19333b" stroke-width="3"/>
              <text x="1218.5" y="234.0" text-anchor="middle" font-size="30" font-weight="800" fill="#19333b">فناء</text>
              <text x="1218.5" y="268.0" text-anchor="middle" font-size="20" fill="#19333b">204 م²</text>
            </g>
            
            <g>
              <rect x="110.0" y="330.0" width="598.4" height="180.0" fill="#f7f0dd" stroke="#19333b" stroke-width="8"/>
              <line x1="132.0" y1="338.0" x2="262.0" y2="338.0" stroke="#83d0c7" stroke-width="8" stroke-linecap="round"/>
              <path d="M 237.0 510.0 v -52 a 52 52 0 0 0 52 52" fill="none" stroke="#214d5d" stroke-width="4"/>
              <rect x="132.0" y="360.0" width="160.0" height="42" rx="10" fill="none" stroke="#19333b" stroke-width="3"/><rect x="152.0" y="422.0" width="64" height="36" rx="6" fill="none" stroke="#214d5d" stroke-width="3"/>
              <text x="409.2" y="414.0" text-anchor="middle" font-size="30" font-weight="800" fill="#19333b">استقبال</text>
              <text x="409.2" y="448.0" text-anchor="middle" font-size="20" fill="#19333b">443 م²</text>
            </g>
            
            <g>
              <rect x="708.4" y="330.0" width="355.3" height="180.0" fill="#f4ead3" stroke="#19333b" stroke-width="8"/>
              <line x1="730.4" y1="338.0" x2="815.6" y2="338.0" stroke="#83d0c7" stroke-width="8" stroke-linecap="round"/>
              <path d="M 858.4 510.0 v -52 a 52 52 0 0 0 52 52" fill="none" stroke="#214d5d" stroke-width="4"/>
              <ellipse cx="807.9" cy="398.4" rx="54" ry="34" fill="none" stroke="#19333b" stroke-width="3"/><circle cx="807.9" cy="398.4" r="7" fill="#214d5d"/>
              <text x="886.0" y="414.0" text-anchor="middle" font-size="30" font-weight="800" fill="#19333b">طعام</text>
              <text x="886.0" y="448.0" text-anchor="middle" font-size="20" fill="#19333b">263 م²</text>
            </g>
            
            <g>
              <rect x="1063.6" y="330.0" width="286.4" height="180.0" fill="#f7f0dd" stroke="#19333b" stroke-width="8"/>
              <line x1="1085.6" y1="338.0" x2="1154.4" y2="338.0" stroke="#83d0c7" stroke-width="8" stroke-linecap="round"/>
              <path d="M 1236.6 510.0 v -52 a 52 52 0 0 0 52 52" fill="none" stroke="#214d5d" stroke-width="4"/>
              <rect x="1087.6" y="358.0" width="85.9" height="42" rx="6" fill="none" stroke="#19333b" stroke-width="3"/>
              <text x="1206.8" y="414.0" text-anchor="middle" font-size="30" font-weight="800" fill="#19333b">تراس</text>
              <text x="1206.8" y="448.0" text-anchor="middle" font-size="20" fill="#19333b">212 م²</text>
            </g>
            
            <g>
              <rect x="110.0" y="510.0" width="569.0" height="180.0" fill="#f4ead3" stroke="#19333b" stroke-width="8"/>
              <line x1="132.0" y1="518.0" x2="262.0" y2="518.0" stroke="#83d0c7" stroke-width="8" stroke-linecap="round"/>
              <path d="M 306.0 690.0 v -52 a 52 52 0 0 0 52 52" fill="none" stroke="#214d5d" stroke-width="4"/>
              <rect x="134.0" y="538.0" width="96.0" height="42" rx="6" fill="none" stroke="#19333b" stroke-width="3"/>
              <text x="394.5" y="594.0" text-anchor="middle" font-size="30" font-weight="800" fill="#19333b">صالتان</text>
              <text x="394.5" y="628.0" text-anchor="middle" font-size="20" fill="#19333b">212 م²</text>
            </g>
            
            <g>
              <rect x="679.0" y="510.0" width="671.0" height="180.0" fill="#efe4c8" stroke="#19333b" stroke-width="8"/>
              <line x1="701.0" y1="518.0" x2="831.0" y2="518.0" stroke="#83d0c7" stroke-width="8" stroke-linecap="round"/>
              <path d="M 898.0 690.0 v -52 a 52 52 0 0 0 52 52" fill="none" stroke="#214d5d" stroke-width="4"/>
              <rect x="701.0" y="534.0" width="150.0" height="24" fill="none" stroke="#19333b" stroke-width="3"/><circle cx="731.0" cy="578.0" r="12" fill="none" stroke="#214d5d" stroke-width="3"/><circle cx="767.0" cy="578.0" r="12" fill="none" stroke="#214d5d" stroke-width="3"/>
              <text x="1014.5" y="594.0" text-anchor="middle" font-size="30" font-weight="800" fill="#19333b">مطبخان</text>
              <text x="1014.5" y="628.0" text-anchor="middle" font-size="20" fill="#19333b">250 م²</text>
            </g>
            
            <g>
              <rect x="110.0" y="690.0" width="851.0" height="180.0" fill="#f4ead3" stroke="#19333b" stroke-width="8"/>
              <line x1="132.0" y1="698.0" x2="262.0" y2="698.0" stroke="#83d0c7" stroke-width="8" stroke-linecap="round"/>
              <path d="M 352.0 870.0 v -52 a 52 52 0 0 0 52 52" fill="none" stroke="#214d5d" stroke-width="4"/>
              <rect x="132.0" y="720.0" width="120.0" height="62" rx="8" fill="none" stroke="#19333b" stroke-width="3"/><line x1="132.0" y1="748.0" x2="252.0" y2="748.0" stroke="#19333b" stroke-width="2"/>
              <text x="535.5" y="774.0" text-anchor="middle" font-size="30" font-weight="800" fill="#19333b">ست غرف نوم</text>
              <text x="535.5" y="808.0" text-anchor="middle" font-size="20" fill="#19333b">315 م²</text>
            </g>
            
            <g>
              <rect x="961.0" y="690.0" width="389.0" height="180.0" fill="#efe4c8" stroke="#19333b" stroke-width="8"/>
              <line x1="983.0" y1="698.0" x2="1076.3" y2="698.0" stroke="#83d0c7" stroke-width="8" stroke-linecap="round"/>
              <path d="M 1226.0 870.0 v -52 a 52 52 0 0 0 52 52" fill="none" stroke="#214d5d" stroke-width="4"/>
              <rect x="985.0" y="718.0" width="96.0" height="42" rx="6" fill="none" stroke="#19333b" stroke-width="3"/>
              <text x="1155.5" y="774.0" text-anchor="middle" font-size="30" font-weight="800" fill="#19333b">خدمات</text>
              <text x="1155.5" y="808.0" text-anchor="middle" font-size="20" fill="#19333b">144 م²</text>
            </g>
            </g>
  <line x1="110" y1="910" x2="1350" y2="910" stroke="#19333b" stroke-width="3"/>
  <path d="M110 895v30M1350 895v30" stroke="#19333b" stroke-width="3"/>
  <text x="730" y="948" text-anchor="middle" font-size="24" fill="#19333b">أبعاد ومساحات تقريبية للتصور فقط</text>
  <path d="M1450 890 v-92 m0 0 -22 35 m22-35 22 35" stroke="#214d5d" stroke-width="7" stroke-linecap="round" stroke-linejoin="round"/>
  <text x="1450" y="936" text-anchor="middle" font-size="24" fill="#19333b">شمال</text>
  <rect x="70" y="980" width="1460" height="46" fill="#19333b"/>
  <text x="1490" y="1012" text-anchor="end" font-size="20" fill="#ffffff">kamel3lom | مخطط تخيلي غير معتمد هندسيًا</text>
  <text x="110" y="1012" font-size="20" fill="#ffffff">andalusian-villa-2800</text>
</svg>