<svg xmlns="http://www.w3.org/2000/svg" viewBox="0 0 1600 1050" role="img" aria-label="Concept architectural 2D plan">
  <defs>
    <pattern id="grid-classic-apartment-0200" width="24" height="24" patternUnits="userSpaceOnUse">
      <path d="M 24 0 L 0 0 0 24" fill="none" stroke="#94a3b8" stroke-width="1" opacity=".18"/>
    </pattern>
  </defs>
  <rect width="1600" height="1050" fill="#f5f7fb"/>
  <rect x="70" y="70" width="1460" height="900" fill="url(#grid-classic-apartment-0200)" stroke="#28313c" stroke-width="3"/>
  <text x="1490" y="118" text-anchor="end" font-size="40" font-weight="900" fill="#28313c">مخطط معماري مبدئي - شقة كلاسيكي</text>
  <text x="1490" y="158" text-anchor="end" font-size="24" fill="#28313c">الفئة: 200-299 م² | الطوابق: 1-2</text>
  <rect x="118" y="86" width="14" height="48" fill="#5c6470" opacity=".72"/><rect x="156" y="86" width="14" height="48" fill="#5c6470" opacity=".72"/><rect x="194" y="86" width="14" height="48" fill="#5c6470" opacity=".72"/><rect x="232" y="86" width="14" height="48" fill="#5c6470" opacity=".72"/><rect x="270" y="86" width="14" height="48" fill="#5c6470" opacity=".72"/><rect x="308" y="86" width="14" height="48" fill="#5c6470" opacity=".72"/><rect x="346" y="86" width="14" height="48" fill="#5c6470" opacity=".72"/><rect x="384" y="86" width="14" height="48" fill="#5c6470" opacity=".72"/>
  <g>
            <g>
              <rect x="110.0" y="150.0" width="601.2" height="360.0" fill="#e6edf5" stroke="#28313c" stroke-width="8"/>
              <line x1="132.0" y1="158.0" x2="262.0" y2="158.0" stroke="#95c8da" stroke-width="8" stroke-linecap="round"/>
              <path d="M 168.0 510.0 v -52 a 52 52 0 0 0 52 52" fill="none" stroke="#5c6470" stroke-width="4"/>
              <rect x="132.0" y="180.0" width="160.0" height="42" rx="10" fill="none" stroke="#28313c" stroke-width="3"/><rect x="152.0" y="242.0" width="64" height="36" rx="6" fill="none" stroke="#5c6470" stroke-width="3"/>
              <text x="410.6" y="324.0" text-anchor="middle" font-size="30" font-weight="800" fill="#28313c">معيشة</text>
              <text x="410.6" y="358.0" text-anchor="middle" font-size="20" fill="#28313c">64 م²</text>
            </g>
            
            <g>
              <rect x="711.2" y="150.0" width="357.0" height="360.0" fill="#d9e3ee" stroke="#28313c" stroke-width="8"/>
              <line x1="733.2" y1="158.0" x2="818.9" y2="158.0" stroke="#95c8da" stroke-width="8" stroke-linecap="round"/>
              <path d="M 792.2 510.0 v -52 a 52 52 0 0 0 52 52" fill="none" stroke="#5c6470" stroke-width="4"/>
              <rect x="733.2" y="174.0" width="150.0" height="24" fill="none" stroke="#28313c" stroke-width="3"/><circle cx="763.2" cy="218.0" r="12" fill="none" stroke="#5c6470" stroke-width="3"/><circle cx="799.2" cy="218.0" r="12" fill="none" stroke="#5c6470" stroke-width="3"/>
              <text x="889.7" y="324.0" text-anchor="middle" font-size="30" font-weight="800" fill="#28313c">مطبخ</text>
              <text x="889.7" y="358.0" text-anchor="middle" font-size="20" fill="#28313c">38 م²</text>
            </g>
            
            <g>
              <rect x="1068.2" y="150.0" width="281.8" height="360.0" fill="#e6edf5" stroke="#28313c" stroke-width="8"/>
              <line x1="1090.2" y1="158.0" x2="1157.8" y2="158.0" stroke="#95c8da" stroke-width="8" stroke-linecap="round"/>
              <path d="M 1172.2 510.0 v -52 a 52 52 0 0 0 52 52" fill="none" stroke="#5c6470" stroke-width="4"/>
              <rect x="1092.2" y="178.0" width="84.5" height="42" rx="6" fill="none" stroke="#28313c" stroke-width="3"/>
              <text x="1209.1" y="324.0" text-anchor="middle" font-size="30" font-weight="800" fill="#28313c">مدخل</text>
              <text x="1209.1" y="358.0" text-anchor="middle" font-size="20" fill="#28313c">30 م²</text>
            </g>
            
            <g>
              <rect x="110.0" y="510.0" width="869.9" height="360.0" fill="#f5f7fb" stroke="#28313c" stroke-width="8"/>
              <line x1="132.0" y1="518.0" x2="262.0" y2="518.0" stroke="#95c8da" stroke-width="8" stroke-linecap="round"/>
              <path d="M 237.0 870.0 v -52 a 52 52 0 0 0 52 52" fill="none" stroke="#5c6470" stroke-width="4"/>
              <rect x="132.0" y="540.0" width="120.0" height="62" rx="8" fill="none" stroke="#28313c" stroke-width="3"/><line x1="132.0" y1="568.0" x2="252.0" y2="568.0" stroke="#28313c" stroke-width="2"/>
              <text x="544.9" y="684.0" text-anchor="middle" font-size="30" font-weight="800" fill="#28313c">غرفتا نوم</text>
              <text x="544.9" y="718.0" text-anchor="middle" font-size="20" fill="#28313c">47 م²</text>
            </g>
            
            <g>
              <rect x="979.9" y="510.0" width="370.1" height="360.0" fill="#d9e3ee" stroke="#28313c" stroke-width="8"/>
              <line x1="1001.9" y1="518.0" x2="1090.7" y2="518.0" stroke="#95c8da" stroke-width="8" stroke-linecap="round"/>
              <path d="M 1129.9 870.0 v -52 a 52 52 0 0 0 52 52" fill="none" stroke="#5c6470" stroke-width="4"/>
              <circle cx="1024.9" cy="558.0" r="20" fill="none" stroke="#5c6470" stroke-width="4"/><rect x="1057.9" y="538.0" width="46" height="38" rx="8" fill="none" stroke="#28313c" stroke-width="3"/>
              <text x="1164.9" y="684.0" text-anchor="middle" font-size="30" font-weight="800" fill="#28313c">حمامان</text>
              <text x="1164.9" y="718.0" text-anchor="middle" font-size="20" fill="#28313c">20 م²</text>
            </g>
            </g>
  <line x1="110" y1="910" x2="1350" y2="910" stroke="#28313c" stroke-width="3"/>
  <path d="M110 895v30M1350 895v30" stroke="#28313c" stroke-width="3"/>
  <text x="730" y="948" text-anchor="middle" font-size="24" fill="#28313c">أبعاد ومساحات تقريبية للتصور فقط</text>
  <path d="M1450 890 v-92 m0 0 -22 35 m22-35 22 35" stroke="#5c6470" stroke-width="7" stroke-linecap="round" stroke-linejoin="round"/>
  <text x="1450" y="936" text-anchor="middle" font-size="24" fill="#28313c">شمال</text>
  <rect x="70" y="980" width="1460" height="46" fill="#28313c"/>
  <text x="1490" y="1012" text-anchor="end" font-size="20" fill="#ffffff">kamel3lom | مخطط تخيلي غير معتمد هندسيًا</text>
  <text x="110" y="1012" font-size="20" fill="#ffffff">classic-apartment-0200</text>
</svg>