<svg xmlns="http://www.w3.org/2000/svg" viewBox="0 0 1600 1050" role="img" aria-label="Concept architectural 2D plan">
  <defs>
    <pattern id="grid-classic-studio-1800" width="24" height="24" patternUnits="userSpaceOnUse">
      <path d="M 24 0 L 0 0 0 24" fill="none" stroke="#94a3b8" stroke-width="1" opacity=".18"/>
    </pattern>
  </defs>
  <rect width="1600" height="1050" fill="#f5f7fb"/>
  <rect x="70" y="70" width="1460" height="900" fill="url(#grid-classic-studio-1800)" stroke="#28313c" stroke-width="3"/>
  <text x="1490" y="118" text-anchor="end" font-size="40" font-weight="900" fill="#28313c">مخطط معماري مبدئي - استوديو كلاسيكي</text>
  <text x="1490" y="158" text-anchor="end" font-size="24" fill="#28313c">الفئة: 1800-1899 م² | الطوابق: 1-8</text>
  <rect x="118" y="86" width="14" height="48" fill="#5c6470" opacity=".72"/><rect x="156" y="86" width="14" height="48" fill="#5c6470" opacity=".72"/><rect x="194" y="86" width="14" height="48" fill="#5c6470" opacity=".72"/><rect x="232" y="86" width="14" height="48" fill="#5c6470" opacity=".72"/><rect x="270" y="86" width="14" height="48" fill="#5c6470" opacity=".72"/><rect x="308" y="86" width="14" height="48" fill="#5c6470" opacity=".72"/><rect x="346" y="86" width="14" height="48" fill="#5c6470" opacity=".72"/><rect x="384" y="86" width="14" height="48" fill="#5c6470" opacity=".72"/>
  <g>
            <g>
              <rect x="110.0" y="150.0" width="556.5" height="240.0" fill="#e6edf5" stroke="#28313c" stroke-width="8"/>
              <line x1="132.0" y1="158.0" x2="262.0" y2="158.0" stroke="#95c8da" stroke-width="8" stroke-linecap="round"/>
              <path d="M 168.0 390.0 v -52 a 52 52 0 0 0 52 52" fill="none" stroke="#5c6470" stroke-width="4"/>
              <rect x="132.0" y="180.0" width="120.0" height="62" rx="8" fill="none" stroke="#28313c" stroke-width="3"/><line x1="132.0" y1="208.0" x2="252.0" y2="208.0" stroke="#28313c" stroke-width="2"/>
              <text x="388.3" y="264.0" text-anchor="middle" font-size="30" font-weight="800" fill="#28313c">جناح نوم</text>
              <text x="388.3" y="298.0" text-anchor="middle" font-size="20" fill="#28313c">307 م²</text>
            </g>
            
            <g>
              <rect x="666.5" y="150.0" width="440.5" height="240.0" fill="#d9e3ee" stroke="#28313c" stroke-width="8"/>
              <line x1="688.5" y1="158.0" x2="794.3" y2="158.0" stroke="#95c8da" stroke-width="8" stroke-linecap="round"/>
              <path d="M 747.5 390.0 v -52 a 52 52 0 0 0 52 52" fill="none" stroke="#5c6470" stroke-width="4"/>
              <rect x="688.5" y="174.0" width="150.0" height="24" fill="none" stroke="#28313c" stroke-width="3"/><circle cx="718.5" cy="218.0" r="12" fill="none" stroke="#5c6470" stroke-width="3"/><circle cx="754.5" cy="218.0" r="12" fill="none" stroke="#5c6470" stroke-width="3"/>
              <text x="886.8" y="264.0" text-anchor="middle" font-size="30" font-weight="800" fill="#28313c">مطبخ</text>
              <text x="886.8" y="298.0" text-anchor="middle" font-size="20" fill="#28313c">243 م²</text>
            </g>
            
            <g>
              <rect x="1107.1" y="150.0" width="242.9" height="240.0" fill="#e6edf5" stroke="#28313c" stroke-width="8"/>
              <line x1="1129.1" y1="158.0" x2="1187.4" y2="158.0" stroke="#95c8da" stroke-width="8" stroke-linecap="round"/>
              <path d="M 1211.1 390.0 v -52 a 52 52 0 0 0 52 52" fill="none" stroke="#5c6470" stroke-width="4"/>
              <rect x="1131.1" y="178.0" width="72.9" height="42" rx="6" fill="none" stroke="#28313c" stroke-width="3"/>
              <text x="1228.5" y="264.0" text-anchor="middle" font-size="30" font-weight="800" fill="#28313c">مخزن</text>
              <text x="1228.5" y="298.0" text-anchor="middle" font-size="20" fill="#28313c">134 م²</text>
            </g>
            
            <g>
              <rect x="110.0" y="390.0" width="939.7" height="240.0" fill="#f5f7fb" stroke="#28313c" stroke-width="8"/>
              <line x1="132.0" y1="398.0" x2="262.0" y2="398.0" stroke="#95c8da" stroke-width="8" stroke-linecap="round"/>
              <path d="M 237.0 630.0 v -52 a 52 52 0 0 0 52 52" fill="none" stroke="#5c6470" stroke-width="4"/>
              <rect x="132.0" y="420.0" width="160.0" height="42" rx="10" fill="none" stroke="#28313c" stroke-width="3"/><rect x="152.0" y="482.0" width="64" height="36" rx="6" fill="none" stroke="#5c6470" stroke-width="3"/>
              <text x="579.9" y="504.0" text-anchor="middle" font-size="30" font-weight="800" fill="#28313c">معيشة كبيرة</text>
              <text x="579.9" y="538.0" text-anchor="middle" font-size="20" fill="#28313c">435 م²</text>
            </g>
            
            <g>
              <rect x="1049.7" y="390.0" width="300.3" height="240.0" fill="#d9e3ee" stroke="#28313c" stroke-width="8"/>
              <line x1="1071.7" y1="398.0" x2="1143.8" y2="398.0" stroke="#95c8da" stroke-width="8" stroke-linecap="round"/>
              <path d="M 1199.7 630.0 v -52 a 52 52 0 0 0 52 52" fill="none" stroke="#5c6470" stroke-width="4"/>
              <circle cx="1094.7" cy="438.0" r="20" fill="none" stroke="#5c6470" stroke-width="4"/><rect x="1127.7" y="418.0" width="46" height="38" rx="8" fill="none" stroke="#28313c" stroke-width="3"/>
              <text x="1199.9" y="504.0" text-anchor="middle" font-size="30" font-weight="800" fill="#28313c">حمامين</text>
              <text x="1199.9" y="538.0" text-anchor="middle" font-size="20" fill="#28313c">139 م²</text>
            </g>
            
            <g>
              <rect x="110.0" y="630.0" width="739.0" height="240.0" fill="#f5f7fb" stroke="#28313c" stroke-width="8"/>
              <line x1="132.0" y1="638.0" x2="262.0" y2="638.0" stroke="#95c8da" stroke-width="8" stroke-linecap="round"/>
              <path d="M 283.0 870.0 v -52 a 52 52 0 0 0 52 52" fill="none" stroke="#5c6470" stroke-width="4"/>
              <rect x="134.0" y="658.0" width="96.0" height="42" rx="6" fill="none" stroke="#28313c" stroke-width="3"/>
              <text x="479.5" y="744.0" text-anchor="middle" font-size="30" font-weight="800" fill="#28313c">مكتب</text>
              <text x="479.5" y="778.0" text-anchor="middle" font-size="20" fill="#28313c">323 م²</text>
            </g>
            
            <g>
              <rect x="849.0" y="630.0" width="501.0" height="240.0" fill="#e6edf5" stroke="#28313c" stroke-width="8"/>
              <line x1="871.0" y1="638.0" x2="991.2" y2="638.0" stroke="#95c8da" stroke-width="8" stroke-linecap="round"/>
              <path d="M 1045.0 870.0 v -52 a 52 52 0 0 0 52 52" fill="none" stroke="#5c6470" stroke-width="4"/>
              <rect x="873.0" y="658.0" width="96.0" height="42" rx="6" fill="none" stroke="#28313c" stroke-width="3"/>
              <text x="1099.5" y="744.0" text-anchor="middle" font-size="30" font-weight="800" fill="#28313c">تراس</text>
              <text x="1099.5" y="778.0" text-anchor="middle" font-size="20" fill="#28313c">219 م²</text>
            </g>
            </g>
  <line x1="110" y1="910" x2="1350" y2="910" stroke="#28313c" stroke-width="3"/>
  <path d="M110 895v30M1350 895v30" stroke="#28313c" stroke-width="3"/>
  <text x="730" y="948" text-anchor="middle" font-size="24" fill="#28313c">أبعاد ومساحات تقريبية للتصور فقط</text>
  <path d="M1450 890 v-92 m0 0 -22 35 m22-35 22 35" stroke="#5c6470" stroke-width="7" stroke-linecap="round" stroke-linejoin="round"/>
  <text x="1450" y="936" text-anchor="middle" font-size="24" fill="#28313c">شمال</text>
  <rect x="70" y="980" width="1460" height="46" fill="#28313c"/>
  <text x="1490" y="1012" text-anchor="end" font-size="20" fill="#ffffff">kamel3lom | مخطط تخيلي غير معتمد هندسيًا</text>
  <text x="110" y="1012" font-size="20" fill="#ffffff">classic-studio-1800</text>
</svg>