<svg xmlns="http://www.w3.org/2000/svg" viewBox="0 0 1600 1050" role="img" aria-label="Concept architectural 2D plan">
  <defs>
    <pattern id="grid-classic-studio-0100" width="24" height="24" patternUnits="userSpaceOnUse">
      <path d="M 24 0 L 0 0 0 24" fill="none" stroke="#94a3b8" stroke-width="1" opacity=".18"/>
    </pattern>
  </defs>
  <rect width="1600" height="1050" fill="#f5f7fb"/>
  <rect x="70" y="70" width="1460" height="900" fill="url(#grid-classic-studio-0100)" stroke="#28313c" stroke-width="3"/>
  <text x="1490" y="118" text-anchor="end" font-size="40" font-weight="900" fill="#28313c">مخطط معماري مبدئي - استوديو كلاسيكي</text>
  <text x="1490" y="158" text-anchor="end" font-size="24" fill="#28313c">الفئة: 100-199 م² | الطوابق: 1-2</text>
  <rect x="118" y="86" width="14" height="48" fill="#5c6470" opacity=".72"/><rect x="156" y="86" width="14" height="48" fill="#5c6470" opacity=".72"/><rect x="194" y="86" width="14" height="48" fill="#5c6470" opacity=".72"/><rect x="232" y="86" width="14" height="48" fill="#5c6470" opacity=".72"/><rect x="270" y="86" width="14" height="48" fill="#5c6470" opacity=".72"/><rect x="308" y="86" width="14" height="48" fill="#5c6470" opacity=".72"/><rect x="346" y="86" width="14" height="48" fill="#5c6470" opacity=".72"/><rect x="384" y="86" width="14" height="48" fill="#5c6470" opacity=".72"/>
  <g>
            <g>
              <rect x="110.0" y="150.0" width="946.9" height="360.0" fill="#e6edf5" stroke="#28313c" stroke-width="8"/>
              <line x1="132.0" y1="158.0" x2="262.0" y2="158.0" stroke="#95c8da" stroke-width="8" stroke-linecap="round"/>
              <path d="M 168.0 510.0 v -52 a 52 52 0 0 0 52 52" fill="none" stroke="#5c6470" stroke-width="4"/>
              <rect x="132.0" y="180.0" width="120.0" height="62" rx="8" fill="none" stroke="#28313c" stroke-width="3"/><line x1="132.0" y1="208.0" x2="252.0" y2="208.0" stroke="#28313c" stroke-width="2"/>
              <text x="583.5" y="324.0" text-anchor="middle" font-size="30" font-weight="800" fill="#28313c">نوم ومعيشة</text>
              <text x="583.5" y="358.0" text-anchor="middle" font-size="20" fill="#28313c">42 م²</text>
            </g>
            
            <g>
              <rect x="1056.9" y="150.0" width="293.1" height="360.0" fill="#d9e3ee" stroke="#28313c" stroke-width="8"/>
              <line x1="1078.9" y1="158.0" x2="1149.3" y2="158.0" stroke="#95c8da" stroke-width="8" stroke-linecap="round"/>
              <path d="M 1137.9 510.0 v -52 a 52 52 0 0 0 52 52" fill="none" stroke="#5c6470" stroke-width="4"/>
              <circle cx="1101.9" cy="198.0" r="20" fill="none" stroke="#5c6470" stroke-width="4"/><rect x="1134.9" y="178.0" width="46" height="38" rx="8" fill="none" stroke="#28313c" stroke-width="3"/>
              <text x="1203.5" y="324.0" text-anchor="middle" font-size="30" font-weight="800" fill="#28313c">حمام</text>
              <text x="1203.5" y="358.0" text-anchor="middle" font-size="20" fill="#28313c">13 م²</text>
            </g>
            
            <g>
              <rect x="110.0" y="510.0" width="688.9" height="360.0" fill="#d9e3ee" stroke="#28313c" stroke-width="8"/>
              <line x1="132.0" y1="518.0" x2="262.0" y2="518.0" stroke="#95c8da" stroke-width="8" stroke-linecap="round"/>
              <path d="M 214.0 870.0 v -52 a 52 52 0 0 0 52 52" fill="none" stroke="#5c6470" stroke-width="4"/>
              <rect x="132.0" y="534.0" width="150.0" height="24" fill="none" stroke="#28313c" stroke-width="3"/><circle cx="162.0" cy="578.0" r="12" fill="none" stroke="#5c6470" stroke-width="3"/><circle cx="198.0" cy="578.0" r="12" fill="none" stroke="#5c6470" stroke-width="3"/>
              <text x="454.4" y="684.0" text-anchor="middle" font-size="30" font-weight="800" fill="#28313c">مطبخ صغير</text>
              <text x="454.4" y="718.0" text-anchor="middle" font-size="20" fill="#28313c">25 م²</text>
            </g>
            
            <g>
              <rect x="798.9" y="510.0" width="551.1" height="360.0" fill="#f5f7fb" stroke="#28313c" stroke-width="8"/>
              <line x1="820.9" y1="518.0" x2="950.9" y2="518.0" stroke="#95c8da" stroke-width="8" stroke-linecap="round"/>
              <path d="M 925.9 870.0 v -52 a 52 52 0 0 0 52 52" fill="none" stroke="#5c6470" stroke-width="4"/>
              <rect x="822.9" y="538.0" width="96.0" height="42" rx="6" fill="none" stroke="#28313c" stroke-width="3"/>
              <text x="1074.4" y="684.0" text-anchor="middle" font-size="30" font-weight="800" fill="#28313c">مدخل</text>
              <text x="1074.4" y="718.0" text-anchor="middle" font-size="20" fill="#28313c">20 م²</text>
            </g>
            </g>
  <line x1="110" y1="910" x2="1350" y2="910" stroke="#28313c" stroke-width="3"/>
  <path d="M110 895v30M1350 895v30" stroke="#28313c" stroke-width="3"/>
  <text x="730" y="948" text-anchor="middle" font-size="24" fill="#28313c">أبعاد ومساحات تقريبية للتصور فقط</text>
  <path d="M1450 890 v-92 m0 0 -22 35 m22-35 22 35" stroke="#5c6470" stroke-width="7" stroke-linecap="round" stroke-linejoin="round"/>
  <text x="1450" y="936" text-anchor="middle" font-size="24" fill="#28313c">شمال</text>
  <rect x="70" y="980" width="1460" height="46" fill="#28313c"/>
  <text x="1490" y="1012" text-anchor="end" font-size="20" fill="#ffffff">kamel3lom | مخطط تخيلي غير معتمد هندسيًا</text>
  <text x="110" y="1012" font-size="20" fill="#ffffff">classic-studio-0100</text>
</svg>