<svg xmlns="http://www.w3.org/2000/svg" viewBox="0 0 1600 1050" role="img" aria-label="Concept architectural 2D plan">
  <defs>
    <pattern id="grid-egyptian-villa-3400" width="24" height="24" patternUnits="userSpaceOnUse">
      <path d="M 24 0 L 0 0 0 24" fill="none" stroke="#94a3b8" stroke-width="1" opacity=".18"/>
    </pattern>
  </defs>
  <rect width="1600" height="1050" fill="#f7efe5"/>
  <rect x="70" y="70" width="1460" height="900" fill="url(#grid-egyptian-villa-3400)" stroke="#2f2b26" stroke-width="3"/>
  <text x="1490" y="118" text-anchor="end" font-size="40" font-weight="900" fill="#2f2b26">مخطط معماري مبدئي - فيلا مصري</text>
  <text x="1490" y="158" text-anchor="end" font-size="24" fill="#2f2b26">الفئة: 3400-3499 م² | الطوابق: 1-8</text>
  <rect x="118" y="92" width="250" height="24" rx="12" fill="#7fb7bd" opacity=".72"/>
  <g>
            <g>
              <rect x="110.0" y="150.0" width="561.0" height="180.0" fill="#efe1cf" stroke="#2f2b26" stroke-width="8"/>
              <line x1="132.0" y1="158.0" x2="262.0" y2="158.0" stroke="#7fb7bd" stroke-width="8" stroke-linecap="round"/>
              <path d="M 168.0 330.0 v -52 a 52 52 0 0 0 52 52" fill="none" stroke="#c08a4d" stroke-width="4"/>
              <rect x="132.0" y="180.0" width="160.0" height="42" rx="10" fill="none" stroke="#2f2b26" stroke-width="3"/><rect x="152.0" y="242.0" width="64" height="36" rx="6" fill="none" stroke="#c08a4d" stroke-width="3"/>
              <text x="390.5" y="234.0" text-anchor="middle" font-size="30" font-weight="800" fill="#2f2b26">مجلس كبير</text>
              <text x="390.5" y="268.0" text-anchor="middle" font-size="20" fill="#2f2b26">528 م²</text>
            </g>
            
            <g>
              <rect x="671.0" y="150.0" width="416.5" height="180.0" fill="#f7efe5" stroke="#2f2b26" stroke-width="8"/>
              <line x1="693.0" y1="158.0" x2="793.0" y2="158.0" stroke="#7fb7bd" stroke-width="8" stroke-linecap="round"/>
              <path d="M 752.0 330.0 v -52 a 52 52 0 0 0 52 52" fill="none" stroke="#c08a4d" stroke-width="4"/>
              <rect x="693.0" y="180.0" width="120.0" height="62" rx="8" fill="none" stroke="#2f2b26" stroke-width="3"/><line x1="693.0" y1="208.0" x2="813.0" y2="208.0" stroke="#2f2b26" stroke-width="2"/>
              <text x="879.3" y="234.0" text-anchor="middle" font-size="30" font-weight="800" fill="#2f2b26">جناحان</text>
              <text x="879.3" y="268.0" text-anchor="middle" font-size="20" fill="#2f2b26">392 م²</text>
            </g>
            
            <g>
              <rect x="1087.5" y="150.0" width="262.5" height="180.0" fill="#efe1cf" stroke="#2f2b26" stroke-width="8"/>
              <line x1="1109.5" y1="158.0" x2="1172.5" y2="158.0" stroke="#7fb7bd" stroke-width="8" stroke-linecap="round"/>
              <path d="M 1191.5 330.0 v -52 a 52 52 0 0 0 52 52" fill="none" stroke="#c08a4d" stroke-width="4"/>
              <rect x="1111.5" y="178.0" width="78.7" height="42" rx="6" fill="none" stroke="#2f2b26" stroke-width="3"/>
              <text x="1218.8" y="234.0" text-anchor="middle" font-size="30" font-weight="800" fill="#2f2b26">فناء</text>
              <text x="1218.8" y="268.0" text-anchor="middle" font-size="20" fill="#2f2b26">247 م²</text>
            </g>
            
            <g>
              <rect x="110.0" y="330.0" width="598.3" height="180.0" fill="#f7efe5" stroke="#2f2b26" stroke-width="8"/>
              <line x1="132.0" y1="338.0" x2="262.0" y2="338.0" stroke="#7fb7bd" stroke-width="8" stroke-linecap="round"/>
              <path d="M 237.0 510.0 v -52 a 52 52 0 0 0 52 52" fill="none" stroke="#c08a4d" stroke-width="4"/>
              <rect x="132.0" y="360.0" width="160.0" height="42" rx="10" fill="none" stroke="#2f2b26" stroke-width="3"/><rect x="152.0" y="422.0" width="64" height="36" rx="6" fill="none" stroke="#c08a4d" stroke-width="3"/>
              <text x="409.2" y="414.0" text-anchor="middle" font-size="30" font-weight="800" fill="#2f2b26">استقبال</text>
              <text x="409.2" y="448.0" text-anchor="middle" font-size="20" fill="#2f2b26">538 م²</text>
            </g>
            
            <g>
              <rect x="708.3" y="330.0" width="355.9" height="180.0" fill="#efe1cf" stroke="#2f2b26" stroke-width="8"/>
              <line x1="730.3" y1="338.0" x2="815.7" y2="338.0" stroke="#7fb7bd" stroke-width="8" stroke-linecap="round"/>
              <path d="M 858.3 510.0 v -52 a 52 52 0 0 0 52 52" fill="none" stroke="#c08a4d" stroke-width="4"/>
              <ellipse cx="808.0" cy="398.4" rx="54" ry="34" fill="none" stroke="#2f2b26" stroke-width="3"/><circle cx="808.0" cy="398.4" r="7" fill="#c08a4d"/>
              <text x="886.3" y="414.0" text-anchor="middle" font-size="30" font-weight="800" fill="#2f2b26">طعام</text>
              <text x="886.3" y="448.0" text-anchor="middle" font-size="20" fill="#2f2b26">320 م²</text>
            </g>
            
            <g>
              <rect x="1064.2" y="330.0" width="285.8" height="180.0" fill="#f7efe5" stroke="#2f2b26" stroke-width="8"/>
              <line x1="1086.2" y1="338.0" x2="1154.8" y2="338.0" stroke="#7fb7bd" stroke-width="8" stroke-linecap="round"/>
              <path d="M 1237.2 510.0 v -52 a 52 52 0 0 0 52 52" fill="none" stroke="#c08a4d" stroke-width="4"/>
              <rect x="1088.2" y="358.0" width="85.7" height="42" rx="6" fill="none" stroke="#2f2b26" stroke-width="3"/>
              <text x="1207.1" y="414.0" text-anchor="middle" font-size="30" font-weight="800" fill="#2f2b26">تراس</text>
              <text x="1207.1" y="448.0" text-anchor="middle" font-size="20" fill="#2f2b26">257 م²</text>
            </g>
            
            <g>
              <rect x="110.0" y="510.0" width="569.1" height="180.0" fill="#efe1cf" stroke="#2f2b26" stroke-width="8"/>
              <line x1="132.0" y1="518.0" x2="262.0" y2="518.0" stroke="#7fb7bd" stroke-width="8" stroke-linecap="round"/>
              <path d="M 306.0 690.0 v -52 a 52 52 0 0 0 52 52" fill="none" stroke="#c08a4d" stroke-width="4"/>
              <rect x="134.0" y="538.0" width="96.0" height="42" rx="6" fill="none" stroke="#2f2b26" stroke-width="3"/>
              <text x="394.5" y="594.0" text-anchor="middle" font-size="30" font-weight="800" fill="#2f2b26">صالتان</text>
              <text x="394.5" y="628.0" text-anchor="middle" font-size="20" fill="#2f2b26">257 م²</text>
            </g>
            
            <g>
              <rect x="679.1" y="510.0" width="670.9" height="180.0" fill="#e6d8c6" stroke="#2f2b26" stroke-width="8"/>
              <line x1="701.1" y1="518.0" x2="831.1" y2="518.0" stroke="#7fb7bd" stroke-width="8" stroke-linecap="round"/>
              <path d="M 898.1 690.0 v -52 a 52 52 0 0 0 52 52" fill="none" stroke="#c08a4d" stroke-width="4"/>
              <rect x="701.1" y="534.0" width="150.0" height="24" fill="none" stroke="#2f2b26" stroke-width="3"/><circle cx="731.1" cy="578.0" r="12" fill="none" stroke="#c08a4d" stroke-width="3"/><circle cx="767.1" cy="578.0" r="12" fill="none" stroke="#c08a4d" stroke-width="3"/>
              <text x="1014.5" y="594.0" text-anchor="middle" font-size="30" font-weight="800" fill="#2f2b26">مطبخان</text>
              <text x="1014.5" y="628.0" text-anchor="middle" font-size="20" fill="#2f2b26">303 م²</text>
            </g>
            
            <g>
              <rect x="110.0" y="690.0" width="851.1" height="180.0" fill="#efe1cf" stroke="#2f2b26" stroke-width="8"/>
              <line x1="132.0" y1="698.0" x2="262.0" y2="698.0" stroke="#7fb7bd" stroke-width="8" stroke-linecap="round"/>
              <path d="M 352.0 870.0 v -52 a 52 52 0 0 0 52 52" fill="none" stroke="#c08a4d" stroke-width="4"/>
              <rect x="132.0" y="720.0" width="120.0" height="62" rx="8" fill="none" stroke="#2f2b26" stroke-width="3"/><line x1="132.0" y1="748.0" x2="252.0" y2="748.0" stroke="#2f2b26" stroke-width="2"/>
              <text x="535.6" y="774.0" text-anchor="middle" font-size="30" font-weight="800" fill="#2f2b26">ست غرف نوم</text>
              <text x="535.6" y="808.0" text-anchor="middle" font-size="20" fill="#2f2b26">383 م²</text>
            </g>
            
            <g>
              <rect x="961.1" y="690.0" width="388.9" height="180.0" fill="#e6d8c6" stroke="#2f2b26" stroke-width="8"/>
              <line x1="983.1" y1="698.0" x2="1076.4" y2="698.0" stroke="#7fb7bd" stroke-width="8" stroke-linecap="round"/>
              <path d="M 1226.1 870.0 v -52 a 52 52 0 0 0 52 52" fill="none" stroke="#c08a4d" stroke-width="4"/>
              <rect x="985.1" y="718.0" width="96.0" height="42" rx="6" fill="none" stroke="#2f2b26" stroke-width="3"/>
              <text x="1155.6" y="774.0" text-anchor="middle" font-size="30" font-weight="800" fill="#2f2b26">خدمات</text>
              <text x="1155.6" y="808.0" text-anchor="middle" font-size="20" fill="#2f2b26">175 م²</text>
            </g>
            </g>
  <line x1="110" y1="910" x2="1350" y2="910" stroke="#2f2b26" stroke-width="3"/>
  <path d="M110 895v30M1350 895v30" stroke="#2f2b26" stroke-width="3"/>
  <text x="730" y="948" text-anchor="middle" font-size="24" fill="#2f2b26">أبعاد ومساحات تقريبية للتصور فقط</text>
  <path d="M1450 890 v-92 m0 0 -22 35 m22-35 22 35" stroke="#c08a4d" stroke-width="7" stroke-linecap="round" stroke-linejoin="round"/>
  <text x="1450" y="936" text-anchor="middle" font-size="24" fill="#2f2b26">شمال</text>
  <rect x="70" y="980" width="1460" height="46" fill="#2f2b26"/>
  <text x="1490" y="1012" text-anchor="end" font-size="20" fill="#ffffff">kamel3lom | مخطط تخيلي غير معتمد هندسيًا</text>
  <text x="110" y="1012" font-size="20" fill="#ffffff">egyptian-villa-3400</text>
</svg>