<svg xmlns="http://www.w3.org/2000/svg" viewBox="0 0 1600 1050" role="img" aria-label="Concept architectural 2D plan">
  <defs>
    <pattern id="grid-egyptian-villa-4300" width="24" height="24" patternUnits="userSpaceOnUse">
      <path d="M 24 0 L 0 0 0 24" fill="none" stroke="#94a3b8" stroke-width="1" opacity=".18"/>
    </pattern>
  </defs>
  <rect width="1600" height="1050" fill="#f7efe5"/>
  <rect x="70" y="70" width="1460" height="900" fill="url(#grid-egyptian-villa-4300)" stroke="#2f2b26" stroke-width="3"/>
  <text x="1490" y="118" text-anchor="end" font-size="40" font-weight="900" fill="#2f2b26">مخطط معماري مبدئي - فيلا مصري</text>
  <text x="1490" y="158" text-anchor="end" font-size="24" fill="#2f2b26">الفئة: 4300-4399 م² | الطوابق: 1-8</text>
  <rect x="118" y="92" width="250" height="24" rx="12" fill="#7fb7bd" opacity=".72"/>
  <g>
            <g>
              <rect x="110.0" y="150.0" width="568.1" height="180.0" fill="#efe1cf" stroke="#2f2b26" stroke-width="8"/>
              <line x1="132.0" y1="158.0" x2="262.0" y2="158.0" stroke="#7fb7bd" stroke-width="8" stroke-linecap="round"/>
              <path d="M 168.0 330.0 v -52 a 52 52 0 0 0 52 52" fill="none" stroke="#c08a4d" stroke-width="4"/>
              <rect x="132.0" y="180.0" width="160.0" height="42" rx="10" fill="none" stroke="#2f2b26" stroke-width="3"/><rect x="152.0" y="242.0" width="64" height="36" rx="6" fill="none" stroke="#c08a4d" stroke-width="3"/>
              <text x="394.1" y="234.0" text-anchor="middle" font-size="30" font-weight="800" fill="#2f2b26">مجلس كبير</text>
              <text x="394.1" y="268.0" text-anchor="middle" font-size="20" fill="#2f2b26">679 م²</text>
            </g>
            
            <g>
              <rect x="678.1" y="150.0" width="398.3" height="180.0" fill="#f7efe5" stroke="#2f2b26" stroke-width="8"/>
              <line x1="700.1" y1="158.0" x2="795.7" y2="158.0" stroke="#7fb7bd" stroke-width="8" stroke-linecap="round"/>
              <path d="M 759.1 330.0 v -52 a 52 52 0 0 0 52 52" fill="none" stroke="#c08a4d" stroke-width="4"/>
              <rect x="700.1" y="180.0" width="120.0" height="62" rx="8" fill="none" stroke="#2f2b26" stroke-width="3"/><line x1="700.1" y1="208.0" x2="820.1" y2="208.0" stroke="#2f2b26" stroke-width="2"/>
              <text x="877.3" y="234.0" text-anchor="middle" font-size="30" font-weight="800" fill="#2f2b26">جناحان</text>
              <text x="877.3" y="268.0" text-anchor="middle" font-size="20" fill="#2f2b26">476 م²</text>
            </g>
            
            <g>
              <rect x="1076.4" y="150.0" width="273.6" height="180.0" fill="#efe1cf" stroke="#2f2b26" stroke-width="8"/>
              <line x1="1098.4" y1="158.0" x2="1164.1" y2="158.0" stroke="#7fb7bd" stroke-width="8" stroke-linecap="round"/>
              <path d="M 1180.4 330.0 v -52 a 52 52 0 0 0 52 52" fill="none" stroke="#c08a4d" stroke-width="4"/>
              <rect x="1100.4" y="178.0" width="82.1" height="42" rx="6" fill="none" stroke="#2f2b26" stroke-width="3"/>
              <text x="1213.2" y="234.0" text-anchor="middle" font-size="30" font-weight="800" fill="#2f2b26">فناء</text>
              <text x="1213.2" y="268.0" text-anchor="middle" font-size="20" fill="#2f2b26">327 م²</text>
            </g>
            
            <g>
              <rect x="110.0" y="330.0" width="605.5" height="180.0" fill="#f7efe5" stroke="#2f2b26" stroke-width="8"/>
              <line x1="132.0" y1="338.0" x2="262.0" y2="338.0" stroke="#7fb7bd" stroke-width="8" stroke-linecap="round"/>
              <path d="M 237.0 510.0 v -52 a 52 52 0 0 0 52 52" fill="none" stroke="#c08a4d" stroke-width="4"/>
              <rect x="132.0" y="360.0" width="160.0" height="42" rx="10" fill="none" stroke="#2f2b26" stroke-width="3"/><rect x="152.0" y="422.0" width="64" height="36" rx="6" fill="none" stroke="#c08a4d" stroke-width="3"/>
              <text x="412.8" y="414.0" text-anchor="middle" font-size="30" font-weight="800" fill="#2f2b26">استقبال</text>
              <text x="412.8" y="448.0" text-anchor="middle" font-size="20" fill="#2f2b26">691 م²</text>
            </g>
            
            <g>
              <rect x="715.5" y="330.0" width="337.4" height="180.0" fill="#efe1cf" stroke="#2f2b26" stroke-width="8"/>
              <line x1="737.5" y1="338.0" x2="818.5" y2="338.0" stroke="#7fb7bd" stroke-width="8" stroke-linecap="round"/>
              <path d="M 865.5 510.0 v -52 a 52 52 0 0 0 52 52" fill="none" stroke="#c08a4d" stroke-width="4"/>
              <ellipse cx="810.0" cy="398.4" rx="54" ry="34" fill="none" stroke="#2f2b26" stroke-width="3"/><circle cx="810.0" cy="398.4" r="7" fill="#c08a4d"/>
              <text x="884.2" y="414.0" text-anchor="middle" font-size="30" font-weight="800" fill="#2f2b26">طعام</text>
              <text x="884.2" y="448.0" text-anchor="middle" font-size="20" fill="#2f2b26">385 م²</text>
            </g>
            
            <g>
              <rect x="1052.9" y="330.0" width="297.1" height="180.0" fill="#f7efe5" stroke="#2f2b26" stroke-width="8"/>
              <line x1="1074.9" y1="338.0" x2="1146.2" y2="338.0" stroke="#7fb7bd" stroke-width="8" stroke-linecap="round"/>
              <path d="M 1225.9 510.0 v -52 a 52 52 0 0 0 52 52" fill="none" stroke="#c08a4d" stroke-width="4"/>
              <rect x="1076.9" y="358.0" width="89.1" height="42" rx="6" fill="none" stroke="#2f2b26" stroke-width="3"/>
              <text x="1201.5" y="414.0" text-anchor="middle" font-size="30" font-weight="800" fill="#2f2b26">تراس</text>
              <text x="1201.5" y="448.0" text-anchor="middle" font-size="20" fill="#2f2b26">339 م²</text>
            </g>
            
            <g>
              <rect x="110.0" y="510.0" width="539.7" height="180.0" fill="#efe1cf" stroke="#2f2b26" stroke-width="8"/>
              <line x1="132.0" y1="518.0" x2="261.5" y2="518.0" stroke="#7fb7bd" stroke-width="8" stroke-linecap="round"/>
              <path d="M 306.0 690.0 v -52 a 52 52 0 0 0 52 52" fill="none" stroke="#c08a4d" stroke-width="4"/>
              <rect x="134.0" y="538.0" width="96.0" height="42" rx="6" fill="none" stroke="#2f2b26" stroke-width="3"/>
              <text x="379.9" y="594.0" text-anchor="middle" font-size="30" font-weight="800" fill="#2f2b26">صالتان</text>
              <text x="379.9" y="628.0" text-anchor="middle" font-size="20" fill="#2f2b26">306 م²</text>
            </g>
            
            <g>
              <rect x="649.7" y="510.0" width="700.3" height="180.0" fill="#e6d8c6" stroke="#2f2b26" stroke-width="8"/>
              <line x1="671.7" y1="518.0" x2="801.7" y2="518.0" stroke="#7fb7bd" stroke-width="8" stroke-linecap="round"/>
              <path d="M 868.7 690.0 v -52 a 52 52 0 0 0 52 52" fill="none" stroke="#c08a4d" stroke-width="4"/>
              <rect x="671.7" y="534.0" width="150.0" height="24" fill="none" stroke="#2f2b26" stroke-width="3"/><circle cx="701.7" cy="578.0" r="12" fill="none" stroke="#c08a4d" stroke-width="3"/><circle cx="737.7" cy="578.0" r="12" fill="none" stroke="#c08a4d" stroke-width="3"/>
              <text x="999.9" y="594.0" text-anchor="middle" font-size="30" font-weight="800" fill="#2f2b26">مطبخان</text>
              <text x="999.9" y="628.0" text-anchor="middle" font-size="20" fill="#2f2b26">397 م²</text>
            </g>
            
            <g>
              <rect x="110.0" y="690.0" width="880.4" height="180.0" fill="#efe1cf" stroke="#2f2b26" stroke-width="8"/>
              <line x1="132.0" y1="698.0" x2="262.0" y2="698.0" stroke="#7fb7bd" stroke-width="8" stroke-linecap="round"/>
              <path d="M 352.0 870.0 v -52 a 52 52 0 0 0 52 52" fill="none" stroke="#c08a4d" stroke-width="4"/>
              <rect x="132.0" y="720.0" width="120.0" height="62" rx="8" fill="none" stroke="#2f2b26" stroke-width="3"/><line x1="132.0" y1="748.0" x2="252.0" y2="748.0" stroke="#2f2b26" stroke-width="2"/>
              <text x="550.2" y="774.0" text-anchor="middle" font-size="30" font-weight="800" fill="#2f2b26">ست غرف نوم</text>
              <text x="550.2" y="808.0" text-anchor="middle" font-size="20" fill="#2f2b26">497 م²</text>
            </g>
            
            <g>
              <rect x="990.4" y="690.0" width="359.6" height="180.0" fill="#e6d8c6" stroke="#2f2b26" stroke-width="8"/>
              <line x1="1012.4" y1="698.0" x2="1098.7" y2="698.0" stroke="#7fb7bd" stroke-width="8" stroke-linecap="round"/>
              <path d="M 1255.4 870.0 v -52 a 52 52 0 0 0 52 52" fill="none" stroke="#c08a4d" stroke-width="4"/>
              <rect x="1014.4" y="718.0" width="96.0" height="42" rx="6" fill="none" stroke="#2f2b26" stroke-width="3"/>
              <text x="1170.2" y="774.0" text-anchor="middle" font-size="30" font-weight="800" fill="#2f2b26">خدمات</text>
              <text x="1170.2" y="808.0" text-anchor="middle" font-size="20" fill="#2f2b26">203 م²</text>
            </g>
            </g>
  <line x1="110" y1="910" x2="1350" y2="910" stroke="#2f2b26" stroke-width="3"/>
  <path d="M110 895v30M1350 895v30" stroke="#2f2b26" stroke-width="3"/>
  <text x="730" y="948" text-anchor="middle" font-size="24" fill="#2f2b26">أبعاد ومساحات تقريبية للتصور فقط</text>
  <path d="M1450 890 v-92 m0 0 -22 35 m22-35 22 35" stroke="#c08a4d" stroke-width="7" stroke-linecap="round" stroke-linejoin="round"/>
  <text x="1450" y="936" text-anchor="middle" font-size="24" fill="#2f2b26">شمال</text>
  <rect x="70" y="980" width="1460" height="46" fill="#2f2b26"/>
  <text x="1490" y="1012" text-anchor="end" font-size="20" fill="#ffffff">kamel3lom | مخطط تخيلي غير معتمد هندسيًا</text>
  <text x="110" y="1012" font-size="20" fill="#ffffff">egyptian-villa-4300</text>
</svg>