<svg xmlns="http://www.w3.org/2000/svg" viewBox="0 0 1600 1050" role="img" aria-label="Concept architectural 2D plan">
  <defs>
    <pattern id="grid-egyptian-villa-2900" width="24" height="24" patternUnits="userSpaceOnUse">
      <path d="M 24 0 L 0 0 0 24" fill="none" stroke="#94a3b8" stroke-width="1" opacity=".18"/>
    </pattern>
  </defs>
  <rect width="1600" height="1050" fill="#f7efe5"/>
  <rect x="70" y="70" width="1460" height="900" fill="url(#grid-egyptian-villa-2900)" stroke="#2f2b26" stroke-width="3"/>
  <text x="1490" y="118" text-anchor="end" font-size="40" font-weight="900" fill="#2f2b26">مخطط معماري مبدئي - فيلا مصري</text>
  <text x="1490" y="158" text-anchor="end" font-size="24" fill="#2f2b26">الفئة: 2900-2999 م² | الطوابق: 1-8</text>
  <rect x="118" y="92" width="250" height="24" rx="12" fill="#7fb7bd" opacity=".72"/>
  <g>
            <g>
              <rect x="110.0" y="150.0" width="567.9" height="180.0" fill="#efe1cf" stroke="#2f2b26" stroke-width="8"/>
              <line x1="132.0" y1="158.0" x2="262.0" y2="158.0" stroke="#7fb7bd" stroke-width="8" stroke-linecap="round"/>
              <path d="M 168.0 330.0 v -52 a 52 52 0 0 0 52 52" fill="none" stroke="#c08a4d" stroke-width="4"/>
              <rect x="132.0" y="180.0" width="160.0" height="42" rx="10" fill="none" stroke="#2f2b26" stroke-width="3"/><rect x="152.0" y="242.0" width="64" height="36" rx="6" fill="none" stroke="#c08a4d" stroke-width="3"/>
              <text x="394.0" y="234.0" text-anchor="middle" font-size="30" font-weight="800" fill="#2f2b26">مجلس كبير</text>
              <text x="394.0" y="268.0" text-anchor="middle" font-size="20" fill="#2f2b26">458 م²</text>
            </g>
            
            <g>
              <rect x="677.9" y="150.0" width="398.0" height="180.0" fill="#f7efe5" stroke="#2f2b26" stroke-width="8"/>
              <line x1="699.9" y1="158.0" x2="795.4" y2="158.0" stroke="#7fb7bd" stroke-width="8" stroke-linecap="round"/>
              <path d="M 758.9 330.0 v -52 a 52 52 0 0 0 52 52" fill="none" stroke="#c08a4d" stroke-width="4"/>
              <rect x="699.9" y="180.0" width="120.0" height="62" rx="8" fill="none" stroke="#2f2b26" stroke-width="3"/><line x1="699.9" y1="208.0" x2="819.9" y2="208.0" stroke="#2f2b26" stroke-width="2"/>
              <text x="876.9" y="234.0" text-anchor="middle" font-size="30" font-weight="800" fill="#2f2b26">جناحان</text>
              <text x="876.9" y="268.0" text-anchor="middle" font-size="20" fill="#2f2b26">321 م²</text>
            </g>
            
            <g>
              <rect x="1076.0" y="150.0" width="274.0" height="180.0" fill="#efe1cf" stroke="#2f2b26" stroke-width="8"/>
              <line x1="1098.0" y1="158.0" x2="1163.7" y2="158.0" stroke="#7fb7bd" stroke-width="8" stroke-linecap="round"/>
              <path d="M 1180.0 330.0 v -52 a 52 52 0 0 0 52 52" fill="none" stroke="#c08a4d" stroke-width="4"/>
              <rect x="1100.0" y="178.0" width="82.2" height="42" rx="6" fill="none" stroke="#2f2b26" stroke-width="3"/>
              <text x="1213.0" y="234.0" text-anchor="middle" font-size="30" font-weight="800" fill="#2f2b26">فناء</text>
              <text x="1213.0" y="268.0" text-anchor="middle" font-size="20" fill="#2f2b26">221 م²</text>
            </g>
            
            <g>
              <rect x="110.0" y="330.0" width="605.1" height="180.0" fill="#f7efe5" stroke="#2f2b26" stroke-width="8"/>
              <line x1="132.0" y1="338.0" x2="262.0" y2="338.0" stroke="#7fb7bd" stroke-width="8" stroke-linecap="round"/>
              <path d="M 237.0 510.0 v -52 a 52 52 0 0 0 52 52" fill="none" stroke="#c08a4d" stroke-width="4"/>
              <rect x="132.0" y="360.0" width="160.0" height="42" rx="10" fill="none" stroke="#2f2b26" stroke-width="3"/><rect x="152.0" y="422.0" width="64" height="36" rx="6" fill="none" stroke="#c08a4d" stroke-width="3"/>
              <text x="412.5" y="414.0" text-anchor="middle" font-size="30" font-weight="800" fill="#2f2b26">استقبال</text>
              <text x="412.5" y="448.0" text-anchor="middle" font-size="20" fill="#2f2b26">466 م²</text>
            </g>
            
            <g>
              <rect x="715.1" y="330.0" width="337.6" height="180.0" fill="#efe1cf" stroke="#2f2b26" stroke-width="8"/>
              <line x1="737.1" y1="338.0" x2="818.1" y2="338.0" stroke="#7fb7bd" stroke-width="8" stroke-linecap="round"/>
              <path d="M 865.1 510.0 v -52 a 52 52 0 0 0 52 52" fill="none" stroke="#c08a4d" stroke-width="4"/>
              <ellipse cx="809.6" cy="398.4" rx="54" ry="34" fill="none" stroke="#2f2b26" stroke-width="3"/><circle cx="809.6" cy="398.4" r="7" fill="#c08a4d"/>
              <text x="883.9" y="414.0" text-anchor="middle" font-size="30" font-weight="800" fill="#2f2b26">طعام</text>
              <text x="883.9" y="448.0" text-anchor="middle" font-size="20" fill="#2f2b26">260 م²</text>
            </g>
            
            <g>
              <rect x="1052.7" y="330.0" width="297.3" height="180.0" fill="#f7efe5" stroke="#2f2b26" stroke-width="8"/>
              <line x1="1074.7" y1="338.0" x2="1146.0" y2="338.0" stroke="#7fb7bd" stroke-width="8" stroke-linecap="round"/>
              <path d="M 1225.7 510.0 v -52 a 52 52 0 0 0 52 52" fill="none" stroke="#c08a4d" stroke-width="4"/>
              <rect x="1076.7" y="358.0" width="89.2" height="42" rx="6" fill="none" stroke="#2f2b26" stroke-width="3"/>
              <text x="1201.3" y="414.0" text-anchor="middle" font-size="30" font-weight="800" fill="#2f2b26">تراس</text>
              <text x="1201.3" y="448.0" text-anchor="middle" font-size="20" fill="#2f2b26">229 م²</text>
            </g>
            
            <g>
              <rect x="110.0" y="510.0" width="540.4" height="180.0" fill="#efe1cf" stroke="#2f2b26" stroke-width="8"/>
              <line x1="132.0" y1="518.0" x2="261.7" y2="518.0" stroke="#7fb7bd" stroke-width="8" stroke-linecap="round"/>
              <path d="M 306.0 690.0 v -52 a 52 52 0 0 0 52 52" fill="none" stroke="#c08a4d" stroke-width="4"/>
              <rect x="134.0" y="538.0" width="96.0" height="42" rx="6" fill="none" stroke="#2f2b26" stroke-width="3"/>
              <text x="380.2" y="594.0" text-anchor="middle" font-size="30" font-weight="800" fill="#2f2b26">صالتان</text>
              <text x="380.2" y="628.0" text-anchor="middle" font-size="20" fill="#2f2b26">207 م²</text>
            </g>
            
            <g>
              <rect x="650.4" y="510.0" width="699.6" height="180.0" fill="#e6d8c6" stroke="#2f2b26" stroke-width="8"/>
              <line x1="672.4" y1="518.0" x2="802.4" y2="518.0" stroke="#7fb7bd" stroke-width="8" stroke-linecap="round"/>
              <path d="M 869.4 690.0 v -52 a 52 52 0 0 0 52 52" fill="none" stroke="#c08a4d" stroke-width="4"/>
              <rect x="672.4" y="534.0" width="150.0" height="24" fill="none" stroke="#2f2b26" stroke-width="3"/><circle cx="702.4" cy="578.0" r="12" fill="none" stroke="#c08a4d" stroke-width="3"/><circle cx="738.4" cy="578.0" r="12" fill="none" stroke="#c08a4d" stroke-width="3"/>
              <text x="1000.2" y="594.0" text-anchor="middle" font-size="30" font-weight="800" fill="#2f2b26">مطبخان</text>
              <text x="1000.2" y="628.0" text-anchor="middle" font-size="20" fill="#2f2b26">268 م²</text>
            </g>
            
            <g>
              <rect x="110.0" y="690.0" width="880.1" height="180.0" fill="#efe1cf" stroke="#2f2b26" stroke-width="8"/>
              <line x1="132.0" y1="698.0" x2="262.0" y2="698.0" stroke="#7fb7bd" stroke-width="8" stroke-linecap="round"/>
              <path d="M 352.0 870.0 v -52 a 52 52 0 0 0 52 52" fill="none" stroke="#c08a4d" stroke-width="4"/>
              <rect x="132.0" y="720.0" width="120.0" height="62" rx="8" fill="none" stroke="#2f2b26" stroke-width="3"/><line x1="132.0" y1="748.0" x2="252.0" y2="748.0" stroke="#2f2b26" stroke-width="2"/>
              <text x="550.0" y="774.0" text-anchor="middle" font-size="30" font-weight="800" fill="#2f2b26">ست غرف نوم</text>
              <text x="550.0" y="808.0" text-anchor="middle" font-size="20" fill="#2f2b26">335 م²</text>
            </g>
            
            <g>
              <rect x="990.1" y="690.0" width="359.9" height="180.0" fill="#e6d8c6" stroke="#2f2b26" stroke-width="8"/>
              <line x1="1012.1" y1="698.0" x2="1098.5" y2="698.0" stroke="#7fb7bd" stroke-width="8" stroke-linecap="round"/>
              <path d="M 1255.1 870.0 v -52 a 52 52 0 0 0 52 52" fill="none" stroke="#c08a4d" stroke-width="4"/>
              <rect x="1014.1" y="718.0" width="96.0" height="42" rx="6" fill="none" stroke="#2f2b26" stroke-width="3"/>
              <text x="1170.0" y="774.0" text-anchor="middle" font-size="30" font-weight="800" fill="#2f2b26">خدمات</text>
              <text x="1170.0" y="808.0" text-anchor="middle" font-size="20" fill="#2f2b26">137 م²</text>
            </g>
            </g>
  <line x1="110" y1="910" x2="1350" y2="910" stroke="#2f2b26" stroke-width="3"/>
  <path d="M110 895v30M1350 895v30" stroke="#2f2b26" stroke-width="3"/>
  <text x="730" y="948" text-anchor="middle" font-size="24" fill="#2f2b26">أبعاد ومساحات تقريبية للتصور فقط</text>
  <path d="M1450 890 v-92 m0 0 -22 35 m22-35 22 35" stroke="#c08a4d" stroke-width="7" stroke-linecap="round" stroke-linejoin="round"/>
  <text x="1450" y="936" text-anchor="middle" font-size="24" fill="#2f2b26">شمال</text>
  <rect x="70" y="980" width="1460" height="46" fill="#2f2b26"/>
  <text x="1490" y="1012" text-anchor="end" font-size="20" fill="#ffffff">kamel3lom | مخطط تخيلي غير معتمد هندسيًا</text>
  <text x="110" y="1012" font-size="20" fill="#ffffff">egyptian-villa-2900</text>
</svg>