<svg xmlns="http://www.w3.org/2000/svg" viewBox="0 0 1600 1050" role="img" aria-label="Concept architectural 2D plan">
  <defs>
    <pattern id="grid-egyptian-simple_commercial-0500" width="24" height="24" patternUnits="userSpaceOnUse">
      <path d="M 24 0 L 0 0 0 24" fill="none" stroke="#94a3b8" stroke-width="1" opacity=".18"/>
    </pattern>
  </defs>
  <rect width="1600" height="1050" fill="#f7efe5"/>
  <rect x="70" y="70" width="1460" height="900" fill="url(#grid-egyptian-simple_commercial-0500)" stroke="#2f2b26" stroke-width="3"/>
  <text x="1490" y="118" text-anchor="end" font-size="40" font-weight="900" fill="#2f2b26">مخطط معماري مبدئي - تجاري بسيط مصري</text>
  <text x="1490" y="158" text-anchor="end" font-size="24" fill="#2f2b26">الفئة: 500-599 م² | الطوابق: 1-3</text>
  <rect x="118" y="92" width="250" height="24" rx="12" fill="#7fb7bd" opacity=".72"/>
  <g>
            <g>
              <rect x="110.0" y="150.0" width="935.0" height="240.0" fill="#efe1cf" stroke="#2f2b26" stroke-width="8"/>
              <line x1="132.0" y1="158.0" x2="262.0" y2="158.0" stroke="#7fb7bd" stroke-width="8" stroke-linecap="round"/>
              <path d="M 168.0 390.0 v -52 a 52 52 0 0 0 52 52" fill="none" stroke="#c08a4d" stroke-width="4"/>
              <rect x="134.0" y="178.0" width="96.0" height="42" rx="6" fill="none" stroke="#2f2b26" stroke-width="3"/>
              <text x="577.5" y="264.0" text-anchor="middle" font-size="30" font-weight="800" fill="#2f2b26">معرض</text>
              <text x="577.5" y="298.0" text-anchor="middle" font-size="20" fill="#2f2b26">141 م²</text>
            </g>
            
            <g>
              <rect x="1045.0" y="150.0" width="305.0" height="240.0" fill="#e6d8c6" stroke="#2f2b26" stroke-width="8"/>
              <line x1="1067.0" y1="158.0" x2="1140.2" y2="158.0" stroke="#7fb7bd" stroke-width="8" stroke-linecap="round"/>
              <path d="M 1126.0 390.0 v -52 a 52 52 0 0 0 52 52" fill="none" stroke="#c08a4d" stroke-width="4"/>
              <rect x="1069.0" y="178.0" width="91.5" height="42" rx="6" fill="none" stroke="#2f2b26" stroke-width="3"/>
              <text x="1197.5" y="264.0" text-anchor="middle" font-size="30" font-weight="800" fill="#2f2b26">خدمات</text>
              <text x="1197.5" y="298.0" text-anchor="middle" font-size="20" fill="#2f2b26">46 م²</text>
            </g>
            
            <g>
              <rect x="110.0" y="390.0" width="773.6" height="240.0" fill="#efe1cf" stroke="#2f2b26" stroke-width="8"/>
              <line x1="132.0" y1="398.0" x2="262.0" y2="398.0" stroke="#7fb7bd" stroke-width="8" stroke-linecap="round"/>
              <path d="M 214.0 630.0 v -52 a 52 52 0 0 0 52 52" fill="none" stroke="#c08a4d" stroke-width="4"/>
              <rect x="134.0" y="418.0" width="96.0" height="42" rx="6" fill="none" stroke="#2f2b26" stroke-width="3"/>
              <text x="496.8" y="504.0" text-anchor="middle" font-size="30" font-weight="800" fill="#2f2b26">مكاتب</text>
              <text x="496.8" y="538.0" text-anchor="middle" font-size="20" fill="#2f2b26">68 م²</text>
            </g>
            
            <g>
              <rect x="883.6" y="390.0" width="466.4" height="240.0" fill="#f7efe5" stroke="#2f2b26" stroke-width="8"/>
              <line x1="905.6" y1="398.0" x2="1017.5" y2="398.0" stroke="#7fb7bd" stroke-width="8" stroke-linecap="round"/>
              <path d="M 1010.6 630.0 v -52 a 52 52 0 0 0 52 52" fill="none" stroke="#c08a4d" stroke-width="4"/>
              <rect x="907.6" y="418.0" width="96.0" height="42" rx="6" fill="none" stroke="#2f2b26" stroke-width="3"/>
              <text x="1116.8" y="504.0" text-anchor="middle" font-size="30" font-weight="800" fill="#2f2b26">مخزن</text>
              <text x="1116.8" y="538.0" text-anchor="middle" font-size="20" fill="#2f2b26">41 م²</text>
            </g>
            
            <g>
              <rect x="110.0" y="630.0" width="844.9" height="240.0" fill="#efe1cf" stroke="#2f2b26" stroke-width="8"/>
              <line x1="132.0" y1="638.0" x2="262.0" y2="638.0" stroke="#7fb7bd" stroke-width="8" stroke-linecap="round"/>
              <path d="M 260.0 870.0 v -52 a 52 52 0 0 0 52 52" fill="none" stroke="#c08a4d" stroke-width="4"/>
              <rect x="132.0" y="660.0" width="160.0" height="42" rx="10" fill="none" stroke="#2f2b26" stroke-width="3"/><rect x="152.0" y="722.0" width="64" height="36" rx="6" fill="none" stroke="#c08a4d" stroke-width="3"/>
              <text x="532.5" y="744.0" text-anchor="middle" font-size="30" font-weight="800" fill="#2f2b26">استقبال</text>
              <text x="532.5" y="778.0" text-anchor="middle" font-size="20" fill="#2f2b26">139 م²</text>
            </g>
            
            <g>
              <rect x="954.9" y="630.0" width="395.1" height="240.0" fill="#f7efe5" stroke="#2f2b26" stroke-width="8"/>
              <line x1="976.9" y1="638.0" x2="1071.7" y2="638.0" stroke="#7fb7bd" stroke-width="8" stroke-linecap="round"/>
              <path d="M 1127.9 870.0 v -52 a 52 52 0 0 0 52 52" fill="none" stroke="#c08a4d" stroke-width="4"/>
              <rect x="978.9" y="658.0" width="96.0" height="42" rx="6" fill="none" stroke="#2f2b26" stroke-width="3"/>
              <text x="1152.5" y="744.0" text-anchor="middle" font-size="30" font-weight="800" fill="#2f2b26">غرفة كهرباء</text>
              <text x="1152.5" y="778.0" text-anchor="middle" font-size="20" fill="#2f2b26">65 م²</text>
            </g>
            </g>
  <line x1="110" y1="910" x2="1350" y2="910" stroke="#2f2b26" stroke-width="3"/>
  <path d="M110 895v30M1350 895v30" stroke="#2f2b26" stroke-width="3"/>
  <text x="730" y="948" text-anchor="middle" font-size="24" fill="#2f2b26">أبعاد ومساحات تقريبية للتصور فقط</text>
  <path d="M1450 890 v-92 m0 0 -22 35 m22-35 22 35" stroke="#c08a4d" stroke-width="7" stroke-linecap="round" stroke-linejoin="round"/>
  <text x="1450" y="936" text-anchor="middle" font-size="24" fill="#2f2b26">شمال</text>
  <rect x="70" y="980" width="1460" height="46" fill="#2f2b26"/>
  <text x="1490" y="1012" text-anchor="end" font-size="20" fill="#ffffff">kamel3lom | مخطط تخيلي غير معتمد هندسيًا</text>
  <text x="110" y="1012" font-size="20" fill="#ffffff">egyptian-simple_commercial-0500</text>
</svg>