<svg xmlns="http://www.w3.org/2000/svg" viewBox="0 0 1600 1050" role="img" aria-label="Concept architectural 2D plan">
  <defs>
    <pattern id="grid-egyptian-studio-3300" width="24" height="24" patternUnits="userSpaceOnUse">
      <path d="M 24 0 L 0 0 0 24" fill="none" stroke="#94a3b8" stroke-width="1" opacity=".18"/>
    </pattern>
  </defs>
  <rect width="1600" height="1050" fill="#f7efe5"/>
  <rect x="70" y="70" width="1460" height="900" fill="url(#grid-egyptian-studio-3300)" stroke="#2f2b26" stroke-width="3"/>
  <text x="1490" y="118" text-anchor="end" font-size="40" font-weight="900" fill="#2f2b26">مخطط معماري مبدئي - استوديو مصري</text>
  <text x="1490" y="158" text-anchor="end" font-size="24" fill="#2f2b26">الفئة: 3300-3399 م² | الطوابق: 1-8</text>
  <rect x="118" y="92" width="250" height="24" rx="12" fill="#7fb7bd" opacity=".72"/>
  <g>
            <g>
              <rect x="110.0" y="150.0" width="550.6" height="240.0" fill="#efe1cf" stroke="#2f2b26" stroke-width="8"/>
              <line x1="132.0" y1="158.0" x2="262.0" y2="158.0" stroke="#7fb7bd" stroke-width="8" stroke-linecap="round"/>
              <path d="M 168.0 390.0 v -52 a 52 52 0 0 0 52 52" fill="none" stroke="#c08a4d" stroke-width="4"/>
              <rect x="132.0" y="180.0" width="120.0" height="62" rx="8" fill="none" stroke="#2f2b26" stroke-width="3"/><line x1="132.0" y1="208.0" x2="252.0" y2="208.0" stroke="#2f2b26" stroke-width="2"/>
              <text x="385.3" y="264.0" text-anchor="middle" font-size="30" font-weight="800" fill="#2f2b26">جناح نوم</text>
              <text x="385.3" y="298.0" text-anchor="middle" font-size="20" fill="#2f2b26">579 م²</text>
            </g>
            
            <g>
              <rect x="660.6" y="150.0" width="439.3" height="240.0" fill="#e6d8c6" stroke="#2f2b26" stroke-width="8"/>
              <line x1="682.6" y1="158.0" x2="788.0" y2="158.0" stroke="#7fb7bd" stroke-width="8" stroke-linecap="round"/>
              <path d="M 741.6 390.0 v -52 a 52 52 0 0 0 52 52" fill="none" stroke="#c08a4d" stroke-width="4"/>
              <rect x="682.6" y="174.0" width="150.0" height="24" fill="none" stroke="#2f2b26" stroke-width="3"/><circle cx="712.6" cy="218.0" r="12" fill="none" stroke="#c08a4d" stroke-width="3"/><circle cx="748.6" cy="218.0" r="12" fill="none" stroke="#c08a4d" stroke-width="3"/>
              <text x="880.2" y="264.0" text-anchor="middle" font-size="30" font-weight="800" fill="#2f2b26">مطبخ</text>
              <text x="880.2" y="298.0" text-anchor="middle" font-size="20" fill="#2f2b26">462 م²</text>
            </g>
            
            <g>
              <rect x="1099.9" y="150.0" width="250.1" height="240.0" fill="#efe1cf" stroke="#2f2b26" stroke-width="8"/>
              <line x1="1121.9" y1="158.0" x2="1181.9" y2="158.0" stroke="#7fb7bd" stroke-width="8" stroke-linecap="round"/>
              <path d="M 1203.9 390.0 v -52 a 52 52 0 0 0 52 52" fill="none" stroke="#c08a4d" stroke-width="4"/>
              <rect x="1123.9" y="178.0" width="75.0" height="42" rx="6" fill="none" stroke="#2f2b26" stroke-width="3"/>
              <text x="1225.0" y="264.0" text-anchor="middle" font-size="30" font-weight="800" fill="#2f2b26">مخزن</text>
              <text x="1225.0" y="298.0" text-anchor="middle" font-size="20" fill="#2f2b26">263 م²</text>
            </g>
            
            <g>
              <rect x="110.0" y="390.0" width="962.9" height="240.0" fill="#f7efe5" stroke="#2f2b26" stroke-width="8"/>
              <line x1="132.0" y1="398.0" x2="262.0" y2="398.0" stroke="#7fb7bd" stroke-width="8" stroke-linecap="round"/>
              <path d="M 237.0 630.0 v -52 a 52 52 0 0 0 52 52" fill="none" stroke="#c08a4d" stroke-width="4"/>
              <rect x="132.0" y="420.0" width="160.0" height="42" rx="10" fill="none" stroke="#2f2b26" stroke-width="3"/><rect x="152.0" y="482.0" width="64" height="36" rx="6" fill="none" stroke="#c08a4d" stroke-width="3"/>
              <text x="591.4" y="504.0" text-anchor="middle" font-size="30" font-weight="800" fill="#2f2b26">معيشة كبيرة</text>
              <text x="591.4" y="538.0" text-anchor="middle" font-size="20" fill="#2f2b26">813 م²</text>
            </g>
            
            <g>
              <rect x="1072.9" y="390.0" width="277.1" height="240.0" fill="#e6d8c6" stroke="#2f2b26" stroke-width="8"/>
              <line x1="1094.9" y1="398.0" x2="1161.4" y2="398.0" stroke="#7fb7bd" stroke-width="8" stroke-linecap="round"/>
              <path d="M 1222.9 630.0 v -52 a 52 52 0 0 0 52 52" fill="none" stroke="#c08a4d" stroke-width="4"/>
              <circle cx="1117.9" cy="438.0" r="20" fill="none" stroke="#c08a4d" stroke-width="4"/><rect x="1150.9" y="418.0" width="46" height="38" rx="8" fill="none" stroke="#2f2b26" stroke-width="3"/>
              <text x="1211.4" y="504.0" text-anchor="middle" font-size="30" font-weight="800" fill="#2f2b26">حمامين</text>
              <text x="1211.4" y="538.0" text-anchor="middle" font-size="20" fill="#2f2b26">234 م²</text>
            </g>
            
            <g>
              <rect x="110.0" y="630.0" width="743.5" height="240.0" fill="#f7efe5" stroke="#2f2b26" stroke-width="8"/>
              <line x1="132.0" y1="638.0" x2="262.0" y2="638.0" stroke="#7fb7bd" stroke-width="8" stroke-linecap="round"/>
              <path d="M 283.0 870.0 v -52 a 52 52 0 0 0 52 52" fill="none" stroke="#c08a4d" stroke-width="4"/>
              <rect x="134.0" y="658.0" width="96.0" height="42" rx="6" fill="none" stroke="#2f2b26" stroke-width="3"/>
              <text x="481.7" y="744.0" text-anchor="middle" font-size="30" font-weight="800" fill="#2f2b26">مكتب</text>
              <text x="481.7" y="778.0" text-anchor="middle" font-size="20" fill="#2f2b26">569 م²</text>
            </g>
            
            <g>
              <rect x="853.5" y="630.0" width="496.5" height="240.0" fill="#efe1cf" stroke="#2f2b26" stroke-width="8"/>
              <line x1="875.5" y1="638.0" x2="994.6" y2="638.0" stroke="#7fb7bd" stroke-width="8" stroke-linecap="round"/>
              <path d="M 1049.5 870.0 v -52 a 52 52 0 0 0 52 52" fill="none" stroke="#c08a4d" stroke-width="4"/>
              <rect x="877.5" y="658.0" width="96.0" height="42" rx="6" fill="none" stroke="#2f2b26" stroke-width="3"/>
              <text x="1101.7" y="744.0" text-anchor="middle" font-size="30" font-weight="800" fill="#2f2b26">تراس</text>
              <text x="1101.7" y="778.0" text-anchor="middle" font-size="20" fill="#2f2b26">380 م²</text>
            </g>
            </g>
  <line x1="110" y1="910" x2="1350" y2="910" stroke="#2f2b26" stroke-width="3"/>
  <path d="M110 895v30M1350 895v30" stroke="#2f2b26" stroke-width="3"/>
  <text x="730" y="948" text-anchor="middle" font-size="24" fill="#2f2b26">أبعاد ومساحات تقريبية للتصور فقط</text>
  <path d="M1450 890 v-92 m0 0 -22 35 m22-35 22 35" stroke="#c08a4d" stroke-width="7" stroke-linecap="round" stroke-linejoin="round"/>
  <text x="1450" y="936" text-anchor="middle" font-size="24" fill="#2f2b26">شمال</text>
  <rect x="70" y="980" width="1460" height="46" fill="#2f2b26"/>
  <text x="1490" y="1012" text-anchor="end" font-size="20" fill="#ffffff">kamel3lom | مخطط تخيلي غير معتمد هندسيًا</text>
  <text x="110" y="1012" font-size="20" fill="#ffffff">egyptian-studio-3300</text>
</svg>