<svg xmlns="http://www.w3.org/2000/svg" viewBox="0 0 1600 1050" role="img" aria-label="Concept architectural 2D plan">
  <defs>
    <pattern id="grid-egyptian-villa-1000" width="24" height="24" patternUnits="userSpaceOnUse">
      <path d="M 24 0 L 0 0 0 24" fill="none" stroke="#94a3b8" stroke-width="1" opacity=".18"/>
    </pattern>
  </defs>
  <rect width="1600" height="1050" fill="#f7efe5"/>
  <rect x="70" y="70" width="1460" height="900" fill="url(#grid-egyptian-villa-1000)" stroke="#2f2b26" stroke-width="3"/>
  <text x="1490" y="118" text-anchor="end" font-size="40" font-weight="900" fill="#2f2b26">مخطط معماري مبدئي - فيلا مصري</text>
  <text x="1490" y="158" text-anchor="end" font-size="24" fill="#2f2b26">الفئة: 1000-1099 م² | الطوابق: 1-4</text>
  <rect x="118" y="92" width="250" height="24" rx="12" fill="#7fb7bd" opacity=".72"/>
  <g>
            <g>
              <rect x="110.0" y="150.0" width="561.6" height="180.0" fill="#efe1cf" stroke="#2f2b26" stroke-width="8"/>
              <line x1="132.0" y1="158.0" x2="262.0" y2="158.0" stroke="#7fb7bd" stroke-width="8" stroke-linecap="round"/>
              <path d="M 168.0 330.0 v -52 a 52 52 0 0 0 52 52" fill="none" stroke="#c08a4d" stroke-width="4"/>
              <rect x="132.0" y="180.0" width="160.0" height="42" rx="10" fill="none" stroke="#2f2b26" stroke-width="3"/><rect x="152.0" y="242.0" width="64" height="36" rx="6" fill="none" stroke="#c08a4d" stroke-width="3"/>
              <text x="390.8" y="234.0" text-anchor="middle" font-size="30" font-weight="800" fill="#2f2b26">مجلس</text>
              <text x="390.8" y="268.0" text-anchor="middle" font-size="20" fill="#2f2b26">154 م²</text>
            </g>
            
            <g>
              <rect x="671.6" y="150.0" width="415.8" height="180.0" fill="#f7efe5" stroke="#2f2b26" stroke-width="8"/>
              <line x1="693.6" y1="158.0" x2="793.4" y2="158.0" stroke="#7fb7bd" stroke-width="8" stroke-linecap="round"/>
              <path d="M 752.6 330.0 v -52 a 52 52 0 0 0 52 52" fill="none" stroke="#c08a4d" stroke-width="4"/>
              <rect x="693.6" y="180.0" width="120.0" height="62" rx="8" fill="none" stroke="#2f2b26" stroke-width="3"/><line x1="693.6" y1="208.0" x2="813.6" y2="208.0" stroke="#2f2b26" stroke-width="2"/>
              <text x="879.5" y="234.0" text-anchor="middle" font-size="30" font-weight="800" fill="#2f2b26">جناحان</text>
              <text x="879.5" y="268.0" text-anchor="middle" font-size="20" fill="#2f2b26">114 م²</text>
            </g>
            
            <g>
              <rect x="1087.4" y="150.0" width="262.6" height="180.0" fill="#efe1cf" stroke="#2f2b26" stroke-width="8"/>
              <line x1="1109.4" y1="158.0" x2="1172.4" y2="158.0" stroke="#7fb7bd" stroke-width="8" stroke-linecap="round"/>
              <path d="M 1191.4 330.0 v -52 a 52 52 0 0 0 52 52" fill="none" stroke="#c08a4d" stroke-width="4"/>
              <rect x="1111.4" y="178.0" width="78.8" height="42" rx="6" fill="none" stroke="#2f2b26" stroke-width="3"/>
              <text x="1218.7" y="234.0" text-anchor="middle" font-size="30" font-weight="800" fill="#2f2b26">فناء</text>
              <text x="1218.7" y="268.0" text-anchor="middle" font-size="20" fill="#2f2b26">72 م²</text>
            </g>
            
            <g>
              <rect x="110.0" y="330.0" width="778.7" height="180.0" fill="#f7efe5" stroke="#2f2b26" stroke-width="8"/>
              <line x1="132.0" y1="338.0" x2="262.0" y2="338.0" stroke="#7fb7bd" stroke-width="8" stroke-linecap="round"/>
              <path d="M 237.0 510.0 v -52 a 52 52 0 0 0 52 52" fill="none" stroke="#c08a4d" stroke-width="4"/>
              <rect x="132.0" y="360.0" width="160.0" height="42" rx="10" fill="none" stroke="#2f2b26" stroke-width="3"/><rect x="152.0" y="422.0" width="64" height="36" rx="6" fill="none" stroke="#c08a4d" stroke-width="3"/>
              <text x="499.4" y="414.0" text-anchor="middle" font-size="30" font-weight="800" fill="#2f2b26">صالة استقبال</text>
              <text x="499.4" y="448.0" text-anchor="middle" font-size="20" fill="#2f2b26">157 م²</text>
            </g>
            
            <g>
              <rect x="888.7" y="330.0" width="461.3" height="180.0" fill="#efe1cf" stroke="#2f2b26" stroke-width="8"/>
              <line x1="910.7" y1="338.0" x2="1021.4" y2="338.0" stroke="#7fb7bd" stroke-width="8" stroke-linecap="round"/>
              <path d="M 1038.7 510.0 v -52 a 52 52 0 0 0 52 52" fill="none" stroke="#c08a4d" stroke-width="4"/>
              <ellipse cx="1017.9" cy="398.4" rx="54" ry="34" fill="none" stroke="#2f2b26" stroke-width="3"/><circle cx="1017.9" cy="398.4" r="7" fill="#c08a4d"/>
              <text x="1119.4" y="414.0" text-anchor="middle" font-size="30" font-weight="800" fill="#2f2b26">طعام</text>
              <text x="1119.4" y="448.0" text-anchor="middle" font-size="20" fill="#2f2b26">93 م²</text>
            </g>
            
            <g>
              <rect x="110.0" y="510.0" width="798.2" height="180.0" fill="#f7efe5" stroke="#2f2b26" stroke-width="8"/>
              <line x1="132.0" y1="518.0" x2="262.0" y2="518.0" stroke="#7fb7bd" stroke-width="8" stroke-linecap="round"/>
              <path d="M 283.0 690.0 v -52 a 52 52 0 0 0 52 52" fill="none" stroke="#c08a4d" stroke-width="4"/>
              <rect x="132.0" y="540.0" width="160.0" height="42" rx="10" fill="none" stroke="#2f2b26" stroke-width="3"/><rect x="152.0" y="602.0" width="64" height="36" rx="6" fill="none" stroke="#c08a4d" stroke-width="3"/>
              <text x="509.1" y="594.0" text-anchor="middle" font-size="30" font-weight="800" fill="#2f2b26">صالة عائلية</text>
              <text x="509.1" y="628.0" text-anchor="middle" font-size="20" fill="#2f2b26">159 م²</text>
            </g>
            
            <g>
              <rect x="908.2" y="510.0" width="441.8" height="180.0" fill="#e6d8c6" stroke="#2f2b26" stroke-width="8"/>
              <line x1="930.2" y1="518.0" x2="1036.2" y2="518.0" stroke="#7fb7bd" stroke-width="8" stroke-linecap="round"/>
              <path d="M 1104.2 690.0 v -52 a 52 52 0 0 0 52 52" fill="none" stroke="#c08a4d" stroke-width="4"/>
              <rect x="930.2" y="534.0" width="150.0" height="24" fill="none" stroke="#2f2b26" stroke-width="3"/><circle cx="960.2" cy="578.0" r="12" fill="none" stroke="#c08a4d" stroke-width="3"/><circle cx="996.2" cy="578.0" r="12" fill="none" stroke="#c08a4d" stroke-width="3"/>
              <text x="1129.1" y="594.0" text-anchor="middle" font-size="30" font-weight="800" fill="#2f2b26">مطبخ</text>
              <text x="1129.1" y="628.0" text-anchor="middle" font-size="20" fill="#2f2b26">88 م²</text>
            </g>
            
            <g>
              <rect x="110.0" y="690.0" width="849.6" height="180.0" fill="#f7efe5" stroke="#2f2b26" stroke-width="8"/>
              <line x1="132.0" y1="698.0" x2="262.0" y2="698.0" stroke="#7fb7bd" stroke-width="8" stroke-linecap="round"/>
              <path d="M 329.0 870.0 v -52 a 52 52 0 0 0 52 52" fill="none" stroke="#c08a4d" stroke-width="4"/>
              <rect x="132.0" y="720.0" width="120.0" height="62" rx="8" fill="none" stroke="#2f2b26" stroke-width="3"/><line x1="132.0" y1="748.0" x2="252.0" y2="748.0" stroke="#2f2b26" stroke-width="2"/>
              <text x="534.8" y="774.0" text-anchor="middle" font-size="30" font-weight="800" fill="#2f2b26">خمس غرف نوم</text>
              <text x="534.8" y="808.0" text-anchor="middle" font-size="20" fill="#2f2b26">111 م²</text>
            </g>
            
            <g>
              <rect x="959.6" y="690.0" width="390.4" height="180.0" fill="#e6d8c6" stroke="#2f2b26" stroke-width="8"/>
              <line x1="981.6" y1="698.0" x2="1075.3" y2="698.0" stroke="#7fb7bd" stroke-width="8" stroke-linecap="round"/>
              <path d="M 1201.6 870.0 v -52 a 52 52 0 0 0 52 52" fill="none" stroke="#c08a4d" stroke-width="4"/>
              <rect x="983.6" y="718.0" width="96.0" height="42" rx="6" fill="none" stroke="#2f2b26" stroke-width="3"/>
              <text x="1154.8" y="774.0" text-anchor="middle" font-size="30" font-weight="800" fill="#2f2b26">خدمات</text>
              <text x="1154.8" y="808.0" text-anchor="middle" font-size="20" fill="#2f2b26">51 م²</text>
            </g>
            </g>
  <line x1="110" y1="910" x2="1350" y2="910" stroke="#2f2b26" stroke-width="3"/>
  <path d="M110 895v30M1350 895v30" stroke="#2f2b26" stroke-width="3"/>
  <text x="730" y="948" text-anchor="middle" font-size="24" fill="#2f2b26">أبعاد ومساحات تقريبية للتصور فقط</text>
  <path d="M1450 890 v-92 m0 0 -22 35 m22-35 22 35" stroke="#c08a4d" stroke-width="7" stroke-linecap="round" stroke-linejoin="round"/>
  <text x="1450" y="936" text-anchor="middle" font-size="24" fill="#2f2b26">شمال</text>
  <rect x="70" y="980" width="1460" height="46" fill="#2f2b26"/>
  <text x="1490" y="1012" text-anchor="end" font-size="20" fill="#ffffff">kamel3lom | مخطط تخيلي غير معتمد هندسيًا</text>
  <text x="110" y="1012" font-size="20" fill="#ffffff">egyptian-villa-1000</text>
</svg>