<svg xmlns="http://www.w3.org/2000/svg" viewBox="0 0 1600 1050" role="img" aria-label="Concept architectural 2D plan">
  <defs>
    <pattern id="grid-egyptian-townhouse-0700" width="24" height="24" patternUnits="userSpaceOnUse">
      <path d="M 24 0 L 0 0 0 24" fill="none" stroke="#94a3b8" stroke-width="1" opacity=".18"/>
    </pattern>
  </defs>
  <rect width="1600" height="1050" fill="#f7efe5"/>
  <rect x="70" y="70" width="1460" height="900" fill="url(#grid-egyptian-townhouse-0700)" stroke="#2f2b26" stroke-width="3"/>
  <text x="1490" y="118" text-anchor="end" font-size="40" font-weight="900" fill="#2f2b26">مخطط معماري مبدئي - تاون هاوس مصري</text>
  <text x="1490" y="158" text-anchor="end" font-size="24" fill="#2f2b26">الفئة: 700-799 م² | الطوابق: 1-4</text>
  <rect x="118" y="92" width="250" height="24" rx="12" fill="#7fb7bd" opacity=".72"/>
  <g>
            <g>
              <rect x="110.0" y="150.0" width="556.7" height="240.0" fill="#efe1cf" stroke="#2f2b26" stroke-width="8"/>
              <line x1="132.0" y1="158.0" x2="262.0" y2="158.0" stroke="#7fb7bd" stroke-width="8" stroke-linecap="round"/>
              <path d="M 168.0 390.0 v -52 a 52 52 0 0 0 52 52" fill="none" stroke="#c08a4d" stroke-width="4"/>
              <rect x="132.0" y="180.0" width="160.0" height="42" rx="10" fill="none" stroke="#2f2b26" stroke-width="3"/><rect x="152.0" y="242.0" width="64" height="36" rx="6" fill="none" stroke="#c08a4d" stroke-width="3"/>
              <text x="388.3" y="264.0" text-anchor="middle" font-size="30" font-weight="800" fill="#2f2b26">معيشة</text>
              <text x="388.3" y="298.0" text-anchor="middle" font-size="20" fill="#2f2b26">145 م²</text>
            </g>
            
            <g>
              <rect x="666.7" y="150.0" width="406.9" height="240.0" fill="#f7efe5" stroke="#2f2b26" stroke-width="8"/>
              <line x1="688.7" y1="158.0" x2="786.3" y2="158.0" stroke="#7fb7bd" stroke-width="8" stroke-linecap="round"/>
              <path d="M 747.7 390.0 v -52 a 52 52 0 0 0 52 52" fill="none" stroke="#c08a4d" stroke-width="4"/>
              <rect x="688.7" y="180.0" width="120.0" height="62" rx="8" fill="none" stroke="#2f2b26" stroke-width="3"/><line x1="688.7" y1="208.0" x2="808.7" y2="208.0" stroke="#2f2b26" stroke-width="2"/>
              <text x="870.1" y="264.0" text-anchor="middle" font-size="30" font-weight="800" fill="#2f2b26">ثلاث غرف نوم</text>
              <text x="870.1" y="298.0" text-anchor="middle" font-size="20" fill="#2f2b26">106 م²</text>
            </g>
            
            <g>
              <rect x="1073.6" y="150.0" width="276.4" height="240.0" fill="#efe1cf" stroke="#2f2b26" stroke-width="8"/>
              <line x1="1095.6" y1="158.0" x2="1161.9" y2="158.0" stroke="#7fb7bd" stroke-width="8" stroke-linecap="round"/>
              <path d="M 1177.6 390.0 v -52 a 52 52 0 0 0 52 52" fill="none" stroke="#c08a4d" stroke-width="4"/>
              <rect x="1097.6" y="178.0" width="82.9" height="42" rx="6" fill="none" stroke="#2f2b26" stroke-width="3"/>
              <text x="1211.8" y="264.0" text-anchor="middle" font-size="30" font-weight="800" fill="#2f2b26">تراس</text>
              <text x="1211.8" y="298.0" text-anchor="middle" font-size="20" fill="#2f2b26">72 م²</text>
            </g>
            
            <g>
              <rect x="110.0" y="390.0" width="734.1" height="240.0" fill="#f7efe5" stroke="#2f2b26" stroke-width="8"/>
              <line x1="132.0" y1="398.0" x2="262.0" y2="398.0" stroke="#7fb7bd" stroke-width="8" stroke-linecap="round"/>
              <path d="M 237.0 630.0 v -52 a 52 52 0 0 0 52 52" fill="none" stroke="#c08a4d" stroke-width="4"/>
              <rect x="132.0" y="420.0" width="160.0" height="42" rx="10" fill="none" stroke="#2f2b26" stroke-width="3"/><rect x="152.0" y="482.0" width="64" height="36" rx="6" fill="none" stroke="#c08a4d" stroke-width="3"/>
              <text x="477.0" y="504.0" text-anchor="middle" font-size="30" font-weight="800" fill="#2f2b26">مجلس</text>
              <text x="477.0" y="538.0" text-anchor="middle" font-size="20" fill="#2f2b26">148 م²</text>
            </g>
            
            <g>
              <rect x="844.1" y="390.0" width="505.9" height="240.0" fill="#efe1cf" stroke="#2f2b26" stroke-width="8"/>
              <line x1="866.1" y1="398.0" x2="987.5" y2="398.0" stroke="#7fb7bd" stroke-width="8" stroke-linecap="round"/>
              <path d="M 994.1 630.0 v -52 a 52 52 0 0 0 52 52" fill="none" stroke="#c08a4d" stroke-width="4"/>
              <rect x="866.1" y="420.0" width="120.0" height="62" rx="8" fill="none" stroke="#2f2b26" stroke-width="3"/><line x1="866.1" y1="448.0" x2="986.1" y2="448.0" stroke="#2f2b26" stroke-width="2"/>
              <text x="1097.0" y="504.0" text-anchor="middle" font-size="30" font-weight="800" fill="#2f2b26">جناح</text>
              <text x="1097.0" y="538.0" text-anchor="middle" font-size="20" fill="#2f2b26">102 م²</text>
            </g>
            
            <g>
              <rect x="110.0" y="630.0" width="800.6" height="240.0" fill="#e6d8c6" stroke="#2f2b26" stroke-width="8"/>
              <line x1="132.0" y1="638.0" x2="262.0" y2="638.0" stroke="#7fb7bd" stroke-width="8" stroke-linecap="round"/>
              <path d="M 283.0 870.0 v -52 a 52 52 0 0 0 52 52" fill="none" stroke="#c08a4d" stroke-width="4"/>
              <rect x="132.0" y="654.0" width="150.0" height="24" fill="none" stroke="#2f2b26" stroke-width="3"/><circle cx="162.0" cy="698.0" r="12" fill="none" stroke="#c08a4d" stroke-width="3"/><circle cx="198.0" cy="698.0" r="12" fill="none" stroke="#c08a4d" stroke-width="3"/>
              <text x="510.3" y="744.0" text-anchor="middle" font-size="30" font-weight="800" fill="#2f2b26">مطبخ</text>
              <text x="510.3" y="778.0" text-anchor="middle" font-size="20" fill="#2f2b26">82 م²</text>
            </g>
            
            <g>
              <rect x="910.6" y="630.0" width="439.4" height="240.0" fill="#e6d8c6" stroke="#2f2b26" stroke-width="8"/>
              <line x1="932.6" y1="638.0" x2="1038.1" y2="638.0" stroke="#7fb7bd" stroke-width="8" stroke-linecap="round"/>
              <path d="M 1106.6 870.0 v -52 a 52 52 0 0 0 52 52" fill="none" stroke="#c08a4d" stroke-width="4"/>
              <circle cx="955.6" cy="678.0" r="20" fill="none" stroke="#c08a4d" stroke-width="4"/><rect x="988.6" y="658.0" width="46" height="38" rx="8" fill="none" stroke="#2f2b26" stroke-width="3"/>
              <text x="1130.3" y="744.0" text-anchor="middle" font-size="30" font-weight="800" fill="#2f2b26">ثلاثة حمامات</text>
              <text x="1130.3" y="778.0" text-anchor="middle" font-size="20" fill="#2f2b26">45 م²</text>
            </g>
            </g>
  <line x1="110" y1="910" x2="1350" y2="910" stroke="#2f2b26" stroke-width="3"/>
  <path d="M110 895v30M1350 895v30" stroke="#2f2b26" stroke-width="3"/>
  <text x="730" y="948" text-anchor="middle" font-size="24" fill="#2f2b26">أبعاد ومساحات تقريبية للتصور فقط</text>
  <path d="M1450 890 v-92 m0 0 -22 35 m22-35 22 35" stroke="#c08a4d" stroke-width="7" stroke-linecap="round" stroke-linejoin="round"/>
  <text x="1450" y="936" text-anchor="middle" font-size="24" fill="#2f2b26">شمال</text>
  <rect x="70" y="980" width="1460" height="46" fill="#2f2b26"/>
  <text x="1490" y="1012" text-anchor="end" font-size="20" fill="#ffffff">kamel3lom | مخطط تخيلي غير معتمد هندسيًا</text>
  <text x="110" y="1012" font-size="20" fill="#ffffff">egyptian-townhouse-0700</text>
</svg>