<svg xmlns="http://www.w3.org/2000/svg" viewBox="0 0 1600 1050" role="img" aria-label="Concept architectural 2D plan">
  <defs>
    <pattern id="grid-egyptian-apartment-3400" width="24" height="24" patternUnits="userSpaceOnUse">
      <path d="M 24 0 L 0 0 0 24" fill="none" stroke="#94a3b8" stroke-width="1" opacity=".18"/>
    </pattern>
  </defs>
  <rect width="1600" height="1050" fill="#f7efe5"/>
  <rect x="70" y="70" width="1460" height="900" fill="url(#grid-egyptian-apartment-3400)" stroke="#2f2b26" stroke-width="3"/>
  <text x="1490" y="118" text-anchor="end" font-size="40" font-weight="900" fill="#2f2b26">مخطط معماري مبدئي - شقة مصري</text>
  <text x="1490" y="158" text-anchor="end" font-size="24" fill="#2f2b26">الفئة: 3400-3499 م² | الطوابق: 1-8</text>
  <rect x="118" y="92" width="250" height="24" rx="12" fill="#7fb7bd" opacity=".72"/>
  <g>
            <g>
              <rect x="110.0" y="150.0" width="658.7" height="240.0" fill="#efe1cf" stroke="#2f2b26" stroke-width="8"/>
              <line x1="132.0" y1="158.0" x2="262.0" y2="158.0" stroke="#7fb7bd" stroke-width="8" stroke-linecap="round"/>
              <path d="M 168.0 390.0 v -52 a 52 52 0 0 0 52 52" fill="none" stroke="#c08a4d" stroke-width="4"/>
              <rect x="132.0" y="180.0" width="160.0" height="42" rx="10" fill="none" stroke="#2f2b26" stroke-width="3"/><rect x="152.0" y="242.0" width="64" height="36" rx="6" fill="none" stroke="#c08a4d" stroke-width="3"/>
              <text x="439.3" y="264.0" text-anchor="middle" font-size="30" font-weight="800" fill="#2f2b26">معيشة كبيرة</text>
              <text x="439.3" y="298.0" text-anchor="middle" font-size="20" fill="#2f2b26">741 م²</text>
            </g>
            
            <g>
              <rect x="768.7" y="150.0" width="375.1" height="240.0" fill="#f7efe5" stroke="#2f2b26" stroke-width="8"/>
              <line x1="790.7" y1="158.0" x2="880.7" y2="158.0" stroke="#7fb7bd" stroke-width="8" stroke-linecap="round"/>
              <path d="M 849.7 390.0 v -52 a 52 52 0 0 0 52 52" fill="none" stroke="#c08a4d" stroke-width="4"/>
              <ellipse cx="873.7" cy="241.2" rx="54" ry="34" fill="none" stroke="#2f2b26" stroke-width="3"/><circle cx="873.7" cy="241.2" r="7" fill="#c08a4d"/>
              <text x="956.2" y="264.0" text-anchor="middle" font-size="30" font-weight="800" fill="#2f2b26">طعام</text>
              <text x="956.2" y="298.0" text-anchor="middle" font-size="20" fill="#2f2b26">422 م²</text>
            </g>
            
            <g>
              <rect x="1143.8" y="150.0" width="206.2" height="240.0" fill="#e6d8c6" stroke="#2f2b26" stroke-width="8"/>
              <line x1="1165.8" y1="158.0" x2="1215.3" y2="158.0" stroke="#7fb7bd" stroke-width="8" stroke-linecap="round"/>
              <path d="M 1247.8 390.0 v -52 a 52 52 0 0 0 52 52" fill="none" stroke="#c08a4d" stroke-width="4"/>
              <rect x="1167.8" y="178.0" width="61.9" height="42" rx="6" fill="none" stroke="#2f2b26" stroke-width="3"/>
              <text x="1246.9" y="264.0" text-anchor="middle" font-size="30" font-weight="800" fill="#2f2b26">خدمات</text>
              <text x="1246.9" y="298.0" text-anchor="middle" font-size="20" fill="#2f2b26">232 م²</text>
            </g>
            
            <g>
              <rect x="110.0" y="390.0" width="690.7" height="240.0" fill="#f7efe5" stroke="#2f2b26" stroke-width="8"/>
              <line x1="132.0" y1="398.0" x2="262.0" y2="398.0" stroke="#7fb7bd" stroke-width="8" stroke-linecap="round"/>
              <path d="M 237.0 630.0 v -52 a 52 52 0 0 0 52 52" fill="none" stroke="#c08a4d" stroke-width="4"/>
              <rect x="132.0" y="420.0" width="120.0" height="62" rx="8" fill="none" stroke="#2f2b26" stroke-width="3"/><line x1="132.0" y1="448.0" x2="252.0" y2="448.0" stroke="#2f2b26" stroke-width="2"/>
              <text x="455.4" y="504.0" text-anchor="middle" font-size="30" font-weight="800" fill="#2f2b26">خمس غرف نوم</text>
              <text x="455.4" y="538.0" text-anchor="middle" font-size="20" fill="#2f2b26">547 م²</text>
            </g>
            
            <g>
              <rect x="800.7" y="390.0" width="549.3" height="240.0" fill="#e6d8c6" stroke="#2f2b26" stroke-width="8"/>
              <line x1="822.7" y1="398.0" x2="952.7" y2="398.0" stroke="#7fb7bd" stroke-width="8" stroke-linecap="round"/>
              <path d="M 950.7 630.0 v -52 a 52 52 0 0 0 52 52" fill="none" stroke="#c08a4d" stroke-width="4"/>
              <rect x="822.7" y="414.0" width="150.0" height="24" fill="none" stroke="#2f2b26" stroke-width="3"/><circle cx="852.7" cy="458.0" r="12" fill="none" stroke="#c08a4d" stroke-width="3"/><circle cx="888.7" cy="458.0" r="12" fill="none" stroke="#c08a4d" stroke-width="3"/>
              <text x="1075.4" y="504.0" text-anchor="middle" font-size="30" font-weight="800" fill="#2f2b26">مطبخ</text>
              <text x="1075.4" y="538.0" text-anchor="middle" font-size="20" fill="#2f2b26">435 م²</text>
            </g>
            
            <g>
              <rect x="110.0" y="630.0" width="931.2" height="240.0" fill="#f7efe5" stroke="#2f2b26" stroke-width="8"/>
              <line x1="132.0" y1="638.0" x2="262.0" y2="638.0" stroke="#7fb7bd" stroke-width="8" stroke-linecap="round"/>
              <path d="M 283.0 870.0 v -52 a 52 52 0 0 0 52 52" fill="none" stroke="#c08a4d" stroke-width="4"/>
              <rect x="132.0" y="660.0" width="160.0" height="42" rx="10" fill="none" stroke="#2f2b26" stroke-width="3"/><rect x="152.0" y="722.0" width="64" height="36" rx="6" fill="none" stroke="#c08a4d" stroke-width="3"/>
              <text x="575.6" y="744.0" text-anchor="middle" font-size="30" font-weight="800" fill="#2f2b26">مجلس</text>
              <text x="575.6" y="778.0" text-anchor="middle" font-size="20" fill="#2f2b26">769 م²</text>
            </g>
            
            <g>
              <rect x="1041.2" y="630.0" width="308.8" height="240.0" fill="#e6d8c6" stroke="#2f2b26" stroke-width="8"/>
              <line x1="1063.2" y1="638.0" x2="1137.3" y2="638.0" stroke="#7fb7bd" stroke-width="8" stroke-linecap="round"/>
              <path d="M 1237.2 870.0 v -52 a 52 52 0 0 0 52 52" fill="none" stroke="#c08a4d" stroke-width="4"/>
              <circle cx="1086.2" cy="678.0" r="20" fill="none" stroke="#c08a4d" stroke-width="4"/><rect x="1119.2" y="658.0" width="46" height="38" rx="8" fill="none" stroke="#2f2b26" stroke-width="3"/>
              <text x="1195.6" y="744.0" text-anchor="middle" font-size="30" font-weight="800" fill="#2f2b26">ثلاثة حمامات</text>
              <text x="1195.6" y="778.0" text-anchor="middle" font-size="20" fill="#2f2b26">255 م²</text>
            </g>
            </g>
  <line x1="110" y1="910" x2="1350" y2="910" stroke="#2f2b26" stroke-width="3"/>
  <path d="M110 895v30M1350 895v30" stroke="#2f2b26" stroke-width="3"/>
  <text x="730" y="948" text-anchor="middle" font-size="24" fill="#2f2b26">أبعاد ومساحات تقريبية للتصور فقط</text>
  <path d="M1450 890 v-92 m0 0 -22 35 m22-35 22 35" stroke="#c08a4d" stroke-width="7" stroke-linecap="round" stroke-linejoin="round"/>
  <text x="1450" y="936" text-anchor="middle" font-size="24" fill="#2f2b26">شمال</text>
  <rect x="70" y="980" width="1460" height="46" fill="#2f2b26"/>
  <text x="1490" y="1012" text-anchor="end" font-size="20" fill="#ffffff">kamel3lom | مخطط تخيلي غير معتمد هندسيًا</text>
  <text x="110" y="1012" font-size="20" fill="#ffffff">egyptian-apartment-3400</text>
</svg>