<svg xmlns="http://www.w3.org/2000/svg" viewBox="0 0 1600 1050" role="img" aria-label="Concept architectural 2D plan">
  <defs>
    <pattern id="grid-egyptian-villa-0700" width="24" height="24" patternUnits="userSpaceOnUse">
      <path d="M 24 0 L 0 0 0 24" fill="none" stroke="#94a3b8" stroke-width="1" opacity=".18"/>
    </pattern>
  </defs>
  <rect width="1600" height="1050" fill="#f7efe5"/>
  <rect x="70" y="70" width="1460" height="900" fill="url(#grid-egyptian-villa-0700)" stroke="#2f2b26" stroke-width="3"/>
  <text x="1490" y="118" text-anchor="end" font-size="40" font-weight="900" fill="#2f2b26">مخطط معماري مبدئي - فيلا مصري</text>
  <text x="1490" y="158" text-anchor="end" font-size="24" fill="#2f2b26">الفئة: 700-799 م² | الطوابق: 1-4</text>
  <rect x="118" y="92" width="250" height="24" rx="12" fill="#7fb7bd" opacity=".72"/>
  <g>
            <g>
              <rect x="110.0" y="150.0" width="601.3" height="240.0" fill="#efe1cf" stroke="#2f2b26" stroke-width="8"/>
              <line x1="132.0" y1="158.0" x2="262.0" y2="158.0" stroke="#7fb7bd" stroke-width="8" stroke-linecap="round"/>
              <path d="M 168.0 390.0 v -52 a 52 52 0 0 0 52 52" fill="none" stroke="#c08a4d" stroke-width="4"/>
              <rect x="132.0" y="180.0" width="160.0" height="42" rx="10" fill="none" stroke="#2f2b26" stroke-width="3"/><rect x="152.0" y="242.0" width="64" height="36" rx="6" fill="none" stroke="#c08a4d" stroke-width="3"/>
              <text x="410.7" y="264.0" text-anchor="middle" font-size="30" font-weight="800" fill="#2f2b26">مجلس</text>
              <text x="410.7" y="298.0" text-anchor="middle" font-size="20" fill="#2f2b26">145 م²</text>
            </g>
            
            <g>
              <rect x="711.3" y="150.0" width="439.6" height="240.0" fill="#f7efe5" stroke="#2f2b26" stroke-width="8"/>
              <line x1="733.3" y1="158.0" x2="838.8" y2="158.0" stroke="#7fb7bd" stroke-width="8" stroke-linecap="round"/>
              <path d="M 792.3 390.0 v -52 a 52 52 0 0 0 52 52" fill="none" stroke="#c08a4d" stroke-width="4"/>
              <rect x="733.3" y="180.0" width="120.0" height="62" rx="8" fill="none" stroke="#2f2b26" stroke-width="3"/><line x1="733.3" y1="208.0" x2="853.3" y2="208.0" stroke="#2f2b26" stroke-width="2"/>
              <text x="931.1" y="264.0" text-anchor="middle" font-size="30" font-weight="800" fill="#2f2b26">جناح رئيسي</text>
              <text x="931.1" y="298.0" text-anchor="middle" font-size="20" fill="#2f2b26">106 م²</text>
            </g>
            
            <g>
              <rect x="1150.9" y="150.0" width="199.1" height="240.0" fill="#e6d8c6" stroke="#2f2b26" stroke-width="8"/>
              <line x1="1172.9" y1="158.0" x2="1220.7" y2="158.0" stroke="#7fb7bd" stroke-width="8" stroke-linecap="round"/>
              <path d="M 1254.9 390.0 v -52 a 52 52 0 0 0 52 52" fill="none" stroke="#c08a4d" stroke-width="4"/>
              <rect x="1174.9" y="178.0" width="59.7" height="42" rx="6" fill="none" stroke="#2f2b26" stroke-width="3"/>
              <text x="1250.5" y="264.0" text-anchor="middle" font-size="30" font-weight="800" fill="#2f2b26">خدمات</text>
              <text x="1250.5" y="298.0" text-anchor="middle" font-size="20" fill="#2f2b26">48 م²</text>
            </g>
            
            <g>
              <rect x="110.0" y="390.0" width="401.9" height="240.0" fill="#f7efe5" stroke="#2f2b26" stroke-width="8"/>
              <line x1="132.0" y1="398.0" x2="228.4" y2="398.0" stroke="#7fb7bd" stroke-width="8" stroke-linecap="round"/>
              <path d="M 237.0 630.0 v -52 a 52 52 0 0 0 52 52" fill="none" stroke="#c08a4d" stroke-width="4"/>
              <rect x="134.0" y="418.0" width="96.0" height="42" rx="6" fill="none" stroke="#2f2b26" stroke-width="3"/>
              <text x="310.9" y="504.0" text-anchor="middle" font-size="30" font-weight="800" fill="#2f2b26">صالتان</text>
              <text x="310.9" y="538.0" text-anchor="middle" font-size="20" fill="#2f2b26">70 م²</text>
            </g>
            
            <g>
              <rect x="511.9" y="390.0" width="453.5" height="240.0" fill="#efe1cf" stroke="#2f2b26" stroke-width="8"/>
              <line x1="533.9" y1="398.0" x2="642.7" y2="398.0" stroke="#7fb7bd" stroke-width="8" stroke-linecap="round"/>
              <path d="M 661.9 630.0 v -52 a 52 52 0 0 0 52 52" fill="none" stroke="#c08a4d" stroke-width="4"/>
              <ellipse cx="638.8" cy="481.2" rx="54" ry="34" fill="none" stroke="#2f2b26" stroke-width="3"/><circle cx="638.8" cy="481.2" r="7" fill="#c08a4d"/>
              <text x="738.6" y="504.0" text-anchor="middle" font-size="30" font-weight="800" fill="#2f2b26">طعام</text>
              <text x="738.6" y="538.0" text-anchor="middle" font-size="20" fill="#2f2b26">79 م²</text>
            </g>
            
            <g>
              <rect x="965.4" y="390.0" width="384.6" height="240.0" fill="#f7efe5" stroke="#2f2b26" stroke-width="8"/>
              <line x1="987.4" y1="398.0" x2="1079.7" y2="398.0" stroke="#7fb7bd" stroke-width="8" stroke-linecap="round"/>
              <path d="M 1138.4 630.0 v -52 a 52 52 0 0 0 52 52" fill="none" stroke="#c08a4d" stroke-width="4"/>
              <rect x="989.4" y="418.0" width="96.0" height="42" rx="6" fill="none" stroke="#2f2b26" stroke-width="3"/>
              <text x="1157.7" y="504.0" text-anchor="middle" font-size="30" font-weight="800" fill="#2f2b26">فناء</text>
              <text x="1157.7" y="538.0" text-anchor="middle" font-size="20" fill="#2f2b26">67 م²</text>
            </g>
            
            <g>
              <rect x="110.0" y="630.0" width="690.4" height="240.0" fill="#efe1cf" stroke="#2f2b26" stroke-width="8"/>
              <line x1="132.0" y1="638.0" x2="262.0" y2="638.0" stroke="#7fb7bd" stroke-width="8" stroke-linecap="round"/>
              <path d="M 306.0 870.0 v -52 a 52 52 0 0 0 52 52" fill="none" stroke="#c08a4d" stroke-width="4"/>
              <rect x="132.0" y="660.0" width="120.0" height="62" rx="8" fill="none" stroke="#2f2b26" stroke-width="3"/><line x1="132.0" y1="688.0" x2="252.0" y2="688.0" stroke="#2f2b26" stroke-width="2"/>
              <text x="455.2" y="744.0" text-anchor="middle" font-size="30" font-weight="800" fill="#2f2b26">أربع غرف نوم</text>
              <text x="455.2" y="778.0" text-anchor="middle" font-size="20" fill="#2f2b26">103 م²</text>
            </g>
            
            <g>
              <rect x="800.4" y="630.0" width="549.6" height="240.0" fill="#e6d8c6" stroke="#2f2b26" stroke-width="8"/>
              <line x1="822.4" y1="638.0" x2="952.4" y2="638.0" stroke="#7fb7bd" stroke-width="8" stroke-linecap="round"/>
              <path d="M 1019.4 870.0 v -52 a 52 52 0 0 0 52 52" fill="none" stroke="#c08a4d" stroke-width="4"/>
              <rect x="822.4" y="654.0" width="150.0" height="24" fill="none" stroke="#2f2b26" stroke-width="3"/><circle cx="852.4" cy="698.0" r="12" fill="none" stroke="#c08a4d" stroke-width="3"/><circle cx="888.4" cy="698.0" r="12" fill="none" stroke="#c08a4d" stroke-width="3"/>
              <text x="1075.2" y="744.0" text-anchor="middle" font-size="30" font-weight="800" fill="#2f2b26">مطبخ</text>
              <text x="1075.2" y="778.0" text-anchor="middle" font-size="20" fill="#2f2b26">82 م²</text>
            </g>
            </g>
  <line x1="110" y1="910" x2="1350" y2="910" stroke="#2f2b26" stroke-width="3"/>
  <path d="M110 895v30M1350 895v30" stroke="#2f2b26" stroke-width="3"/>
  <text x="730" y="948" text-anchor="middle" font-size="24" fill="#2f2b26">أبعاد ومساحات تقريبية للتصور فقط</text>
  <path d="M1450 890 v-92 m0 0 -22 35 m22-35 22 35" stroke="#c08a4d" stroke-width="7" stroke-linecap="round" stroke-linejoin="round"/>
  <text x="1450" y="936" text-anchor="middle" font-size="24" fill="#2f2b26">شمال</text>
  <rect x="70" y="980" width="1460" height="46" fill="#2f2b26"/>
  <text x="1490" y="1012" text-anchor="end" font-size="20" fill="#ffffff">kamel3lom | مخطط تخيلي غير معتمد هندسيًا</text>
  <text x="110" y="1012" font-size="20" fill="#ffffff">egyptian-villa-0700</text>
</svg>