<svg xmlns="http://www.w3.org/2000/svg" viewBox="0 0 1600 1050" role="img" aria-label="Concept architectural 2D plan">
  <defs>
    <pattern id="grid-modern-townhouse-0400" width="24" height="24" patternUnits="userSpaceOnUse">
      <path d="M 24 0 L 0 0 0 24" fill="none" stroke="#94a3b8" stroke-width="1" opacity=".18"/>
    </pattern>
  </defs>
  <rect width="1600" height="1050" fill="#f7fafc"/>
  <rect x="70" y="70" width="1460" height="900" fill="url(#grid-modern-townhouse-0400)" stroke="#102033" stroke-width="3"/>
  <text x="1490" y="118" text-anchor="end" font-size="40" font-weight="900" fill="#102033">مخطط معماري مبدئي - تاون هاوس مودرن</text>
  <text x="1490" y="158" text-anchor="end" font-size="24" fill="#102033">الفئة: 400-499 م² | الطوابق: 1-3</text>
  <rect x="118" y="92" width="250" height="24" rx="12" fill="#7dd3fc" opacity=".72"/>
  <g>
            <g>
              <rect x="110.0" y="150.0" width="561.1" height="240.0" fill="#eef3f8" stroke="#102033" stroke-width="8"/>
              <line x1="132.0" y1="158.0" x2="262.0" y2="158.0" stroke="#7dd3fc" stroke-width="8" stroke-linecap="round"/>
              <path d="M 168.0 390.0 v -52 a 52 52 0 0 0 52 52" fill="none" stroke="#e26f24" stroke-width="4"/>
              <rect x="132.0" y="180.0" width="160.0" height="42" rx="10" fill="none" stroke="#102033" stroke-width="3"/><rect x="152.0" y="242.0" width="64" height="36" rx="6" fill="none" stroke="#e26f24" stroke-width="3"/>
              <text x="390.6" y="264.0" text-anchor="middle" font-size="30" font-weight="800" fill="#102033">معيشة</text>
              <text x="390.6" y="298.0" text-anchor="middle" font-size="20" fill="#102033">81 م²</text>
            </g>
            
            <g>
              <rect x="671.1" y="150.0" width="408.7" height="240.0" fill="#f7fafc" stroke="#102033" stroke-width="8"/>
              <line x1="693.1" y1="158.0" x2="791.2" y2="158.0" stroke="#7dd3fc" stroke-width="8" stroke-linecap="round"/>
              <path d="M 752.1 390.0 v -52 a 52 52 0 0 0 52 52" fill="none" stroke="#e26f24" stroke-width="4"/>
              <rect x="693.1" y="180.0" width="120.0" height="62" rx="8" fill="none" stroke="#102033" stroke-width="3"/><line x1="693.1" y1="208.0" x2="813.1" y2="208.0" stroke="#102033" stroke-width="2"/>
              <text x="875.5" y="264.0" text-anchor="middle" font-size="30" font-weight="800" fill="#102033">ثلاث غرف نوم</text>
              <text x="875.5" y="298.0" text-anchor="middle" font-size="20" fill="#102033">59 م²</text>
            </g>
            
            <g>
              <rect x="1079.8" y="150.0" width="270.2" height="240.0" fill="#eef3f8" stroke="#102033" stroke-width="8"/>
              <line x1="1101.8" y1="158.0" x2="1166.7" y2="158.0" stroke="#7dd3fc" stroke-width="8" stroke-linecap="round"/>
              <path d="M 1183.8 390.0 v -52 a 52 52 0 0 0 52 52" fill="none" stroke="#e26f24" stroke-width="4"/>
              <rect x="1103.8" y="178.0" width="81.1" height="42" rx="6" fill="none" stroke="#102033" stroke-width="3"/>
              <text x="1214.9" y="264.0" text-anchor="middle" font-size="30" font-weight="800" fill="#102033">تراس</text>
              <text x="1214.9" y="298.0" text-anchor="middle" font-size="20" fill="#102033">39 م²</text>
            </g>
            
            <g>
              <rect x="110.0" y="390.0" width="714.7" height="240.0" fill="#f7fafc" stroke="#102033" stroke-width="8"/>
              <line x1="132.0" y1="398.0" x2="262.0" y2="398.0" stroke="#7dd3fc" stroke-width="8" stroke-linecap="round"/>
              <path d="M 237.0 630.0 v -52 a 52 52 0 0 0 52 52" fill="none" stroke="#e26f24" stroke-width="4"/>
              <rect x="132.0" y="420.0" width="160.0" height="42" rx="10" fill="none" stroke="#102033" stroke-width="3"/><rect x="152.0" y="482.0" width="64" height="36" rx="6" fill="none" stroke="#e26f24" stroke-width="3"/>
              <text x="467.4" y="504.0" text-anchor="middle" font-size="30" font-weight="800" fill="#102033">مجلس</text>
              <text x="467.4" y="538.0" text-anchor="middle" font-size="20" fill="#102033">83 م²</text>
            </g>
            
            <g>
              <rect x="824.7" y="390.0" width="525.3" height="240.0" fill="#eef3f8" stroke="#102033" stroke-width="8"/>
              <line x1="846.7" y1="398.0" x2="972.8" y2="398.0" stroke="#7dd3fc" stroke-width="8" stroke-linecap="round"/>
              <path d="M 974.7 630.0 v -52 a 52 52 0 0 0 52 52" fill="none" stroke="#e26f24" stroke-width="4"/>
              <rect x="846.7" y="420.0" width="120.0" height="62" rx="8" fill="none" stroke="#102033" stroke-width="3"/><line x1="846.7" y1="448.0" x2="966.7" y2="448.0" stroke="#102033" stroke-width="2"/>
              <text x="1087.4" y="504.0" text-anchor="middle" font-size="30" font-weight="800" fill="#102033">جناح</text>
              <text x="1087.4" y="538.0" text-anchor="middle" font-size="20" fill="#102033">61 م²</text>
            </g>
            
            <g>
              <rect x="110.0" y="630.0" width="789.1" height="240.0" fill="#d9e3ee" stroke="#102033" stroke-width="8"/>
              <line x1="132.0" y1="638.0" x2="262.0" y2="638.0" stroke="#7dd3fc" stroke-width="8" stroke-linecap="round"/>
              <path d="M 283.0 870.0 v -52 a 52 52 0 0 0 52 52" fill="none" stroke="#e26f24" stroke-width="4"/>
              <rect x="132.0" y="654.0" width="150.0" height="24" fill="none" stroke="#102033" stroke-width="3"/><circle cx="162.0" cy="698.0" r="12" fill="none" stroke="#e26f24" stroke-width="3"/><circle cx="198.0" cy="698.0" r="12" fill="none" stroke="#e26f24" stroke-width="3"/>
              <text x="504.5" y="744.0" text-anchor="middle" font-size="30" font-weight="800" fill="#102033">مطبخ</text>
              <text x="504.5" y="778.0" text-anchor="middle" font-size="20" fill="#102033">49 م²</text>
            </g>
            
            <g>
              <rect x="899.1" y="630.0" width="450.9" height="240.0" fill="#d9e3ee" stroke="#102033" stroke-width="8"/>
              <line x1="921.1" y1="638.0" x2="1029.3" y2="638.0" stroke="#7dd3fc" stroke-width="8" stroke-linecap="round"/>
              <path d="M 1095.1 870.0 v -52 a 52 52 0 0 0 52 52" fill="none" stroke="#e26f24" stroke-width="4"/>
              <circle cx="944.1" cy="678.0" r="20" fill="none" stroke="#e26f24" stroke-width="4"/><rect x="977.1" y="658.0" width="46" height="38" rx="8" fill="none" stroke="#102033" stroke-width="3"/>
              <text x="1124.5" y="744.0" text-anchor="middle" font-size="30" font-weight="800" fill="#102033">ثلاثة حمامات</text>
              <text x="1124.5" y="778.0" text-anchor="middle" font-size="20" fill="#102033">28 م²</text>
            </g>
            </g>
  <line x1="110" y1="910" x2="1350" y2="910" stroke="#102033" stroke-width="3"/>
  <path d="M110 895v30M1350 895v30" stroke="#102033" stroke-width="3"/>
  <text x="730" y="948" text-anchor="middle" font-size="24" fill="#102033">أبعاد ومساحات تقريبية للتصور فقط</text>
  <path d="M1450 890 v-92 m0 0 -22 35 m22-35 22 35" stroke="#e26f24" stroke-width="7" stroke-linecap="round" stroke-linejoin="round"/>
  <text x="1450" y="936" text-anchor="middle" font-size="24" fill="#102033">شمال</text>
  <rect x="70" y="980" width="1460" height="46" fill="#102033"/>
  <text x="1490" y="1012" text-anchor="end" font-size="20" fill="#ffffff">kamel3lom | مخطط تخيلي غير معتمد هندسيًا</text>
  <text x="110" y="1012" font-size="20" fill="#ffffff">modern-townhouse-0400</text>
</svg>