<svg xmlns="http://www.w3.org/2000/svg" viewBox="0 0 1600 1050" role="img" aria-label="Concept architectural 2D plan">
  <defs>
    <pattern id="grid-modern-villa-1900" width="24" height="24" patternUnits="userSpaceOnUse">
      <path d="M 24 0 L 0 0 0 24" fill="none" stroke="#94a3b8" stroke-width="1" opacity=".18"/>
    </pattern>
  </defs>
  <rect width="1600" height="1050" fill="#f7fafc"/>
  <rect x="70" y="70" width="1460" height="900" fill="url(#grid-modern-villa-1900)" stroke="#102033" stroke-width="3"/>
  <text x="1490" y="118" text-anchor="end" font-size="40" font-weight="900" fill="#102033">مخطط معماري مبدئي - فيلا مودرن</text>
  <text x="1490" y="158" text-anchor="end" font-size="24" fill="#102033">الفئة: 1900-1999 م² | الطوابق: 1-8</text>
  <rect x="118" y="92" width="250" height="24" rx="12" fill="#7dd3fc" opacity=".72"/>
  <g>
            <g>
              <rect x="110.0" y="150.0" width="568.8" height="180.0" fill="#eef3f8" stroke="#102033" stroke-width="8"/>
              <line x1="132.0" y1="158.0" x2="262.0" y2="158.0" stroke="#7dd3fc" stroke-width="8" stroke-linecap="round"/>
              <path d="M 168.0 330.0 v -52 a 52 52 0 0 0 52 52" fill="none" stroke="#e26f24" stroke-width="4"/>
              <rect x="132.0" y="180.0" width="160.0" height="42" rx="10" fill="none" stroke="#102033" stroke-width="3"/><rect x="152.0" y="242.0" width="64" height="36" rx="6" fill="none" stroke="#e26f24" stroke-width="3"/>
              <text x="394.4" y="234.0" text-anchor="middle" font-size="30" font-weight="800" fill="#102033">مجلس كبير</text>
              <text x="394.4" y="268.0" text-anchor="middle" font-size="20" fill="#102033">300 م²</text>
            </g>
            
            <g>
              <rect x="678.8" y="150.0" width="398.2" height="180.0" fill="#f7fafc" stroke="#102033" stroke-width="8"/>
              <line x1="700.8" y1="158.0" x2="796.4" y2="158.0" stroke="#7dd3fc" stroke-width="8" stroke-linecap="round"/>
              <path d="M 759.8 330.0 v -52 a 52 52 0 0 0 52 52" fill="none" stroke="#e26f24" stroke-width="4"/>
              <rect x="700.8" y="180.0" width="120.0" height="62" rx="8" fill="none" stroke="#102033" stroke-width="3"/><line x1="700.8" y1="208.0" x2="820.8" y2="208.0" stroke="#102033" stroke-width="2"/>
              <text x="877.9" y="234.0" text-anchor="middle" font-size="30" font-weight="800" fill="#102033">جناحان</text>
              <text x="877.9" y="268.0" text-anchor="middle" font-size="20" fill="#102033">210 م²</text>
            </g>
            
            <g>
              <rect x="1077.0" y="150.0" width="273.0" height="180.0" fill="#eef3f8" stroke="#102033" stroke-width="8"/>
              <line x1="1099.0" y1="158.0" x2="1164.5" y2="158.0" stroke="#7dd3fc" stroke-width="8" stroke-linecap="round"/>
              <path d="M 1181.0 330.0 v -52 a 52 52 0 0 0 52 52" fill="none" stroke="#e26f24" stroke-width="4"/>
              <rect x="1101.0" y="178.0" width="81.9" height="42" rx="6" fill="none" stroke="#102033" stroke-width="3"/>
              <text x="1213.5" y="234.0" text-anchor="middle" font-size="30" font-weight="800" fill="#102033">فناء</text>
              <text x="1213.5" y="268.0" text-anchor="middle" font-size="20" fill="#102033">144 م²</text>
            </g>
            
            <g>
              <rect x="110.0" y="330.0" width="605.1" height="180.0" fill="#f7fafc" stroke="#102033" stroke-width="8"/>
              <line x1="132.0" y1="338.0" x2="262.0" y2="338.0" stroke="#7dd3fc" stroke-width="8" stroke-linecap="round"/>
              <path d="M 237.0 510.0 v -52 a 52 52 0 0 0 52 52" fill="none" stroke="#e26f24" stroke-width="4"/>
              <rect x="132.0" y="360.0" width="160.0" height="42" rx="10" fill="none" stroke="#102033" stroke-width="3"/><rect x="152.0" y="422.0" width="64" height="36" rx="6" fill="none" stroke="#e26f24" stroke-width="3"/>
              <text x="412.6" y="414.0" text-anchor="middle" font-size="30" font-weight="800" fill="#102033">استقبال</text>
              <text x="412.6" y="448.0" text-anchor="middle" font-size="20" fill="#102033">305 م²</text>
            </g>
            
            <g>
              <rect x="715.1" y="330.0" width="337.3" height="180.0" fill="#eef3f8" stroke="#102033" stroke-width="8"/>
              <line x1="737.1" y1="338.0" x2="818.1" y2="338.0" stroke="#7dd3fc" stroke-width="8" stroke-linecap="round"/>
              <path d="M 865.1 510.0 v -52 a 52 52 0 0 0 52 52" fill="none" stroke="#e26f24" stroke-width="4"/>
              <ellipse cx="809.6" cy="398.4" rx="54" ry="34" fill="none" stroke="#102033" stroke-width="3"/><circle cx="809.6" cy="398.4" r="7" fill="#e26f24"/>
              <text x="883.8" y="414.0" text-anchor="middle" font-size="30" font-weight="800" fill="#102033">طعام</text>
              <text x="883.8" y="448.0" text-anchor="middle" font-size="20" fill="#102033">170 م²</text>
            </g>
            
            <g>
              <rect x="1052.4" y="330.0" width="297.6" height="180.0" fill="#f7fafc" stroke="#102033" stroke-width="8"/>
              <line x1="1074.4" y1="338.0" x2="1145.8" y2="338.0" stroke="#7dd3fc" stroke-width="8" stroke-linecap="round"/>
              <path d="M 1225.4 510.0 v -52 a 52 52 0 0 0 52 52" fill="none" stroke="#e26f24" stroke-width="4"/>
              <rect x="1076.4" y="358.0" width="89.3" height="42" rx="6" fill="none" stroke="#102033" stroke-width="3"/>
              <text x="1201.2" y="414.0" text-anchor="middle" font-size="30" font-weight="800" fill="#102033">تراس</text>
              <text x="1201.2" y="448.0" text-anchor="middle" font-size="20" fill="#102033">150 م²</text>
            </g>
            
            <g>
              <rect x="110.0" y="510.0" width="538.3" height="180.0" fill="#eef3f8" stroke="#102033" stroke-width="8"/>
              <line x1="132.0" y1="518.0" x2="261.2" y2="518.0" stroke="#7dd3fc" stroke-width="8" stroke-linecap="round"/>
              <path d="M 306.0 690.0 v -52 a 52 52 0 0 0 52 52" fill="none" stroke="#e26f24" stroke-width="4"/>
              <rect x="134.0" y="538.0" width="96.0" height="42" rx="6" fill="none" stroke="#102033" stroke-width="3"/>
              <text x="379.1" y="594.0" text-anchor="middle" font-size="30" font-weight="800" fill="#102033">صالتان</text>
              <text x="379.1" y="628.0" text-anchor="middle" font-size="20" fill="#102033">135 م²</text>
            </g>
            
            <g>
              <rect x="648.3" y="510.0" width="701.7" height="180.0" fill="#d9e3ee" stroke="#102033" stroke-width="8"/>
              <line x1="670.3" y1="518.0" x2="800.3" y2="518.0" stroke="#7dd3fc" stroke-width="8" stroke-linecap="round"/>
              <path d="M 867.3 690.0 v -52 a 52 52 0 0 0 52 52" fill="none" stroke="#e26f24" stroke-width="4"/>
              <rect x="670.3" y="534.0" width="150.0" height="24" fill="none" stroke="#102033" stroke-width="3"/><circle cx="700.3" cy="578.0" r="12" fill="none" stroke="#e26f24" stroke-width="3"/><circle cx="736.3" cy="578.0" r="12" fill="none" stroke="#e26f24" stroke-width="3"/>
              <text x="999.1" y="594.0" text-anchor="middle" font-size="30" font-weight="800" fill="#102033">مطبخان</text>
              <text x="999.1" y="628.0" text-anchor="middle" font-size="20" fill="#102033">176 م²</text>
            </g>
            
            <g>
              <rect x="110.0" y="690.0" width="878.8" height="180.0" fill="#eef3f8" stroke="#102033" stroke-width="8"/>
              <line x1="132.0" y1="698.0" x2="262.0" y2="698.0" stroke="#7dd3fc" stroke-width="8" stroke-linecap="round"/>
              <path d="M 352.0 870.0 v -52 a 52 52 0 0 0 52 52" fill="none" stroke="#e26f24" stroke-width="4"/>
              <rect x="132.0" y="720.0" width="120.0" height="62" rx="8" fill="none" stroke="#102033" stroke-width="3"/><line x1="132.0" y1="748.0" x2="252.0" y2="748.0" stroke="#102033" stroke-width="2"/>
              <text x="549.4" y="774.0" text-anchor="middle" font-size="30" font-weight="800" fill="#102033">ست غرف نوم</text>
              <text x="549.4" y="808.0" text-anchor="middle" font-size="20" fill="#102033">219 م²</text>
            </g>
            
            <g>
              <rect x="988.8" y="690.0" width="361.2" height="180.0" fill="#d9e3ee" stroke="#102033" stroke-width="8"/>
              <line x1="1010.8" y1="698.0" x2="1097.5" y2="698.0" stroke="#7dd3fc" stroke-width="8" stroke-linecap="round"/>
              <path d="M 1253.8 870.0 v -52 a 52 52 0 0 0 52 52" fill="none" stroke="#e26f24" stroke-width="4"/>
              <rect x="1012.8" y="718.0" width="96.0" height="42" rx="6" fill="none" stroke="#102033" stroke-width="3"/>
              <text x="1169.4" y="774.0" text-anchor="middle" font-size="30" font-weight="800" fill="#102033">خدمات</text>
              <text x="1169.4" y="808.0" text-anchor="middle" font-size="20" fill="#102033">90 م²</text>
            </g>
            </g>
  <line x1="110" y1="910" x2="1350" y2="910" stroke="#102033" stroke-width="3"/>
  <path d="M110 895v30M1350 895v30" stroke="#102033" stroke-width="3"/>
  <text x="730" y="948" text-anchor="middle" font-size="24" fill="#102033">أبعاد ومساحات تقريبية للتصور فقط</text>
  <path d="M1450 890 v-92 m0 0 -22 35 m22-35 22 35" stroke="#e26f24" stroke-width="7" stroke-linecap="round" stroke-linejoin="round"/>
  <text x="1450" y="936" text-anchor="middle" font-size="24" fill="#102033">شمال</text>
  <rect x="70" y="980" width="1460" height="46" fill="#102033"/>
  <text x="1490" y="1012" text-anchor="end" font-size="20" fill="#ffffff">kamel3lom | مخطط تخيلي غير معتمد هندسيًا</text>
  <text x="110" y="1012" font-size="20" fill="#ffffff">modern-villa-1900</text>
</svg>