<svg xmlns="http://www.w3.org/2000/svg" viewBox="0 0 1600 1050" role="img" aria-label="Concept architectural 2D plan">
  <defs>
    <pattern id="grid-modern-simple_commercial-4600" width="24" height="24" patternUnits="userSpaceOnUse">
      <path d="M 24 0 L 0 0 0 24" fill="none" stroke="#94a3b8" stroke-width="1" opacity=".18"/>
    </pattern>
  </defs>
  <rect width="1600" height="1050" fill="#f7fafc"/>
  <rect x="70" y="70" width="1460" height="900" fill="url(#grid-modern-simple_commercial-4600)" stroke="#102033" stroke-width="3"/>
  <text x="1490" y="118" text-anchor="end" font-size="40" font-weight="900" fill="#102033">مخطط معماري مبدئي - تجاري بسيط مودرن</text>
  <text x="1490" y="158" text-anchor="end" font-size="24" fill="#102033">الفئة: 4600-4699 م² | الطوابق: 1-8</text>
  <rect x="118" y="92" width="250" height="24" rx="12" fill="#7dd3fc" opacity=".72"/>
  <g>
            <g>
              <rect x="110.0" y="150.0" width="701.2" height="240.0" fill="#eef3f8" stroke="#102033" stroke-width="8"/>
              <line x1="132.0" y1="158.0" x2="262.0" y2="158.0" stroke="#7dd3fc" stroke-width="8" stroke-linecap="round"/>
              <path d="M 168.0 390.0 v -52 a 52 52 0 0 0 52 52" fill="none" stroke="#e26f24" stroke-width="4"/>
              <rect x="134.0" y="178.0" width="96.0" height="42" rx="6" fill="none" stroke="#102033" stroke-width="3"/>
              <text x="460.6" y="264.0" text-anchor="middle" font-size="30" font-weight="800" fill="#102033">معرض رئيسي</text>
              <text x="460.6" y="298.0" text-anchor="middle" font-size="20" fill="#102033">1084 م²</text>
            </g>
            
            <g>
              <rect x="811.2" y="150.0" width="214.8" height="240.0" fill="#d9e3ee" stroke="#102033" stroke-width="8"/>
              <line x1="833.2" y1="158.0" x2="884.7" y2="158.0" stroke="#7dd3fc" stroke-width="8" stroke-linecap="round"/>
              <path d="M 892.2 390.0 v -52 a 52 52 0 0 0 52 52" fill="none" stroke="#e26f24" stroke-width="4"/>
              <rect x="835.2" y="178.0" width="64.4" height="42" rx="6" fill="none" stroke="#102033" stroke-width="3"/>
              <text x="918.6" y="264.0" text-anchor="middle" font-size="30" font-weight="800" fill="#102033">خدمات</text>
              <text x="918.6" y="298.0" text-anchor="middle" font-size="20" fill="#102033">332 م²</text>
            </g>
            
            <g>
              <rect x="1025.9" y="150.0" width="324.1" height="240.0" fill="#eef3f8" stroke="#102033" stroke-width="8"/>
              <line x1="1047.9" y1="158.0" x2="1125.7" y2="158.0" stroke="#7dd3fc" stroke-width="8" stroke-linecap="round"/>
              <path d="M 1129.9 390.0 v -52 a 52 52 0 0 0 52 52" fill="none" stroke="#e26f24" stroke-width="4"/>
              <rect x="1049.9" y="178.0" width="96.0" height="42" rx="6" fill="none" stroke="#102033" stroke-width="3"/>
              <text x="1188.0" y="264.0" text-anchor="middle" font-size="30" font-weight="800" fill="#102033">غرفة ميكانيكا</text>
              <text x="1188.0" y="298.0" text-anchor="middle" font-size="20" fill="#102033">501 م²</text>
            </g>
            
            <g>
              <rect x="110.0" y="390.0" width="615.8" height="240.0" fill="#f7fafc" stroke="#102033" stroke-width="8"/>
              <line x1="132.0" y1="398.0" x2="262.0" y2="398.0" stroke="#7dd3fc" stroke-width="8" stroke-linecap="round"/>
              <path d="M 237.0 630.0 v -52 a 52 52 0 0 0 52 52" fill="none" stroke="#e26f24" stroke-width="4"/>
              <rect x="134.0" y="418.0" width="96.0" height="42" rx="6" fill="none" stroke="#102033" stroke-width="3"/>
              <text x="417.9" y="504.0" text-anchor="middle" font-size="30" font-weight="800" fill="#102033">مكاتب متعددة</text>
              <text x="417.9" y="538.0" text-anchor="middle" font-size="20" fill="#102033">508 م²</text>
            </g>
            
            <g>
              <rect x="725.8" y="390.0" width="624.2" height="240.0" fill="#eef3f8" stroke="#102033" stroke-width="8"/>
              <line x1="747.8" y1="398.0" x2="877.8" y2="398.0" stroke="#7dd3fc" stroke-width="8" stroke-linecap="round"/>
              <path d="M 875.8 630.0 v -52 a 52 52 0 0 0 52 52" fill="none" stroke="#e26f24" stroke-width="4"/>
              <rect x="749.8" y="418.0" width="96.0" height="42" rx="6" fill="none" stroke="#102033" stroke-width="3"/>
              <text x="1037.9" y="504.0" text-anchor="middle" font-size="30" font-weight="800" fill="#102033">مخازن</text>
              <text x="1037.9" y="538.0" text-anchor="middle" font-size="20" fill="#102033">515 م²</text>
            </g>
            
            <g>
              <rect x="110.0" y="630.0" width="840.4" height="240.0" fill="#f7fafc" stroke="#102033" stroke-width="8"/>
              <line x1="132.0" y1="638.0" x2="262.0" y2="638.0" stroke="#7dd3fc" stroke-width="8" stroke-linecap="round"/>
              <path d="M 283.0 870.0 v -52 a 52 52 0 0 0 52 52" fill="none" stroke="#e26f24" stroke-width="4"/>
              <rect x="132.0" y="660.0" width="160.0" height="42" rx="10" fill="none" stroke="#102033" stroke-width="3"/><rect x="152.0" y="722.0" width="64" height="36" rx="6" fill="none" stroke="#e26f24" stroke-width="3"/>
              <text x="530.2" y="744.0" text-anchor="middle" font-size="30" font-weight="800" fill="#102033">استقبال</text>
              <text x="530.2" y="778.0" text-anchor="middle" font-size="20" fill="#102033">1125 م²</text>
            </g>
            
            <g>
              <rect x="950.4" y="630.0" width="399.6" height="240.0" fill="#eef3f8" stroke="#102033" stroke-width="8"/>
              <line x1="972.4" y1="638.0" x2="1068.3" y2="638.0" stroke="#7dd3fc" stroke-width="8" stroke-linecap="round"/>
              <path d="M 1146.4 870.0 v -52 a 52 52 0 0 0 52 52" fill="none" stroke="#e26f24" stroke-width="4"/>
              <rect x="974.4" y="658.0" width="96.0" height="42" rx="6" fill="none" stroke="#102033" stroke-width="3"/>
              <text x="1150.2" y="744.0" text-anchor="middle" font-size="30" font-weight="800" fill="#102033">غرفة كهرباء</text>
              <text x="1150.2" y="778.0" text-anchor="middle" font-size="20" fill="#102033">535 م²</text>
            </g>
            </g>
  <line x1="110" y1="910" x2="1350" y2="910" stroke="#102033" stroke-width="3"/>
  <path d="M110 895v30M1350 895v30" stroke="#102033" stroke-width="3"/>
  <text x="730" y="948" text-anchor="middle" font-size="24" fill="#102033">أبعاد ومساحات تقريبية للتصور فقط</text>
  <path d="M1450 890 v-92 m0 0 -22 35 m22-35 22 35" stroke="#e26f24" stroke-width="7" stroke-linecap="round" stroke-linejoin="round"/>
  <text x="1450" y="936" text-anchor="middle" font-size="24" fill="#102033">شمال</text>
  <rect x="70" y="980" width="1460" height="46" fill="#102033"/>
  <text x="1490" y="1012" text-anchor="end" font-size="20" fill="#ffffff">kamel3lom | مخطط تخيلي غير معتمد هندسيًا</text>
  <text x="110" y="1012" font-size="20" fill="#ffffff">modern-simple_commercial-4600</text>
</svg>