<svg xmlns="http://www.w3.org/2000/svg" viewBox="0 0 1600 1050" role="img" aria-label="Concept architectural 2D plan">
  <defs>
    <pattern id="grid-modern-villa-3800" width="24" height="24" patternUnits="userSpaceOnUse">
      <path d="M 24 0 L 0 0 0 24" fill="none" stroke="#94a3b8" stroke-width="1" opacity=".18"/>
    </pattern>
  </defs>
  <rect width="1600" height="1050" fill="#f7fafc"/>
  <rect x="70" y="70" width="1460" height="900" fill="url(#grid-modern-villa-3800)" stroke="#102033" stroke-width="3"/>
  <text x="1490" y="118" text-anchor="end" font-size="40" font-weight="900" fill="#102033">مخطط معماري مبدئي - فيلا مودرن</text>
  <text x="1490" y="158" text-anchor="end" font-size="24" fill="#102033">الفئة: 3800-3899 م² | الطوابق: 1-8</text>
  <rect x="118" y="92" width="250" height="24" rx="12" fill="#7dd3fc" opacity=".72"/>
  <g>
            <g>
              <rect x="110.0" y="150.0" width="560.6" height="180.0" fill="#eef3f8" stroke="#102033" stroke-width="8"/>
              <line x1="132.0" y1="158.0" x2="262.0" y2="158.0" stroke="#7dd3fc" stroke-width="8" stroke-linecap="round"/>
              <path d="M 168.0 330.0 v -52 a 52 52 0 0 0 52 52" fill="none" stroke="#e26f24" stroke-width="4"/>
              <rect x="132.0" y="180.0" width="160.0" height="42" rx="10" fill="none" stroke="#102033" stroke-width="3"/><rect x="152.0" y="242.0" width="64" height="36" rx="6" fill="none" stroke="#e26f24" stroke-width="3"/>
              <text x="390.3" y="234.0" text-anchor="middle" font-size="30" font-weight="800" fill="#102033">مجلس كبير</text>
              <text x="390.3" y="268.0" text-anchor="middle" font-size="20" fill="#102033">590 م²</text>
            </g>
            
            <g>
              <rect x="670.6" y="150.0" width="417.1" height="180.0" fill="#f7fafc" stroke="#102033" stroke-width="8"/>
              <line x1="692.6" y1="158.0" x2="792.7" y2="158.0" stroke="#7dd3fc" stroke-width="8" stroke-linecap="round"/>
              <path d="M 751.6 330.0 v -52 a 52 52 0 0 0 52 52" fill="none" stroke="#e26f24" stroke-width="4"/>
              <rect x="692.6" y="180.0" width="120.0" height="62" rx="8" fill="none" stroke="#102033" stroke-width="3"/><line x1="692.6" y1="208.0" x2="812.6" y2="208.0" stroke="#102033" stroke-width="2"/>
              <text x="879.2" y="234.0" text-anchor="middle" font-size="30" font-weight="800" fill="#102033">جناحان</text>
              <text x="879.2" y="268.0" text-anchor="middle" font-size="20" fill="#102033">439 م²</text>
            </g>
            
            <g>
              <rect x="1087.7" y="150.0" width="262.3" height="180.0" fill="#eef3f8" stroke="#102033" stroke-width="8"/>
              <line x1="1109.7" y1="158.0" x2="1172.7" y2="158.0" stroke="#7dd3fc" stroke-width="8" stroke-linecap="round"/>
              <path d="M 1191.7 330.0 v -52 a 52 52 0 0 0 52 52" fill="none" stroke="#e26f24" stroke-width="4"/>
              <rect x="1111.7" y="178.0" width="78.7" height="42" rx="6" fill="none" stroke="#102033" stroke-width="3"/>
              <text x="1218.9" y="234.0" text-anchor="middle" font-size="30" font-weight="800" fill="#102033">فناء</text>
              <text x="1218.9" y="268.0" text-anchor="middle" font-size="20" fill="#102033">276 م²</text>
            </g>
            
            <g>
              <rect x="110.0" y="330.0" width="598.1" height="180.0" fill="#f7fafc" stroke="#102033" stroke-width="8"/>
              <line x1="132.0" y1="338.0" x2="262.0" y2="338.0" stroke="#7dd3fc" stroke-width="8" stroke-linecap="round"/>
              <path d="M 237.0 510.0 v -52 a 52 52 0 0 0 52 52" fill="none" stroke="#e26f24" stroke-width="4"/>
              <rect x="132.0" y="360.0" width="160.0" height="42" rx="10" fill="none" stroke="#102033" stroke-width="3"/><rect x="152.0" y="422.0" width="64" height="36" rx="6" fill="none" stroke="#e26f24" stroke-width="3"/>
              <text x="409.1" y="414.0" text-anchor="middle" font-size="30" font-weight="800" fill="#102033">استقبال</text>
              <text x="409.1" y="448.0" text-anchor="middle" font-size="20" fill="#102033">601 م²</text>
            </g>
            
            <g>
              <rect x="708.1" y="330.0" width="356.3" height="180.0" fill="#eef3f8" stroke="#102033" stroke-width="8"/>
              <line x1="730.1" y1="338.0" x2="815.6" y2="338.0" stroke="#7dd3fc" stroke-width="8" stroke-linecap="round"/>
              <path d="M 858.1 510.0 v -52 a 52 52 0 0 0 52 52" fill="none" stroke="#e26f24" stroke-width="4"/>
              <ellipse cx="807.9" cy="398.4" rx="54" ry="34" fill="none" stroke="#102033" stroke-width="3"/><circle cx="807.9" cy="398.4" r="7" fill="#e26f24"/>
              <text x="886.2" y="414.0" text-anchor="middle" font-size="30" font-weight="800" fill="#102033">طعام</text>
              <text x="886.2" y="448.0" text-anchor="middle" font-size="20" fill="#102033">358 م²</text>
            </g>
            
            <g>
              <rect x="1064.4" y="330.0" width="285.6" height="180.0" fill="#f7fafc" stroke="#102033" stroke-width="8"/>
              <line x1="1086.4" y1="338.0" x2="1154.9" y2="338.0" stroke="#7dd3fc" stroke-width="8" stroke-linecap="round"/>
              <path d="M 1237.4 510.0 v -52 a 52 52 0 0 0 52 52" fill="none" stroke="#e26f24" stroke-width="4"/>
              <rect x="1088.4" y="358.0" width="85.7" height="42" rx="6" fill="none" stroke="#102033" stroke-width="3"/>
              <text x="1207.2" y="414.0" text-anchor="middle" font-size="30" font-weight="800" fill="#102033">تراس</text>
              <text x="1207.2" y="448.0" text-anchor="middle" font-size="20" fill="#102033">287 م²</text>
            </g>
            
            <g>
              <rect x="110.0" y="510.0" width="568.5" height="180.0" fill="#eef3f8" stroke="#102033" stroke-width="8"/>
              <line x1="132.0" y1="518.0" x2="262.0" y2="518.0" stroke="#7dd3fc" stroke-width="8" stroke-linecap="round"/>
              <path d="M 306.0 690.0 v -52 a 52 52 0 0 0 52 52" fill="none" stroke="#e26f24" stroke-width="4"/>
              <rect x="134.0" y="538.0" width="96.0" height="42" rx="6" fill="none" stroke="#102033" stroke-width="3"/>
              <text x="394.2" y="594.0" text-anchor="middle" font-size="30" font-weight="800" fill="#102033">صالتان</text>
              <text x="394.2" y="628.0" text-anchor="middle" font-size="20" fill="#102033">287 م²</text>
            </g>
            
            <g>
              <rect x="678.5" y="510.0" width="671.5" height="180.0" fill="#d9e3ee" stroke="#102033" stroke-width="8"/>
              <line x1="700.5" y1="518.0" x2="830.5" y2="518.0" stroke="#7dd3fc" stroke-width="8" stroke-linecap="round"/>
              <path d="M 897.5 690.0 v -52 a 52 52 0 0 0 52 52" fill="none" stroke="#e26f24" stroke-width="4"/>
              <rect x="700.5" y="534.0" width="150.0" height="24" fill="none" stroke="#102033" stroke-width="3"/><circle cx="730.5" cy="578.0" r="12" fill="none" stroke="#e26f24" stroke-width="3"/><circle cx="766.5" cy="578.0" r="12" fill="none" stroke="#e26f24" stroke-width="3"/>
              <text x="1014.2" y="594.0" text-anchor="middle" font-size="30" font-weight="800" fill="#102033">مطبخان</text>
              <text x="1014.2" y="628.0" text-anchor="middle" font-size="20" fill="#102033">339 م²</text>
            </g>
            
            <g>
              <rect x="110.0" y="690.0" width="851.9" height="180.0" fill="#eef3f8" stroke="#102033" stroke-width="8"/>
              <line x1="132.0" y1="698.0" x2="262.0" y2="698.0" stroke="#7dd3fc" stroke-width="8" stroke-linecap="round"/>
              <path d="M 352.0 870.0 v -52 a 52 52 0 0 0 52 52" fill="none" stroke="#e26f24" stroke-width="4"/>
              <rect x="132.0" y="720.0" width="120.0" height="62" rx="8" fill="none" stroke="#102033" stroke-width="3"/><line x1="132.0" y1="748.0" x2="252.0" y2="748.0" stroke="#102033" stroke-width="2"/>
              <text x="535.9" y="774.0" text-anchor="middle" font-size="30" font-weight="800" fill="#102033">ست غرف نوم</text>
              <text x="535.9" y="808.0" text-anchor="middle" font-size="20" fill="#102033">428 م²</text>
            </g>
            
            <g>
              <rect x="961.9" y="690.0" width="388.1" height="180.0" fill="#d9e3ee" stroke="#102033" stroke-width="8"/>
              <line x1="983.9" y1="698.0" x2="1077.0" y2="698.0" stroke="#7dd3fc" stroke-width="8" stroke-linecap="round"/>
              <path d="M 1226.9 870.0 v -52 a 52 52 0 0 0 52 52" fill="none" stroke="#e26f24" stroke-width="4"/>
              <rect x="985.9" y="718.0" width="96.0" height="42" rx="6" fill="none" stroke="#102033" stroke-width="3"/>
              <text x="1155.9" y="774.0" text-anchor="middle" font-size="30" font-weight="800" fill="#102033">خدمات</text>
              <text x="1155.9" y="808.0" text-anchor="middle" font-size="20" fill="#102033">195 م²</text>
            </g>
            </g>
  <line x1="110" y1="910" x2="1350" y2="910" stroke="#102033" stroke-width="3"/>
  <path d="M110 895v30M1350 895v30" stroke="#102033" stroke-width="3"/>
  <text x="730" y="948" text-anchor="middle" font-size="24" fill="#102033">أبعاد ومساحات تقريبية للتصور فقط</text>
  <path d="M1450 890 v-92 m0 0 -22 35 m22-35 22 35" stroke="#e26f24" stroke-width="7" stroke-linecap="round" stroke-linejoin="round"/>
  <text x="1450" y="936" text-anchor="middle" font-size="24" fill="#102033">شمال</text>
  <rect x="70" y="980" width="1460" height="46" fill="#102033"/>
  <text x="1490" y="1012" text-anchor="end" font-size="20" fill="#ffffff">kamel3lom | مخطط تخيلي غير معتمد هندسيًا</text>
  <text x="110" y="1012" font-size="20" fill="#ffffff">modern-villa-3800</text>
</svg>