<svg xmlns="http://www.w3.org/2000/svg" viewBox="0 0 1600 1050" role="img" aria-label="Concept architectural 2D plan">
  <defs>
    <pattern id="grid-modern-apartment-0500" width="24" height="24" patternUnits="userSpaceOnUse">
      <path d="M 24 0 L 0 0 0 24" fill="none" stroke="#94a3b8" stroke-width="1" opacity=".18"/>
    </pattern>
  </defs>
  <rect width="1600" height="1050" fill="#f7fafc"/>
  <rect x="70" y="70" width="1460" height="900" fill="url(#grid-modern-apartment-0500)" stroke="#102033" stroke-width="3"/>
  <text x="1490" y="118" text-anchor="end" font-size="40" font-weight="900" fill="#102033">مخطط معماري مبدئي - شقة مودرن</text>
  <text x="1490" y="158" text-anchor="end" font-size="24" fill="#102033">الفئة: 500-599 م² | الطوابق: 1-3</text>
  <rect x="118" y="92" width="250" height="24" rx="12" fill="#7dd3fc" opacity=".72"/>
  <g>
            <g>
              <rect x="110.0" y="150.0" width="935.7" height="240.0" fill="#eef3f8" stroke="#102033" stroke-width="8"/>
              <line x1="132.0" y1="158.0" x2="262.0" y2="158.0" stroke="#7dd3fc" stroke-width="8" stroke-linecap="round"/>
              <path d="M 168.0 390.0 v -52 a 52 52 0 0 0 52 52" fill="none" stroke="#e26f24" stroke-width="4"/>
              <rect x="132.0" y="180.0" width="160.0" height="42" rx="10" fill="none" stroke="#102033" stroke-width="3"/><rect x="152.0" y="242.0" width="64" height="36" rx="6" fill="none" stroke="#e26f24" stroke-width="3"/>
              <text x="577.9" y="264.0" text-anchor="middle" font-size="30" font-weight="800" fill="#102033">معيشة</text>
              <text x="577.9" y="298.0" text-anchor="middle" font-size="20" fill="#102033">123 م²</text>
            </g>
            
            <g>
              <rect x="1045.7" y="150.0" width="304.3" height="240.0" fill="#d9e3ee" stroke="#102033" stroke-width="8"/>
              <line x1="1067.7" y1="158.0" x2="1140.7" y2="158.0" stroke="#7dd3fc" stroke-width="8" stroke-linecap="round"/>
              <path d="M 1126.7 390.0 v -52 a 52 52 0 0 0 52 52" fill="none" stroke="#e26f24" stroke-width="4"/>
              <circle cx="1090.7" cy="198.0" r="20" fill="none" stroke="#e26f24" stroke-width="4"/><rect x="1123.7" y="178.0" width="46" height="38" rx="8" fill="none" stroke="#102033" stroke-width="3"/>
              <text x="1197.9" y="264.0" text-anchor="middle" font-size="30" font-weight="800" fill="#102033">حمامان</text>
              <text x="1197.9" y="298.0" text-anchor="middle" font-size="20" fill="#102033">40 م²</text>
            </g>
            
            <g>
              <rect x="110.0" y="390.0" width="534.8" height="240.0" fill="#eef3f8" stroke="#102033" stroke-width="8"/>
              <line x1="132.0" y1="398.0" x2="260.3" y2="398.0" stroke="#7dd3fc" stroke-width="8" stroke-linecap="round"/>
              <path d="M 214.0 630.0 v -52 a 52 52 0 0 0 52 52" fill="none" stroke="#e26f24" stroke-width="4"/>
              <rect x="132.0" y="420.0" width="120.0" height="62" rx="8" fill="none" stroke="#102033" stroke-width="3"/><line x1="132.0" y1="448.0" x2="252.0" y2="448.0" stroke="#102033" stroke-width="2"/>
              <text x="377.4" y="504.0" text-anchor="middle" font-size="30" font-weight="800" fill="#102033">ثلاث غرف نوم</text>
              <text x="377.4" y="538.0" text-anchor="middle" font-size="20" fill="#102033">91 م²</text>
            </g>
            
            <g>
              <rect x="644.8" y="390.0" width="705.2" height="240.0" fill="#f7fafc" stroke="#102033" stroke-width="8"/>
              <line x1="666.8" y1="398.0" x2="796.8" y2="398.0" stroke="#7dd3fc" stroke-width="8" stroke-linecap="round"/>
              <path d="M 771.8 630.0 v -52 a 52 52 0 0 0 52 52" fill="none" stroke="#e26f24" stroke-width="4"/>
              <rect x="666.8" y="420.0" width="160.0" height="42" rx="10" fill="none" stroke="#102033" stroke-width="3"/><rect x="686.8" y="482.0" width="64" height="36" rx="6" fill="none" stroke="#e26f24" stroke-width="3"/>
              <text x="997.4" y="504.0" text-anchor="middle" font-size="30" font-weight="800" fill="#102033">مجلس</text>
              <text x="997.4" y="538.0" text-anchor="middle" font-size="20" fill="#102033">120 م²</text>
            </g>
            
            <g>
              <rect x="110.0" y="630.0" width="673.7" height="240.0" fill="#d9e3ee" stroke="#102033" stroke-width="8"/>
              <line x1="132.0" y1="638.0" x2="262.0" y2="638.0" stroke="#7dd3fc" stroke-width="8" stroke-linecap="round"/>
              <path d="M 260.0 870.0 v -52 a 52 52 0 0 0 52 52" fill="none" stroke="#e26f24" stroke-width="4"/>
              <rect x="132.0" y="654.0" width="150.0" height="24" fill="none" stroke="#102033" stroke-width="3"/><circle cx="162.0" cy="698.0" r="12" fill="none" stroke="#e26f24" stroke-width="3"/><circle cx="198.0" cy="698.0" r="12" fill="none" stroke="#e26f24" stroke-width="3"/>
              <text x="446.9" y="744.0" text-anchor="middle" font-size="30" font-weight="800" fill="#102033">مطبخ</text>
              <text x="446.9" y="778.0" text-anchor="middle" font-size="20" fill="#102033">69 م²</text>
            </g>
            
            <g>
              <rect x="783.7" y="630.0" width="566.3" height="240.0" fill="#f7fafc" stroke="#102033" stroke-width="8"/>
              <line x1="805.7" y1="638.0" x2="935.7" y2="638.0" stroke="#7dd3fc" stroke-width="8" stroke-linecap="round"/>
              <path d="M 956.7 870.0 v -52 a 52 52 0 0 0 52 52" fill="none" stroke="#e26f24" stroke-width="4"/>
              <rect x="807.7" y="658.0" width="96.0" height="42" rx="6" fill="none" stroke="#102033" stroke-width="3"/>
              <text x="1066.9" y="744.0" text-anchor="middle" font-size="30" font-weight="800" fill="#102033">شرفة</text>
              <text x="1066.9" y="778.0" text-anchor="middle" font-size="20" fill="#102033">58 م²</text>
            </g>
            </g>
  <line x1="110" y1="910" x2="1350" y2="910" stroke="#102033" stroke-width="3"/>
  <path d="M110 895v30M1350 895v30" stroke="#102033" stroke-width="3"/>
  <text x="730" y="948" text-anchor="middle" font-size="24" fill="#102033">أبعاد ومساحات تقريبية للتصور فقط</text>
  <path d="M1450 890 v-92 m0 0 -22 35 m22-35 22 35" stroke="#e26f24" stroke-width="7" stroke-linecap="round" stroke-linejoin="round"/>
  <text x="1450" y="936" text-anchor="middle" font-size="24" fill="#102033">شمال</text>
  <rect x="70" y="980" width="1460" height="46" fill="#102033"/>
  <text x="1490" y="1012" text-anchor="end" font-size="20" fill="#ffffff">kamel3lom | مخطط تخيلي غير معتمد هندسيًا</text>
  <text x="110" y="1012" font-size="20" fill="#ffffff">modern-apartment-0500</text>
</svg>