<svg xmlns="http://www.w3.org/2000/svg" viewBox="0 0 1600 1050" role="img" aria-label="Concept architectural 2D plan">
  <defs>
    <pattern id="grid-modern-simple_commercial-0300" width="24" height="24" patternUnits="userSpaceOnUse">
      <path d="M 24 0 L 0 0 0 24" fill="none" stroke="#94a3b8" stroke-width="1" opacity=".18"/>
    </pattern>
  </defs>
  <rect width="1600" height="1050" fill="#f7fafc"/>
  <rect x="70" y="70" width="1460" height="900" fill="url(#grid-modern-simple_commercial-0300)" stroke="#102033" stroke-width="3"/>
  <text x="1490" y="118" text-anchor="end" font-size="40" font-weight="900" fill="#102033">مخطط معماري مبدئي - تجاري بسيط مودرن</text>
  <text x="1490" y="158" text-anchor="end" font-size="24" fill="#102033">الفئة: 300-399 م² | الطوابق: 1-3</text>
  <rect x="118" y="92" width="250" height="24" rx="12" fill="#7dd3fc" opacity=".72"/>
  <g>
            <g>
              <rect x="110.0" y="150.0" width="544.4" height="360.0" fill="#eef3f8" stroke="#102033" stroke-width="8"/>
              <line x1="132.0" y1="158.0" x2="262.0" y2="158.0" stroke="#7dd3fc" stroke-width="8" stroke-linecap="round"/>
              <path d="M 168.0 510.0 v -52 a 52 52 0 0 0 52 52" fill="none" stroke="#e26f24" stroke-width="4"/>
              <rect x="134.0" y="178.0" width="96.0" height="42" rx="6" fill="none" stroke="#102033" stroke-width="3"/>
              <text x="382.2" y="324.0" text-anchor="middle" font-size="30" font-weight="800" fill="#102033">معرض</text>
              <text x="382.2" y="358.0" text-anchor="middle" font-size="20" fill="#102033">90 م²</text>
            </g>
            
            <g>
              <rect x="654.4" y="150.0" width="538.3" height="360.0" fill="#f7fafc" stroke="#102033" stroke-width="8"/>
              <line x1="676.4" y1="158.0" x2="805.6" y2="158.0" stroke="#7dd3fc" stroke-width="8" stroke-linecap="round"/>
              <path d="M 735.4 510.0 v -52 a 52 52 0 0 0 52 52" fill="none" stroke="#e26f24" stroke-width="4"/>
              <rect x="676.4" y="180.0" width="160.0" height="42" rx="10" fill="none" stroke="#102033" stroke-width="3"/><rect x="696.4" y="242.0" width="64" height="36" rx="6" fill="none" stroke="#e26f24" stroke-width="3"/>
              <text x="923.6" y="324.0" text-anchor="middle" font-size="30" font-weight="800" fill="#102033">استقبال</text>
              <text x="923.6" y="358.0" text-anchor="middle" font-size="20" fill="#102033">89 م²</text>
            </g>
            
            <g>
              <rect x="1192.7" y="150.0" width="157.3" height="360.0" fill="#eef3f8" stroke="#102033" stroke-width="8"/>
              <line x1="1214.7" y1="158.0" x2="1256.7" y2="158.0" stroke="#7dd3fc" stroke-width="8" stroke-linecap="round"/>
              <path d="M 1296.7 510.0 v -52 a 52 52 0 0 0 52 52" fill="none" stroke="#e26f24" stroke-width="4"/>
              <rect x="1216.7" y="178.0" width="47.2" height="42" rx="6" fill="none" stroke="#102033" stroke-width="3"/>
              <text x="1271.4" y="324.0" text-anchor="middle" font-size="30" font-weight="800" fill="#102033">مخزن</text>
              <text x="1271.4" y="358.0" text-anchor="middle" font-size="20" fill="#102033">26 م²</text>
            </g>
            
            <g>
              <rect x="110.0" y="510.0" width="865.4" height="360.0" fill="#f7fafc" stroke="#102033" stroke-width="8"/>
              <line x1="132.0" y1="518.0" x2="262.0" y2="518.0" stroke="#7dd3fc" stroke-width="8" stroke-linecap="round"/>
              <path d="M 237.0 870.0 v -52 a 52 52 0 0 0 52 52" fill="none" stroke="#e26f24" stroke-width="4"/>
              <rect x="134.0" y="538.0" width="96.0" height="42" rx="6" fill="none" stroke="#102033" stroke-width="3"/>
              <text x="542.7" y="684.0" text-anchor="middle" font-size="30" font-weight="800" fill="#102033">مكتب</text>
              <text x="542.7" y="718.0" text-anchor="middle" font-size="20" fill="#102033">67 م²</text>
            </g>
            
            <g>
              <rect x="975.4" y="510.0" width="374.6" height="360.0" fill="#d9e3ee" stroke="#102033" stroke-width="8"/>
              <line x1="997.4" y1="518.0" x2="1087.3" y2="518.0" stroke="#7dd3fc" stroke-width="8" stroke-linecap="round"/>
              <path d="M 1125.4 870.0 v -52 a 52 52 0 0 0 52 52" fill="none" stroke="#e26f24" stroke-width="4"/>
              <circle cx="1020.4" cy="558.0" r="20" fill="none" stroke="#e26f24" stroke-width="4"/><rect x="1053.4" y="538.0" width="46" height="38" rx="8" fill="none" stroke="#102033" stroke-width="3"/>
              <text x="1162.7" y="684.0" text-anchor="middle" font-size="30" font-weight="800" fill="#102033">حمامان</text>
              <text x="1162.7" y="718.0" text-anchor="middle" font-size="20" fill="#102033">29 م²</text>
            </g>
            </g>
  <line x1="110" y1="910" x2="1350" y2="910" stroke="#102033" stroke-width="3"/>
  <path d="M110 895v30M1350 895v30" stroke="#102033" stroke-width="3"/>
  <text x="730" y="948" text-anchor="middle" font-size="24" fill="#102033">أبعاد ومساحات تقريبية للتصور فقط</text>
  <path d="M1450 890 v-92 m0 0 -22 35 m22-35 22 35" stroke="#e26f24" stroke-width="7" stroke-linecap="round" stroke-linejoin="round"/>
  <text x="1450" y="936" text-anchor="middle" font-size="24" fill="#102033">شمال</text>
  <rect x="70" y="980" width="1460" height="46" fill="#102033"/>
  <text x="1490" y="1012" text-anchor="end" font-size="20" fill="#ffffff">kamel3lom | مخطط تخيلي غير معتمد هندسيًا</text>
  <text x="110" y="1012" font-size="20" fill="#ffffff">modern-simple_commercial-0300</text>
</svg>