<svg xmlns="http://www.w3.org/2000/svg" viewBox="0 0 1600 1050" role="img" aria-label="Concept architectural 2D plan">
  <defs>
    <pattern id="grid-modern-townhouse-2800" width="24" height="24" patternUnits="userSpaceOnUse">
      <path d="M 24 0 L 0 0 0 24" fill="none" stroke="#94a3b8" stroke-width="1" opacity=".18"/>
    </pattern>
  </defs>
  <rect width="1600" height="1050" fill="#f7fafc"/>
  <rect x="70" y="70" width="1460" height="900" fill="url(#grid-modern-townhouse-2800)" stroke="#102033" stroke-width="3"/>
  <text x="1490" y="118" text-anchor="end" font-size="40" font-weight="900" fill="#102033">مخطط معماري مبدئي - تاون هاوس مودرن</text>
  <text x="1490" y="158" text-anchor="end" font-size="24" fill="#102033">الفئة: 2800-2899 م² | الطوابق: 1-8</text>
  <rect x="118" y="92" width="250" height="24" rx="12" fill="#7dd3fc" opacity=".72"/>
  <g>
            <g>
              <rect x="110.0" y="150.0" width="659.5" height="240.0" fill="#eef3f8" stroke="#102033" stroke-width="8"/>
              <line x1="132.0" y1="158.0" x2="262.0" y2="158.0" stroke="#7dd3fc" stroke-width="8" stroke-linecap="round"/>
              <path d="M 168.0 390.0 v -52 a 52 52 0 0 0 52 52" fill="none" stroke="#e26f24" stroke-width="4"/>
              <rect x="132.0" y="180.0" width="160.0" height="42" rx="10" fill="none" stroke="#102033" stroke-width="3"/><rect x="152.0" y="242.0" width="64" height="36" rx="6" fill="none" stroke="#e26f24" stroke-width="3"/>
              <text x="439.8" y="264.0" text-anchor="middle" font-size="30" font-weight="800" fill="#102033">معيشة كبيرة</text>
              <text x="439.8" y="298.0" text-anchor="middle" font-size="20" fill="#102033">509 م²</text>
            </g>
            
            <g>
              <rect x="769.5" y="150.0" width="374.5" height="240.0" fill="#d9e3ee" stroke="#102033" stroke-width="8"/>
              <line x1="791.5" y1="158.0" x2="881.4" y2="158.0" stroke="#7dd3fc" stroke-width="8" stroke-linecap="round"/>
              <path d="M 850.5 390.0 v -52 a 52 52 0 0 0 52 52" fill="none" stroke="#e26f24" stroke-width="4"/>
              <rect x="791.5" y="174.0" width="150.0" height="24" fill="none" stroke="#102033" stroke-width="3"/><circle cx="821.5" cy="218.0" r="12" fill="none" stroke="#e26f24" stroke-width="3"/><circle cx="857.5" cy="218.0" r="12" fill="none" stroke="#e26f24" stroke-width="3"/>
              <text x="956.8" y="264.0" text-anchor="middle" font-size="30" font-weight="800" fill="#102033">مطبخ</text>
              <text x="956.8" y="298.0" text-anchor="middle" font-size="20" fill="#102033">289 م²</text>
            </g>
            
            <g>
              <rect x="1144.0" y="150.0" width="206.0" height="240.0" fill="#d9e3ee" stroke="#102033" stroke-width="8"/>
              <line x1="1166.0" y1="158.0" x2="1215.4" y2="158.0" stroke="#7dd3fc" stroke-width="8" stroke-linecap="round"/>
              <path d="M 1248.0 390.0 v -52 a 52 52 0 0 0 52 52" fill="none" stroke="#e26f24" stroke-width="4"/>
              <rect x="1168.0" y="178.0" width="61.8" height="42" rx="6" fill="none" stroke="#102033" stroke-width="3"/>
              <text x="1247.0" y="264.0" text-anchor="middle" font-size="30" font-weight="800" fill="#102033">خدمات</text>
              <text x="1247.0" y="298.0" text-anchor="middle" font-size="20" fill="#102033">159 م²</text>
            </g>
            
            <g>
              <rect x="110.0" y="390.0" width="558.5" height="240.0" fill="#f7fafc" stroke="#102033" stroke-width="8"/>
              <line x1="132.0" y1="398.0" x2="262.0" y2="398.0" stroke="#7dd3fc" stroke-width="8" stroke-linecap="round"/>
              <path d="M 237.0 630.0 v -52 a 52 52 0 0 0 52 52" fill="none" stroke="#e26f24" stroke-width="4"/>
              <rect x="132.0" y="420.0" width="160.0" height="42" rx="10" fill="none" stroke="#102033" stroke-width="3"/><rect x="152.0" y="482.0" width="64" height="36" rx="6" fill="none" stroke="#e26f24" stroke-width="3"/>
              <text x="389.3" y="504.0" text-anchor="middle" font-size="30" font-weight="800" fill="#102033">مجلس</text>
              <text x="389.3" y="538.0" text-anchor="middle" font-size="20" fill="#102033">518 م²</text>
            </g>
            
            <g>
              <rect x="668.5" y="390.0" width="407.6" height="240.0" fill="#eef3f8" stroke="#102033" stroke-width="8"/>
              <line x1="690.5" y1="398.0" x2="788.4" y2="398.0" stroke="#7dd3fc" stroke-width="8" stroke-linecap="round"/>
              <path d="M 818.5 630.0 v -52 a 52 52 0 0 0 52 52" fill="none" stroke="#e26f24" stroke-width="4"/>
              <rect x="690.5" y="420.0" width="120.0" height="62" rx="8" fill="none" stroke="#102033" stroke-width="3"/><line x1="690.5" y1="448.0" x2="810.5" y2="448.0" stroke="#102033" stroke-width="2"/>
              <text x="872.3" y="504.0" text-anchor="middle" font-size="30" font-weight="800" fill="#102033">خمس غرف نوم</text>
              <text x="872.3" y="538.0" text-anchor="middle" font-size="20" fill="#102033">378 م²</text>
            </g>
            
            <g>
              <rect x="1076.1" y="390.0" width="273.9" height="240.0" fill="#f7fafc" stroke="#102033" stroke-width="8"/>
              <line x1="1098.1" y1="398.0" x2="1163.9" y2="398.0" stroke="#7dd3fc" stroke-width="8" stroke-linecap="round"/>
              <path d="M 1249.1 630.0 v -52 a 52 52 0 0 0 52 52" fill="none" stroke="#e26f24" stroke-width="4"/>
              <rect x="1100.1" y="418.0" width="82.2" height="42" rx="6" fill="none" stroke="#102033" stroke-width="3"/>
              <text x="1213.1" y="504.0" text-anchor="middle" font-size="30" font-weight="800" fill="#102033">تراس</text>
              <text x="1213.1" y="538.0" text-anchor="middle" font-size="20" fill="#102033">254 م²</text>
            </g>
            
            <g>
              <rect x="110.0" y="630.0" width="545.7" height="240.0" fill="#eef3f8" stroke="#102033" stroke-width="8"/>
              <line x1="132.0" y1="638.0" x2="262.0" y2="638.0" stroke="#7dd3fc" stroke-width="8" stroke-linecap="round"/>
              <path d="M 306.0 870.0 v -52 a 52 52 0 0 0 52 52" fill="none" stroke="#e26f24" stroke-width="4"/>
              <ellipse cx="262.8" cy="721.2" rx="54" ry="34" fill="none" stroke="#102033" stroke-width="3"/><circle cx="262.8" cy="721.2" r="7" fill="#e26f24"/>
              <text x="382.9" y="744.0" text-anchor="middle" font-size="30" font-weight="800" fill="#102033">طعام</text>
              <text x="382.9" y="778.0" text-anchor="middle" font-size="20" fill="#102033">305 م²</text>
            </g>
            
            <g>
              <rect x="655.7" y="630.0" width="694.3" height="240.0" fill="#f7fafc" stroke="#102033" stroke-width="8"/>
              <line x1="677.7" y1="638.0" x2="807.7" y2="638.0" stroke="#7dd3fc" stroke-width="8" stroke-linecap="round"/>
              <path d="M 874.7 870.0 v -52 a 52 52 0 0 0 52 52" fill="none" stroke="#e26f24" stroke-width="4"/>
              <rect x="677.7" y="660.0" width="120.0" height="62" rx="8" fill="none" stroke="#102033" stroke-width="3"/><line x1="677.7" y1="688.0" x2="797.7" y2="688.0" stroke="#102033" stroke-width="2"/>
              <text x="1002.9" y="744.0" text-anchor="middle" font-size="30" font-weight="800" fill="#102033">جناحان</text>
              <text x="1002.9" y="778.0" text-anchor="middle" font-size="20" fill="#102033">388 م²</text>
            </g>
            </g>
  <line x1="110" y1="910" x2="1350" y2="910" stroke="#102033" stroke-width="3"/>
  <path d="M110 895v30M1350 895v30" stroke="#102033" stroke-width="3"/>
  <text x="730" y="948" text-anchor="middle" font-size="24" fill="#102033">أبعاد ومساحات تقريبية للتصور فقط</text>
  <path d="M1450 890 v-92 m0 0 -22 35 m22-35 22 35" stroke="#e26f24" stroke-width="7" stroke-linecap="round" stroke-linejoin="round"/>
  <text x="1450" y="936" text-anchor="middle" font-size="24" fill="#102033">شمال</text>
  <rect x="70" y="980" width="1460" height="46" fill="#102033"/>
  <text x="1490" y="1012" text-anchor="end" font-size="20" fill="#ffffff">kamel3lom | مخطط تخيلي غير معتمد هندسيًا</text>
  <text x="110" y="1012" font-size="20" fill="#ffffff">modern-townhouse-2800</text>
</svg>