<svg xmlns="http://www.w3.org/2000/svg" viewBox="0 0 1600 1050" role="img" aria-label="Concept architectural 2D plan">
  <defs>
    <pattern id="grid-modern-townhouse-0900" width="24" height="24" patternUnits="userSpaceOnUse">
      <path d="M 24 0 L 0 0 0 24" fill="none" stroke="#94a3b8" stroke-width="1" opacity=".18"/>
    </pattern>
  </defs>
  <rect width="1600" height="1050" fill="#f7fafc"/>
  <rect x="70" y="70" width="1460" height="900" fill="url(#grid-modern-townhouse-0900)" stroke="#102033" stroke-width="3"/>
  <text x="1490" y="118" text-anchor="end" font-size="40" font-weight="900" fill="#102033">مخطط معماري مبدئي - تاون هاوس مودرن</text>
  <text x="1490" y="158" text-anchor="end" font-size="24" fill="#102033">الفئة: 900-999 م² | الطوابق: 1-4</text>
  <rect x="118" y="92" width="250" height="24" rx="12" fill="#7dd3fc" opacity=".72"/>
  <g>
            <g>
              <rect x="110.0" y="150.0" width="651.0" height="240.0" fill="#eef3f8" stroke="#102033" stroke-width="8"/>
              <line x1="132.0" y1="158.0" x2="262.0" y2="158.0" stroke="#7dd3fc" stroke-width="8" stroke-linecap="round"/>
              <path d="M 168.0 390.0 v -52 a 52 52 0 0 0 52 52" fill="none" stroke="#e26f24" stroke-width="4"/>
              <rect x="132.0" y="180.0" width="160.0" height="42" rx="10" fill="none" stroke="#102033" stroke-width="3"/><rect x="152.0" y="242.0" width="64" height="36" rx="6" fill="none" stroke="#e26f24" stroke-width="3"/>
              <text x="435.5" y="264.0" text-anchor="middle" font-size="30" font-weight="800" fill="#102033">معيشة</text>
              <text x="435.5" y="298.0" text-anchor="middle" font-size="20" fill="#102033">168 م²</text>
            </g>
            
            <g>
              <rect x="761.0" y="150.0" width="375.9" height="240.0" fill="#d9e3ee" stroke="#102033" stroke-width="8"/>
              <line x1="783.0" y1="158.0" x2="873.2" y2="158.0" stroke="#7dd3fc" stroke-width="8" stroke-linecap="round"/>
              <path d="M 842.0 390.0 v -52 a 52 52 0 0 0 52 52" fill="none" stroke="#e26f24" stroke-width="4"/>
              <rect x="783.0" y="174.0" width="150.0" height="24" fill="none" stroke="#102033" stroke-width="3"/><circle cx="813.0" cy="218.0" r="12" fill="none" stroke="#e26f24" stroke-width="3"/><circle cx="849.0" cy="218.0" r="12" fill="none" stroke="#e26f24" stroke-width="3"/>
              <text x="948.9" y="264.0" text-anchor="middle" font-size="30" font-weight="800" fill="#102033">مطبخ</text>
              <text x="948.9" y="298.0" text-anchor="middle" font-size="20" fill="#102033">97 م²</text>
            </g>
            
            <g>
              <rect x="1136.9" y="150.0" width="213.1" height="240.0" fill="#d9e3ee" stroke="#102033" stroke-width="8"/>
              <line x1="1158.9" y1="158.0" x2="1210.0" y2="158.0" stroke="#7dd3fc" stroke-width="8" stroke-linecap="round"/>
              <path d="M 1240.9 390.0 v -52 a 52 52 0 0 0 52 52" fill="none" stroke="#e26f24" stroke-width="4"/>
              <rect x="1160.9" y="178.0" width="63.9" height="42" rx="6" fill="none" stroke="#102033" stroke-width="3"/>
              <text x="1243.4" y="264.0" text-anchor="middle" font-size="30" font-weight="800" fill="#102033">خدمات</text>
              <text x="1243.4" y="298.0" text-anchor="middle" font-size="20" fill="#102033">55 م²</text>
            </g>
            
            <g>
              <rect x="110.0" y="390.0" width="579.3" height="240.0" fill="#f7fafc" stroke="#102033" stroke-width="8"/>
              <line x1="132.0" y1="398.0" x2="262.0" y2="398.0" stroke="#7dd3fc" stroke-width="8" stroke-linecap="round"/>
              <path d="M 237.0 630.0 v -52 a 52 52 0 0 0 52 52" fill="none" stroke="#e26f24" stroke-width="4"/>
              <rect x="132.0" y="420.0" width="160.0" height="42" rx="10" fill="none" stroke="#102033" stroke-width="3"/><rect x="152.0" y="482.0" width="64" height="36" rx="6" fill="none" stroke="#e26f24" stroke-width="3"/>
              <text x="399.7" y="504.0" text-anchor="middle" font-size="30" font-weight="800" fill="#102033">مجلس</text>
              <text x="399.7" y="538.0" text-anchor="middle" font-size="20" fill="#102033">171 م²</text>
            </g>
            
            <g>
              <rect x="689.3" y="390.0" width="396.4" height="240.0" fill="#eef3f8" stroke="#102033" stroke-width="8"/>
              <line x1="711.3" y1="398.0" x2="806.5" y2="398.0" stroke="#7dd3fc" stroke-width="8" stroke-linecap="round"/>
              <path d="M 839.3 630.0 v -52 a 52 52 0 0 0 52 52" fill="none" stroke="#e26f24" stroke-width="4"/>
              <rect x="711.3" y="420.0" width="120.0" height="62" rx="8" fill="none" stroke="#102033" stroke-width="3"/><line x1="711.3" y1="448.0" x2="831.3" y2="448.0" stroke="#102033" stroke-width="2"/>
              <text x="887.5" y="504.0" text-anchor="middle" font-size="30" font-weight="800" fill="#102033">أربع غرف نوم</text>
              <text x="887.5" y="538.0" text-anchor="middle" font-size="20" fill="#102033">117 م²</text>
            </g>
            
            <g>
              <rect x="1085.7" y="390.0" width="264.3" height="240.0" fill="#f7fafc" stroke="#102033" stroke-width="8"/>
              <line x1="1107.7" y1="398.0" x2="1171.2" y2="398.0" stroke="#7dd3fc" stroke-width="8" stroke-linecap="round"/>
              <path d="M 1258.7 630.0 v -52 a 52 52 0 0 0 52 52" fill="none" stroke="#e26f24" stroke-width="4"/>
              <rect x="1109.7" y="418.0" width="79.3" height="42" rx="6" fill="none" stroke="#102033" stroke-width="3"/>
              <text x="1217.9" y="504.0" text-anchor="middle" font-size="30" font-weight="800" fill="#102033">تراس</text>
              <text x="1217.9" y="538.0" text-anchor="middle" font-size="20" fill="#102033">78 م²</text>
            </g>
            
            <g>
              <rect x="110.0" y="630.0" width="542.1" height="240.0" fill="#eef3f8" stroke="#102033" stroke-width="8"/>
              <line x1="132.0" y1="638.0" x2="262.0" y2="638.0" stroke="#7dd3fc" stroke-width="8" stroke-linecap="round"/>
              <path d="M 306.0 870.0 v -52 a 52 52 0 0 0 52 52" fill="none" stroke="#e26f24" stroke-width="4"/>
              <ellipse cx="261.8" cy="721.2" rx="54" ry="34" fill="none" stroke="#102033" stroke-width="3"/><circle cx="261.8" cy="721.2" r="7" fill="#e26f24"/>
              <text x="381.1" y="744.0" text-anchor="middle" font-size="30" font-weight="800" fill="#102033">طعام</text>
              <text x="381.1" y="778.0" text-anchor="middle" font-size="20" fill="#102033">94 م²</text>
            </g>
            
            <g>
              <rect x="652.1" y="630.0" width="697.9" height="240.0" fill="#f7fafc" stroke="#102033" stroke-width="8"/>
              <line x1="674.1" y1="638.0" x2="804.1" y2="638.0" stroke="#7dd3fc" stroke-width="8" stroke-linecap="round"/>
              <path d="M 871.1 870.0 v -52 a 52 52 0 0 0 52 52" fill="none" stroke="#e26f24" stroke-width="4"/>
              <rect x="674.1" y="660.0" width="120.0" height="62" rx="8" fill="none" stroke="#102033" stroke-width="3"/><line x1="674.1" y1="688.0" x2="794.1" y2="688.0" stroke="#102033" stroke-width="2"/>
              <text x="1001.1" y="744.0" text-anchor="middle" font-size="30" font-weight="800" fill="#102033">جناح</text>
              <text x="1001.1" y="778.0" text-anchor="middle" font-size="20" fill="#102033">121 م²</text>
            </g>
            </g>
  <line x1="110" y1="910" x2="1350" y2="910" stroke="#102033" stroke-width="3"/>
  <path d="M110 895v30M1350 895v30" stroke="#102033" stroke-width="3"/>
  <text x="730" y="948" text-anchor="middle" font-size="24" fill="#102033">أبعاد ومساحات تقريبية للتصور فقط</text>
  <path d="M1450 890 v-92 m0 0 -22 35 m22-35 22 35" stroke="#e26f24" stroke-width="7" stroke-linecap="round" stroke-linejoin="round"/>
  <text x="1450" y="936" text-anchor="middle" font-size="24" fill="#102033">شمال</text>
  <rect x="70" y="980" width="1460" height="46" fill="#102033"/>
  <text x="1490" y="1012" text-anchor="end" font-size="20" fill="#ffffff">kamel3lom | مخطط تخيلي غير معتمد هندسيًا</text>
  <text x="110" y="1012" font-size="20" fill="#ffffff">modern-townhouse-0900</text>
</svg>