<svg xmlns="http://www.w3.org/2000/svg" viewBox="0 0 1600 1050" role="img" aria-label="Concept architectural 2D plan">
  <defs>
    <pattern id="grid-modern-townhouse-0300" width="24" height="24" patternUnits="userSpaceOnUse">
      <path d="M 24 0 L 0 0 0 24" fill="none" stroke="#94a3b8" stroke-width="1" opacity=".18"/>
    </pattern>
  </defs>
  <rect width="1600" height="1050" fill="#f7fafc"/>
  <rect x="70" y="70" width="1460" height="900" fill="url(#grid-modern-townhouse-0300)" stroke="#102033" stroke-width="3"/>
  <text x="1490" y="118" text-anchor="end" font-size="40" font-weight="900" fill="#102033">مخطط معماري مبدئي - تاون هاوس مودرن</text>
  <text x="1490" y="158" text-anchor="end" font-size="24" fill="#102033">الفئة: 300-399 م² | الطوابق: 1-3</text>
  <rect x="118" y="92" width="250" height="24" rx="12" fill="#7dd3fc" opacity=".72"/>
  <g>
            <g>
              <rect x="110.0" y="150.0" width="716.1" height="240.0" fill="#eef3f8" stroke="#102033" stroke-width="8"/>
              <line x1="132.0" y1="158.0" x2="262.0" y2="158.0" stroke="#7dd3fc" stroke-width="8" stroke-linecap="round"/>
              <path d="M 168.0 390.0 v -52 a 52 52 0 0 0 52 52" fill="none" stroke="#e26f24" stroke-width="4"/>
              <rect x="132.0" y="180.0" width="160.0" height="42" rx="10" fill="none" stroke="#102033" stroke-width="3"/><rect x="152.0" y="242.0" width="64" height="36" rx="6" fill="none" stroke="#e26f24" stroke-width="3"/>
              <text x="468.0" y="264.0" text-anchor="middle" font-size="30" font-weight="800" fill="#102033">معيشة</text>
              <text x="468.0" y="298.0" text-anchor="middle" font-size="20" fill="#102033">82 م²</text>
            </g>
            
            <g>
              <rect x="826.1" y="150.0" width="523.9" height="240.0" fill="#f7fafc" stroke="#102033" stroke-width="8"/>
              <line x1="848.1" y1="158.0" x2="973.8" y2="158.0" stroke="#7dd3fc" stroke-width="8" stroke-linecap="round"/>
              <path d="M 907.1 390.0 v -52 a 52 52 0 0 0 52 52" fill="none" stroke="#e26f24" stroke-width="4"/>
              <rect x="848.1" y="180.0" width="120.0" height="62" rx="8" fill="none" stroke="#102033" stroke-width="3"/><line x1="848.1" y1="208.0" x2="968.1" y2="208.0" stroke="#102033" stroke-width="2"/>
              <text x="1088.0" y="264.0" text-anchor="middle" font-size="30" font-weight="800" fill="#102033">ثلاث غرف نوم</text>
              <text x="1088.0" y="298.0" text-anchor="middle" font-size="20" fill="#102033">60 م²</text>
            </g>
            
            <g>
              <rect x="110.0" y="390.0" width="832.3" height="240.0" fill="#eef3f8" stroke="#102033" stroke-width="8"/>
              <line x1="132.0" y1="398.0" x2="262.0" y2="398.0" stroke="#7dd3fc" stroke-width="8" stroke-linecap="round"/>
              <path d="M 214.0 630.0 v -52 a 52 52 0 0 0 52 52" fill="none" stroke="#e26f24" stroke-width="4"/>
              <ellipse cx="343.1" cy="481.2" rx="54" ry="34" fill="none" stroke="#102033" stroke-width="3"/><circle cx="343.1" cy="481.2" r="7" fill="#e26f24"/>
              <text x="526.2" y="504.0" text-anchor="middle" font-size="30" font-weight="800" fill="#102033">طعام</text>
              <text x="526.2" y="538.0" text-anchor="middle" font-size="20" fill="#102033">49 م²</text>
            </g>
            
            <g>
              <rect x="942.3" y="390.0" width="407.7" height="240.0" fill="#d9e3ee" stroke="#102033" stroke-width="8"/>
              <line x1="964.3" y1="398.0" x2="1062.2" y2="398.0" stroke="#7dd3fc" stroke-width="8" stroke-linecap="round"/>
              <path d="M 1069.3 630.0 v -52 a 52 52 0 0 0 52 52" fill="none" stroke="#e26f24" stroke-width="4"/>
              <circle cx="987.3" cy="438.0" r="20" fill="none" stroke="#e26f24" stroke-width="4"/><rect x="1020.3" y="418.0" width="46" height="38" rx="8" fill="none" stroke="#102033" stroke-width="3"/>
              <text x="1146.2" y="504.0" text-anchor="middle" font-size="30" font-weight="800" fill="#102033">حمامان</text>
              <text x="1146.2" y="538.0" text-anchor="middle" font-size="20" fill="#102033">24 م²</text>
            </g>
            
            <g>
              <rect x="110.0" y="630.0" width="671.1" height="240.0" fill="#d9e3ee" stroke="#102033" stroke-width="8"/>
              <line x1="132.0" y1="638.0" x2="262.0" y2="638.0" stroke="#7dd3fc" stroke-width="8" stroke-linecap="round"/>
              <path d="M 260.0 870.0 v -52 a 52 52 0 0 0 52 52" fill="none" stroke="#e26f24" stroke-width="4"/>
              <rect x="132.0" y="654.0" width="150.0" height="24" fill="none" stroke="#102033" stroke-width="3"/><circle cx="162.0" cy="698.0" r="12" fill="none" stroke="#e26f24" stroke-width="3"/><circle cx="198.0" cy="698.0" r="12" fill="none" stroke="#e26f24" stroke-width="3"/>
              <text x="445.5" y="744.0" text-anchor="middle" font-size="30" font-weight="800" fill="#102033">مطبخ</text>
              <text x="445.5" y="778.0" text-anchor="middle" font-size="20" fill="#102033">46 م²</text>
            </g>
            
            <g>
              <rect x="781.1" y="630.0" width="568.9" height="240.0" fill="#f7fafc" stroke="#102033" stroke-width="8"/>
              <line x1="803.1" y1="638.0" x2="933.1" y2="638.0" stroke="#7dd3fc" stroke-width="8" stroke-linecap="round"/>
              <path d="M 954.1 870.0 v -52 a 52 52 0 0 0 52 52" fill="none" stroke="#e26f24" stroke-width="4"/>
              <rect x="805.1" y="658.0" width="96.0" height="42" rx="6" fill="none" stroke="#102033" stroke-width="3"/>
              <text x="1065.5" y="744.0" text-anchor="middle" font-size="30" font-weight="800" fill="#102033">تراس</text>
              <text x="1065.5" y="778.0" text-anchor="middle" font-size="20" fill="#102033">39 م²</text>
            </g>
            </g>
  <line x1="110" y1="910" x2="1350" y2="910" stroke="#102033" stroke-width="3"/>
  <path d="M110 895v30M1350 895v30" stroke="#102033" stroke-width="3"/>
  <text x="730" y="948" text-anchor="middle" font-size="24" fill="#102033">أبعاد ومساحات تقريبية للتصور فقط</text>
  <path d="M1450 890 v-92 m0 0 -22 35 m22-35 22 35" stroke="#e26f24" stroke-width="7" stroke-linecap="round" stroke-linejoin="round"/>
  <text x="1450" y="936" text-anchor="middle" font-size="24" fill="#102033">شمال</text>
  <rect x="70" y="980" width="1460" height="46" fill="#102033"/>
  <text x="1490" y="1012" text-anchor="end" font-size="20" fill="#ffffff">kamel3lom | مخطط تخيلي غير معتمد هندسيًا</text>
  <text x="110" y="1012" font-size="20" fill="#ffffff">modern-townhouse-0300</text>
</svg>