<svg xmlns="http://www.w3.org/2000/svg" viewBox="0 0 1600 1050" role="img" aria-label="Concept architectural 2D plan">
  <defs>
    <pattern id="grid-modern-studio-2800" width="24" height="24" patternUnits="userSpaceOnUse">
      <path d="M 24 0 L 0 0 0 24" fill="none" stroke="#94a3b8" stroke-width="1" opacity=".18"/>
    </pattern>
  </defs>
  <rect width="1600" height="1050" fill="#f7fafc"/>
  <rect x="70" y="70" width="1460" height="900" fill="url(#grid-modern-studio-2800)" stroke="#102033" stroke-width="3"/>
  <text x="1490" y="118" text-anchor="end" font-size="40" font-weight="900" fill="#102033">مخطط معماري مبدئي - استوديو مودرن</text>
  <text x="1490" y="158" text-anchor="end" font-size="24" fill="#102033">الفئة: 2800-2899 م² | الطوابق: 1-8</text>
  <rect x="118" y="92" width="250" height="24" rx="12" fill="#7dd3fc" opacity=".72"/>
  <g>
            <g>
              <rect x="110.0" y="150.0" width="557.1" height="240.0" fill="#eef3f8" stroke="#102033" stroke-width="8"/>
              <line x1="132.0" y1="158.0" x2="262.0" y2="158.0" stroke="#7dd3fc" stroke-width="8" stroke-linecap="round"/>
              <path d="M 168.0 390.0 v -52 a 52 52 0 0 0 52 52" fill="none" stroke="#e26f24" stroke-width="4"/>
              <rect x="132.0" y="180.0" width="120.0" height="62" rx="8" fill="none" stroke="#102033" stroke-width="3"/><line x1="132.0" y1="208.0" x2="252.0" y2="208.0" stroke="#102033" stroke-width="2"/>
              <text x="388.5" y="264.0" text-anchor="middle" font-size="30" font-weight="800" fill="#102033">جناح نوم</text>
              <text x="388.5" y="298.0" text-anchor="middle" font-size="20" fill="#102033">478 م²</text>
            </g>
            
            <g>
              <rect x="667.1" y="150.0" width="440.5" height="240.0" fill="#d9e3ee" stroke="#102033" stroke-width="8"/>
              <line x1="689.1" y1="158.0" x2="794.8" y2="158.0" stroke="#7dd3fc" stroke-width="8" stroke-linecap="round"/>
              <path d="M 748.1 390.0 v -52 a 52 52 0 0 0 52 52" fill="none" stroke="#e26f24" stroke-width="4"/>
              <rect x="689.1" y="174.0" width="150.0" height="24" fill="none" stroke="#102033" stroke-width="3"/><circle cx="719.1" cy="218.0" r="12" fill="none" stroke="#e26f24" stroke-width="3"/><circle cx="755.1" cy="218.0" r="12" fill="none" stroke="#e26f24" stroke-width="3"/>
              <text x="887.3" y="264.0" text-anchor="middle" font-size="30" font-weight="800" fill="#102033">مطبخ</text>
              <text x="887.3" y="298.0" text-anchor="middle" font-size="20" fill="#102033">378 م²</text>
            </g>
            
            <g>
              <rect x="1107.6" y="150.0" width="242.4" height="240.0" fill="#eef3f8" stroke="#102033" stroke-width="8"/>
              <line x1="1129.6" y1="158.0" x2="1187.8" y2="158.0" stroke="#7dd3fc" stroke-width="8" stroke-linecap="round"/>
              <path d="M 1211.6 390.0 v -52 a 52 52 0 0 0 52 52" fill="none" stroke="#e26f24" stroke-width="4"/>
              <rect x="1131.6" y="178.0" width="72.7" height="42" rx="6" fill="none" stroke="#102033" stroke-width="3"/>
              <text x="1228.8" y="264.0" text-anchor="middle" font-size="30" font-weight="800" fill="#102033">مخزن</text>
              <text x="1228.8" y="298.0" text-anchor="middle" font-size="20" fill="#102033">208 م²</text>
            </g>
            
            <g>
              <rect x="110.0" y="390.0" width="940.1" height="240.0" fill="#f7fafc" stroke="#102033" stroke-width="8"/>
              <line x1="132.0" y1="398.0" x2="262.0" y2="398.0" stroke="#7dd3fc" stroke-width="8" stroke-linecap="round"/>
              <path d="M 237.0 630.0 v -52 a 52 52 0 0 0 52 52" fill="none" stroke="#e26f24" stroke-width="4"/>
              <rect x="132.0" y="420.0" width="160.0" height="42" rx="10" fill="none" stroke="#102033" stroke-width="3"/><rect x="152.0" y="482.0" width="64" height="36" rx="6" fill="none" stroke="#e26f24" stroke-width="3"/>
              <text x="580.0" y="504.0" text-anchor="middle" font-size="30" font-weight="800" fill="#102033">معيشة كبيرة</text>
              <text x="580.0" y="538.0" text-anchor="middle" font-size="20" fill="#102033">677 م²</text>
            </g>
            
            <g>
              <rect x="1050.1" y="390.0" width="299.9" height="240.0" fill="#d9e3ee" stroke="#102033" stroke-width="8"/>
              <line x1="1072.1" y1="398.0" x2="1144.1" y2="398.0" stroke="#7dd3fc" stroke-width="8" stroke-linecap="round"/>
              <path d="M 1200.1 630.0 v -52 a 52 52 0 0 0 52 52" fill="none" stroke="#e26f24" stroke-width="4"/>
              <circle cx="1095.1" cy="438.0" r="20" fill="none" stroke="#e26f24" stroke-width="4"/><rect x="1128.1" y="418.0" width="46" height="38" rx="8" fill="none" stroke="#102033" stroke-width="3"/>
              <text x="1200.0" y="504.0" text-anchor="middle" font-size="30" font-weight="800" fill="#102033">حمامين</text>
              <text x="1200.0" y="538.0" text-anchor="middle" font-size="20" fill="#102033">216 م²</text>
            </g>
            
            <g>
              <rect x="110.0" y="630.0" width="739.0" height="240.0" fill="#f7fafc" stroke="#102033" stroke-width="8"/>
              <line x1="132.0" y1="638.0" x2="262.0" y2="638.0" stroke="#7dd3fc" stroke-width="8" stroke-linecap="round"/>
              <path d="M 283.0 870.0 v -52 a 52 52 0 0 0 52 52" fill="none" stroke="#e26f24" stroke-width="4"/>
              <rect x="134.0" y="658.0" width="96.0" height="42" rx="6" fill="none" stroke="#102033" stroke-width="3"/>
              <text x="479.5" y="744.0" text-anchor="middle" font-size="30" font-weight="800" fill="#102033">مكتب</text>
              <text x="479.5" y="778.0" text-anchor="middle" font-size="20" fill="#102033">503 م²</text>
            </g>
            
            <g>
              <rect x="849.0" y="630.0" width="501.0" height="240.0" fill="#eef3f8" stroke="#102033" stroke-width="8"/>
              <line x1="871.0" y1="638.0" x2="991.2" y2="638.0" stroke="#7dd3fc" stroke-width="8" stroke-linecap="round"/>
              <path d="M 1045.0 870.0 v -52 a 52 52 0 0 0 52 52" fill="none" stroke="#e26f24" stroke-width="4"/>
              <rect x="873.0" y="658.0" width="96.0" height="42" rx="6" fill="none" stroke="#102033" stroke-width="3"/>
              <text x="1099.5" y="744.0" text-anchor="middle" font-size="30" font-weight="800" fill="#102033">تراس</text>
              <text x="1099.5" y="778.0" text-anchor="middle" font-size="20" fill="#102033">341 م²</text>
            </g>
            </g>
  <line x1="110" y1="910" x2="1350" y2="910" stroke="#102033" stroke-width="3"/>
  <path d="M110 895v30M1350 895v30" stroke="#102033" stroke-width="3"/>
  <text x="730" y="948" text-anchor="middle" font-size="24" fill="#102033">أبعاد ومساحات تقريبية للتصور فقط</text>
  <path d="M1450 890 v-92 m0 0 -22 35 m22-35 22 35" stroke="#e26f24" stroke-width="7" stroke-linecap="round" stroke-linejoin="round"/>
  <text x="1450" y="936" text-anchor="middle" font-size="24" fill="#102033">شمال</text>
  <rect x="70" y="980" width="1460" height="46" fill="#102033"/>
  <text x="1490" y="1012" text-anchor="end" font-size="20" fill="#ffffff">kamel3lom | مخطط تخيلي غير معتمد هندسيًا</text>
  <text x="110" y="1012" font-size="20" fill="#ffffff">modern-studio-2800</text>
</svg>