<svg xmlns="http://www.w3.org/2000/svg" viewBox="0 0 1600 1050" role="img" aria-label="Concept architectural 2D plan">
  <defs>
    <pattern id="grid-modern-apartment-0100" width="24" height="24" patternUnits="userSpaceOnUse">
      <path d="M 24 0 L 0 0 0 24" fill="none" stroke="#94a3b8" stroke-width="1" opacity=".18"/>
    </pattern>
  </defs>
  <rect width="1600" height="1050" fill="#f7fafc"/>
  <rect x="70" y="70" width="1460" height="900" fill="url(#grid-modern-apartment-0100)" stroke="#102033" stroke-width="3"/>
  <text x="1490" y="118" text-anchor="end" font-size="40" font-weight="900" fill="#102033">مخطط معماري مبدئي - شقة مودرن</text>
  <text x="1490" y="158" text-anchor="end" font-size="24" fill="#102033">الفئة: 100-199 م² | الطوابق: 1-2</text>
  <rect x="118" y="92" width="250" height="24" rx="12" fill="#7dd3fc" opacity=".72"/>
  <g>
            <g>
              <rect x="110.0" y="150.0" width="669.2" height="360.0" fill="#eef3f8" stroke="#102033" stroke-width="8"/>
              <line x1="132.0" y1="158.0" x2="262.0" y2="158.0" stroke="#7dd3fc" stroke-width="8" stroke-linecap="round"/>
              <path d="M 168.0 510.0 v -52 a 52 52 0 0 0 52 52" fill="none" stroke="#e26f24" stroke-width="4"/>
              <rect x="132.0" y="180.0" width="160.0" height="42" rx="10" fill="none" stroke="#102033" stroke-width="3"/><rect x="152.0" y="242.0" width="64" height="36" rx="6" fill="none" stroke="#e26f24" stroke-width="3"/>
              <text x="444.6" y="324.0" text-anchor="middle" font-size="30" font-weight="800" fill="#102033">معيشة</text>
              <text x="444.6" y="358.0" text-anchor="middle" font-size="20" fill="#102033">34 م²</text>
            </g>
            
            <g>
              <rect x="779.2" y="150.0" width="374.0" height="360.0" fill="#d9e3ee" stroke="#102033" stroke-width="8"/>
              <line x1="801.2" y1="158.0" x2="891.0" y2="158.0" stroke="#7dd3fc" stroke-width="8" stroke-linecap="round"/>
              <path d="M 860.2 510.0 v -52 a 52 52 0 0 0 52 52" fill="none" stroke="#e26f24" stroke-width="4"/>
              <rect x="801.2" y="174.0" width="150.0" height="24" fill="none" stroke="#102033" stroke-width="3"/><circle cx="831.2" cy="218.0" r="12" fill="none" stroke="#e26f24" stroke-width="3"/><circle cx="867.2" cy="218.0" r="12" fill="none" stroke="#e26f24" stroke-width="3"/>
              <text x="966.2" y="324.0" text-anchor="middle" font-size="30" font-weight="800" fill="#102033">مطبخ</text>
              <text x="966.2" y="358.0" text-anchor="middle" font-size="20" fill="#102033">19 م²</text>
            </g>
            
            <g>
              <rect x="1153.2" y="150.0" width="196.8" height="360.0" fill="#d9e3ee" stroke="#102033" stroke-width="8"/>
              <line x1="1175.2" y1="158.0" x2="1222.4" y2="158.0" stroke="#7dd3fc" stroke-width="8" stroke-linecap="round"/>
              <path d="M 1257.2 510.0 v -52 a 52 52 0 0 0 52 52" fill="none" stroke="#e26f24" stroke-width="4"/>
              <rect x="1177.2" y="178.0" width="59.0" height="42" rx="6" fill="none" stroke="#102033" stroke-width="3"/>
              <text x="1251.6" y="324.0" text-anchor="middle" font-size="30" font-weight="800" fill="#102033">غسيل</text>
              <text x="1251.6" y="358.0" text-anchor="middle" font-size="20" fill="#102033">10 م²</text>
            </g>
            
            <g>
              <rect x="110.0" y="510.0" width="861.1" height="360.0" fill="#f7fafc" stroke="#102033" stroke-width="8"/>
              <line x1="132.0" y1="518.0" x2="262.0" y2="518.0" stroke="#7dd3fc" stroke-width="8" stroke-linecap="round"/>
              <path d="M 237.0 870.0 v -52 a 52 52 0 0 0 52 52" fill="none" stroke="#e26f24" stroke-width="4"/>
              <rect x="132.0" y="540.0" width="120.0" height="62" rx="8" fill="none" stroke="#102033" stroke-width="3"/><line x1="132.0" y1="568.0" x2="252.0" y2="568.0" stroke="#102033" stroke-width="2"/>
              <text x="540.6" y="684.0" text-anchor="middle" font-size="30" font-weight="800" fill="#102033">غرفة نوم</text>
              <text x="540.6" y="718.0" text-anchor="middle" font-size="20" fill="#102033">25 م²</text>
            </g>
            
            <g>
              <rect x="971.1" y="510.0" width="378.9" height="360.0" fill="#d9e3ee" stroke="#102033" stroke-width="8"/>
              <line x1="993.1" y1="518.0" x2="1084.0" y2="518.0" stroke="#7dd3fc" stroke-width="8" stroke-linecap="round"/>
              <path d="M 1121.1 870.0 v -52 a 52 52 0 0 0 52 52" fill="none" stroke="#e26f24" stroke-width="4"/>
              <circle cx="1016.1" cy="558.0" r="20" fill="none" stroke="#e26f24" stroke-width="4"/><rect x="1049.1" y="538.0" width="46" height="38" rx="8" fill="none" stroke="#102033" stroke-width="3"/>
              <text x="1160.6" y="684.0" text-anchor="middle" font-size="30" font-weight="800" fill="#102033">حمام</text>
              <text x="1160.6" y="718.0" text-anchor="middle" font-size="20" fill="#102033">11 م²</text>
            </g>
            </g>
  <line x1="110" y1="910" x2="1350" y2="910" stroke="#102033" stroke-width="3"/>
  <path d="M110 895v30M1350 895v30" stroke="#102033" stroke-width="3"/>
  <text x="730" y="948" text-anchor="middle" font-size="24" fill="#102033">أبعاد ومساحات تقريبية للتصور فقط</text>
  <path d="M1450 890 v-92 m0 0 -22 35 m22-35 22 35" stroke="#e26f24" stroke-width="7" stroke-linecap="round" stroke-linejoin="round"/>
  <text x="1450" y="936" text-anchor="middle" font-size="24" fill="#102033">شمال</text>
  <rect x="70" y="980" width="1460" height="46" fill="#102033"/>
  <text x="1490" y="1012" text-anchor="end" font-size="20" fill="#ffffff">kamel3lom | مخطط تخيلي غير معتمد هندسيًا</text>
  <text x="110" y="1012" font-size="20" fill="#ffffff">modern-apartment-0100</text>
</svg>