<svg xmlns="http://www.w3.org/2000/svg" viewBox="0 0 1600 1050" role="img" aria-label="Concept architectural 2D plan">
  <defs>
    <pattern id="grid-najdi-townhouse-4700" width="24" height="24" patternUnits="userSpaceOnUse">
      <path d="M 24 0 L 0 0 0 24" fill="none" stroke="#94a3b8" stroke-width="1" opacity=".18"/>
    </pattern>
  </defs>
  <rect width="1600" height="1050" fill="#f5edd8"/>
  <rect x="70" y="70" width="1460" height="900" fill="url(#grid-najdi-townhouse-4700)" stroke="#2f2518" stroke-width="3"/>
  <text x="1490" y="118" text-anchor="end" font-size="40" font-weight="900" fill="#2f2518">مخطط معماري مبدئي - تاون هاوس نجدي</text>
  <text x="1490" y="158" text-anchor="end" font-size="24" fill="#2f2518">الفئة: 4700-4799 م² | الطوابق: 1-8</text>
  <path d="M 118 112 l 11 -18 l 11 18 z" fill="#b8874f" opacity=".85"/><path d="M 144 112 l 11 -18 l 11 18 z" fill="#b8874f" opacity=".85"/><path d="M 170 112 l 11 -18 l 11 18 z" fill="#b8874f" opacity=".85"/><path d="M 196 112 l 11 -18 l 11 18 z" fill="#b8874f" opacity=".85"/><path d="M 222 112 l 11 -18 l 11 18 z" fill="#b8874f" opacity=".85"/><path d="M 248 112 l 11 -18 l 11 18 z" fill="#b8874f" opacity=".85"/><path d="M 274 112 l 11 -18 l 11 18 z" fill="#b8874f" opacity=".85"/><path d="M 300 112 l 11 -18 l 11 18 z" fill="#b8874f" opacity=".85"/><path d="M 326 112 l 11 -18 l 11 18 z" fill="#b8874f" opacity=".85"/><path d="M 352 112 l 11 -18 l 11 18 z" fill="#b8874f" opacity=".85"/>
  <g>
            <g>
              <rect x="110.0" y="150.0" width="649.7" height="240.0" fill="#d6bc87" stroke="#2f2518" stroke-width="8"/>
              <line x1="132.0" y1="158.0" x2="262.0" y2="158.0" stroke="#88bfc4" stroke-width="8" stroke-linecap="round"/>
              <path d="M 168.0 390.0 v -52 a 52 52 0 0 0 52 52" fill="none" stroke="#b8874f" stroke-width="4"/>
              <rect x="132.0" y="180.0" width="160.0" height="42" rx="10" fill="none" stroke="#2f2518" stroke-width="3"/><rect x="152.0" y="242.0" width="64" height="36" rx="6" fill="none" stroke="#b8874f" stroke-width="3"/>
              <text x="434.9" y="264.0" text-anchor="middle" font-size="30" font-weight="800" fill="#2f2518">معيشة كبيرة</text>
              <text x="434.9" y="298.0" text-anchor="middle" font-size="20" fill="#2f2518">875 م²</text>
            </g>
            
            <g>
              <rect x="759.7" y="150.0" width="376.5" height="240.0" fill="#e7d2a8" stroke="#2f2518" stroke-width="8"/>
              <line x1="781.7" y1="158.0" x2="872.0" y2="158.0" stroke="#88bfc4" stroke-width="8" stroke-linecap="round"/>
              <path d="M 840.7 390.0 v -52 a 52 52 0 0 0 52 52" fill="none" stroke="#b8874f" stroke-width="4"/>
              <rect x="781.7" y="174.0" width="150.0" height="24" fill="none" stroke="#2f2518" stroke-width="3"/><circle cx="811.7" cy="218.0" r="12" fill="none" stroke="#b8874f" stroke-width="3"/><circle cx="847.7" cy="218.0" r="12" fill="none" stroke="#b8874f" stroke-width="3"/>
              <text x="947.9" y="264.0" text-anchor="middle" font-size="30" font-weight="800" fill="#2f2518">مطبخ</text>
              <text x="947.9" y="298.0" text-anchor="middle" font-size="20" fill="#2f2518">507 م²</text>
            </g>
            
            <g>
              <rect x="1136.2" y="150.0" width="213.8" height="240.0" fill="#e7d2a8" stroke="#2f2518" stroke-width="8"/>
              <line x1="1158.2" y1="158.0" x2="1209.5" y2="158.0" stroke="#88bfc4" stroke-width="8" stroke-linecap="round"/>
              <path d="M 1240.2 390.0 v -52 a 52 52 0 0 0 52 52" fill="none" stroke="#b8874f" stroke-width="4"/>
              <rect x="1160.2" y="178.0" width="64.2" height="42" rx="6" fill="none" stroke="#2f2518" stroke-width="3"/>
              <text x="1243.1" y="264.0" text-anchor="middle" font-size="30" font-weight="800" fill="#2f2518">خدمات</text>
              <text x="1243.1" y="298.0" text-anchor="middle" font-size="20" fill="#2f2518">288 م²</text>
            </g>
            
            <g>
              <rect x="110.0" y="390.0" width="578.5" height="240.0" fill="#f5edd8" stroke="#2f2518" stroke-width="8"/>
              <line x1="132.0" y1="398.0" x2="262.0" y2="398.0" stroke="#88bfc4" stroke-width="8" stroke-linecap="round"/>
              <path d="M 237.0 630.0 v -52 a 52 52 0 0 0 52 52" fill="none" stroke="#b8874f" stroke-width="4"/>
              <rect x="132.0" y="420.0" width="160.0" height="42" rx="10" fill="none" stroke="#2f2518" stroke-width="3"/><rect x="152.0" y="482.0" width="64" height="36" rx="6" fill="none" stroke="#b8874f" stroke-width="3"/>
              <text x="399.2" y="504.0" text-anchor="middle" font-size="30" font-weight="800" fill="#2f2518">مجلس</text>
              <text x="399.2" y="538.0" text-anchor="middle" font-size="20" fill="#2f2518">891 م²</text>
            </g>
            
            <g>
              <rect x="688.5" y="390.0" width="398.6" height="240.0" fill="#d6bc87" stroke="#2f2518" stroke-width="8"/>
              <line x1="710.5" y1="398.0" x2="806.1" y2="398.0" stroke="#88bfc4" stroke-width="8" stroke-linecap="round"/>
              <path d="M 838.5 630.0 v -52 a 52 52 0 0 0 52 52" fill="none" stroke="#b8874f" stroke-width="4"/>
              <rect x="710.5" y="420.0" width="120.0" height="62" rx="8" fill="none" stroke="#2f2518" stroke-width="3"/><line x1="710.5" y1="448.0" x2="830.5" y2="448.0" stroke="#2f2518" stroke-width="2"/>
              <text x="887.8" y="504.0" text-anchor="middle" font-size="30" font-weight="800" fill="#2f2518">خمس غرف نوم</text>
              <text x="887.8" y="538.0" text-anchor="middle" font-size="20" fill="#2f2518">614 م²</text>
            </g>
            
            <g>
              <rect x="1087.1" y="390.0" width="262.9" height="240.0" fill="#f5edd8" stroke="#2f2518" stroke-width="8"/>
              <line x1="1109.1" y1="398.0" x2="1172.2" y2="398.0" stroke="#88bfc4" stroke-width="8" stroke-linecap="round"/>
              <path d="M 1260.1 630.0 v -52 a 52 52 0 0 0 52 52" fill="none" stroke="#b8874f" stroke-width="4"/>
              <rect x="1111.1" y="418.0" width="78.9" height="42" rx="6" fill="none" stroke="#2f2518" stroke-width="3"/>
              <text x="1218.5" y="504.0" text-anchor="middle" font-size="30" font-weight="800" fill="#2f2518">تراس</text>
              <text x="1218.5" y="538.0" text-anchor="middle" font-size="20" fill="#2f2518">405 م²</text>
            </g>
            
            <g>
              <rect x="110.0" y="630.0" width="543.1" height="240.0" fill="#d6bc87" stroke="#2f2518" stroke-width="8"/>
              <line x1="132.0" y1="638.0" x2="262.0" y2="638.0" stroke="#88bfc4" stroke-width="8" stroke-linecap="round"/>
              <path d="M 306.0 870.0 v -52 a 52 52 0 0 0 52 52" fill="none" stroke="#b8874f" stroke-width="4"/>
              <ellipse cx="262.1" cy="721.2" rx="54" ry="34" fill="none" stroke="#2f2518" stroke-width="3"/><circle cx="262.1" cy="721.2" r="7" fill="#b8874f"/>
              <text x="381.6" y="744.0" text-anchor="middle" font-size="30" font-weight="800" fill="#2f2518">طعام</text>
              <text x="381.6" y="778.0" text-anchor="middle" font-size="20" fill="#2f2518">491 م²</text>
            </g>
            
            <g>
              <rect x="653.1" y="630.0" width="696.9" height="240.0" fill="#f5edd8" stroke="#2f2518" stroke-width="8"/>
              <line x1="675.1" y1="638.0" x2="805.1" y2="638.0" stroke="#88bfc4" stroke-width="8" stroke-linecap="round"/>
              <path d="M 872.1 870.0 v -52 a 52 52 0 0 0 52 52" fill="none" stroke="#b8874f" stroke-width="4"/>
              <rect x="675.1" y="660.0" width="120.0" height="62" rx="8" fill="none" stroke="#2f2518" stroke-width="3"/><line x1="675.1" y1="688.0" x2="795.1" y2="688.0" stroke="#2f2518" stroke-width="2"/>
              <text x="1001.6" y="744.0" text-anchor="middle" font-size="30" font-weight="800" fill="#2f2518">جناحان</text>
              <text x="1001.6" y="778.0" text-anchor="middle" font-size="20" fill="#2f2518">630 م²</text>
            </g>
            </g>
  <line x1="110" y1="910" x2="1350" y2="910" stroke="#2f2518" stroke-width="3"/>
  <path d="M110 895v30M1350 895v30" stroke="#2f2518" stroke-width="3"/>
  <text x="730" y="948" text-anchor="middle" font-size="24" fill="#2f2518">أبعاد ومساحات تقريبية للتصور فقط</text>
  <path d="M1450 890 v-92 m0 0 -22 35 m22-35 22 35" stroke="#b8874f" stroke-width="7" stroke-linecap="round" stroke-linejoin="round"/>
  <text x="1450" y="936" text-anchor="middle" font-size="24" fill="#2f2518">شمال</text>
  <rect x="70" y="980" width="1460" height="46" fill="#2f2518"/>
  <text x="1490" y="1012" text-anchor="end" font-size="20" fill="#ffffff">kamel3lom | مخطط تخيلي غير معتمد هندسيًا</text>
  <text x="110" y="1012" font-size="20" fill="#ffffff">najdi-townhouse-4700</text>
</svg>