<svg xmlns="http://www.w3.org/2000/svg" viewBox="0 0 1600 1050" role="img" aria-label="Concept architectural 2D plan">
  <defs>
    <pattern id="grid-najdi-simple_commercial-2700" width="24" height="24" patternUnits="userSpaceOnUse">
      <path d="M 24 0 L 0 0 0 24" fill="none" stroke="#94a3b8" stroke-width="1" opacity=".18"/>
    </pattern>
  </defs>
  <rect width="1600" height="1050" fill="#f5edd8"/>
  <rect x="70" y="70" width="1460" height="900" fill="url(#grid-najdi-simple_commercial-2700)" stroke="#2f2518" stroke-width="3"/>
  <text x="1490" y="118" text-anchor="end" font-size="40" font-weight="900" fill="#2f2518">مخطط معماري مبدئي - تجاري بسيط نجدي</text>
  <text x="1490" y="158" text-anchor="end" font-size="24" fill="#2f2518">الفئة: 2700-2799 م² | الطوابق: 1-8</text>
  <path d="M 118 112 l 11 -18 l 11 18 z" fill="#b8874f" opacity=".85"/><path d="M 144 112 l 11 -18 l 11 18 z" fill="#b8874f" opacity=".85"/><path d="M 170 112 l 11 -18 l 11 18 z" fill="#b8874f" opacity=".85"/><path d="M 196 112 l 11 -18 l 11 18 z" fill="#b8874f" opacity=".85"/><path d="M 222 112 l 11 -18 l 11 18 z" fill="#b8874f" opacity=".85"/><path d="M 248 112 l 11 -18 l 11 18 z" fill="#b8874f" opacity=".85"/><path d="M 274 112 l 11 -18 l 11 18 z" fill="#b8874f" opacity=".85"/><path d="M 300 112 l 11 -18 l 11 18 z" fill="#b8874f" opacity=".85"/><path d="M 326 112 l 11 -18 l 11 18 z" fill="#b8874f" opacity=".85"/><path d="M 352 112 l 11 -18 l 11 18 z" fill="#b8874f" opacity=".85"/>
  <g>
            <g>
              <rect x="110.0" y="150.0" width="689.1" height="240.0" fill="#d6bc87" stroke="#2f2518" stroke-width="8"/>
              <line x1="132.0" y1="158.0" x2="262.0" y2="158.0" stroke="#88bfc4" stroke-width="8" stroke-linecap="round"/>
              <path d="M 168.0 390.0 v -52 a 52 52 0 0 0 52 52" fill="none" stroke="#b8874f" stroke-width="4"/>
              <rect x="134.0" y="178.0" width="96.0" height="42" rx="6" fill="none" stroke="#2f2518" stroke-width="3"/>
              <text x="454.6" y="264.0" text-anchor="middle" font-size="30" font-weight="800" fill="#2f2518">معرض رئيسي</text>
              <text x="454.6" y="298.0" text-anchor="middle" font-size="20" fill="#2f2518">648 م²</text>
            </g>
            
            <g>
              <rect x="799.1" y="150.0" width="223.3" height="240.0" fill="#e7d2a8" stroke="#2f2518" stroke-width="8"/>
              <line x1="821.1" y1="158.0" x2="874.7" y2="158.0" stroke="#88bfc4" stroke-width="8" stroke-linecap="round"/>
              <path d="M 880.1 390.0 v -52 a 52 52 0 0 0 52 52" fill="none" stroke="#b8874f" stroke-width="4"/>
              <rect x="823.1" y="178.0" width="67.0" height="42" rx="6" fill="none" stroke="#2f2518" stroke-width="3"/>
              <text x="910.8" y="264.0" text-anchor="middle" font-size="30" font-weight="800" fill="#2f2518">خدمات</text>
              <text x="910.8" y="298.0" text-anchor="middle" font-size="20" fill="#2f2518">210 م²</text>
            </g>
            
            <g>
              <rect x="1022.5" y="150.0" width="327.5" height="240.0" fill="#d6bc87" stroke="#2f2518" stroke-width="8"/>
              <line x1="1044.5" y1="158.0" x2="1123.1" y2="158.0" stroke="#88bfc4" stroke-width="8" stroke-linecap="round"/>
              <path d="M 1126.5 390.0 v -52 a 52 52 0 0 0 52 52" fill="none" stroke="#b8874f" stroke-width="4"/>
              <rect x="1046.5" y="178.0" width="96.0" height="42" rx="6" fill="none" stroke="#2f2518" stroke-width="3"/>
              <text x="1186.2" y="264.0" text-anchor="middle" font-size="30" font-weight="800" fill="#2f2518">غرفة ميكانيكا</text>
              <text x="1186.2" y="298.0" text-anchor="middle" font-size="20" fill="#2f2518">308 م²</text>
            </g>
            
            <g>
              <rect x="110.0" y="390.0" width="648.0" height="240.0" fill="#f5edd8" stroke="#2f2518" stroke-width="8"/>
              <line x1="132.0" y1="398.0" x2="262.0" y2="398.0" stroke="#88bfc4" stroke-width="8" stroke-linecap="round"/>
              <path d="M 237.0 630.0 v -52 a 52 52 0 0 0 52 52" fill="none" stroke="#b8874f" stroke-width="4"/>
              <rect x="134.0" y="418.0" width="96.0" height="42" rx="6" fill="none" stroke="#2f2518" stroke-width="3"/>
              <text x="434.0" y="504.0" text-anchor="middle" font-size="30" font-weight="800" fill="#2f2518">مكاتب متعددة</text>
              <text x="434.0" y="538.0" text-anchor="middle" font-size="20" fill="#2f2518">312 م²</text>
            </g>
            
            <g>
              <rect x="758.0" y="390.0" width="592.0" height="240.0" fill="#d6bc87" stroke="#2f2518" stroke-width="8"/>
              <line x1="780.0" y1="398.0" x2="910.0" y2="398.0" stroke="#88bfc4" stroke-width="8" stroke-linecap="round"/>
              <path d="M 908.0 630.0 v -52 a 52 52 0 0 0 52 52" fill="none" stroke="#b8874f" stroke-width="4"/>
              <rect x="782.0" y="418.0" width="96.0" height="42" rx="6" fill="none" stroke="#2f2518" stroke-width="3"/>
              <text x="1054.0" y="504.0" text-anchor="middle" font-size="30" font-weight="800" fill="#2f2518">مخازن</text>
              <text x="1054.0" y="538.0" text-anchor="middle" font-size="20" fill="#2f2518">285 م²</text>
            </g>
            
            <g>
              <rect x="110.0" y="630.0" width="847.9" height="240.0" fill="#f5edd8" stroke="#2f2518" stroke-width="8"/>
              <line x1="132.0" y1="638.0" x2="262.0" y2="638.0" stroke="#88bfc4" stroke-width="8" stroke-linecap="round"/>
              <path d="M 283.0 870.0 v -52 a 52 52 0 0 0 52 52" fill="none" stroke="#b8874f" stroke-width="4"/>
              <rect x="132.0" y="660.0" width="160.0" height="42" rx="10" fill="none" stroke="#2f2518" stroke-width="3"/><rect x="152.0" y="722.0" width="64" height="36" rx="6" fill="none" stroke="#b8874f" stroke-width="3"/>
              <text x="533.9" y="744.0" text-anchor="middle" font-size="30" font-weight="800" fill="#2f2518">استقبال</text>
              <text x="533.9" y="778.0" text-anchor="middle" font-size="20" fill="#2f2518">640 م²</text>
            </g>
            
            <g>
              <rect x="957.9" y="630.0" width="392.1" height="240.0" fill="#d6bc87" stroke="#2f2518" stroke-width="8"/>
              <line x1="979.9" y1="638.0" x2="1074.0" y2="638.0" stroke="#88bfc4" stroke-width="8" stroke-linecap="round"/>
              <path d="M 1153.9 870.0 v -52 a 52 52 0 0 0 52 52" fill="none" stroke="#b8874f" stroke-width="4"/>
              <rect x="981.9" y="658.0" width="96.0" height="42" rx="6" fill="none" stroke="#2f2518" stroke-width="3"/>
              <text x="1153.9" y="744.0" text-anchor="middle" font-size="30" font-weight="800" fill="#2f2518">غرفة كهرباء</text>
              <text x="1153.9" y="778.0" text-anchor="middle" font-size="20" fill="#2f2518">296 م²</text>
            </g>
            </g>
  <line x1="110" y1="910" x2="1350" y2="910" stroke="#2f2518" stroke-width="3"/>
  <path d="M110 895v30M1350 895v30" stroke="#2f2518" stroke-width="3"/>
  <text x="730" y="948" text-anchor="middle" font-size="24" fill="#2f2518">أبعاد ومساحات تقريبية للتصور فقط</text>
  <path d="M1450 890 v-92 m0 0 -22 35 m22-35 22 35" stroke="#b8874f" stroke-width="7" stroke-linecap="round" stroke-linejoin="round"/>
  <text x="1450" y="936" text-anchor="middle" font-size="24" fill="#2f2518">شمال</text>
  <rect x="70" y="980" width="1460" height="46" fill="#2f2518"/>
  <text x="1490" y="1012" text-anchor="end" font-size="20" fill="#ffffff">kamel3lom | مخطط تخيلي غير معتمد هندسيًا</text>
  <text x="110" y="1012" font-size="20" fill="#ffffff">najdi-simple_commercial-2700</text>
</svg>