<svg xmlns="http://www.w3.org/2000/svg" viewBox="0 0 1600 1050" role="img" aria-label="Concept architectural 2D plan">
  <defs>
    <pattern id="grid-najdi-townhouse-0500" width="24" height="24" patternUnits="userSpaceOnUse">
      <path d="M 24 0 L 0 0 0 24" fill="none" stroke="#94a3b8" stroke-width="1" opacity=".18"/>
    </pattern>
  </defs>
  <rect width="1600" height="1050" fill="#f5edd8"/>
  <rect x="70" y="70" width="1460" height="900" fill="url(#grid-najdi-townhouse-0500)" stroke="#2f2518" stroke-width="3"/>
  <text x="1490" y="118" text-anchor="end" font-size="40" font-weight="900" fill="#2f2518">مخطط معماري مبدئي - تاون هاوس نجدي</text>
  <text x="1490" y="158" text-anchor="end" font-size="24" fill="#2f2518">الفئة: 500-599 م² | الطوابق: 1-3</text>
  <path d="M 118 112 l 11 -18 l 11 18 z" fill="#b8874f" opacity=".85"/><path d="M 144 112 l 11 -18 l 11 18 z" fill="#b8874f" opacity=".85"/><path d="M 170 112 l 11 -18 l 11 18 z" fill="#b8874f" opacity=".85"/><path d="M 196 112 l 11 -18 l 11 18 z" fill="#b8874f" opacity=".85"/><path d="M 222 112 l 11 -18 l 11 18 z" fill="#b8874f" opacity=".85"/><path d="M 248 112 l 11 -18 l 11 18 z" fill="#b8874f" opacity=".85"/><path d="M 274 112 l 11 -18 l 11 18 z" fill="#b8874f" opacity=".85"/><path d="M 300 112 l 11 -18 l 11 18 z" fill="#b8874f" opacity=".85"/><path d="M 326 112 l 11 -18 l 11 18 z" fill="#b8874f" opacity=".85"/><path d="M 352 112 l 11 -18 l 11 18 z" fill="#b8874f" opacity=".85"/>
  <g>
            <g>
              <rect x="110.0" y="150.0" width="558.3" height="240.0" fill="#d6bc87" stroke="#2f2518" stroke-width="8"/>
              <line x1="132.0" y1="158.0" x2="262.0" y2="158.0" stroke="#88bfc4" stroke-width="8" stroke-linecap="round"/>
              <path d="M 168.0 390.0 v -52 a 52 52 0 0 0 52 52" fill="none" stroke="#b8874f" stroke-width="4"/>
              <rect x="132.0" y="180.0" width="160.0" height="42" rx="10" fill="none" stroke="#2f2518" stroke-width="3"/><rect x="152.0" y="242.0" width="64" height="36" rx="6" fill="none" stroke="#b8874f" stroke-width="3"/>
              <text x="389.1" y="264.0" text-anchor="middle" font-size="30" font-weight="800" fill="#2f2518">معيشة</text>
              <text x="389.1" y="298.0" text-anchor="middle" font-size="20" fill="#2f2518">104 م²</text>
            </g>
            
            <g>
              <rect x="668.3" y="150.0" width="408.0" height="240.0" fill="#f5edd8" stroke="#2f2518" stroke-width="8"/>
              <line x1="690.3" y1="158.0" x2="788.2" y2="158.0" stroke="#88bfc4" stroke-width="8" stroke-linecap="round"/>
              <path d="M 749.3 390.0 v -52 a 52 52 0 0 0 52 52" fill="none" stroke="#b8874f" stroke-width="4"/>
              <rect x="690.3" y="180.0" width="120.0" height="62" rx="8" fill="none" stroke="#2f2518" stroke-width="3"/><line x1="690.3" y1="208.0" x2="810.3" y2="208.0" stroke="#2f2518" stroke-width="2"/>
              <text x="872.3" y="264.0" text-anchor="middle" font-size="30" font-weight="800" fill="#2f2518">ثلاث غرف نوم</text>
              <text x="872.3" y="298.0" text-anchor="middle" font-size="20" fill="#2f2518">76 م²</text>
            </g>
            
            <g>
              <rect x="1076.2" y="150.0" width="273.8" height="240.0" fill="#d6bc87" stroke="#2f2518" stroke-width="8"/>
              <line x1="1098.2" y1="158.0" x2="1163.9" y2="158.0" stroke="#88bfc4" stroke-width="8" stroke-linecap="round"/>
              <path d="M 1180.2 390.0 v -52 a 52 52 0 0 0 52 52" fill="none" stroke="#b8874f" stroke-width="4"/>
              <rect x="1100.2" y="178.0" width="82.1" height="42" rx="6" fill="none" stroke="#2f2518" stroke-width="3"/>
              <text x="1213.1" y="264.0" text-anchor="middle" font-size="30" font-weight="800" fill="#2f2518">تراس</text>
              <text x="1213.1" y="298.0" text-anchor="middle" font-size="20" fill="#2f2518">51 م²</text>
            </g>
            
            <g>
              <rect x="110.0" y="390.0" width="734.3" height="240.0" fill="#f5edd8" stroke="#2f2518" stroke-width="8"/>
              <line x1="132.0" y1="398.0" x2="262.0" y2="398.0" stroke="#88bfc4" stroke-width="8" stroke-linecap="round"/>
              <path d="M 237.0 630.0 v -52 a 52 52 0 0 0 52 52" fill="none" stroke="#b8874f" stroke-width="4"/>
              <rect x="132.0" y="420.0" width="160.0" height="42" rx="10" fill="none" stroke="#2f2518" stroke-width="3"/><rect x="152.0" y="482.0" width="64" height="36" rx="6" fill="none" stroke="#b8874f" stroke-width="3"/>
              <text x="477.2" y="504.0" text-anchor="middle" font-size="30" font-weight="800" fill="#2f2518">مجلس</text>
              <text x="477.2" y="538.0" text-anchor="middle" font-size="20" fill="#2f2518">106 م²</text>
            </g>
            
            <g>
              <rect x="844.3" y="390.0" width="505.7" height="240.0" fill="#d6bc87" stroke="#2f2518" stroke-width="8"/>
              <line x1="866.3" y1="398.0" x2="987.7" y2="398.0" stroke="#88bfc4" stroke-width="8" stroke-linecap="round"/>
              <path d="M 994.3 630.0 v -52 a 52 52 0 0 0 52 52" fill="none" stroke="#b8874f" stroke-width="4"/>
              <rect x="866.3" y="420.0" width="120.0" height="62" rx="8" fill="none" stroke="#2f2518" stroke-width="3"/><line x1="866.3" y1="448.0" x2="986.3" y2="448.0" stroke="#2f2518" stroke-width="2"/>
              <text x="1097.2" y="504.0" text-anchor="middle" font-size="30" font-weight="800" fill="#2f2518">جناح</text>
              <text x="1097.2" y="538.0" text-anchor="middle" font-size="20" fill="#2f2518">73 م²</text>
            </g>
            
            <g>
              <rect x="110.0" y="630.0" width="799.1" height="240.0" fill="#e7d2a8" stroke="#2f2518" stroke-width="8"/>
              <line x1="132.0" y1="638.0" x2="262.0" y2="638.0" stroke="#88bfc4" stroke-width="8" stroke-linecap="round"/>
              <path d="M 283.0 870.0 v -52 a 52 52 0 0 0 52 52" fill="none" stroke="#b8874f" stroke-width="4"/>
              <rect x="132.0" y="654.0" width="150.0" height="24" fill="none" stroke="#2f2518" stroke-width="3"/><circle cx="162.0" cy="698.0" r="12" fill="none" stroke="#b8874f" stroke-width="3"/><circle cx="198.0" cy="698.0" r="12" fill="none" stroke="#b8874f" stroke-width="3"/>
              <text x="509.6" y="744.0" text-anchor="middle" font-size="30" font-weight="800" fill="#2f2518">مطبخ</text>
              <text x="509.6" y="778.0" text-anchor="middle" font-size="20" fill="#2f2518">58 م²</text>
            </g>
            
            <g>
              <rect x="909.1" y="630.0" width="440.9" height="240.0" fill="#e7d2a8" stroke="#2f2518" stroke-width="8"/>
              <line x1="931.1" y1="638.0" x2="1036.9" y2="638.0" stroke="#88bfc4" stroke-width="8" stroke-linecap="round"/>
              <path d="M 1105.1 870.0 v -52 a 52 52 0 0 0 52 52" fill="none" stroke="#b8874f" stroke-width="4"/>
              <circle cx="954.1" cy="678.0" r="20" fill="none" stroke="#b8874f" stroke-width="4"/><rect x="987.1" y="658.0" width="46" height="38" rx="8" fill="none" stroke="#2f2518" stroke-width="3"/>
              <text x="1129.6" y="744.0" text-anchor="middle" font-size="30" font-weight="800" fill="#2f2518">ثلاثة حمامات</text>
              <text x="1129.6" y="778.0" text-anchor="middle" font-size="20" fill="#2f2518">32 م²</text>
            </g>
            </g>
  <line x1="110" y1="910" x2="1350" y2="910" stroke="#2f2518" stroke-width="3"/>
  <path d="M110 895v30M1350 895v30" stroke="#2f2518" stroke-width="3"/>
  <text x="730" y="948" text-anchor="middle" font-size="24" fill="#2f2518">أبعاد ومساحات تقريبية للتصور فقط</text>
  <path d="M1450 890 v-92 m0 0 -22 35 m22-35 22 35" stroke="#b8874f" stroke-width="7" stroke-linecap="round" stroke-linejoin="round"/>
  <text x="1450" y="936" text-anchor="middle" font-size="24" fill="#2f2518">شمال</text>
  <rect x="70" y="980" width="1460" height="46" fill="#2f2518"/>
  <text x="1490" y="1012" text-anchor="end" font-size="20" fill="#ffffff">kamel3lom | مخطط تخيلي غير معتمد هندسيًا</text>
  <text x="110" y="1012" font-size="20" fill="#ffffff">najdi-townhouse-0500</text>
</svg>