<svg xmlns="http://www.w3.org/2000/svg" viewBox="0 0 1600 1050" role="img" aria-label="Concept architectural 2D plan">
  <defs>
    <pattern id="grid-najdi-villa-4000" width="24" height="24" patternUnits="userSpaceOnUse">
      <path d="M 24 0 L 0 0 0 24" fill="none" stroke="#94a3b8" stroke-width="1" opacity=".18"/>
    </pattern>
  </defs>
  <rect width="1600" height="1050" fill="#f5edd8"/>
  <rect x="70" y="70" width="1460" height="900" fill="url(#grid-najdi-villa-4000)" stroke="#2f2518" stroke-width="3"/>
  <text x="1490" y="118" text-anchor="end" font-size="40" font-weight="900" fill="#2f2518">مخطط معماري مبدئي - فيلا نجدي</text>
  <text x="1490" y="158" text-anchor="end" font-size="24" fill="#2f2518">الفئة: 4000-4099 م² | الطوابق: 1-8</text>
  <path d="M 118 112 l 11 -18 l 11 18 z" fill="#b8874f" opacity=".85"/><path d="M 144 112 l 11 -18 l 11 18 z" fill="#b8874f" opacity=".85"/><path d="M 170 112 l 11 -18 l 11 18 z" fill="#b8874f" opacity=".85"/><path d="M 196 112 l 11 -18 l 11 18 z" fill="#b8874f" opacity=".85"/><path d="M 222 112 l 11 -18 l 11 18 z" fill="#b8874f" opacity=".85"/><path d="M 248 112 l 11 -18 l 11 18 z" fill="#b8874f" opacity=".85"/><path d="M 274 112 l 11 -18 l 11 18 z" fill="#b8874f" opacity=".85"/><path d="M 300 112 l 11 -18 l 11 18 z" fill="#b8874f" opacity=".85"/><path d="M 326 112 l 11 -18 l 11 18 z" fill="#b8874f" opacity=".85"/><path d="M 352 112 l 11 -18 l 11 18 z" fill="#b8874f" opacity=".85"/>
  <g>
            <g>
              <rect x="110.0" y="150.0" width="560.4" height="180.0" fill="#d6bc87" stroke="#2f2518" stroke-width="8"/>
              <line x1="132.0" y1="158.0" x2="262.0" y2="158.0" stroke="#88bfc4" stroke-width="8" stroke-linecap="round"/>
              <path d="M 168.0 330.0 v -52 a 52 52 0 0 0 52 52" fill="none" stroke="#b8874f" stroke-width="4"/>
              <rect x="132.0" y="180.0" width="160.0" height="42" rx="10" fill="none" stroke="#2f2518" stroke-width="3"/><rect x="152.0" y="242.0" width="64" height="36" rx="6" fill="none" stroke="#b8874f" stroke-width="3"/>
              <text x="390.2" y="234.0" text-anchor="middle" font-size="30" font-weight="800" fill="#2f2518">مجلس كبير</text>
              <text x="390.2" y="268.0" text-anchor="middle" font-size="20" fill="#2f2518">621 م²</text>
            </g>
            
            <g>
              <rect x="670.4" y="150.0" width="416.9" height="180.0" fill="#f5edd8" stroke="#2f2518" stroke-width="8"/>
              <line x1="692.4" y1="158.0" x2="792.5" y2="158.0" stroke="#88bfc4" stroke-width="8" stroke-linecap="round"/>
              <path d="M 751.4 330.0 v -52 a 52 52 0 0 0 52 52" fill="none" stroke="#b8874f" stroke-width="4"/>
              <rect x="692.4" y="180.0" width="120.0" height="62" rx="8" fill="none" stroke="#2f2518" stroke-width="3"/><line x1="692.4" y1="208.0" x2="812.4" y2="208.0" stroke="#2f2518" stroke-width="2"/>
              <text x="878.9" y="234.0" text-anchor="middle" font-size="30" font-weight="800" fill="#2f2518">جناحان</text>
              <text x="878.9" y="268.0" text-anchor="middle" font-size="20" fill="#2f2518">462 م²</text>
            </g>
            
            <g>
              <rect x="1087.4" y="150.0" width="262.6" height="180.0" fill="#d6bc87" stroke="#2f2518" stroke-width="8"/>
              <line x1="1109.4" y1="158.0" x2="1172.4" y2="158.0" stroke="#88bfc4" stroke-width="8" stroke-linecap="round"/>
              <path d="M 1191.4 330.0 v -52 a 52 52 0 0 0 52 52" fill="none" stroke="#b8874f" stroke-width="4"/>
              <rect x="1111.4" y="178.0" width="78.8" height="42" rx="6" fill="none" stroke="#2f2518" stroke-width="3"/>
              <text x="1218.7" y="234.0" text-anchor="middle" font-size="30" font-weight="800" fill="#2f2518">فناء</text>
              <text x="1218.7" y="268.0" text-anchor="middle" font-size="20" fill="#2f2518">291 م²</text>
            </g>
            
            <g>
              <rect x="110.0" y="330.0" width="597.8" height="180.0" fill="#f5edd8" stroke="#2f2518" stroke-width="8"/>
              <line x1="132.0" y1="338.0" x2="262.0" y2="338.0" stroke="#88bfc4" stroke-width="8" stroke-linecap="round"/>
              <path d="M 237.0 510.0 v -52 a 52 52 0 0 0 52 52" fill="none" stroke="#b8874f" stroke-width="4"/>
              <rect x="132.0" y="360.0" width="160.0" height="42" rx="10" fill="none" stroke="#2f2518" stroke-width="3"/><rect x="152.0" y="422.0" width="64" height="36" rx="6" fill="none" stroke="#b8874f" stroke-width="3"/>
              <text x="408.9" y="414.0" text-anchor="middle" font-size="30" font-weight="800" fill="#2f2518">استقبال</text>
              <text x="408.9" y="448.0" text-anchor="middle" font-size="20" fill="#2f2518">632 م²</text>
            </g>
            
            <g>
              <rect x="707.8" y="330.0" width="355.6" height="180.0" fill="#d6bc87" stroke="#2f2518" stroke-width="8"/>
              <line x1="729.8" y1="338.0" x2="815.1" y2="338.0" stroke="#88bfc4" stroke-width="8" stroke-linecap="round"/>
              <path d="M 857.8 510.0 v -52 a 52 52 0 0 0 52 52" fill="none" stroke="#b8874f" stroke-width="4"/>
              <ellipse cx="807.4" cy="398.4" rx="54" ry="34" fill="none" stroke="#2f2518" stroke-width="3"/><circle cx="807.4" cy="398.4" r="7" fill="#b8874f"/>
              <text x="885.6" y="414.0" text-anchor="middle" font-size="30" font-weight="800" fill="#2f2518">طعام</text>
              <text x="885.6" y="448.0" text-anchor="middle" font-size="20" fill="#2f2518">376 م²</text>
            </g>
            
            <g>
              <rect x="1063.4" y="330.0" width="286.6" height="180.0" fill="#f5edd8" stroke="#2f2518" stroke-width="8"/>
              <line x1="1085.4" y1="338.0" x2="1154.2" y2="338.0" stroke="#88bfc4" stroke-width="8" stroke-linecap="round"/>
              <path d="M 1236.4 510.0 v -52 a 52 52 0 0 0 52 52" fill="none" stroke="#b8874f" stroke-width="4"/>
              <rect x="1087.4" y="358.0" width="86.0" height="42" rx="6" fill="none" stroke="#2f2518" stroke-width="3"/>
              <text x="1206.7" y="414.0" text-anchor="middle" font-size="30" font-weight="800" fill="#2f2518">تراس</text>
              <text x="1206.7" y="448.0" text-anchor="middle" font-size="20" fill="#2f2518">303 م²</text>
            </g>
            
            <g>
              <rect x="110.0" y="510.0" width="569.3" height="180.0" fill="#d6bc87" stroke="#2f2518" stroke-width="8"/>
              <line x1="132.0" y1="518.0" x2="262.0" y2="518.0" stroke="#88bfc4" stroke-width="8" stroke-linecap="round"/>
              <path d="M 306.0 690.0 v -52 a 52 52 0 0 0 52 52" fill="none" stroke="#b8874f" stroke-width="4"/>
              <rect x="134.0" y="538.0" width="96.0" height="42" rx="6" fill="none" stroke="#2f2518" stroke-width="3"/>
              <text x="394.6" y="594.0" text-anchor="middle" font-size="30" font-weight="800" fill="#2f2518">صالتان</text>
              <text x="394.6" y="628.0" text-anchor="middle" font-size="20" fill="#2f2518">303 م²</text>
            </g>
            
            <g>
              <rect x="679.3" y="510.0" width="670.7" height="180.0" fill="#e7d2a8" stroke="#2f2518" stroke-width="8"/>
              <line x1="701.3" y1="518.0" x2="831.3" y2="518.0" stroke="#88bfc4" stroke-width="8" stroke-linecap="round"/>
              <path d="M 898.3 690.0 v -52 a 52 52 0 0 0 52 52" fill="none" stroke="#b8874f" stroke-width="4"/>
              <rect x="701.3" y="534.0" width="150.0" height="24" fill="none" stroke="#2f2518" stroke-width="3"/><circle cx="731.3" cy="578.0" r="12" fill="none" stroke="#b8874f" stroke-width="3"/><circle cx="767.3" cy="578.0" r="12" fill="none" stroke="#b8874f" stroke-width="3"/>
              <text x="1014.6" y="594.0" text-anchor="middle" font-size="30" font-weight="800" fill="#2f2518">مطبخان</text>
              <text x="1014.6" y="628.0" text-anchor="middle" font-size="20" fill="#2f2518">357 م²</text>
            </g>
            
            <g>
              <rect x="110.0" y="690.0" width="850.6" height="180.0" fill="#d6bc87" stroke="#2f2518" stroke-width="8"/>
              <line x1="132.0" y1="698.0" x2="262.0" y2="698.0" stroke="#88bfc4" stroke-width="8" stroke-linecap="round"/>
              <path d="M 352.0 870.0 v -52 a 52 52 0 0 0 52 52" fill="none" stroke="#b8874f" stroke-width="4"/>
              <rect x="132.0" y="720.0" width="120.0" height="62" rx="8" fill="none" stroke="#2f2518" stroke-width="3"/><line x1="132.0" y1="748.0" x2="252.0" y2="748.0" stroke="#2f2518" stroke-width="2"/>
              <text x="535.3" y="774.0" text-anchor="middle" font-size="30" font-weight="800" fill="#2f2518">ست غرف نوم</text>
              <text x="535.3" y="808.0" text-anchor="middle" font-size="20" fill="#2f2518">450 م²</text>
            </g>
            
            <g>
              <rect x="960.6" y="690.0" width="389.4" height="180.0" fill="#e7d2a8" stroke="#2f2518" stroke-width="8"/>
              <line x1="982.6" y1="698.0" x2="1076.1" y2="698.0" stroke="#88bfc4" stroke-width="8" stroke-linecap="round"/>
              <path d="M 1225.6 870.0 v -52 a 52 52 0 0 0 52 52" fill="none" stroke="#b8874f" stroke-width="4"/>
              <rect x="984.6" y="718.0" width="96.0" height="42" rx="6" fill="none" stroke="#2f2518" stroke-width="3"/>
              <text x="1155.3" y="774.0" text-anchor="middle" font-size="30" font-weight="800" fill="#2f2518">خدمات</text>
              <text x="1155.3" y="808.0" text-anchor="middle" font-size="20" fill="#2f2518">206 م²</text>
            </g>
            </g>
  <line x1="110" y1="910" x2="1350" y2="910" stroke="#2f2518" stroke-width="3"/>
  <path d="M110 895v30M1350 895v30" stroke="#2f2518" stroke-width="3"/>
  <text x="730" y="948" text-anchor="middle" font-size="24" fill="#2f2518">أبعاد ومساحات تقريبية للتصور فقط</text>
  <path d="M1450 890 v-92 m0 0 -22 35 m22-35 22 35" stroke="#b8874f" stroke-width="7" stroke-linecap="round" stroke-linejoin="round"/>
  <text x="1450" y="936" text-anchor="middle" font-size="24" fill="#2f2518">شمال</text>
  <rect x="70" y="980" width="1460" height="46" fill="#2f2518"/>
  <text x="1490" y="1012" text-anchor="end" font-size="20" fill="#ffffff">kamel3lom | مخطط تخيلي غير معتمد هندسيًا</text>
  <text x="110" y="1012" font-size="20" fill="#ffffff">najdi-villa-4000</text>
</svg>