<svg xmlns="http://www.w3.org/2000/svg" viewBox="0 0 1600 1050" role="img" aria-label="Concept architectural 2D plan">
  <defs>
    <pattern id="grid-najdi-simple_commercial-2300" width="24" height="24" patternUnits="userSpaceOnUse">
      <path d="M 24 0 L 0 0 0 24" fill="none" stroke="#94a3b8" stroke-width="1" opacity=".18"/>
    </pattern>
  </defs>
  <rect width="1600" height="1050" fill="#f5edd8"/>
  <rect x="70" y="70" width="1460" height="900" fill="url(#grid-najdi-simple_commercial-2300)" stroke="#2f2518" stroke-width="3"/>
  <text x="1490" y="118" text-anchor="end" font-size="40" font-weight="900" fill="#2f2518">مخطط معماري مبدئي - تجاري بسيط نجدي</text>
  <text x="1490" y="158" text-anchor="end" font-size="24" fill="#2f2518">الفئة: 2300-2399 م² | الطوابق: 1-8</text>
  <path d="M 118 112 l 11 -18 l 11 18 z" fill="#b8874f" opacity=".85"/><path d="M 144 112 l 11 -18 l 11 18 z" fill="#b8874f" opacity=".85"/><path d="M 170 112 l 11 -18 l 11 18 z" fill="#b8874f" opacity=".85"/><path d="M 196 112 l 11 -18 l 11 18 z" fill="#b8874f" opacity=".85"/><path d="M 222 112 l 11 -18 l 11 18 z" fill="#b8874f" opacity=".85"/><path d="M 248 112 l 11 -18 l 11 18 z" fill="#b8874f" opacity=".85"/><path d="M 274 112 l 11 -18 l 11 18 z" fill="#b8874f" opacity=".85"/><path d="M 300 112 l 11 -18 l 11 18 z" fill="#b8874f" opacity=".85"/><path d="M 326 112 l 11 -18 l 11 18 z" fill="#b8874f" opacity=".85"/><path d="M 352 112 l 11 -18 l 11 18 z" fill="#b8874f" opacity=".85"/>
  <g>
            <g>
              <rect x="110.0" y="150.0" width="689.3" height="240.0" fill="#d6bc87" stroke="#2f2518" stroke-width="8"/>
              <line x1="132.0" y1="158.0" x2="262.0" y2="158.0" stroke="#88bfc4" stroke-width="8" stroke-linecap="round"/>
              <path d="M 168.0 390.0 v -52 a 52 52 0 0 0 52 52" fill="none" stroke="#b8874f" stroke-width="4"/>
              <rect x="134.0" y="178.0" width="96.0" height="42" rx="6" fill="none" stroke="#2f2518" stroke-width="3"/>
              <text x="454.7" y="264.0" text-anchor="middle" font-size="30" font-weight="800" fill="#2f2518">معرض رئيسي</text>
              <text x="454.7" y="298.0" text-anchor="middle" font-size="20" fill="#2f2518">552 م²</text>
            </g>
            
            <g>
              <rect x="799.3" y="150.0" width="222.3" height="240.0" fill="#e7d2a8" stroke="#2f2518" stroke-width="8"/>
              <line x1="821.3" y1="158.0" x2="874.7" y2="158.0" stroke="#88bfc4" stroke-width="8" stroke-linecap="round"/>
              <path d="M 880.3 390.0 v -52 a 52 52 0 0 0 52 52" fill="none" stroke="#b8874f" stroke-width="4"/>
              <rect x="823.3" y="178.0" width="66.7" height="42" rx="6" fill="none" stroke="#2f2518" stroke-width="3"/>
              <text x="910.4" y="264.0" text-anchor="middle" font-size="30" font-weight="800" fill="#2f2518">خدمات</text>
              <text x="910.4" y="298.0" text-anchor="middle" font-size="20" fill="#2f2518">178 م²</text>
            </g>
            
            <g>
              <rect x="1021.6" y="150.0" width="328.4" height="240.0" fill="#d6bc87" stroke="#2f2518" stroke-width="8"/>
              <line x1="1043.6" y1="158.0" x2="1122.4" y2="158.0" stroke="#88bfc4" stroke-width="8" stroke-linecap="round"/>
              <path d="M 1125.6 390.0 v -52 a 52 52 0 0 0 52 52" fill="none" stroke="#b8874f" stroke-width="4"/>
              <rect x="1045.6" y="178.0" width="96.0" height="42" rx="6" fill="none" stroke="#2f2518" stroke-width="3"/>
              <text x="1185.8" y="264.0" text-anchor="middle" font-size="30" font-weight="800" fill="#2f2518">غرفة ميكانيكا</text>
              <text x="1185.8" y="298.0" text-anchor="middle" font-size="20" fill="#2f2518">263 م²</text>
            </g>
            
            <g>
              <rect x="110.0" y="390.0" width="649.3" height="240.0" fill="#f5edd8" stroke="#2f2518" stroke-width="8"/>
              <line x1="132.0" y1="398.0" x2="262.0" y2="398.0" stroke="#88bfc4" stroke-width="8" stroke-linecap="round"/>
              <path d="M 237.0 630.0 v -52 a 52 52 0 0 0 52 52" fill="none" stroke="#b8874f" stroke-width="4"/>
              <rect x="134.0" y="418.0" width="96.0" height="42" rx="6" fill="none" stroke="#2f2518" stroke-width="3"/>
              <text x="434.6" y="504.0" text-anchor="middle" font-size="30" font-weight="800" fill="#2f2518">مكاتب متعددة</text>
              <text x="434.6" y="538.0" text-anchor="middle" font-size="20" fill="#2f2518">266 م²</text>
            </g>
            
            <g>
              <rect x="759.3" y="390.0" width="590.7" height="240.0" fill="#d6bc87" stroke="#2f2518" stroke-width="8"/>
              <line x1="781.3" y1="398.0" x2="911.3" y2="398.0" stroke="#88bfc4" stroke-width="8" stroke-linecap="round"/>
              <path d="M 909.3 630.0 v -52 a 52 52 0 0 0 52 52" fill="none" stroke="#b8874f" stroke-width="4"/>
              <rect x="783.3" y="418.0" width="96.0" height="42" rx="6" fill="none" stroke="#2f2518" stroke-width="3"/>
              <text x="1054.6" y="504.0" text-anchor="middle" font-size="30" font-weight="800" fill="#2f2518">مخازن</text>
              <text x="1054.6" y="538.0" text-anchor="middle" font-size="20" fill="#2f2518">242 م²</text>
            </g>
            
            <g>
              <rect x="110.0" y="630.0" width="847.4" height="240.0" fill="#f5edd8" stroke="#2f2518" stroke-width="8"/>
              <line x1="132.0" y1="638.0" x2="262.0" y2="638.0" stroke="#88bfc4" stroke-width="8" stroke-linecap="round"/>
              <path d="M 283.0 870.0 v -52 a 52 52 0 0 0 52 52" fill="none" stroke="#b8874f" stroke-width="4"/>
              <rect x="132.0" y="660.0" width="160.0" height="42" rx="10" fill="none" stroke="#2f2518" stroke-width="3"/><rect x="152.0" y="722.0" width="64" height="36" rx="6" fill="none" stroke="#b8874f" stroke-width="3"/>
              <text x="533.7" y="744.0" text-anchor="middle" font-size="30" font-weight="800" fill="#2f2518">استقبال</text>
              <text x="533.7" y="778.0" text-anchor="middle" font-size="20" fill="#2f2518">546 م²</text>
            </g>
            
            <g>
              <rect x="957.4" y="630.0" width="392.6" height="240.0" fill="#d6bc87" stroke="#2f2518" stroke-width="8"/>
              <line x1="979.4" y1="638.0" x2="1073.6" y2="638.0" stroke="#88bfc4" stroke-width="8" stroke-linecap="round"/>
              <path d="M 1153.4 870.0 v -52 a 52 52 0 0 0 52 52" fill="none" stroke="#b8874f" stroke-width="4"/>
              <rect x="981.4" y="658.0" width="96.0" height="42" rx="6" fill="none" stroke="#2f2518" stroke-width="3"/>
              <text x="1153.7" y="744.0" text-anchor="middle" font-size="30" font-weight="800" fill="#2f2518">غرفة كهرباء</text>
              <text x="1153.7" y="778.0" text-anchor="middle" font-size="20" fill="#2f2518">253 م²</text>
            </g>
            </g>
  <line x1="110" y1="910" x2="1350" y2="910" stroke="#2f2518" stroke-width="3"/>
  <path d="M110 895v30M1350 895v30" stroke="#2f2518" stroke-width="3"/>
  <text x="730" y="948" text-anchor="middle" font-size="24" fill="#2f2518">أبعاد ومساحات تقريبية للتصور فقط</text>
  <path d="M1450 890 v-92 m0 0 -22 35 m22-35 22 35" stroke="#b8874f" stroke-width="7" stroke-linecap="round" stroke-linejoin="round"/>
  <text x="1450" y="936" text-anchor="middle" font-size="24" fill="#2f2518">شمال</text>
  <rect x="70" y="980" width="1460" height="46" fill="#2f2518"/>
  <text x="1490" y="1012" text-anchor="end" font-size="20" fill="#ffffff">kamel3lom | مخطط تخيلي غير معتمد هندسيًا</text>
  <text x="110" y="1012" font-size="20" fill="#ffffff">najdi-simple_commercial-2300</text>
</svg>