<svg xmlns="http://www.w3.org/2000/svg" viewBox="0 0 1600 1050" role="img" aria-label="Concept architectural 2D plan">
  <defs>
    <pattern id="grid-najdi-villa-0800" width="24" height="24" patternUnits="userSpaceOnUse">
      <path d="M 24 0 L 0 0 0 24" fill="none" stroke="#94a3b8" stroke-width="1" opacity=".18"/>
    </pattern>
  </defs>
  <rect width="1600" height="1050" fill="#f5edd8"/>
  <rect x="70" y="70" width="1460" height="900" fill="url(#grid-najdi-villa-0800)" stroke="#2f2518" stroke-width="3"/>
  <text x="1490" y="118" text-anchor="end" font-size="40" font-weight="900" fill="#2f2518">مخطط معماري مبدئي - فيلا نجدي</text>
  <text x="1490" y="158" text-anchor="end" font-size="24" fill="#2f2518">الفئة: 800-899 م² | الطوابق: 1-4</text>
  <path d="M 118 112 l 11 -18 l 11 18 z" fill="#b8874f" opacity=".85"/><path d="M 144 112 l 11 -18 l 11 18 z" fill="#b8874f" opacity=".85"/><path d="M 170 112 l 11 -18 l 11 18 z" fill="#b8874f" opacity=".85"/><path d="M 196 112 l 11 -18 l 11 18 z" fill="#b8874f" opacity=".85"/><path d="M 222 112 l 11 -18 l 11 18 z" fill="#b8874f" opacity=".85"/><path d="M 248 112 l 11 -18 l 11 18 z" fill="#b8874f" opacity=".85"/><path d="M 274 112 l 11 -18 l 11 18 z" fill="#b8874f" opacity=".85"/><path d="M 300 112 l 11 -18 l 11 18 z" fill="#b8874f" opacity=".85"/><path d="M 326 112 l 11 -18 l 11 18 z" fill="#b8874f" opacity=".85"/><path d="M 352 112 l 11 -18 l 11 18 z" fill="#b8874f" opacity=".85"/>
  <g>
            <g>
              <rect x="110.0" y="150.0" width="608.7" height="240.0" fill="#d6bc87" stroke="#2f2518" stroke-width="8"/>
              <line x1="132.0" y1="158.0" x2="262.0" y2="158.0" stroke="#88bfc4" stroke-width="8" stroke-linecap="round"/>
              <path d="M 168.0 390.0 v -52 a 52 52 0 0 0 52 52" fill="none" stroke="#b8874f" stroke-width="4"/>
              <rect x="132.0" y="180.0" width="160.0" height="42" rx="10" fill="none" stroke="#2f2518" stroke-width="3"/><rect x="152.0" y="242.0" width="64" height="36" rx="6" fill="none" stroke="#b8874f" stroke-width="3"/>
              <text x="414.3" y="264.0" text-anchor="middle" font-size="30" font-weight="800" fill="#2f2518">مجلس</text>
              <text x="414.3" y="298.0" text-anchor="middle" font-size="20" fill="#2f2518">161 م²</text>
            </g>
            
            <g>
              <rect x="718.7" y="150.0" width="442.3" height="240.0" fill="#f5edd8" stroke="#2f2518" stroke-width="8"/>
              <line x1="740.7" y1="158.0" x2="846.8" y2="158.0" stroke="#88bfc4" stroke-width="8" stroke-linecap="round"/>
              <path d="M 799.7 390.0 v -52 a 52 52 0 0 0 52 52" fill="none" stroke="#b8874f" stroke-width="4"/>
              <rect x="740.7" y="180.0" width="120.0" height="62" rx="8" fill="none" stroke="#2f2518" stroke-width="3"/><line x1="740.7" y1="208.0" x2="860.7" y2="208.0" stroke="#2f2518" stroke-width="2"/>
              <text x="939.8" y="264.0" text-anchor="middle" font-size="30" font-weight="800" fill="#2f2518">جناح رئيسي</text>
              <text x="939.8" y="298.0" text-anchor="middle" font-size="20" fill="#2f2518">117 م²</text>
            </g>
            
            <g>
              <rect x="1161.0" y="150.0" width="189.0" height="240.0" fill="#e7d2a8" stroke="#2f2518" stroke-width="8"/>
              <line x1="1183.0" y1="158.0" x2="1228.3" y2="158.0" stroke="#88bfc4" stroke-width="8" stroke-linecap="round"/>
              <path d="M 1265.0 390.0 v -52 a 52 52 0 0 0 52 52" fill="none" stroke="#b8874f" stroke-width="4"/>
              <rect x="1185.0" y="178.0" width="56.7" height="42" rx="6" fill="none" stroke="#2f2518" stroke-width="3"/>
              <text x="1255.5" y="264.0" text-anchor="middle" font-size="30" font-weight="800" fill="#2f2518">خدمات</text>
              <text x="1255.5" y="298.0" text-anchor="middle" font-size="20" fill="#2f2518">50 م²</text>
            </g>
            
            <g>
              <rect x="110.0" y="390.0" width="374.0" height="240.0" fill="#f5edd8" stroke="#2f2518" stroke-width="8"/>
              <line x1="132.0" y1="398.0" x2="221.8" y2="398.0" stroke="#88bfc4" stroke-width="8" stroke-linecap="round"/>
              <path d="M 237.0 630.0 v -52 a 52 52 0 0 0 52 52" fill="none" stroke="#b8874f" stroke-width="4"/>
              <rect x="134.0" y="418.0" width="96.0" height="42" rx="6" fill="none" stroke="#2f2518" stroke-width="3"/>
              <text x="297.0" y="504.0" text-anchor="middle" font-size="30" font-weight="800" fill="#2f2518">صالتان</text>
              <text x="297.0" y="538.0" text-anchor="middle" font-size="20" fill="#2f2518">76 م²</text>
            </g>
            
            <g>
              <rect x="484.0" y="390.0" width="467.5" height="240.0" fill="#d6bc87" stroke="#2f2518" stroke-width="8"/>
              <line x1="506.0" y1="398.0" x2="618.2" y2="398.0" stroke="#88bfc4" stroke-width="8" stroke-linecap="round"/>
              <path d="M 634.0 630.0 v -52 a 52 52 0 0 0 52 52" fill="none" stroke="#b8874f" stroke-width="4"/>
              <ellipse cx="614.9" cy="481.2" rx="54" ry="34" fill="none" stroke="#2f2518" stroke-width="3"/><circle cx="614.9" cy="481.2" r="7" fill="#b8874f"/>
              <text x="717.7" y="504.0" text-anchor="middle" font-size="30" font-weight="800" fill="#2f2518">طعام</text>
              <text x="717.7" y="538.0" text-anchor="middle" font-size="20" fill="#2f2518">95 م²</text>
            </g>
            
            <g>
              <rect x="951.4" y="390.0" width="398.6" height="240.0" fill="#f5edd8" stroke="#2f2518" stroke-width="8"/>
              <line x1="973.4" y1="398.0" x2="1069.1" y2="398.0" stroke="#88bfc4" stroke-width="8" stroke-linecap="round"/>
              <path d="M 1124.4 630.0 v -52 a 52 52 0 0 0 52 52" fill="none" stroke="#b8874f" stroke-width="4"/>
              <rect x="975.4" y="418.0" width="96.0" height="42" rx="6" fill="none" stroke="#2f2518" stroke-width="3"/>
              <text x="1150.7" y="504.0" text-anchor="middle" font-size="30" font-weight="800" fill="#2f2518">فناء</text>
              <text x="1150.7" y="538.0" text-anchor="middle" font-size="20" fill="#2f2518">81 م²</text>
            </g>
            
            <g>
              <rect x="110.0" y="630.0" width="687.6" height="240.0" fill="#d6bc87" stroke="#2f2518" stroke-width="8"/>
              <line x1="132.0" y1="638.0" x2="262.0" y2="638.0" stroke="#88bfc4" stroke-width="8" stroke-linecap="round"/>
              <path d="M 306.0 870.0 v -52 a 52 52 0 0 0 52 52" fill="none" stroke="#b8874f" stroke-width="4"/>
              <rect x="132.0" y="660.0" width="120.0" height="62" rx="8" fill="none" stroke="#2f2518" stroke-width="3"/><line x1="132.0" y1="688.0" x2="252.0" y2="688.0" stroke="#2f2518" stroke-width="2"/>
              <text x="453.8" y="744.0" text-anchor="middle" font-size="30" font-weight="800" fill="#2f2518">أربع غرف نوم</text>
              <text x="453.8" y="778.0" text-anchor="middle" font-size="20" fill="#2f2518">122 م²</text>
            </g>
            
            <g>
              <rect x="797.6" y="630.0" width="552.4" height="240.0" fill="#e7d2a8" stroke="#2f2518" stroke-width="8"/>
              <line x1="819.6" y1="638.0" x2="949.6" y2="638.0" stroke="#88bfc4" stroke-width="8" stroke-linecap="round"/>
              <path d="M 1016.6 870.0 v -52 a 52 52 0 0 0 52 52" fill="none" stroke="#b8874f" stroke-width="4"/>
              <rect x="819.6" y="654.0" width="150.0" height="24" fill="none" stroke="#2f2518" stroke-width="3"/><circle cx="849.6" cy="698.0" r="12" fill="none" stroke="#b8874f" stroke-width="3"/><circle cx="885.6" cy="698.0" r="12" fill="none" stroke="#b8874f" stroke-width="3"/>
              <text x="1073.8" y="744.0" text-anchor="middle" font-size="30" font-weight="800" fill="#2f2518">مطبخ</text>
              <text x="1073.8" y="778.0" text-anchor="middle" font-size="20" fill="#2f2518">98 م²</text>
            </g>
            </g>
  <line x1="110" y1="910" x2="1350" y2="910" stroke="#2f2518" stroke-width="3"/>
  <path d="M110 895v30M1350 895v30" stroke="#2f2518" stroke-width="3"/>
  <text x="730" y="948" text-anchor="middle" font-size="24" fill="#2f2518">أبعاد ومساحات تقريبية للتصور فقط</text>
  <path d="M1450 890 v-92 m0 0 -22 35 m22-35 22 35" stroke="#b8874f" stroke-width="7" stroke-linecap="round" stroke-linejoin="round"/>
  <text x="1450" y="936" text-anchor="middle" font-size="24" fill="#2f2518">شمال</text>
  <rect x="70" y="980" width="1460" height="46" fill="#2f2518"/>
  <text x="1490" y="1012" text-anchor="end" font-size="20" fill="#ffffff">kamel3lom | مخطط تخيلي غير معتمد هندسيًا</text>
  <text x="110" y="1012" font-size="20" fill="#ffffff">najdi-villa-0800</text>
</svg>