<svg xmlns="http://www.w3.org/2000/svg" viewBox="0 0 1600 1050" role="img" aria-label="Concept architectural 2D plan">
  <defs>
    <pattern id="grid-najdi-townhouse-0100" width="24" height="24" patternUnits="userSpaceOnUse">
      <path d="M 24 0 L 0 0 0 24" fill="none" stroke="#94a3b8" stroke-width="1" opacity=".18"/>
    </pattern>
  </defs>
  <rect width="1600" height="1050" fill="#f5edd8"/>
  <rect x="70" y="70" width="1460" height="900" fill="url(#grid-najdi-townhouse-0100)" stroke="#2f2518" stroke-width="3"/>
  <text x="1490" y="118" text-anchor="end" font-size="40" font-weight="900" fill="#2f2518">مخطط معماري مبدئي - تاون هاوس نجدي</text>
  <text x="1490" y="158" text-anchor="end" font-size="24" fill="#2f2518">الفئة: 100-199 م² | الطوابق: 1-2</text>
  <path d="M 118 112 l 11 -18 l 11 18 z" fill="#b8874f" opacity=".85"/><path d="M 144 112 l 11 -18 l 11 18 z" fill="#b8874f" opacity=".85"/><path d="M 170 112 l 11 -18 l 11 18 z" fill="#b8874f" opacity=".85"/><path d="M 196 112 l 11 -18 l 11 18 z" fill="#b8874f" opacity=".85"/><path d="M 222 112 l 11 -18 l 11 18 z" fill="#b8874f" opacity=".85"/><path d="M 248 112 l 11 -18 l 11 18 z" fill="#b8874f" opacity=".85"/><path d="M 274 112 l 11 -18 l 11 18 z" fill="#b8874f" opacity=".85"/><path d="M 300 112 l 11 -18 l 11 18 z" fill="#b8874f" opacity=".85"/><path d="M 326 112 l 11 -18 l 11 18 z" fill="#b8874f" opacity=".85"/><path d="M 352 112 l 11 -18 l 11 18 z" fill="#b8874f" opacity=".85"/>
  <g>
            <g>
              <rect x="110.0" y="150.0" width="696.1" height="360.0" fill="#d6bc87" stroke="#2f2518" stroke-width="8"/>
              <line x1="132.0" y1="158.0" x2="262.0" y2="158.0" stroke="#88bfc4" stroke-width="8" stroke-linecap="round"/>
              <path d="M 168.0 510.0 v -52 a 52 52 0 0 0 52 52" fill="none" stroke="#b8874f" stroke-width="4"/>
              <rect x="132.0" y="180.0" width="160.0" height="42" rx="10" fill="none" stroke="#2f2518" stroke-width="3"/><rect x="152.0" y="242.0" width="64" height="36" rx="6" fill="none" stroke="#b8874f" stroke-width="3"/>
              <text x="458.1" y="324.0" text-anchor="middle" font-size="30" font-weight="800" fill="#2f2518">معيشة</text>
              <text x="458.1" y="358.0" text-anchor="middle" font-size="20" fill="#2f2518">32 م²</text>
            </g>
            
            <g>
              <rect x="806.1" y="150.0" width="217.5" height="360.0" fill="#e7d2a8" stroke="#2f2518" stroke-width="8"/>
              <line x1="828.1" y1="158.0" x2="880.4" y2="158.0" stroke="#88bfc4" stroke-width="8" stroke-linecap="round"/>
              <path d="M 887.1 510.0 v -52 a 52 52 0 0 0 52 52" fill="none" stroke="#b8874f" stroke-width="4"/>
              <circle cx="851.1" cy="198.0" r="20" fill="none" stroke="#b8874f" stroke-width="4"/><rect x="884.1" y="178.0" width="46" height="38" rx="8" fill="none" stroke="#2f2518" stroke-width="3"/>
              <text x="914.9" y="324.0" text-anchor="middle" font-size="30" font-weight="800" fill="#2f2518">حمام ضيوف</text>
              <text x="914.9" y="358.0" text-anchor="middle" font-size="20" fill="#2f2518">10 م²</text>
            </g>
            
            <g>
              <rect x="1023.7" y="150.0" width="326.3" height="360.0" fill="#d6bc87" stroke="#2f2518" stroke-width="8"/>
              <line x1="1045.7" y1="158.0" x2="1124.0" y2="158.0" stroke="#88bfc4" stroke-width="8" stroke-linecap="round"/>
              <path d="M 1127.7 510.0 v -52 a 52 52 0 0 0 52 52" fill="none" stroke="#b8874f" stroke-width="4"/>
              <rect x="1047.7" y="178.0" width="96.0" height="42" rx="6" fill="none" stroke="#2f2518" stroke-width="3"/>
              <text x="1186.8" y="324.0" text-anchor="middle" font-size="30" font-weight="800" fill="#2f2518">تراس</text>
              <text x="1186.8" y="358.0" text-anchor="middle" font-size="20" fill="#2f2518">15 م²</text>
            </g>
            
            <g>
              <rect x="110.0" y="510.0" width="547.9" height="360.0" fill="#e7d2a8" stroke="#2f2518" stroke-width="8"/>
              <line x1="132.0" y1="518.0" x2="262.0" y2="518.0" stroke="#88bfc4" stroke-width="8" stroke-linecap="round"/>
              <path d="M 237.0 870.0 v -52 a 52 52 0 0 0 52 52" fill="none" stroke="#b8874f" stroke-width="4"/>
              <rect x="132.0" y="534.0" width="150.0" height="24" fill="none" stroke="#2f2518" stroke-width="3"/><circle cx="162.0" cy="578.0" r="12" fill="none" stroke="#b8874f" stroke-width="3"/><circle cx="198.0" cy="578.0" r="12" fill="none" stroke="#b8874f" stroke-width="3"/>
              <text x="384.0" y="684.0" text-anchor="middle" font-size="30" font-weight="800" fill="#2f2518">مطبخ</text>
              <text x="384.0" y="718.0" text-anchor="middle" font-size="20" fill="#2f2518">19 م²</text>
            </g>
            
            <g>
              <rect x="657.9" y="510.0" width="692.1" height="360.0" fill="#d6bc87" stroke="#2f2518" stroke-width="8"/>
              <line x1="679.9" y1="518.0" x2="809.9" y2="518.0" stroke="#88bfc4" stroke-width="8" stroke-linecap="round"/>
              <path d="M 807.9 870.0 v -52 a 52 52 0 0 0 52 52" fill="none" stroke="#b8874f" stroke-width="4"/>
              <rect x="679.9" y="540.0" width="120.0" height="62" rx="8" fill="none" stroke="#2f2518" stroke-width="3"/><line x1="679.9" y1="568.0" x2="799.9" y2="568.0" stroke="#2f2518" stroke-width="2"/>
              <text x="1004.0" y="684.0" text-anchor="middle" font-size="30" font-weight="800" fill="#2f2518">غرفتا نوم</text>
              <text x="1004.0" y="718.0" text-anchor="middle" font-size="20" fill="#2f2518">24 م²</text>
            </g>
            </g>
  <line x1="110" y1="910" x2="1350" y2="910" stroke="#2f2518" stroke-width="3"/>
  <path d="M110 895v30M1350 895v30" stroke="#2f2518" stroke-width="3"/>
  <text x="730" y="948" text-anchor="middle" font-size="24" fill="#2f2518">أبعاد ومساحات تقريبية للتصور فقط</text>
  <path d="M1450 890 v-92 m0 0 -22 35 m22-35 22 35" stroke="#b8874f" stroke-width="7" stroke-linecap="round" stroke-linejoin="round"/>
  <text x="1450" y="936" text-anchor="middle" font-size="24" fill="#2f2518">شمال</text>
  <rect x="70" y="980" width="1460" height="46" fill="#2f2518"/>
  <text x="1490" y="1012" text-anchor="end" font-size="20" fill="#ffffff">kamel3lom | مخطط تخيلي غير معتمد هندسيًا</text>
  <text x="110" y="1012" font-size="20" fill="#ffffff">najdi-townhouse-0100</text>
</svg>