<svg xmlns="http://www.w3.org/2000/svg" viewBox="0 0 1600 1050" role="img" aria-label="Concept architectural 2D plan">
  <defs>
    <pattern id="grid-shami-studio-2100" width="24" height="24" patternUnits="userSpaceOnUse">
      <path d="M 24 0 L 0 0 0 24" fill="none" stroke="#94a3b8" stroke-width="1" opacity=".18"/>
    </pattern>
  </defs>
  <rect width="1600" height="1050" fill="#f5efe3"/>
  <rect x="70" y="70" width="1460" height="900" fill="url(#grid-shami-studio-2100)" stroke="#263238" stroke-width="3"/>
  <text x="1490" y="118" text-anchor="end" font-size="40" font-weight="900" fill="#263238">مخطط معماري مبدئي - استوديو شامي</text>
  <text x="1490" y="158" text-anchor="end" font-size="24" fill="#263238">الفئة: 2100-2199 م² | الطوابق: 1-8</text>
  <path d="M 118 112 q 18 -34 36 0" fill="none" stroke="#7b3f2a" stroke-width="4"/><path d="M 164 112 q 18 -34 36 0" fill="none" stroke="#7b3f2a" stroke-width="4"/><path d="M 210 112 q 18 -34 36 0" fill="none" stroke="#7b3f2a" stroke-width="4"/><path d="M 256 112 q 18 -34 36 0" fill="none" stroke="#7b3f2a" stroke-width="4"/><path d="M 302 112 q 18 -34 36 0" fill="none" stroke="#7b3f2a" stroke-width="4"/><path d="M 348 112 q 18 -34 36 0" fill="none" stroke="#7b3f2a" stroke-width="4"/><path d="M 394 112 q 18 -34 36 0" fill="none" stroke="#7b3f2a" stroke-width="4"/>
  <g>
            <g>
              <rect x="110.0" y="150.0" width="551.3" height="240.0" fill="#f0dfc2" stroke="#263238" stroke-width="8"/>
              <line x1="132.0" y1="158.0" x2="262.0" y2="158.0" stroke="#8fd4dc" stroke-width="8" stroke-linecap="round"/>
              <path d="M 168.0 390.0 v -52 a 52 52 0 0 0 52 52" fill="none" stroke="#7b3f2a" stroke-width="4"/>
              <rect x="132.0" y="180.0" width="120.0" height="62" rx="8" fill="none" stroke="#263238" stroke-width="3"/><line x1="132.0" y1="208.0" x2="252.0" y2="208.0" stroke="#263238" stroke-width="2"/>
              <text x="385.6" y="264.0" text-anchor="middle" font-size="30" font-weight="800" fill="#263238">جناح نوم</text>
              <text x="385.6" y="298.0" text-anchor="middle" font-size="20" fill="#263238">369 م²</text>
            </g>
            
            <g>
              <rect x="661.3" y="150.0" width="439.2" height="240.0" fill="#d9b27c" stroke="#263238" stroke-width="8"/>
              <line x1="683.3" y1="158.0" x2="788.7" y2="158.0" stroke="#8fd4dc" stroke-width="8" stroke-linecap="round"/>
              <path d="M 742.3 390.0 v -52 a 52 52 0 0 0 52 52" fill="none" stroke="#7b3f2a" stroke-width="4"/>
              <rect x="683.3" y="174.0" width="150.0" height="24" fill="none" stroke="#263238" stroke-width="3"/><circle cx="713.3" cy="218.0" r="12" fill="none" stroke="#7b3f2a" stroke-width="3"/><circle cx="749.3" cy="218.0" r="12" fill="none" stroke="#7b3f2a" stroke-width="3"/>
              <text x="880.9" y="264.0" text-anchor="middle" font-size="30" font-weight="800" fill="#263238">مطبخ</text>
              <text x="880.9" y="298.0" text-anchor="middle" font-size="20" fill="#263238">294 م²</text>
            </g>
            
            <g>
              <rect x="1100.5" y="150.0" width="249.5" height="240.0" fill="#f0dfc2" stroke="#263238" stroke-width="8"/>
              <line x1="1122.5" y1="158.0" x2="1182.4" y2="158.0" stroke="#8fd4dc" stroke-width="8" stroke-linecap="round"/>
              <path d="M 1204.5 390.0 v -52 a 52 52 0 0 0 52 52" fill="none" stroke="#7b3f2a" stroke-width="4"/>
              <rect x="1124.5" y="178.0" width="74.8" height="42" rx="6" fill="none" stroke="#263238" stroke-width="3"/>
              <text x="1225.3" y="264.0" text-anchor="middle" font-size="30" font-weight="800" fill="#263238">مخزن</text>
              <text x="1225.3" y="298.0" text-anchor="middle" font-size="20" fill="#263238">167 م²</text>
            </g>
            
            <g>
              <rect x="110.0" y="390.0" width="962.6" height="240.0" fill="#f5efe3" stroke="#263238" stroke-width="8"/>
              <line x1="132.0" y1="398.0" x2="262.0" y2="398.0" stroke="#8fd4dc" stroke-width="8" stroke-linecap="round"/>
              <path d="M 237.0 630.0 v -52 a 52 52 0 0 0 52 52" fill="none" stroke="#7b3f2a" stroke-width="4"/>
              <rect x="132.0" y="420.0" width="160.0" height="42" rx="10" fill="none" stroke="#263238" stroke-width="3"/><rect x="152.0" y="482.0" width="64" height="36" rx="6" fill="none" stroke="#7b3f2a" stroke-width="3"/>
              <text x="591.3" y="504.0" text-anchor="middle" font-size="30" font-weight="800" fill="#263238">معيشة كبيرة</text>
              <text x="591.3" y="538.0" text-anchor="middle" font-size="20" fill="#263238">517 م²</text>
            </g>
            
            <g>
              <rect x="1072.6" y="390.0" width="277.4" height="240.0" fill="#d9b27c" stroke="#263238" stroke-width="8"/>
              <line x1="1094.6" y1="398.0" x2="1161.2" y2="398.0" stroke="#8fd4dc" stroke-width="8" stroke-linecap="round"/>
              <path d="M 1222.6 630.0 v -52 a 52 52 0 0 0 52 52" fill="none" stroke="#7b3f2a" stroke-width="4"/>
              <circle cx="1117.6" cy="438.0" r="20" fill="none" stroke="#7b3f2a" stroke-width="4"/><rect x="1150.6" y="418.0" width="46" height="38" rx="8" fill="none" stroke="#263238" stroke-width="3"/>
              <text x="1211.3" y="504.0" text-anchor="middle" font-size="30" font-weight="800" fill="#263238">حمامين</text>
              <text x="1211.3" y="538.0" text-anchor="middle" font-size="20" fill="#263238">149 م²</text>
            </g>
            
            <g>
              <rect x="110.0" y="630.0" width="743.2" height="240.0" fill="#f5efe3" stroke="#263238" stroke-width="8"/>
              <line x1="132.0" y1="638.0" x2="262.0" y2="638.0" stroke="#8fd4dc" stroke-width="8" stroke-linecap="round"/>
              <path d="M 283.0 870.0 v -52 a 52 52 0 0 0 52 52" fill="none" stroke="#7b3f2a" stroke-width="4"/>
              <rect x="134.0" y="658.0" width="96.0" height="42" rx="6" fill="none" stroke="#263238" stroke-width="3"/>
              <text x="481.6" y="744.0" text-anchor="middle" font-size="30" font-weight="800" fill="#263238">مكتب</text>
              <text x="481.6" y="778.0" text-anchor="middle" font-size="20" fill="#263238">362 م²</text>
            </g>
            
            <g>
              <rect x="853.2" y="630.0" width="496.8" height="240.0" fill="#f0dfc2" stroke="#263238" stroke-width="8"/>
              <line x1="875.2" y1="638.0" x2="994.4" y2="638.0" stroke="#8fd4dc" stroke-width="8" stroke-linecap="round"/>
              <path d="M 1049.2 870.0 v -52 a 52 52 0 0 0 52 52" fill="none" stroke="#7b3f2a" stroke-width="4"/>
              <rect x="877.2" y="658.0" width="96.0" height="42" rx="6" fill="none" stroke="#263238" stroke-width="3"/>
              <text x="1101.6" y="744.0" text-anchor="middle" font-size="30" font-weight="800" fill="#263238">تراس</text>
              <text x="1101.6" y="778.0" text-anchor="middle" font-size="20" fill="#263238">242 م²</text>
            </g>
            </g>
  <line x1="110" y1="910" x2="1350" y2="910" stroke="#263238" stroke-width="3"/>
  <path d="M110 895v30M1350 895v30" stroke="#263238" stroke-width="3"/>
  <text x="730" y="948" text-anchor="middle" font-size="24" fill="#263238">أبعاد ومساحات تقريبية للتصور فقط</text>
  <path d="M1450 890 v-92 m0 0 -22 35 m22-35 22 35" stroke="#7b3f2a" stroke-width="7" stroke-linecap="round" stroke-linejoin="round"/>
  <text x="1450" y="936" text-anchor="middle" font-size="24" fill="#263238">شمال</text>
  <rect x="70" y="980" width="1460" height="46" fill="#263238"/>
  <text x="1490" y="1012" text-anchor="end" font-size="20" fill="#ffffff">kamel3lom | مخطط تخيلي غير معتمد هندسيًا</text>
  <text x="110" y="1012" font-size="20" fill="#ffffff">shami-studio-2100</text>
</svg>