<svg xmlns="http://www.w3.org/2000/svg" viewBox="0 0 1600 1050" role="img" aria-label="Concept architectural 2D plan">
  <defs>
    <pattern id="grid-shami-apartment-3800" width="24" height="24" patternUnits="userSpaceOnUse">
      <path d="M 24 0 L 0 0 0 24" fill="none" stroke="#94a3b8" stroke-width="1" opacity=".18"/>
    </pattern>
  </defs>
  <rect width="1600" height="1050" fill="#f5efe3"/>
  <rect x="70" y="70" width="1460" height="900" fill="url(#grid-shami-apartment-3800)" stroke="#263238" stroke-width="3"/>
  <text x="1490" y="118" text-anchor="end" font-size="40" font-weight="900" fill="#263238">مخطط معماري مبدئي - شقة شامي</text>
  <text x="1490" y="158" text-anchor="end" font-size="24" fill="#263238">الفئة: 3800-3899 م² | الطوابق: 1-8</text>
  <path d="M 118 112 q 18 -34 36 0" fill="none" stroke="#7b3f2a" stroke-width="4"/><path d="M 164 112 q 18 -34 36 0" fill="none" stroke="#7b3f2a" stroke-width="4"/><path d="M 210 112 q 18 -34 36 0" fill="none" stroke="#7b3f2a" stroke-width="4"/><path d="M 256 112 q 18 -34 36 0" fill="none" stroke="#7b3f2a" stroke-width="4"/><path d="M 302 112 q 18 -34 36 0" fill="none" stroke="#7b3f2a" stroke-width="4"/><path d="M 348 112 q 18 -34 36 0" fill="none" stroke="#7b3f2a" stroke-width="4"/><path d="M 394 112 q 18 -34 36 0" fill="none" stroke="#7b3f2a" stroke-width="4"/>
  <g>
            <g>
              <rect x="110.0" y="150.0" width="659.0" height="240.0" fill="#f0dfc2" stroke="#263238" stroke-width="8"/>
              <line x1="132.0" y1="158.0" x2="262.0" y2="158.0" stroke="#8fd4dc" stroke-width="8" stroke-linecap="round"/>
              <path d="M 168.0 390.0 v -52 a 52 52 0 0 0 52 52" fill="none" stroke="#7b3f2a" stroke-width="4"/>
              <rect x="132.0" y="180.0" width="160.0" height="42" rx="10" fill="none" stroke="#263238" stroke-width="3"/><rect x="152.0" y="242.0" width="64" height="36" rx="6" fill="none" stroke="#7b3f2a" stroke-width="3"/>
              <text x="439.5" y="264.0" text-anchor="middle" font-size="30" font-weight="800" fill="#263238">معيشة كبيرة</text>
              <text x="439.5" y="298.0" text-anchor="middle" font-size="20" fill="#263238">828 م²</text>
            </g>
            
            <g>
              <rect x="769.0" y="150.0" width="374.9" height="240.0" fill="#f5efe3" stroke="#263238" stroke-width="8"/>
              <line x1="791.0" y1="158.0" x2="881.0" y2="158.0" stroke="#8fd4dc" stroke-width="8" stroke-linecap="round"/>
              <path d="M 850.0 390.0 v -52 a 52 52 0 0 0 52 52" fill="none" stroke="#7b3f2a" stroke-width="4"/>
              <ellipse cx="874.0" cy="241.2" rx="54" ry="34" fill="none" stroke="#263238" stroke-width="3"/><circle cx="874.0" cy="241.2" r="7" fill="#7b3f2a"/>
              <text x="956.4" y="264.0" text-anchor="middle" font-size="30" font-weight="800" fill="#263238">طعام</text>
              <text x="956.4" y="298.0" text-anchor="middle" font-size="20" fill="#263238">471 م²</text>
            </g>
            
            <g>
              <rect x="1143.9" y="150.0" width="206.1" height="240.0" fill="#d9b27c" stroke="#263238" stroke-width="8"/>
              <line x1="1165.9" y1="158.0" x2="1215.3" y2="158.0" stroke="#8fd4dc" stroke-width="8" stroke-linecap="round"/>
              <path d="M 1247.9 390.0 v -52 a 52 52 0 0 0 52 52" fill="none" stroke="#7b3f2a" stroke-width="4"/>
              <rect x="1167.9" y="178.0" width="61.8" height="42" rx="6" fill="none" stroke="#263238" stroke-width="3"/>
              <text x="1246.9" y="264.0" text-anchor="middle" font-size="30" font-weight="800" fill="#263238">خدمات</text>
              <text x="1246.9" y="298.0" text-anchor="middle" font-size="20" fill="#263238">259 م²</text>
            </g>
            
            <g>
              <rect x="110.0" y="390.0" width="690.0" height="240.0" fill="#f5efe3" stroke="#263238" stroke-width="8"/>
              <line x1="132.0" y1="398.0" x2="262.0" y2="398.0" stroke="#8fd4dc" stroke-width="8" stroke-linecap="round"/>
              <path d="M 237.0 630.0 v -52 a 52 52 0 0 0 52 52" fill="none" stroke="#7b3f2a" stroke-width="4"/>
              <rect x="132.0" y="420.0" width="120.0" height="62" rx="8" fill="none" stroke="#263238" stroke-width="3"/><line x1="132.0" y1="448.0" x2="252.0" y2="448.0" stroke="#263238" stroke-width="2"/>
              <text x="455.0" y="504.0" text-anchor="middle" font-size="30" font-weight="800" fill="#263238">خمس غرف نوم</text>
              <text x="455.0" y="538.0" text-anchor="middle" font-size="20" fill="#263238">611 م²</text>
            </g>
            
            <g>
              <rect x="800.0" y="390.0" width="550.0" height="240.0" fill="#d9b27c" stroke="#263238" stroke-width="8"/>
              <line x1="822.0" y1="398.0" x2="952.0" y2="398.0" stroke="#8fd4dc" stroke-width="8" stroke-linecap="round"/>
              <path d="M 950.0 630.0 v -52 a 52 52 0 0 0 52 52" fill="none" stroke="#7b3f2a" stroke-width="4"/>
              <rect x="822.0" y="414.0" width="150.0" height="24" fill="none" stroke="#263238" stroke-width="3"/><circle cx="852.0" cy="458.0" r="12" fill="none" stroke="#7b3f2a" stroke-width="3"/><circle cx="888.0" cy="458.0" r="12" fill="none" stroke="#7b3f2a" stroke-width="3"/>
              <text x="1075.0" y="504.0" text-anchor="middle" font-size="30" font-weight="800" fill="#263238">مطبخ</text>
              <text x="1075.0" y="538.0" text-anchor="middle" font-size="20" fill="#263238">487 م²</text>
            </g>
            
            <g>
              <rect x="110.0" y="630.0" width="931.1" height="240.0" fill="#f5efe3" stroke="#263238" stroke-width="8"/>
              <line x1="132.0" y1="638.0" x2="262.0" y2="638.0" stroke="#8fd4dc" stroke-width="8" stroke-linecap="round"/>
              <path d="M 283.0 870.0 v -52 a 52 52 0 0 0 52 52" fill="none" stroke="#7b3f2a" stroke-width="4"/>
              <rect x="132.0" y="660.0" width="160.0" height="42" rx="10" fill="none" stroke="#263238" stroke-width="3"/><rect x="152.0" y="722.0" width="64" height="36" rx="6" fill="none" stroke="#7b3f2a" stroke-width="3"/>
              <text x="575.5" y="744.0" text-anchor="middle" font-size="30" font-weight="800" fill="#263238">مجلس</text>
              <text x="575.5" y="778.0" text-anchor="middle" font-size="20" fill="#263238">859 م²</text>
            </g>
            
            <g>
              <rect x="1041.1" y="630.0" width="308.9" height="240.0" fill="#d9b27c" stroke="#263238" stroke-width="8"/>
              <line x1="1063.1" y1="638.0" x2="1137.2" y2="638.0" stroke="#8fd4dc" stroke-width="8" stroke-linecap="round"/>
              <path d="M 1237.1 870.0 v -52 a 52 52 0 0 0 52 52" fill="none" stroke="#7b3f2a" stroke-width="4"/>
              <circle cx="1086.1" cy="678.0" r="20" fill="none" stroke="#7b3f2a" stroke-width="4"/><rect x="1119.1" y="658.0" width="46" height="38" rx="8" fill="none" stroke="#263238" stroke-width="3"/>
              <text x="1195.5" y="744.0" text-anchor="middle" font-size="30" font-weight="800" fill="#263238">ثلاثة حمامات</text>
              <text x="1195.5" y="778.0" text-anchor="middle" font-size="20" fill="#263238">285 م²</text>
            </g>
            </g>
  <line x1="110" y1="910" x2="1350" y2="910" stroke="#263238" stroke-width="3"/>
  <path d="M110 895v30M1350 895v30" stroke="#263238" stroke-width="3"/>
  <text x="730" y="948" text-anchor="middle" font-size="24" fill="#263238">أبعاد ومساحات تقريبية للتصور فقط</text>
  <path d="M1450 890 v-92 m0 0 -22 35 m22-35 22 35" stroke="#7b3f2a" stroke-width="7" stroke-linecap="round" stroke-linejoin="round"/>
  <text x="1450" y="936" text-anchor="middle" font-size="24" fill="#263238">شمال</text>
  <rect x="70" y="980" width="1460" height="46" fill="#263238"/>
  <text x="1490" y="1012" text-anchor="end" font-size="20" fill="#ffffff">kamel3lom | مخطط تخيلي غير معتمد هندسيًا</text>
  <text x="110" y="1012" font-size="20" fill="#ffffff">shami-apartment-3800</text>
</svg>