<svg xmlns="http://www.w3.org/2000/svg" viewBox="0 0 1600 1050" role="img" aria-label="Concept architectural 2D plan">
  <defs>
    <pattern id="grid-shami-simple_commercial-5000" width="24" height="24" patternUnits="userSpaceOnUse">
      <path d="M 24 0 L 0 0 0 24" fill="none" stroke="#94a3b8" stroke-width="1" opacity=".18"/>
    </pattern>
  </defs>
  <rect width="1600" height="1050" fill="#f5efe3"/>
  <rect x="70" y="70" width="1460" height="900" fill="url(#grid-shami-simple_commercial-5000)" stroke="#263238" stroke-width="3"/>
  <text x="1490" y="118" text-anchor="end" font-size="40" font-weight="900" fill="#263238">مخطط معماري مبدئي - تجاري بسيط شامي</text>
  <text x="1490" y="158" text-anchor="end" font-size="24" fill="#263238">الفئة: 5000-5099 م² | الطوابق: 1-8</text>
  <path d="M 118 112 q 18 -34 36 0" fill="none" stroke="#7b3f2a" stroke-width="4"/><path d="M 164 112 q 18 -34 36 0" fill="none" stroke="#7b3f2a" stroke-width="4"/><path d="M 210 112 q 18 -34 36 0" fill="none" stroke="#7b3f2a" stroke-width="4"/><path d="M 256 112 q 18 -34 36 0" fill="none" stroke="#7b3f2a" stroke-width="4"/><path d="M 302 112 q 18 -34 36 0" fill="none" stroke="#7b3f2a" stroke-width="4"/><path d="M 348 112 q 18 -34 36 0" fill="none" stroke="#7b3f2a" stroke-width="4"/><path d="M 394 112 q 18 -34 36 0" fill="none" stroke="#7b3f2a" stroke-width="4"/>
  <g>
            <g>
              <rect x="110.0" y="150.0" width="700.9" height="240.0" fill="#f0dfc2" stroke="#263238" stroke-width="8"/>
              <line x1="132.0" y1="158.0" x2="262.0" y2="158.0" stroke="#8fd4dc" stroke-width="8" stroke-linecap="round"/>
              <path d="M 168.0 390.0 v -52 a 52 52 0 0 0 52 52" fill="none" stroke="#7b3f2a" stroke-width="4"/>
              <rect x="134.0" y="178.0" width="96.0" height="42" rx="6" fill="none" stroke="#263238" stroke-width="3"/>
              <text x="460.5" y="264.0" text-anchor="middle" font-size="30" font-weight="800" fill="#263238">معرض رئيسي</text>
              <text x="460.5" y="298.0" text-anchor="middle" font-size="20" fill="#263238">1178 م²</text>
            </g>
            
            <g>
              <rect x="810.9" y="150.0" width="214.8" height="240.0" fill="#d9b27c" stroke="#263238" stroke-width="8"/>
              <line x1="832.9" y1="158.0" x2="884.5" y2="158.0" stroke="#8fd4dc" stroke-width="8" stroke-linecap="round"/>
              <path d="M 891.9 390.0 v -52 a 52 52 0 0 0 52 52" fill="none" stroke="#7b3f2a" stroke-width="4"/>
              <rect x="834.9" y="178.0" width="64.4" height="42" rx="6" fill="none" stroke="#263238" stroke-width="3"/>
              <text x="918.3" y="264.0" text-anchor="middle" font-size="30" font-weight="800" fill="#263238">خدمات</text>
              <text x="918.3" y="298.0" text-anchor="middle" font-size="20" fill="#263238">361 م²</text>
            </g>
            
            <g>
              <rect x="1025.7" y="150.0" width="324.3" height="240.0" fill="#f0dfc2" stroke="#263238" stroke-width="8"/>
              <line x1="1047.7" y1="158.0" x2="1125.5" y2="158.0" stroke="#8fd4dc" stroke-width="8" stroke-linecap="round"/>
              <path d="M 1129.7 390.0 v -52 a 52 52 0 0 0 52 52" fill="none" stroke="#7b3f2a" stroke-width="4"/>
              <rect x="1049.7" y="178.0" width="96.0" height="42" rx="6" fill="none" stroke="#263238" stroke-width="3"/>
              <text x="1187.9" y="264.0" text-anchor="middle" font-size="30" font-weight="800" fill="#263238">غرفة ميكانيكا</text>
              <text x="1187.9" y="298.0" text-anchor="middle" font-size="20" fill="#263238">545 م²</text>
            </g>
            
            <g>
              <rect x="110.0" y="390.0" width="615.5" height="240.0" fill="#f5efe3" stroke="#263238" stroke-width="8"/>
              <line x1="132.0" y1="398.0" x2="262.0" y2="398.0" stroke="#8fd4dc" stroke-width="8" stroke-linecap="round"/>
              <path d="M 237.0 630.0 v -52 a 52 52 0 0 0 52 52" fill="none" stroke="#7b3f2a" stroke-width="4"/>
              <rect x="134.0" y="418.0" width="96.0" height="42" rx="6" fill="none" stroke="#263238" stroke-width="3"/>
              <text x="417.8" y="504.0" text-anchor="middle" font-size="30" font-weight="800" fill="#263238">مكاتب متعددة</text>
              <text x="417.8" y="538.0" text-anchor="middle" font-size="20" fill="#263238">552 م²</text>
            </g>
            
            <g>
              <rect x="725.5" y="390.0" width="624.5" height="240.0" fill="#f0dfc2" stroke="#263238" stroke-width="8"/>
              <line x1="747.5" y1="398.0" x2="877.5" y2="398.0" stroke="#8fd4dc" stroke-width="8" stroke-linecap="round"/>
              <path d="M 875.5 630.0 v -52 a 52 52 0 0 0 52 52" fill="none" stroke="#7b3f2a" stroke-width="4"/>
              <rect x="749.5" y="418.0" width="96.0" height="42" rx="6" fill="none" stroke="#263238" stroke-width="3"/>
              <text x="1037.8" y="504.0" text-anchor="middle" font-size="30" font-weight="800" fill="#263238">مخازن</text>
              <text x="1037.8" y="538.0" text-anchor="middle" font-size="20" fill="#263238">560 م²</text>
            </g>
            
            <g>
              <rect x="110.0" y="630.0" width="840.0" height="240.0" fill="#f5efe3" stroke="#263238" stroke-width="8"/>
              <line x1="132.0" y1="638.0" x2="262.0" y2="638.0" stroke="#8fd4dc" stroke-width="8" stroke-linecap="round"/>
              <path d="M 283.0 870.0 v -52 a 52 52 0 0 0 52 52" fill="none" stroke="#7b3f2a" stroke-width="4"/>
              <rect x="132.0" y="660.0" width="160.0" height="42" rx="10" fill="none" stroke="#263238" stroke-width="3"/><rect x="152.0" y="722.0" width="64" height="36" rx="6" fill="none" stroke="#7b3f2a" stroke-width="3"/>
              <text x="530.0" y="744.0" text-anchor="middle" font-size="30" font-weight="800" fill="#263238">استقبال</text>
              <text x="530.0" y="778.0" text-anchor="middle" font-size="20" fill="#263238">1222 م²</text>
            </g>
            
            <g>
              <rect x="950.0" y="630.0" width="400.0" height="240.0" fill="#f0dfc2" stroke="#263238" stroke-width="8"/>
              <line x1="972.0" y1="638.0" x2="1068.0" y2="638.0" stroke="#8fd4dc" stroke-width="8" stroke-linecap="round"/>
              <path d="M 1146.0 870.0 v -52 a 52 52 0 0 0 52 52" fill="none" stroke="#7b3f2a" stroke-width="4"/>
              <rect x="974.0" y="658.0" width="96.0" height="42" rx="6" fill="none" stroke="#263238" stroke-width="3"/>
              <text x="1150.0" y="744.0" text-anchor="middle" font-size="30" font-weight="800" fill="#263238">غرفة كهرباء</text>
              <text x="1150.0" y="778.0" text-anchor="middle" font-size="20" fill="#263238">582 م²</text>
            </g>
            </g>
  <line x1="110" y1="910" x2="1350" y2="910" stroke="#263238" stroke-width="3"/>
  <path d="M110 895v30M1350 895v30" stroke="#263238" stroke-width="3"/>
  <text x="730" y="948" text-anchor="middle" font-size="24" fill="#263238">أبعاد ومساحات تقريبية للتصور فقط</text>
  <path d="M1450 890 v-92 m0 0 -22 35 m22-35 22 35" stroke="#7b3f2a" stroke-width="7" stroke-linecap="round" stroke-linejoin="round"/>
  <text x="1450" y="936" text-anchor="middle" font-size="24" fill="#263238">شمال</text>
  <rect x="70" y="980" width="1460" height="46" fill="#263238"/>
  <text x="1490" y="1012" text-anchor="end" font-size="20" fill="#ffffff">kamel3lom | مخطط تخيلي غير معتمد هندسيًا</text>
  <text x="110" y="1012" font-size="20" fill="#ffffff">shami-simple_commercial-5000</text>
</svg>