<svg xmlns="http://www.w3.org/2000/svg" viewBox="0 0 1600 1050" role="img" aria-label="Concept architectural 2D plan">
  <defs>
    <pattern id="grid-shami-apartment-1700" width="24" height="24" patternUnits="userSpaceOnUse">
      <path d="M 24 0 L 0 0 0 24" fill="none" stroke="#94a3b8" stroke-width="1" opacity=".18"/>
    </pattern>
  </defs>
  <rect width="1600" height="1050" fill="#f5efe3"/>
  <rect x="70" y="70" width="1460" height="900" fill="url(#grid-shami-apartment-1700)" stroke="#263238" stroke-width="3"/>
  <text x="1490" y="118" text-anchor="end" font-size="40" font-weight="900" fill="#263238">مخطط معماري مبدئي - شقة شامي</text>
  <text x="1490" y="158" text-anchor="end" font-size="24" fill="#263238">الفئة: 1700-1799 م² | الطوابق: 1-8</text>
  <path d="M 118 112 q 18 -34 36 0" fill="none" stroke="#7b3f2a" stroke-width="4"/><path d="M 164 112 q 18 -34 36 0" fill="none" stroke="#7b3f2a" stroke-width="4"/><path d="M 210 112 q 18 -34 36 0" fill="none" stroke="#7b3f2a" stroke-width="4"/><path d="M 256 112 q 18 -34 36 0" fill="none" stroke="#7b3f2a" stroke-width="4"/><path d="M 302 112 q 18 -34 36 0" fill="none" stroke="#7b3f2a" stroke-width="4"/><path d="M 348 112 q 18 -34 36 0" fill="none" stroke="#7b3f2a" stroke-width="4"/><path d="M 394 112 q 18 -34 36 0" fill="none" stroke="#7b3f2a" stroke-width="4"/>
  <g>
            <g>
              <rect x="110.0" y="150.0" width="599.0" height="240.0" fill="#f0dfc2" stroke="#263238" stroke-width="8"/>
              <line x1="132.0" y1="158.0" x2="262.0" y2="158.0" stroke="#8fd4dc" stroke-width="8" stroke-linecap="round"/>
              <path d="M 168.0 390.0 v -52 a 52 52 0 0 0 52 52" fill="none" stroke="#7b3f2a" stroke-width="4"/>
              <rect x="132.0" y="180.0" width="160.0" height="42" rx="10" fill="none" stroke="#263238" stroke-width="3"/><rect x="152.0" y="242.0" width="64" height="36" rx="6" fill="none" stroke="#7b3f2a" stroke-width="3"/>
              <text x="409.5" y="264.0" text-anchor="middle" font-size="30" font-weight="800" fill="#263238">معيشة</text>
              <text x="409.5" y="298.0" text-anchor="middle" font-size="20" fill="#263238">386 م²</text>
            </g>
            
            <g>
              <rect x="709.0" y="150.0" width="346.1" height="240.0" fill="#d9b27c" stroke="#263238" stroke-width="8"/>
              <line x1="731.0" y1="158.0" x2="814.1" y2="158.0" stroke="#8fd4dc" stroke-width="8" stroke-linecap="round"/>
              <path d="M 790.0 390.0 v -52 a 52 52 0 0 0 52 52" fill="none" stroke="#7b3f2a" stroke-width="4"/>
              <rect x="731.0" y="174.0" width="150.0" height="24" fill="none" stroke="#263238" stroke-width="3"/><circle cx="761.0" cy="218.0" r="12" fill="none" stroke="#7b3f2a" stroke-width="3"/><circle cx="797.0" cy="218.0" r="12" fill="none" stroke="#7b3f2a" stroke-width="3"/>
              <text x="882.1" y="264.0" text-anchor="middle" font-size="30" font-weight="800" fill="#263238">مطبخ</text>
              <text x="882.1" y="298.0" text-anchor="middle" font-size="20" fill="#263238">223 م²</text>
            </g>
            
            <g>
              <rect x="1055.1" y="150.0" width="294.9" height="240.0" fill="#f0dfc2" stroke="#263238" stroke-width="8"/>
              <line x1="1077.1" y1="158.0" x2="1147.9" y2="158.0" stroke="#8fd4dc" stroke-width="8" stroke-linecap="round"/>
              <path d="M 1159.1 390.0 v -52 a 52 52 0 0 0 52 52" fill="none" stroke="#7b3f2a" stroke-width="4"/>
              <rect x="1079.1" y="178.0" width="88.5" height="42" rx="6" fill="none" stroke="#263238" stroke-width="3"/>
              <text x="1202.6" y="264.0" text-anchor="middle" font-size="30" font-weight="800" fill="#263238">شرفة</text>
              <text x="1202.6" y="298.0" text-anchor="middle" font-size="20" fill="#263238">190 م²</text>
            </g>
            
            <g>
              <rect x="110.0" y="390.0" width="889.7" height="240.0" fill="#f5efe3" stroke="#263238" stroke-width="8"/>
              <line x1="132.0" y1="398.0" x2="262.0" y2="398.0" stroke="#8fd4dc" stroke-width="8" stroke-linecap="round"/>
              <path d="M 237.0 630.0 v -52 a 52 52 0 0 0 52 52" fill="none" stroke="#7b3f2a" stroke-width="4"/>
              <rect x="132.0" y="420.0" width="120.0" height="62" rx="8" fill="none" stroke="#263238" stroke-width="3"/><line x1="132.0" y1="448.0" x2="252.0" y2="448.0" stroke="#263238" stroke-width="2"/>
              <text x="554.9" y="504.0" text-anchor="middle" font-size="30" font-weight="800" fill="#263238">أربع غرف نوم</text>
              <text x="554.9" y="538.0" text-anchor="middle" font-size="20" fill="#263238">287 م²</text>
            </g>
            
            <g>
              <rect x="999.7" y="390.0" width="350.3" height="240.0" fill="#d9b27c" stroke="#263238" stroke-width="8"/>
              <line x1="1021.7" y1="398.0" x2="1105.8" y2="398.0" stroke="#8fd4dc" stroke-width="8" stroke-linecap="round"/>
              <path d="M 1149.7 630.0 v -52 a 52 52 0 0 0 52 52" fill="none" stroke="#7b3f2a" stroke-width="4"/>
              <circle cx="1044.7" cy="438.0" r="20" fill="none" stroke="#7b3f2a" stroke-width="4"/><rect x="1077.7" y="418.0" width="46" height="38" rx="8" fill="none" stroke="#263238" stroke-width="3"/>
              <text x="1174.8" y="504.0" text-anchor="middle" font-size="30" font-weight="800" fill="#263238">ثلاثة حمامات</text>
              <text x="1174.8" y="538.0" text-anchor="middle" font-size="20" fill="#263238">113 م²</text>
            </g>
            
            <g>
              <rect x="110.0" y="630.0" width="943.0" height="240.0" fill="#f5efe3" stroke="#263238" stroke-width="8"/>
              <line x1="132.0" y1="638.0" x2="262.0" y2="638.0" stroke="#8fd4dc" stroke-width="8" stroke-linecap="round"/>
              <path d="M 283.0 870.0 v -52 a 52 52 0 0 0 52 52" fill="none" stroke="#7b3f2a" stroke-width="4"/>
              <rect x="132.0" y="660.0" width="160.0" height="42" rx="10" fill="none" stroke="#263238" stroke-width="3"/><rect x="152.0" y="722.0" width="64" height="36" rx="6" fill="none" stroke="#7b3f2a" stroke-width="3"/>
              <text x="581.5" y="744.0" text-anchor="middle" font-size="30" font-weight="800" fill="#263238">مجلس</text>
              <text x="581.5" y="778.0" text-anchor="middle" font-size="20" fill="#263238">381 م²</text>
            </g>
            
            <g>
              <rect x="1053.0" y="630.0" width="297.0" height="240.0" fill="#d9b27c" stroke="#263238" stroke-width="8"/>
              <line x1="1075.0" y1="638.0" x2="1146.3" y2="638.0" stroke="#8fd4dc" stroke-width="8" stroke-linecap="round"/>
              <path d="M 1249.0 870.0 v -52 a 52 52 0 0 0 52 52" fill="none" stroke="#7b3f2a" stroke-width="4"/>
              <rect x="1077.0" y="658.0" width="89.1" height="42" rx="6" fill="none" stroke="#263238" stroke-width="3"/>
              <text x="1201.5" y="744.0" text-anchor="middle" font-size="30" font-weight="800" fill="#263238">غسيل</text>
              <text x="1201.5" y="778.0" text-anchor="middle" font-size="20" fill="#263238">120 م²</text>
            </g>
            </g>
  <line x1="110" y1="910" x2="1350" y2="910" stroke="#263238" stroke-width="3"/>
  <path d="M110 895v30M1350 895v30" stroke="#263238" stroke-width="3"/>
  <text x="730" y="948" text-anchor="middle" font-size="24" fill="#263238">أبعاد ومساحات تقريبية للتصور فقط</text>
  <path d="M1450 890 v-92 m0 0 -22 35 m22-35 22 35" stroke="#7b3f2a" stroke-width="7" stroke-linecap="round" stroke-linejoin="round"/>
  <text x="1450" y="936" text-anchor="middle" font-size="24" fill="#263238">شمال</text>
  <rect x="70" y="980" width="1460" height="46" fill="#263238"/>
  <text x="1490" y="1012" text-anchor="end" font-size="20" fill="#ffffff">kamel3lom | مخطط تخيلي غير معتمد هندسيًا</text>
  <text x="110" y="1012" font-size="20" fill="#ffffff">shami-apartment-1700</text>
</svg>