<svg xmlns="http://www.w3.org/2000/svg" viewBox="0 0 1600 1050" role="img" aria-label="Concept architectural 2D plan">
  <defs>
    <pattern id="grid-shami-simple_commercial-0100" width="24" height="24" patternUnits="userSpaceOnUse">
      <path d="M 24 0 L 0 0 0 24" fill="none" stroke="#94a3b8" stroke-width="1" opacity=".18"/>
    </pattern>
  </defs>
  <rect width="1600" height="1050" fill="#f5efe3"/>
  <rect x="70" y="70" width="1460" height="900" fill="url(#grid-shami-simple_commercial-0100)" stroke="#263238" stroke-width="3"/>
  <text x="1490" y="118" text-anchor="end" font-size="40" font-weight="900" fill="#263238">مخطط معماري مبدئي - تجاري بسيط شامي</text>
  <text x="1490" y="158" text-anchor="end" font-size="24" fill="#263238">الفئة: 100-199 م² | الطوابق: 1-2</text>
  <path d="M 118 112 q 18 -34 36 0" fill="none" stroke="#7b3f2a" stroke-width="4"/><path d="M 164 112 q 18 -34 36 0" fill="none" stroke="#7b3f2a" stroke-width="4"/><path d="M 210 112 q 18 -34 36 0" fill="none" stroke="#7b3f2a" stroke-width="4"/><path d="M 256 112 q 18 -34 36 0" fill="none" stroke="#7b3f2a" stroke-width="4"/><path d="M 302 112 q 18 -34 36 0" fill="none" stroke="#7b3f2a" stroke-width="4"/><path d="M 348 112 q 18 -34 36 0" fill="none" stroke="#7b3f2a" stroke-width="4"/><path d="M 394 112 q 18 -34 36 0" fill="none" stroke="#7b3f2a" stroke-width="4"/>
  <g>
            <g>
              <rect x="110.0" y="150.0" width="946.9" height="360.0" fill="#f0dfc2" stroke="#263238" stroke-width="8"/>
              <line x1="132.0" y1="158.0" x2="262.0" y2="158.0" stroke="#8fd4dc" stroke-width="8" stroke-linecap="round"/>
              <path d="M 168.0 510.0 v -52 a 52 52 0 0 0 52 52" fill="none" stroke="#7b3f2a" stroke-width="4"/>
              <rect x="134.0" y="178.0" width="96.0" height="42" rx="6" fill="none" stroke="#263238" stroke-width="3"/>
              <text x="583.5" y="324.0" text-anchor="middle" font-size="30" font-weight="800" fill="#263238">معرض</text>
              <text x="583.5" y="358.0" text-anchor="middle" font-size="20" fill="#263238">42 م²</text>
            </g>
            
            <g>
              <rect x="1056.9" y="150.0" width="293.1" height="360.0" fill="#d9b27c" stroke="#263238" stroke-width="8"/>
              <line x1="1078.9" y1="158.0" x2="1149.3" y2="158.0" stroke="#8fd4dc" stroke-width="8" stroke-linecap="round"/>
              <path d="M 1137.9 510.0 v -52 a 52 52 0 0 0 52 52" fill="none" stroke="#7b3f2a" stroke-width="4"/>
              <circle cx="1101.9" cy="198.0" r="20" fill="none" stroke="#7b3f2a" stroke-width="4"/><rect x="1134.9" y="178.0" width="46" height="38" rx="8" fill="none" stroke="#263238" stroke-width="3"/>
              <text x="1203.5" y="324.0" text-anchor="middle" font-size="30" font-weight="800" fill="#263238">حمام</text>
              <text x="1203.5" y="358.0" text-anchor="middle" font-size="20" fill="#263238">13 م²</text>
            </g>
            
            <g>
              <rect x="110.0" y="510.0" width="854.2" height="360.0" fill="#f0dfc2" stroke="#263238" stroke-width="8"/>
              <line x1="132.0" y1="518.0" x2="262.0" y2="518.0" stroke="#8fd4dc" stroke-width="8" stroke-linecap="round"/>
              <path d="M 214.0 870.0 v -52 a 52 52 0 0 0 52 52" fill="none" stroke="#7b3f2a" stroke-width="4"/>
              <rect x="134.0" y="538.0" width="96.0" height="42" rx="6" fill="none" stroke="#263238" stroke-width="3"/>
              <text x="537.1" y="684.0" text-anchor="middle" font-size="30" font-weight="800" fill="#263238">مكتب</text>
              <text x="537.1" y="718.0" text-anchor="middle" font-size="20" fill="#263238">31 م²</text>
            </g>
            
            <g>
              <rect x="964.2" y="510.0" width="385.8" height="360.0" fill="#f5efe3" stroke="#263238" stroke-width="8"/>
              <line x1="986.2" y1="518.0" x2="1078.8" y2="518.0" stroke="#8fd4dc" stroke-width="8" stroke-linecap="round"/>
              <path d="M 1091.2 870.0 v -52 a 52 52 0 0 0 52 52" fill="none" stroke="#7b3f2a" stroke-width="4"/>
              <rect x="988.2" y="538.0" width="96.0" height="42" rx="6" fill="none" stroke="#263238" stroke-width="3"/>
              <text x="1157.1" y="684.0" text-anchor="middle" font-size="30" font-weight="800" fill="#263238">مخزن</text>
              <text x="1157.1" y="718.0" text-anchor="middle" font-size="20" fill="#263238">14 م²</text>
            </g>
            </g>
  <line x1="110" y1="910" x2="1350" y2="910" stroke="#263238" stroke-width="3"/>
  <path d="M110 895v30M1350 895v30" stroke="#263238" stroke-width="3"/>
  <text x="730" y="948" text-anchor="middle" font-size="24" fill="#263238">أبعاد ومساحات تقريبية للتصور فقط</text>
  <path d="M1450 890 v-92 m0 0 -22 35 m22-35 22 35" stroke="#7b3f2a" stroke-width="7" stroke-linecap="round" stroke-linejoin="round"/>
  <text x="1450" y="936" text-anchor="middle" font-size="24" fill="#263238">شمال</text>
  <rect x="70" y="980" width="1460" height="46" fill="#263238"/>
  <text x="1490" y="1012" text-anchor="end" font-size="20" fill="#ffffff">kamel3lom | مخطط تخيلي غير معتمد هندسيًا</text>
  <text x="110" y="1012" font-size="20" fill="#ffffff">shami-simple_commercial-0100</text>
</svg>